<svg width="24" height="25" viewBox="0 0 24 25" fill="none" xmlns="http://www.w3.org/2000/svg">
<g id="Component 7">
<path id="Vector" d="M12 22.4277C7.75736 22.4277 5.63604 22.4277 4.31802 20.9633C3 19.4988 3 17.1418 3 12.4277C3 7.71368 3 5.35666 4.31802 3.89219C5.63604 2.42773 7.75736 2.42773 12 2.42773C16.2426 2.42773 18.364 2.42773 19.682 3.89219C21 5.35666 21 7.71368 21 12.4277C21 17.1418 21 19.4988 19.682 20.9633C18.364 22.4277 16.2426 22.4277 12 22.4277Z" stroke="#494848" stroke-width="1.5" stroke-linecap="round" stroke-linejoin="round"/>
<path id="Vector_2" d="M8 2.92773V10.2539C8 11.501 8 12.1246 8.38642 12.3478C9.13473 12.78 10.5384 11.338 11.205 10.9038C11.5916 10.652 11.7849 10.5261 12 10.5261C12.2151 10.5261 12.4084 10.652 12.795 10.9038C13.4616 11.338 14.8653 12.78 15.6136 12.3478C16 12.1246 16 11.501 16 10.2539V2.92773" stroke="#494848" stroke-width="1.5" stroke-linecap="round" stroke-linejoin="round"/>
</g>
</svg>
