<svg width="24" height="25" viewBox="0 0 24 25" fill="none" xmlns="http://www.w3.org/2000/svg">
<g id="BoxArrowUp">
<path id="Vector" d="M20.9212 6.91438L19.4212 3.91438C19.3589 3.78977 19.2631 3.685 19.1445 3.61181C19.0259 3.53862 18.8893 3.4999 18.75 3.5H5.25C5.11067 3.4999 4.97406 3.53862 4.8555 3.61181C4.73693 3.685 4.6411 3.78977 4.57875 3.91438L3.07875 6.91438C3.02705 7.01871 3.00011 7.13356 3 7.25V20C3 20.3978 3.15804 20.7794 3.43934 21.0607C3.72064 21.342 4.10218 21.5 4.5 21.5H19.5C19.8978 21.5 20.2794 21.342 20.5607 21.0607C20.842 20.7794 21 20.3978 21 20V7.25C20.9999 7.13356 20.9729 7.01871 20.9212 6.91438ZM5.71312 5H18.2869L19.0369 6.5H4.96312L5.71312 5ZM19.5 20H4.5V8H19.5V20ZM15.5306 12.7194C15.6003 12.7891 15.6556 12.8718 15.6933 12.9628C15.731 13.0539 15.7504 13.1515 15.7504 13.25C15.7504 13.3485 15.731 13.4461 15.6933 13.5372C15.6556 13.6282 15.6003 13.7109 15.5306 13.7806C15.4609 13.8503 15.3782 13.9056 15.2872 13.9433C15.1961 13.981 15.0985 14.0004 15 14.0004C14.9015 14.0004 14.8039 13.981 14.7128 13.9433C14.6218 13.9056 14.5391 13.8503 14.4694 13.7806L12.75 12.0603V17.75C12.75 17.9489 12.671 18.1397 12.5303 18.2803C12.3897 18.421 12.1989 18.5 12 18.5C11.8011 18.5 11.6103 18.421 11.4697 18.2803C11.329 18.1397 11.25 17.9489 11.25 17.75V12.0603L9.53063 13.7806C9.46094 13.8503 9.37822 13.9056 9.28717 13.9433C9.19613 13.981 9.09855 14.0004 9 14.0004C8.90145 14.0004 8.80387 13.981 8.71283 13.9433C8.62178 13.9056 8.53906 13.8503 8.46937 13.7806C8.39969 13.7109 8.34442 13.6282 8.3067 13.5372C8.26899 13.4461 8.24958 13.3485 8.24958 13.25C8.24958 13.1515 8.26899 13.0539 8.3067 12.9628C8.34442 12.8718 8.39969 12.7891 8.46937 12.7194L11.4694 9.71937C11.539 9.64964 11.6217 9.59432 11.7128 9.55658C11.8038 9.51884 11.9014 9.49941 12 9.49941C12.0986 9.49941 12.1962 9.51884 12.2872 9.55658C12.3783 9.59432 12.461 9.64964 12.5306 9.71937L15.5306 12.7194Z" fill="white"/>
</g>
</svg>
