<svg width="16" height="17" viewBox="0 0 16 17" fill="none" xmlns="http://www.w3.org/2000/svg">
<path d="M7.64597 11.854L2.64597 6.85403C2.59952 6.80757 2.56267 6.75242 2.53753 6.69173C2.51238 6.63103 2.49944 6.56598 2.49944 6.50028C2.49944 6.43458 2.51238 6.36953 2.53753 6.30883C2.56267 6.24813 2.59952 6.19298 2.64597 6.14653C2.69243 6.10007 2.74758 6.06322 2.80827 6.03808C2.86897 6.01294 2.93402 6 2.99972 6C3.06542 6 3.13047 6.01294 3.19117 6.03808C3.25187 6.06322 3.30702 6.10007 3.35347 6.14653L7.99972 10.7934L12.646 6.14653C12.7398 6.05271 12.867 6 12.9997 6C13.1324 6 13.2597 6.05271 13.3535 6.14653C13.4473 6.24035 13.5 6.3676 13.5 6.50028C13.5 6.63296 13.4473 6.76021 13.3535 6.85403L8.35347 11.854C8.30704 11.9005 8.25189 11.9374 8.19119 11.9626C8.13049 11.9877 8.06543 12.0007 7.99972 12.0007C7.93401 12.0007 7.86895 11.9877 7.80825 11.9626C7.74755 11.9374 7.69241 11.9005 7.64597 11.854Z" fill="#A3A3A3"/>
</svg>
