<svg width="25" height="25" viewBox="0 0 25 25" fill="none" xmlns="http://www.w3.org/2000/svg">
<g id="delete-02">
<path id="Vector" d="M20 6.375L19.3803 16.4001C19.2219 18.9614 19.1428 20.2421 18.5008 21.1629C18.1833 21.6181 17.7747 22.0023 17.3007 22.291C16.3421 22.875 15.059 22.875 12.4927 22.875C9.92312 22.875 8.6383 22.875 7.67905 22.2899C7.2048 22.0007 6.796 21.6158 6.47868 21.1598C5.83688 20.2376 5.75945 18.9551 5.60461 16.3902L5 6.375" stroke="#FF0000" stroke-width="1.5" stroke-linecap="round"/>
<path id="Vector_2" d="M3.5 6.375H21.5M16.5557 6.375L15.8731 4.96673C15.4196 4.03126 15.1928 3.56352 14.8017 3.27181C14.715 3.2071 14.6231 3.14954 14.527 3.0997C14.0939 2.875 13.5741 2.875 12.5345 2.875C11.4688 2.875 10.936 2.875 10.4957 3.10912C10.3981 3.16101 10.305 3.2209 10.2173 3.28817C9.82164 3.5917 9.60063 4.07655 9.15861 5.04626L8.55292 6.375" stroke="#FF0000" stroke-width="1.5" stroke-linecap="round"/>
<path id="Vector_3" d="M10 17.375V11.375" stroke="#FF0000" stroke-width="1.5" stroke-linecap="round"/>
<path id="Vector_4" d="M15 17.375V11.375" stroke="#FF0000" stroke-width="1.5" stroke-linecap="round"/>
</g>
</svg>
