<svg width="24" height="25" viewBox="0 0 24 25" fill="none" xmlns="http://www.w3.org/2000/svg">
<g id="FolderPlus">
<path id="Vector" d="M20.25 7.25001H12.3103L9.75 4.68969C9.61122 4.5498 9.44601 4.43889 9.26398 4.36341C9.08196 4.28792 8.88674 4.24938 8.68969 4.25001H3.75C3.35218 4.25001 2.97064 4.40804 2.68934 4.68935C2.40804 4.97065 2.25 5.35218 2.25 5.75001V19.3081C2.2505 19.6904 2.40257 20.0568 2.67286 20.3271C2.94316 20.5974 3.30962 20.7495 3.69188 20.75H20.3334C20.709 20.7495 21.069 20.6001 21.3346 20.3346C21.6001 20.069 21.7495 19.709 21.75 19.3334V8.75001C21.75 8.35218 21.592 7.97065 21.3107 7.68935C21.0294 7.40804 20.6478 7.25001 20.25 7.25001ZM8.68969 5.75001L10.1897 7.25001H3.75V5.75001H8.68969ZM20.25 19.25H3.75V8.75001H20.25V19.25ZM12 11C12.1989 11 12.3897 11.079 12.5303 11.2197C12.671 11.3603 12.75 11.5511 12.75 11.75V13.25H14.25C14.4489 13.25 14.6397 13.329 14.7803 13.4697C14.921 13.6103 15 13.8011 15 14C15 14.1989 14.921 14.3897 14.7803 14.5303C14.6397 14.671 14.4489 14.75 14.25 14.75H12.75V16.25C12.75 16.4489 12.671 16.6397 12.5303 16.7803C12.3897 16.921 12.1989 17 12 17C11.8011 17 11.6103 16.921 11.4697 16.7803C11.329 16.6397 11.25 16.4489 11.25 16.25V14.75H9.75C9.55109 14.75 9.36032 14.671 9.21967 14.5303C9.07902 14.3897 9 14.1989 9 14C9 13.8011 9.07902 13.6103 9.21967 13.4697C9.36032 13.329 9.55109 13.25 9.75 13.25H11.25V11.75C11.25 11.5511 11.329 11.3603 11.4697 11.2197C11.6103 11.079 11.8011 11 12 11Z" fill="white"/>
</g>
</svg>
