<svg width="9" height="8" viewBox="0 0 9 8" fill="none" xmlns="http://www.w3.org/2000/svg">
<g id="square-lock-01">
<path id="Vector" d="M1.92228 6.28157C1.99724 6.83833 2.45838 7.2745 3.01956 7.3003C3.49176 7.322 3.97144 7.33333 4.49967 7.33333C5.02791 7.33333 5.50757 7.322 5.97977 7.3003C6.54097 7.2745 7.00211 6.83833 7.07708 6.28157C7.12601 5.91823 7.16634 5.54587 7.16634 5.16667C7.16634 4.78747 7.12601 4.4151 7.07708 4.05177C7.00211 3.495 6.54097 3.05883 5.97977 3.03303C5.50757 3.01132 5.02791 3 4.49967 3C3.97144 3 3.49176 3.01132 3.01956 3.03303C2.45838 3.05883 1.99724 3.495 1.92228 4.05177C1.87335 4.4151 1.83301 4.78747 1.83301 5.16667C1.83301 5.54587 1.87335 5.91823 1.92228 6.28157Z" fill="#494848" stroke="#494848" stroke-width="0.5"/>
<path id="Vector_2" d="M3 3.00008V2.16675C3 1.33832 3.67157 0.666748 4.5 0.666748C5.32843 0.666748 6 1.33832 6 2.16675V3.00008" stroke="#494848" stroke-width="0.5" stroke-linecap="round" stroke-linejoin="round"/>
</g>
</svg>
