<svg width="24" height="24" viewBox="0 0 24 24" fill="none" xmlns="http://www.w3.org/2000/svg">
<g id="9043838_arrow_shift_down_icon 1" clip-path="url(#clip0_1180_21620)">
<path id="Union" fill-rule="evenodd" clip-rule="evenodd" d="M17.2498 12V19.5C17.2493 19.8977 17.0911 20.2789 16.8099 20.5601C16.5287 20.8413 16.1475 20.9995 15.7498 21H8.24984C7.85216 20.9995 7.47089 20.8414 7.18968 20.5602C6.90848 20.279 6.7503 19.8977 6.74984 19.5V12H2.99984C2.85153 12 2.70655 11.956 2.58325 11.8736C2.45994 11.7911 2.36383 11.674 2.30708 11.537C2.25033 11.4 2.23548 11.2492 2.2644 11.1037C2.29333 10.9583 2.36473 10.8246 2.46959 10.7197L11.4696 1.71975C11.5392 1.65007 11.6219 1.5948 11.7128 1.55709C11.8038 1.51938 11.9014 1.49997 11.9998 1.49997C12.0983 1.49997 12.1959 1.51938 12.2868 1.55709C12.3778 1.5948 12.4605 1.65007 12.5301 1.71975L21.5301 10.7197C21.6349 10.8246 21.7064 10.9583 21.7353 11.1037C21.7642 11.2492 21.7494 11.4 21.6926 11.537C21.6358 11.674 21.5397 11.7911 21.4164 11.8736C21.2931 11.956 21.1482 12 20.9998 12H17.2498Z" fill="black"/>
</g>
<defs>
<clipPath id="clip0_1180_21620">
<rect width="24" height="24" fill="white" transform="matrix(1 0 0 -1 0 24)"/>
</clipPath>
</defs>
</svg>
