<svg width="16" height="17" viewBox="0 0 16 17" fill="none" xmlns="http://www.w3.org/2000/svg">
<g id="9043838_arrow_shift_down_icon 2" clip-path="url(#clip0_1983_19908)">
<path id="Vector" d="M11.4999 13.875V8.875H13.9999C14.0988 8.87498 14.1954 8.84564 14.2776 8.7907C14.3598 8.73576 14.4239 8.65768 14.4617 8.56633C14.4996 8.47498 14.5095 8.37446 14.4902 8.27748C14.4709 8.18051 14.4233 8.09142 14.3534 8.0215L8.35339 2.0215C8.30699 1.97505 8.25188 1.9382 8.19122 1.91306C8.13057 1.88792 8.06555 1.87498 7.99989 1.87498C7.93423 1.87498 7.86922 1.88792 7.80856 1.91306C7.74791 1.9382 7.6928 1.97505 7.64639 2.0215L1.64639 8.0215C1.57649 8.09142 1.52889 8.18051 1.5096 8.27748C1.49032 8.37446 1.50022 8.47498 1.53805 8.56633C1.57589 8.65768 1.63996 8.73576 1.72216 8.7907C1.80437 8.84564 1.90102 8.87498 1.99989 8.875H4.49989V13.875C4.5002 14.1401 4.60565 14.3943 4.79312 14.5818C4.98059 14.7692 5.23477 14.8747 5.49989 14.875H10.4999C10.765 14.8746 11.0191 14.7692 11.2066 14.5817C11.3941 14.3943 11.4995 14.1401 11.4999 13.875ZM7.99989 3.08205L12.7928 7.875H10.4999V13.875H5.49989V7.875H3.20694L7.99989 3.08205Z" fill="#494848"/>
</g>
<defs>
<clipPath id="clip0_1983_19908">
<rect width="16" height="16" fill="white" transform="matrix(1 0 0 -1 0 16.875)"/>
</clipPath>
</defs>
</svg>
