<svg width="24" height="25" viewBox="0 0 24 25" fill="none" xmlns="http://www.w3.org/2000/svg">
<g id="UserPlus">
<path id="Vector" d="M24 13.2537C24 13.4527 23.921 13.6434 23.7803 13.7841C23.6397 13.9247 23.4489 14.0037 23.25 14.0037H21.75V15.5037C21.75 15.7027 21.671 15.8934 21.5303 16.0341C21.3897 16.1747 21.1989 16.2537 21 16.2537C20.8011 16.2537 20.6103 16.1747 20.4697 16.0341C20.329 15.8934 20.25 15.7027 20.25 15.5037V14.0037H18.75C18.5511 14.0037 18.3603 13.9247 18.2197 13.7841C18.079 13.6434 18 13.4527 18 13.2537C18 13.0548 18.079 12.8641 18.2197 12.7234C18.3603 12.5828 18.5511 12.5037 18.75 12.5037H20.25V11.0037C20.25 10.8048 20.329 10.6141 20.4697 10.4734C20.6103 10.3328 20.8011 10.2537 21 10.2537C21.1989 10.2537 21.3897 10.3328 21.5303 10.4734C21.671 10.6141 21.75 10.8048 21.75 11.0037V12.5037H23.25C23.4489 12.5037 23.6397 12.5828 23.7803 12.7234C23.921 12.8641 24 13.0548 24 13.2537ZM18.5747 18.7709C18.7027 18.9234 18.765 19.1204 18.7478 19.3187C18.7305 19.517 18.6352 19.7004 18.4828 19.8284C18.3304 19.9565 18.1334 20.0187 17.935 20.0015C17.7367 19.9843 17.5534 19.889 17.4253 19.7366C15.5391 17.4903 12.9459 16.2537 10.125 16.2537C7.30406 16.2537 4.71094 17.4903 2.82469 19.7366C2.69664 19.8889 2.51334 19.984 2.3151 20.0012C2.11687 20.0183 1.91995 19.956 1.76766 19.828C1.61536 19.6999 1.52018 19.5166 1.50304 19.3184C1.48589 19.1202 1.5482 18.9232 1.67625 18.7709C3.07688 17.1041 4.81875 15.92 6.75469 15.2862C5.57897 14.554 4.67374 13.4587 4.17594 12.1661C3.67814 10.8736 3.61486 9.45403 3.99567 8.1223C4.37649 6.79057 5.18067 5.61909 6.28657 4.7851C7.39246 3.95112 8.73989 3.5 10.125 3.5C11.5101 3.5 12.8575 3.95112 13.9634 4.7851C15.0693 5.61909 15.8735 6.79057 16.2543 8.1223C16.6351 9.45403 16.5719 10.8736 16.0741 12.1661C15.5763 13.4587 14.671 14.554 13.4953 15.2862C15.4312 15.92 17.1731 17.1041 18.5747 18.7709ZM10.125 14.7537C11.0892 14.7537 12.0317 14.4678 12.8334 13.9322C13.6351 13.3965 14.2599 12.6351 14.6289 11.7443C14.9979 10.8535 15.0944 9.87334 14.9063 8.92768C14.7182 7.98203 14.2539 7.11338 13.5721 6.4316C12.8904 5.74982 12.0217 5.28552 11.0761 5.09742C10.1304 4.90932 9.15021 5.00586 8.25942 5.37484C7.36863 5.74381 6.60726 6.36866 6.07159 7.17034C5.53591 7.97203 5.25 8.91457 5.25 9.87875C5.25149 11.1712 5.76558 12.4103 6.6795 13.3243C7.59342 14.2382 8.83253 14.7523 10.125 14.7537Z" fill="#494848"/>
</g>
</svg>
