<svg width="20" height="20" viewBox="0 0 20 20" fill="none" xmlns="http://www.w3.org/2000/svg">
<path d="M18.9 5.8999C18.7 5.1999 18.1 4.5999 17.4 4.3999C16 3.8999 10 3.8999 10 3.8999C10 3.8999 4 3.8999 2.6 4.3999C1.9 4.5999 1.3 5.1999 1.1 5.8999C0.7 7.3999 0.7 10.0999 0.7 10.0999C0.7 10.0999 0.7 12.8999 1.1 14.2999C1.3 14.9999 1.9 15.5999 2.6 15.7999C4 16.2999 10 16.2999 10 16.2999C10 16.2999 16 16.2999 17.4 15.7999C18.1 15.5999 18.7 14.9999 18.9 14.2999C19.3 12.8999 19.3 10.0999 19.3 10.0999C19.3 10.0999 19.3 7.3999 18.9 5.8999Z" stroke="white" stroke-width="1.5" stroke-linecap="round" stroke-linejoin="round"/>
<path d="M8.19995 12.7L12.7 10.1L8.19995 7.5V12.7Z" stroke="white" stroke-width="1.5" stroke-linecap="round" stroke-linejoin="round"/>
</svg> 