<svg width="16" height="17" viewBox="0 0 16 17" fill="none" xmlns="http://www.w3.org/2000/svg">
<g id="4375133_logo_youtube_icon 1">
<g id="_x33_95-youtube">
<g id="Group">
<path id="Vector" d="M14.8871 5.4037C14.7217 4.78123 14.2346 4.29095 13.6161 4.12455C12.4951 3.82227 7.99997 3.82227 7.99997 3.82227C7.99997 3.82227 3.50481 3.82227 2.38375 4.12458C1.76528 4.29098 1.27819 4.78123 1.11288 5.40373C0.8125 6.53202 0.8125 8.88617 0.8125 8.88617C0.8125 8.88617 0.8125 11.2404 1.11288 12.3686C1.27819 12.9911 1.76528 13.461 2.38375 13.6274C3.50481 13.9297 7.99997 13.9297 7.99997 13.9297C7.99997 13.9297 12.4951 13.9297 13.6161 13.6274C14.2346 13.4609 14.7217 12.9911 14.8871 12.3686C15.1874 11.2403 15.1874 8.88614 15.1874 8.88614C15.1874 8.88614 15.1874 6.53202 14.8871 5.4037Z" fill="#FF0000"/>
<path id="Vector_2" d="M6.5293 11.0228V6.74805L10.2864 8.88548L6.5293 11.0228Z" fill="white"/>
</g>
</g>
</g>
</svg>
