<svg width="25" height="24" viewBox="0 0 25 24" fill="none" xmlns="http://www.w3.org/2000/svg">
<g id="ai-content-generator-01">
<path id="Vector" d="M11.4531 21H10.4531C6.68189 21 4.79628 21 3.6247 19.8284C2.45313 18.6569 2.45312 16.7712 2.45312 13V10C2.45312 6.22876 2.45313 4.34315 3.6247 3.17157C4.79628 2 6.68189 2 10.4531 2H12.4531C16.2243 2 18.11 2 19.2815 3.17157C20.4531 4.34315 20.4531 6.22876 20.4531 10V10.5" stroke="#41C1CB" stroke-width="1.5" stroke-linecap="round" stroke-linejoin="round"/>
<path id="Vector_2" d="M17.86 14.4036C18.0723 13.8655 18.8339 13.8655 19.0462 14.4036L19.0829 14.4969C19.6013 15.8113 20.6418 16.8518 21.9562 17.3702L22.0495 17.4069C22.5876 17.6192 22.5876 18.3808 22.0495 18.5931L21.9562 18.6298C20.6418 19.1482 19.6013 20.1887 19.0829 21.5031L19.0462 21.5964C18.8339 22.1345 18.0723 22.1345 17.86 21.5964L17.8233 21.5031C17.3049 20.1887 16.2644 19.1482 14.95 18.6298L14.8567 18.5931C14.3186 18.3808 14.3186 17.6192 14.8567 17.4069L14.95 17.3702C16.2644 16.8518 17.3049 15.8113 17.8233 14.4969L17.86 14.4036Z" stroke="#41C1CB" stroke-width="1.5" stroke-linecap="round" stroke-linejoin="round"/>
<path id="Vector_3" d="M7.45312 7H15.4531M7.45312 11.5H15.4531M7.45312 16H11.4531" stroke="#41C1CB" stroke-width="1.5" stroke-linecap="round" stroke-linejoin="round"/>
</g>
</svg>
