<svg width="25" height="24" viewBox="0 0 25 24" fill="none" xmlns="http://www.w3.org/2000/svg">
<g id="arrange">
<path id="Vector" d="M3.45312 4.5C3.45312 3.67157 4.1247 3 4.95312 3H6.95312C7.78155 3 8.45312 3.67157 8.45312 4.5V6.5C8.45312 7.32843 7.78155 8 6.95312 8H4.95312C4.1247 8 3.45312 7.32843 3.45312 6.5V4.5Z" stroke="#41C1CB" stroke-width="1.5"/>
<path id="Vector_2" d="M3.45312 17.5C3.45312 16.6716 4.1247 16 4.95312 16H6.95312C7.78155 16 8.45312 16.6716 8.45312 17.5V19.5C8.45312 20.3284 7.78155 21 6.95312 21H4.95312C4.1247 21 3.45312 20.3284 3.45312 19.5V17.5Z" stroke="#41C1CB" stroke-width="1.5"/>
<path id="Vector_3" d="M8.4529 18.5H21.4529M16.4529 5.5H8.4529M16.7764 7.67649L8.10156 16.3513" stroke="#41C1CB" stroke-width="1.5" stroke-linecap="round" stroke-linejoin="round"/>
<path id="Vector_4" d="M16.4531 4.5C16.4531 3.67157 17.1247 3 17.9531 3H19.9531C20.7815 3 21.4531 3.67157 21.4531 4.5V6.5C21.4531 7.32843 20.7815 8 19.9531 8H17.9531C17.1247 8 16.4531 7.32843 16.4531 6.5V4.5Z" stroke="#41C1CB" stroke-width="1.5"/>
<path id="Vector_5" d="M18.4531 21L19.8414 20.0537C20.9159 19.3213 21.4531 18.9551 21.4531 18.5C21.4531 18.0449 20.9159 17.6787 19.8414 16.9463L18.4531 16" stroke="#41C1CB" stroke-width="1.5" stroke-linecap="round" stroke-linejoin="round"/>
</g>
</svg>
