<svg width="25" height="24" viewBox="0 0 25 24" fill="none" xmlns="http://www.w3.org/2000/svg">
<g id="idea">
<path id="Vector" d="M7.0425 14.9993C6.66409 14.1487 6.45312 13.2024 6.45312 12.2052C6.45312 8.5016 9.36328 5.49927 12.9531 5.49927C16.543 5.49927 19.4531 8.5016 19.4531 12.2052C19.4531 13.2024 19.2421 14.1487 18.8637 14.9993" stroke="#41C1CB" stroke-width="1.5" stroke-linecap="round"/>
<path id="Vector_2" d="M12.9531 1.99927V2.99927" stroke="#41C1CB" stroke-width="1.5" stroke-linecap="round" stroke-linejoin="round"/>
<path id="Vector_3" d="M22.9531 11.9993H21.9531" stroke="#41C1CB" stroke-width="1.5" stroke-linecap="round" stroke-linejoin="round"/>
<path id="Vector_4" d="M3.95312 11.9993H2.95312" stroke="#41C1CB" stroke-width="1.5" stroke-linecap="round" stroke-linejoin="round"/>
<path id="Vector_5" d="M20.0235 4.92798L19.3164 5.63509" stroke="#41C1CB" stroke-width="1.5" stroke-linecap="round" stroke-linejoin="round"/>
<path id="Vector_6" d="M6.58992 5.63607L5.88281 4.92896" stroke="#41C1CB" stroke-width="1.5" stroke-linecap="round" stroke-linejoin="round"/>
<path id="Vector_7" d="M15.4687 19.3057C16.4791 18.9789 16.8843 18.0541 16.9983 17.1239C17.0323 16.846 16.8037 16.6155 16.5237 16.6155L9.42852 16.6157C9.13892 16.6157 8.90634 16.8615 8.94092 17.149C9.05257 18.0774 9.33437 18.7556 10.4051 19.3057M15.4687 19.3057C15.4687 19.3057 10.5814 19.3057 10.4051 19.3057M15.4687 19.3057C15.3472 21.2507 14.7855 22.021 12.9585 21.9994C11.0043 22.0355 10.5547 21.0834 10.4051 19.3057" stroke="#41C1CB" stroke-width="1.5" stroke-linecap="round" stroke-linejoin="round"/>
</g>
</svg>
