<svg width="25" height="24" viewBox="0 0 25 24" fill="none" xmlns="http://www.w3.org/2000/svg">
<g id="knowledge-02">
<path id="Vector" d="M8.45312 10H7.45312C6.03892 10 5.33181 10 4.89247 9.56066C4.45313 9.12132 4.45312 8.41421 4.45312 7C4.45312 5.58579 4.45313 4.87868 4.89247 4.43934C5.33181 4 6.03892 4 7.45312 4H8.45312C9.86733 4 10.5744 4 11.0138 4.43934C11.4531 4.87868 11.4531 5.58579 11.4531 7C11.4531 8.41421 11.4531 9.12132 11.0138 9.56066C10.5744 10 9.86733 10 8.45312 10Z" stroke="#41C1CB" stroke-width="1.5" stroke-linecap="round" stroke-linejoin="round"/>
<path id="Vector_2" d="M4.45312 6H2.95312" stroke="#41C1CB" stroke-width="1.5" stroke-linecap="round" stroke-linejoin="round"/>
<path id="Vector_3" d="M22.9531 6H21.4531" stroke="#41C1CB" stroke-width="1.5" stroke-linecap="round" stroke-linejoin="round"/>
<path id="Vector_4" d="M17.4531 10H18.4531C19.8673 10 20.5744 10 21.0138 9.56066C21.4531 9.12132 21.4531 8.41421 21.4531 7C21.4531 5.58579 21.4531 4.87868 21.0138 4.43934C20.5744 4 19.8673 4 18.4531 4H17.4531C16.0389 4 15.3318 4 14.8924 4.43934C14.4531 4.87868 14.4531 5.58579 14.4531 7C14.4531 8.41421 14.4531 9.12132 14.8924 9.56066C15.3318 10 16.0389 10 17.4531 10Z" stroke="#41C1CB" stroke-width="1.5" stroke-linecap="round" stroke-linejoin="round"/>
<path id="Vector_5" d="M14.4531 6C14.4531 5.17157 13.7815 4.5 12.9531 4.5C12.1247 4.5 11.4531 5.17157 11.4531 6" stroke="#41C1CB" stroke-width="1.5"/>
<path id="Vector_6" d="M21.9531 14H6.95312C6.02125 14 5.55531 14 5.18776 14.1522C4.69771 14.3552 4.30836 14.7446 4.10537 15.2346C3.95313 15.6022 3.95312 16.0681 3.95312 17C3.95312 17.9319 3.95313 18.3978 4.10537 18.7654C4.30836 19.2554 4.69771 19.6448 5.18776 19.8478C5.55531 20 6.02125 20 6.95312 20H21.9531" stroke="#41C1CB" stroke-width="1.5" stroke-linecap="round" stroke-linejoin="round"/>
<path id="Vector_7" d="M20.9531 20C19.8485 20 18.9531 18.6569 18.9531 17C18.9531 15.3431 19.8485 14 20.9531 14" stroke="#41C1CB" stroke-width="1.5" stroke-linecap="round" stroke-linejoin="round"/>
</g>
</svg>
