<svg width="25" height="24" viewBox="0 0 25 24" fill="none" xmlns="http://www.w3.org/2000/svg">
<g id="online-learning-01">
<path id="Vector" d="M7.03562 7.23786C10.0427 7.768 11.8349 8.87693 12.4531 9.51357C13.0713 8.87693 14.8635 7.768 17.8706 7.23786C19.394 6.96929 20.1557 6.83501 20.8044 7.3497C21.4531 7.8644 21.4531 8.70019 21.4531 10.3718V16.3791C21.4531 17.9076 21.4531 18.6718 21.0368 19.1489C20.6204 19.626 19.7038 19.7876 17.8706 20.1108C16.2364 20.3989 14.961 20.8579 14.0378 21.3192C13.1296 21.7731 12.6754 22 12.4531 22C12.2308 22 11.7766 21.7731 10.8684 21.3192C9.94523 20.8579 8.66982 20.3989 7.03562 20.1108C5.20241 19.7876 4.28581 19.626 3.86947 19.1489C3.45313 18.6718 3.45312 17.9076 3.45312 16.3791V10.3718C3.45312 8.70019 3.45312 7.8644 4.10182 7.3497C4.75054 6.83501 5.51223 6.96929 7.03562 7.23786Z" stroke="#41C1CB" stroke-width="1.5" stroke-linecap="round" stroke-linejoin="round"/>
<path id="Vector_2" d="M12.4531 9V22" stroke="#41C1CB" stroke-width="1.5" stroke-linejoin="round"/>
<path id="Vector_3" d="M8.95312 3.05857C9.96449 2.38797 11.162 2 12.4457 2C13.7356 2 14.9386 2.39177 15.9531 3.06841M14.0753 5.5C13.5952 5.21025 13.0388 5.04459 12.4457 5.04459C11.8589 5.04459 11.3081 5.20674 10.8315 5.49078" stroke="#41C1CB" stroke-width="1.5" stroke-linecap="round"/>
</g>
</svg>
