<svg width="25" height="24" viewBox="0 0 25 24" fill="none" xmlns="http://www.w3.org/2000/svg">
<g id="progress-04">
<path id="Vector" d="M12.9531 22C18.476 22 22.9531 17.5228 22.9531 12C22.9531 6.47715 18.476 2 12.9531 2C7.43028 2 2.95312 6.47715 2.95312 12C2.95312 17.5228 7.43028 22 12.9531 22Z" stroke="#41C1CB" stroke-width="1.5"/>
<path id="Vector_2" d="M12.9531 4.5C14.4365 4.5 15.8865 4.93987 17.1199 5.76398C18.3532 6.58809 19.3145 7.75943 19.8822 9.12987C20.4499 10.5003 20.5984 12.0083 20.309 13.4632C20.0196 14.918 19.3053 16.2544 18.2564 17.3033C17.2075 18.3522 15.8711 19.0665 14.4163 19.3559C12.9614 19.6453 11.4534 19.4968 10.083 18.9291C8.71256 18.3614 7.54121 17.4001 6.7171 16.1668C5.89299 14.9334 5.45312 13.4834 5.45312 12H12.9531V4.5Z" fill="#41C1CB"/>
</g>
</svg>
