<svg width="25" height="24" viewBox="0 0 25 24" fill="none" xmlns="http://www.w3.org/2000/svg">
<g id="rocket-01">
<path id="Vector" d="M12.7544 6.48949L14.24 5.00392C15.9127 3.3312 18.1026 2.63737 20.4202 2.52399C21.3217 2.47989 21.7724 2.45784 22.1338 2.81928C22.4953 3.18071 22.4732 3.63143 22.4291 4.53289C22.3157 6.8505 21.6219 9.04042 19.9492 10.7131L18.4636 12.1987C17.2402 13.4221 16.8924 13.77 17.1492 15.097C17.4027 16.1107 17.648 17.0923 16.9109 17.8294C16.0168 18.7235 15.2012 18.7235 14.3071 17.8294L7.1237 10.646C6.22961 9.75188 6.22958 8.9363 7.1237 8.04219C7.86079 7.30509 8.84241 7.55044 9.85609 7.80389C11.1831 8.06073 11.531 7.71289 12.7544 6.48949Z" stroke="#41C1CB" stroke-width="1.5" stroke-linejoin="round"/>
<path id="Vector_2" d="M17.9492 7H17.9582" stroke="#41C1CB" stroke-width="2" stroke-linecap="round" stroke-linejoin="round"/>
<path id="Vector_3" d="M3.45312 21.5L8.45312 16.5" stroke="#41C1CB" stroke-width="1.5" stroke-linecap="round"/>
<path id="Vector_4" d="M9.45312 21.5L11.4531 19.5" stroke="#41C1CB" stroke-width="1.5" stroke-linecap="round"/>
<path id="Vector_5" d="M3.45312 15.5L5.45312 13.5" stroke="#41C1CB" stroke-width="1.5" stroke-linecap="round"/>
</g>
</svg>
