<svg width="24" height="25" viewBox="0 0 24 25" fill="none" xmlns="http://www.w3.org/2000/svg">
<g id="Component 7">
<path id="Vector" d="M12 22.875C7.75736 22.875 5.63604 22.875 4.31802 21.4106C3 19.9461 3 17.5891 3 12.875C3 8.16095 3 5.80393 4.31802 4.33946C5.63604 2.875 7.75736 2.875 12 2.875C16.2426 2.875 18.364 2.875 19.682 4.33946C21 5.80393 21 8.16095 21 12.875C21 17.5891 21 19.9461 19.682 21.4106C18.364 22.875 16.2426 22.875 12 22.875Z" stroke="#2A4D61" stroke-width="1.5" stroke-linecap="round" stroke-linejoin="round"/>
<path id="Vector_2" d="M8 3.375V10.7012C8 11.9483 8 12.5719 8.38642 12.7951C9.13473 13.2273 10.5384 11.7853 11.205 11.3511C11.5916 11.0993 11.7849 10.9734 12 10.9734C12.2151 10.9734 12.4084 11.0993 12.795 11.3511C13.4616 11.7853 14.8653 13.2273 15.6136 12.7951C16 12.5719 16 11.9483 16 10.7012V3.375" stroke="#2A4D61" stroke-width="1.5" stroke-linecap="round" stroke-linejoin="round"/>
</g>
</svg>
