<svg width="500" height="500" viewBox="0 0 500 500" fill="none" xmlns="http://www.w3.org/2000/svg">
<path d="M27.3501 208.529C29.8775 183.625 38.5532 159.74 52.5974 139.019C66.6416 118.298 85.6142 101.392 107.81 89.819C147.114 69.3829 189.997 56.7343 234.1 52.569C354 41.319 387.75 102.779 408 158.239C428.25 213.699 494.19 307.389 487.45 399.579C487.45 399.579 482.2 450.579 462.71 473.779H26.4901C26.4901 473.779 1.0001 439.299 28.0001 374.099C55.0001 308.899 19.0001 305.889 25.7501 225.699C26.2601 219.579 26.8001 213.869 27.3501 208.529Z" fill="white" fill-opacity="0.1"/>
<path opacity="0.7" d="M27.3501 208.529C29.8775 183.625 38.5532 159.74 52.5974 139.019C66.6416 118.298 85.6142 101.392 107.81 89.819C147.114 69.3829 189.997 56.7343 234.1 52.569C354 41.319 387.75 102.779 408 158.239C428.25 213.699 494.19 307.389 487.45 399.579C487.45 399.579 482.2 450.579 462.71 473.779H26.4901C26.4901 473.779 1.0001 439.299 28.0001 374.099C55.0001 308.899 19.0001 305.889 25.7501 225.699C26.2601 219.579 26.8001 213.869 27.3501 208.529Z" fill="white" fill-opacity="0.1"/>
<g opacity="0.3">
<path d="M105.85 28.8105H39.23V124.171H105.85V28.8105Z" stroke="black" stroke-linecap="round" stroke-linejoin="round"/>
<path d="M177.05 28.8105H110.43V124.171H177.05V28.8105Z" stroke="black" stroke-linecap="round" stroke-linejoin="round"/>
<path d="M248.24 28.8105H181.62V124.171H248.24V28.8105Z" stroke="black" stroke-linecap="round" stroke-linejoin="round"/>
<path d="M105.85 128.74H39.23V224.1H105.85V128.74Z" stroke="black" stroke-linecap="round" stroke-linejoin="round"/>
<path d="M177.05 128.74H110.43V224.1H177.05V128.74Z" stroke="black" stroke-linecap="round" stroke-linejoin="round"/>
<path d="M248.24 128.74H181.62V224.1H248.24V128.74Z" stroke="black" stroke-linecap="round" stroke-linejoin="round"/>
<path d="M105.85 228.68H39.23V324.04H105.85V228.68Z" stroke="black" stroke-linecap="round" stroke-linejoin="round"/>
<path d="M177.05 228.68H110.43V324.04H177.05V228.68Z" stroke="black" stroke-linecap="round" stroke-linejoin="round"/>
<path d="M248.24 228.68H181.62V324.04H248.24V228.68Z" stroke="black" stroke-linecap="round" stroke-linejoin="round"/>
</g>
<path d="M446.52 43.1816V346.632C446.52 350.632 444.932 354.469 442.104 357.298C439.276 360.128 435.441 361.719 431.44 361.722H300.32C296.32 361.719 292.484 360.128 289.656 357.298C286.829 354.469 285.24 350.632 285.24 346.632V43.1716C285.24 39.1748 286.828 35.3417 289.654 32.5155C292.48 29.6894 296.313 28.1016 300.31 28.1016H356.59L356.64 28.2716C358.04 33.3216 361.27 36.6016 364.85 36.6016H366.85C370.44 36.6016 373.66 33.3216 375.07 28.2716L375.12 28.1016H431.39C433.375 28.0951 435.341 28.4803 437.176 29.2352C439.012 29.9901 440.68 31.0998 442.086 32.5008C443.491 33.9017 444.607 35.5663 445.368 37.3992C446.129 39.2321 446.52 41.1971 446.52 43.1816Z" fill="#ECECEC"/>
<path d="M446.52 260.772V43.1816C446.52 39.1821 444.931 35.3464 442.103 32.5184C439.275 29.6903 435.44 28.1016 431.44 28.1016H375.17L375.12 28.2716C373.71 33.3216 370.49 36.6016 366.9 36.6016H364.9C361.32 36.6016 358.09 33.3216 356.69 28.2716L356.64 28.1016H300.31C296.313 28.1016 292.48 29.6893 289.654 32.5155C286.828 35.3416 285.24 39.1747 285.24 43.1716V260.772H446.52Z" fill="#EB434A"/>
<path d="M375.12 28.2716C373.71 33.3216 370.49 36.6016 366.9 36.6016H364.9C361.32 36.6016 358.09 33.3216 356.69 28.2716L356.64 28.1016H309.16C303.469 28.1015 297.964 30.1299 293.633 33.8229C289.302 37.5159 286.429 42.6315 285.53 48.2516H446.22C445.322 42.6332 442.45 37.5189 438.122 33.8261C433.793 30.1334 428.29 28.1038 422.6 28.1016H375.17L375.12 28.2716Z" fill="#D4D4D4"/>
<path d="M456.77 115.661V85.3509H454V46.5509C454 40.2069 451.48 34.1227 446.994 29.6369C442.508 25.151 436.424 22.6309 430.08 22.6309H301.64C298.499 22.6309 295.389 23.2496 292.486 24.4517C289.584 25.6538 286.947 27.4157 284.726 29.6369C282.505 31.858 280.743 34.495 279.541 37.3971C278.339 40.2992 277.72 43.4096 277.72 46.5509V354.881C277.72 358.022 278.339 361.133 279.541 364.035C280.743 366.937 282.505 369.574 284.726 371.795C286.947 374.016 289.584 375.778 292.486 376.98C295.389 378.182 298.499 378.801 301.64 378.801H430.11C436.449 378.793 442.525 376.269 447.005 371.784C451.484 367.299 454 361.22 454 354.881V141.491H456.74V123.581H454V115.661H456.77ZM446.52 337.801C446.518 344.144 443.997 350.227 439.511 354.712C435.026 359.197 428.943 361.718 422.6 361.721H309.16C306.019 361.721 302.909 361.102 300.006 359.9C297.104 358.698 294.467 356.936 292.246 354.715C290.025 352.494 288.263 349.857 287.061 346.955C285.859 344.053 285.24 340.942 285.24 337.801V52.0009C285.246 45.6603 287.768 39.5813 292.253 35.0998C296.739 30.6182 302.82 28.1009 309.16 28.1009H356.59L356.64 28.2709C358.04 33.3209 361.27 36.6009 364.85 36.6009H366.85C370.44 36.6009 373.66 33.3209 375.07 28.2709L375.12 28.1009H422.6C428.94 28.1035 435.019 30.6217 439.504 35.1027C443.989 39.5837 446.512 45.6612 446.52 52.0009V337.801Z" fill="#707070" stroke="#263238" stroke-linejoin="round"/>
<path d="M428.2 25.9316H303.56C300.53 25.9303 297.53 26.5262 294.73 27.6851C291.931 28.844 289.387 30.5433 287.244 32.6858C285.102 34.8283 283.403 37.372 282.244 40.1716C281.085 42.9712 280.489 45.9717 280.49 49.0016V352.442C280.49 355.471 281.087 358.47 282.247 361.269C283.406 364.067 285.106 366.61 287.248 368.751C289.39 370.893 291.934 372.591 294.732 373.749C297.531 374.907 300.531 375.503 303.56 375.502H428.2C431.229 375.502 434.227 374.905 437.025 373.746C439.823 372.587 442.365 370.889 444.506 368.748C446.647 366.606 448.346 364.064 449.505 361.266C450.664 358.469 451.26 355.47 451.26 352.442V49.0016C451.262 45.9725 450.666 42.9728 449.508 40.1739C448.35 37.375 446.651 34.8317 444.51 32.6893C442.368 30.5469 439.826 28.8474 437.027 27.6879C434.229 26.5284 431.229 25.9316 428.2 25.9316ZM446.52 338.652C446.52 344.77 444.09 350.638 439.763 354.965C435.437 359.291 429.569 361.722 423.45 361.722H308.31C302.192 361.722 296.324 359.291 291.997 354.965C287.671 350.638 285.24 344.77 285.24 338.652V51.1616C285.24 45.0457 287.67 39.1803 291.994 34.8558C296.319 30.5312 302.184 28.1016 308.3 28.1016H356.59L356.64 28.2716C358.04 33.3216 361.27 36.6016 364.85 36.6016H366.85C370.44 36.6016 373.66 33.3216 375.07 28.2716L375.12 28.1016H423.4C429.519 28.1016 435.387 30.5322 439.713 34.8587C444.04 39.1852 446.47 45.0531 446.47 51.1716L446.52 338.652Z" fill="#263238" stroke="#263238" stroke-linejoin="round"/>
<path d="M367.63 29.2402C367.63 28.7952 367.498 28.3602 367.251 27.9902C367.004 27.6202 366.653 27.3318 366.241 27.1615C365.83 26.9912 365.378 26.9467 364.941 27.0335C364.505 27.1203 364.104 27.3346 363.789 27.6492C363.475 27.9639 363.26 28.3648 363.174 28.8013C363.087 29.2377 363.131 29.6901 363.302 30.1013C363.472 30.5124 363.76 30.8638 364.13 31.111C364.5 31.3583 364.935 31.4902 365.38 31.4902C365.676 31.4916 365.969 31.4343 366.243 31.3217C366.517 31.2091 366.765 31.0434 366.974 30.8342C367.183 30.625 367.349 30.3764 367.462 30.1028C367.574 29.8293 367.632 29.5361 367.63 29.2402Z" fill="#ECECEC"/>
<path d="M299.57 37.8507C299.57 40.1207 297.02 40.9407 297.01 42.6707V42.7907H299.49V43.5507H296.18V42.9107C296.18 40.4807 298.73 40.0007 298.73 37.9107C298.73 37.1407 298.47 36.7307 297.85 36.7307C297.23 36.7307 296.97 37.1707 296.97 37.8407V38.5007H296.18V37.8907C296.18 36.7407 296.71 35.9707 297.87 35.9707C299.03 35.9707 299.57 36.7007 299.57 37.8507Z" fill="#263238"/>
<path d="M303.7 37.8414V38.0014C303.735 38.3246 303.665 38.6505 303.499 38.93C303.333 39.2096 303.081 39.4276 302.78 39.5514C303.082 39.6756 303.336 39.8953 303.502 40.1769C303.668 40.4585 303.738 40.7866 303.7 41.1114V41.6914C303.7 42.8514 303.16 43.6014 302 43.6014C300.84 43.6014 300.31 42.8514 300.31 41.6914V41.1814H301.09V41.7514C301.09 42.4314 301.37 42.8414 301.97 42.8414C302.57 42.8414 302.86 42.4414 302.86 41.6714V41.0914C302.86 40.3514 302.54 39.9914 301.91 39.9714H301.46V39.2214H302C302.128 39.222 302.254 39.1959 302.37 39.1446C302.487 39.0934 302.592 39.0182 302.678 38.9239C302.763 38.8296 302.828 38.7184 302.868 38.5973C302.908 38.4763 302.923 38.3483 302.91 38.2214V37.8714C302.91 37.1014 302.64 36.7014 302.02 36.7014C301.4 36.7014 301.14 37.1214 301.14 37.8014V38.1814H300.36V37.8414C300.36 36.6914 300.89 35.9414 302.05 35.9414C303.21 35.9414 303.7 36.6914 303.7 37.8414Z" fill="#263238"/>
<path d="M305.32 38.4102V39.4102H304.52V38.4102H305.32ZM305.32 42.5102V43.5102H304.52V42.5102H305.32Z" fill="#263238"/>
<path d="M307 39.0915C307.111 38.8934 307.274 38.7298 307.472 38.6186C307.669 38.5074 307.894 38.453 308.12 38.4615C309.12 38.4615 309.52 39.1715 309.52 40.2515V41.7215C309.52 42.8815 308.98 43.6315 307.82 43.6315C306.66 43.6315 306.13 42.8815 306.13 41.7215V41.2215H306.92V41.7815C306.92 42.4615 307.2 42.8715 307.8 42.8715C308.4 42.8715 308.68 42.4615 308.68 41.7815V40.3115C308.68 39.6415 308.4 39.2315 307.8 39.2315C307.692 39.2275 307.584 39.2451 307.482 39.2832C307.38 39.3214 307.287 39.3794 307.208 39.4538C307.129 39.5282 307.066 39.6176 307.021 39.7168C306.977 39.816 306.953 39.9229 306.95 40.0315V40.2115H306.17L306.37 36.0215H309.37V36.7715H307.15L307 39.0915Z" fill="#263238"/>
<path d="M313.73 37.8314V38.0014H313V37.8014C313 37.1314 312.72 36.7314 312.1 36.7314C311.48 36.7314 311.19 37.1414 311.19 37.9414V39.6014C311.279 39.3535 311.446 39.1412 311.666 38.9969C311.886 38.8525 312.147 38.7839 312.41 38.8014C313.41 38.8014 313.81 39.5014 313.81 40.5814V41.7214C313.81 42.8814 313.23 43.6314 312.08 43.6314C310.93 43.6314 310.35 42.8814 310.35 41.7214V37.8814C310.35 36.6914 310.89 35.9414 312.08 35.9414C313.27 35.9414 313.73 36.6814 313.73 37.8314ZM311.14 40.6514V41.7814C311.14 42.4614 311.42 42.8714 312.03 42.8714C312.64 42.8714 312.93 42.4614 312.93 41.7814V40.6514C312.93 39.9714 312.64 39.5614 312.03 39.5614C311.42 39.5614 311.14 40.0014 311.14 40.6514Z" fill="#263238"/>
<path d="M396.01 38.1602H393.88V43.4802H396.01V38.1602Z" fill="#263238"/>
<path d="M398.85 37.0918H396.72V43.4818H398.85V37.0918Z" fill="#263238"/>
<path d="M401.68 36.3418H399.55V43.4818H401.68V36.3418Z" fill="#263238"/>
<path d="M404.52 35.0215H402.39V43.4815H404.52V35.0215Z" fill="#263238"/>
<path d="M430.85 43.3313H418.08V35.5312H430.85V43.3313ZM418.79 42.6213H430.14V36.2413H418.79V42.6213Z" fill="#263238"/>
<path d="M426.6 37.0117H419.86V41.8517H426.6V37.0117Z" fill="#263238"/>
<path d="M432.02 38.5117H430.41V40.3517H432.02V38.5117Z" fill="#263238"/>
<path d="M413.4 41.6403C413.316 41.6372 413.233 41.6132 413.16 41.5703C410.56 40.0203 408.84 41.4603 408.77 41.5703C408.723 41.6116 408.668 41.6432 408.609 41.6631C408.55 41.683 408.487 41.6909 408.425 41.6862C408.362 41.6815 408.301 41.6645 408.246 41.636C408.19 41.6075 408.14 41.5682 408.1 41.5203C408.013 41.4307 407.964 41.3105 407.964 41.1853C407.964 41.0601 408.013 40.9399 408.1 40.8503C408.19 40.7703 410.39 38.8503 413.61 40.8503C413.664 40.8822 413.71 40.9243 413.747 40.9744C413.784 41.0244 413.811 41.0813 413.826 41.1418C413.841 41.2023 413.844 41.2651 413.834 41.3267C413.824 41.3882 413.803 41.4472 413.77 41.5003C413.722 41.5481 413.664 41.5852 413.6 41.6093C413.536 41.6334 413.468 41.644 413.4 41.6403Z" fill="#263238"/>
<path d="M414.36 40.0007C414.276 40.0011 414.194 39.9805 414.12 39.9407C410.36 37.7007 407.84 39.8607 407.81 39.8807C407.763 39.9221 407.709 39.9539 407.65 39.9742C407.591 39.9946 407.529 40.0032 407.467 39.9995C407.405 39.9958 407.344 39.9798 407.288 39.9526C407.232 39.9253 407.181 39.8873 407.14 39.8407C407.099 39.7941 407.067 39.7398 407.047 39.6809C407.026 39.622 407.018 39.5596 407.021 39.4974C407.025 39.4352 407.041 39.3743 407.068 39.3183C407.095 39.2622 407.133 39.2121 407.18 39.1707C407.18 39.1707 410.26 36.5307 414.61 39.1207C414.664 39.1526 414.71 39.1947 414.747 39.2448C414.784 39.2948 414.811 39.3518 414.826 39.4122C414.841 39.4727 414.844 39.5356 414.834 39.5971C414.824 39.6586 414.803 39.7177 414.77 39.7707C414.727 39.841 414.667 39.8991 414.595 39.9393C414.523 39.9796 414.442 40.0008 414.36 40.0007Z" fill="#263238"/>
<path d="M415.24 38.181C415.152 38.178 415.067 38.154 414.99 38.111C410.23 35.281 407.07 37.941 406.94 38.111C406.893 38.1524 406.838 38.1839 406.779 38.2038C406.72 38.2237 406.657 38.2316 406.595 38.2269C406.532 38.2223 406.471 38.2052 406.416 38.1767C406.36 38.1482 406.311 38.1089 406.27 38.061C406.226 38.0173 406.19 37.9651 406.166 37.9076C406.142 37.8501 406.13 37.7884 406.13 37.726C406.13 37.6637 406.142 37.6019 406.166 37.5444C406.19 37.4869 406.226 37.4348 406.27 37.391C406.27 37.391 410.06 34.141 415.44 37.341C415.548 37.4056 415.626 37.5098 415.658 37.6313C415.69 37.7528 415.673 37.882 415.61 37.991C415.566 38.0479 415.51 38.0944 415.446 38.1272C415.382 38.1601 415.312 38.1784 415.24 38.181Z" fill="#263238"/>
<path d="M412 42.4302C412.002 42.668 411.933 42.901 411.803 43.0996C411.672 43.2983 411.485 43.4536 411.266 43.546C411.047 43.6384 410.806 43.6635 410.572 43.6184C410.339 43.5732 410.124 43.4597 409.955 43.2923C409.786 43.1249 409.671 42.9111 409.624 42.678C409.577 42.445 409.6 42.2032 409.69 41.9834C409.781 41.7635 409.935 41.5755 410.132 41.4432C410.33 41.3109 410.562 41.2402 410.8 41.2402C411.117 41.2402 411.42 41.3653 411.645 41.5882C411.87 41.811 411.997 42.1137 412 42.4302Z" fill="#263238"/>
<path d="M437.89 110.191H295.43V201.361H437.89V110.191Z" fill="#ECECEC" stroke="#263238" stroke-linecap="round" stroke-linejoin="round"/>
<path d="M437.89 191.211H295.43V201.371H437.89V191.211Z" fill="#ECECEC" stroke="#263238" stroke-linecap="round" stroke-linejoin="round"/>
<path d="M437.89 194.811H295.43V197.771H437.89V194.811Z" fill="#ECECEC" stroke="#263238" stroke-linecap="round" stroke-linejoin="round"/>
<path d="M297.72 100.361L297.94 87.6113H300.69L302.27 95.6113L303.95 87.6113H306.62L306.84 100.361H305L304.79 91.7213L303.17 100.361H301.5L299.8 91.6513L299.62 100.361H297.72Z" fill="#263238"/>
<path d="M310.29 100.36V95.3602L307.8 87.6602H310.24L311.61 92.1402L312.88 87.6602H315.25L312.79 95.3602V100.36H310.29Z" fill="#263238"/>
<path d="M323.72 100.54C322.934 100.581 322.153 100.393 321.47 100C320.927 99.6506 320.521 99.1244 320.32 98.5103C320.091 97.7966 319.983 97.0496 320 96.3003V91.7203C319.984 90.9473 320.095 90.1768 320.33 89.4403C320.533 88.843 320.935 88.3342 321.47 88.0003C322.157 87.6196 322.936 87.4394 323.72 87.4803C324.464 87.443 325.204 87.598 325.87 87.9303C326.378 88.2215 326.767 88.6816 326.97 89.2303C327.198 89.8476 327.306 90.5025 327.29 91.1603V92.2003H324.77V91.0003C324.786 90.7238 324.786 90.4467 324.77 90.1703C324.751 89.9385 324.66 89.7185 324.51 89.5403C324.409 89.4529 324.292 89.3866 324.165 89.3454C324.038 89.3042 323.903 89.2888 323.77 89.3003C323.635 89.2888 323.499 89.305 323.37 89.348C323.241 89.391 323.122 89.4598 323.02 89.5503C322.854 89.7299 322.749 89.9574 322.72 90.2003C322.679 90.4951 322.659 90.7926 322.66 91.0903V96.8903C322.658 97.2021 322.685 97.5135 322.74 97.8203C322.781 98.057 322.897 98.2743 323.07 98.4403C323.271 98.5911 323.519 98.6655 323.77 98.6503C323.9 98.6638 324.032 98.6494 324.156 98.608C324.28 98.5666 324.394 98.4992 324.49 98.4103C324.641 98.2203 324.735 97.9914 324.76 97.7503C324.781 97.464 324.781 97.1766 324.76 96.8903V95.6503H327.28V96.7103C327.295 97.39 327.19 98.0669 326.97 98.7103C326.77 99.2706 326.386 99.7465 325.88 100.06C325.22 100.42 324.471 100.587 323.72 100.54Z" fill="#263238"/>
<path d="M332.44 100.541C331.667 100.58 330.899 100.403 330.22 100.031C329.678 99.6982 329.265 99.1903 329.05 98.5913C328.802 97.8711 328.684 97.1127 328.7 96.3513V91.5913C328.684 90.8298 328.802 90.0715 329.05 89.3513C329.266 88.7605 329.679 88.2625 330.22 87.9413C330.903 87.5817 331.67 87.4125 332.44 87.4513C333.221 87.4105 333.997 87.5797 334.69 87.9413C335.233 88.2676 335.649 88.7681 335.87 89.3613C336.126 90.0761 336.248 90.8321 336.23 91.5913V96.3513C336.248 97.1137 336.126 97.8729 335.87 98.5913C335.655 99.193 335.238 99.7018 334.69 100.031C334.001 100.405 333.223 100.581 332.44 100.541ZM332.44 98.6613C332.574 98.6755 332.71 98.6624 332.839 98.6229C332.968 98.5834 333.087 98.5182 333.19 98.4313C333.353 98.2641 333.461 98.0513 333.5 97.8213C333.554 97.5478 333.58 97.2699 333.58 96.9913V91.0013C333.58 90.726 333.554 90.4513 333.5 90.1813C333.457 89.9525 333.35 89.7409 333.19 89.5713C332.977 89.406 332.709 89.3274 332.44 89.3513C332.187 89.3333 331.937 89.4119 331.74 89.5713C331.574 89.7375 331.463 89.9502 331.42 90.1813C331.367 90.4513 331.34 90.726 331.34 91.0013V97.0013C331.342 97.2793 331.365 97.5568 331.41 97.8313C331.445 98.0628 331.553 98.2769 331.72 98.4413C331.922 98.6056 332.181 98.6845 332.44 98.6613Z" fill="#263238"/>
<path d="M341.55 100.541C340.768 100.585 339.99 100.412 339.3 100.041C338.764 99.7159 338.363 99.2083 338.17 98.6113C337.938 97.8742 337.83 97.1038 337.85 96.3313V87.6113H340.41V96.6913C340.413 97.0025 340.436 97.3132 340.48 97.6213C340.516 97.8929 340.627 98.149 340.8 98.3613C340.895 98.4627 341.012 98.5414 341.142 98.5916C341.272 98.6418 341.411 98.6622 341.55 98.6513C341.69 98.6589 341.83 98.6371 341.961 98.5871C342.092 98.5371 342.211 98.4602 342.31 98.3613C342.484 98.1505 342.592 97.8931 342.62 97.6213C342.661 97.313 342.681 97.0023 342.68 96.6913V87.6113H345.25V96.3313C345.266 97.1035 345.158 97.8733 344.93 98.6113C344.726 99.1918 344.327 99.6832 343.8 100.001C343.113 100.383 342.335 100.57 341.55 100.541Z" fill="#263238"/>
<path d="M347.06 100.362V87.6117H350.37C351.117 87.5927 351.863 87.6906 352.58 87.9017C353.156 88.0586 353.658 88.4125 354 88.9017C354.353 89.5071 354.523 90.2017 354.49 90.9017C354.497 91.3684 354.454 91.8344 354.36 92.2917C354.273 92.6537 354.114 92.994 353.89 93.2917C353.625 93.615 353.281 93.8632 352.89 94.0117L354.66 100.232H352L350.53 94.4517H349.62V100.232L347.06 100.362ZM349.66 93.0417H350.41C350.756 93.0595 351.101 92.9871 351.41 92.8317C351.653 92.6974 351.835 92.4757 351.92 92.2117C352.025 91.8889 352.076 91.551 352.07 91.2117C352.099 90.74 351.987 90.2704 351.75 89.8617C351.601 89.6919 351.413 89.5612 351.202 89.481C350.991 89.4008 350.764 89.3736 350.54 89.4017H349.66V93.0417Z" fill="#263238"/>
<path d="M359.5 100.541C358.807 100.57 358.117 100.419 357.5 100.101C356.973 99.8075 356.556 99.3514 356.31 98.8009C356.021 98.0922 355.865 97.3362 355.85 96.5709L358.09 96.1909C358.098 96.6319 358.152 97.0709 358.25 97.5009C358.309 97.7979 358.451 98.072 358.66 98.2909C358.849 98.4623 359.095 98.5553 359.35 98.5509C359.481 98.5664 359.614 98.5457 359.733 98.491C359.853 98.4364 359.956 98.3498 360.03 98.2409C360.153 98.0174 360.215 97.7658 360.21 97.5109C360.225 97.0357 360.092 96.5675 359.83 96.1709C359.541 95.7666 359.205 95.3975 358.83 95.0709L357.51 93.9209C357.05 93.5399 356.657 93.0834 356.35 92.5709C356.036 92.0027 355.88 91.3601 355.9 90.7109C355.872 90.2652 355.939 89.8187 356.098 89.4013C356.257 88.9839 356.503 88.6053 356.82 88.2909C357.526 87.7002 358.431 87.3999 359.35 87.4509C359.891 87.4278 360.429 87.5341 360.92 87.7609C361.326 87.9463 361.672 88.2405 361.92 88.6109C362.144 88.9634 362.303 89.3528 362.39 89.7609C362.476 90.1663 362.533 90.5774 362.56 90.9909L360.33 91.3209C360.316 90.9859 360.282 90.652 360.23 90.3209C360.207 90.0684 360.109 89.8284 359.95 89.6309C359.862 89.542 359.756 89.473 359.639 89.4283C359.522 89.3837 359.397 89.3646 359.272 89.3721C359.147 89.3797 359.025 89.4138 358.914 89.4723C358.804 89.5307 358.707 89.612 358.63 89.7109C358.489 89.9356 358.412 90.1953 358.41 90.4609C358.397 90.8539 358.506 91.2414 358.72 91.5709C358.969 91.9016 359.25 92.2065 359.56 92.4809L360.85 93.6109C361.385 94.067 361.85 94.5993 362.23 95.1909C362.636 95.8512 362.837 96.6165 362.81 97.3909C362.817 97.9574 362.676 98.5159 362.4 99.0109C362.131 99.4878 361.737 99.882 361.26 100.151C360.717 100.431 360.111 100.565 359.5 100.541Z" fill="#263238"/>
<path d="M363.94 100.361V87.6113H369.5V89.4013H366.5V92.7913H368.79V94.6013H366.5V98.6013H369.5V100.361H363.94Z" fill="#263238"/>
<path d="M297.12 218.931V208.871H298.5V218.931H297.12Z" fill="#263238"/>
<path d="M300.13 218.931V208.871H301.08L303.94 215.551V208.871H305.11V218.931H304.21L301.32 212.061V218.931H300.13Z" fill="#263238"/>
<path d="M307.79 218.932V209.932H306.09V208.932H310.85V209.932H309.2V218.932H307.79Z" fill="#263238"/>
<path d="M311.82 218.931V208.871H313.82C314.389 208.854 314.956 208.946 315.49 209.141C315.918 209.289 316.275 209.593 316.49 209.991C316.721 210.474 316.831 211.006 316.81 211.541C316.816 211.899 316.772 212.256 316.68 212.601C316.613 212.897 316.48 213.174 316.29 213.411C316.098 213.633 315.849 213.799 315.57 213.891L316.99 218.891H315.64L314.32 214.171H313.23V218.891L311.82 218.931ZM313.22 213.201H313.75C314.09 213.22 314.429 213.172 314.75 213.061C314.993 212.969 315.19 212.786 315.3 212.551C315.43 212.234 315.488 211.893 315.47 211.551C315.509 211.104 315.396 210.657 315.15 210.281C314.977 210.128 314.774 210.014 314.553 209.947C314.332 209.88 314.099 209.861 313.87 209.891H313.25L313.22 213.201Z" fill="#263238"/>
<path d="M320.84 219C320.271 219.027 319.706 218.892 319.21 218.61C318.8 218.339 318.493 217.938 318.34 217.47C318.153 216.913 318.065 216.327 318.08 215.74V212C318.07 211.419 318.158 210.841 318.34 210.29C318.501 209.84 318.807 209.456 319.21 209.2C319.709 208.926 320.273 208.795 320.84 208.82C321.403 208.792 321.962 208.928 322.45 209.21C322.853 209.465 323.156 209.849 323.31 210.3C323.503 210.846 323.594 211.422 323.58 212V215.83C323.591 216.411 323.499 216.99 323.31 217.54C323.158 218.005 322.855 218.406 322.45 218.68C321.957 218.943 321.397 219.054 320.84 219ZM320.84 217.9C321.138 217.92 321.434 217.839 321.68 217.67C321.878 217.502 322.015 217.273 322.07 217.02C322.136 216.691 322.167 216.356 322.16 216.02V211.61C322.168 211.274 322.138 210.939 322.07 210.61C322.011 210.366 321.874 210.149 321.68 209.99C321.429 209.834 321.135 209.76 320.84 209.78C320.539 209.761 320.239 209.834 319.98 209.99C319.786 210.149 319.649 210.366 319.59 210.61C319.519 210.938 319.486 211.274 319.49 211.61V216.02C319.487 216.356 319.521 216.691 319.59 217.02C319.646 217.273 319.783 217.502 319.98 217.67C320.229 217.852 320.532 217.947 320.84 217.94V217.9Z" fill="#263238"/>
<path d="M325 218.931V208.871H327.19C327.799 208.843 328.405 208.96 328.96 209.211C329.378 209.425 329.707 209.779 329.89 210.211C330.089 210.755 330.184 211.332 330.17 211.911V215.611C330.183 216.223 330.088 216.832 329.89 217.411C329.724 217.875 329.402 218.267 328.98 218.521C328.466 218.801 327.884 218.932 327.3 218.901L325 218.931ZM326.4 217.931H327.2C327.588 217.969 327.976 217.862 328.29 217.631C328.525 217.401 328.664 217.09 328.68 216.761C328.732 216.303 328.756 215.842 328.75 215.381V212.111C328.759 211.686 328.726 211.26 328.65 210.841C328.632 210.701 328.584 210.566 328.51 210.445C328.436 210.324 328.337 210.221 328.22 210.141C327.895 209.969 327.528 209.889 327.16 209.911H326.4V217.931Z" fill="#263238"/>
<path d="M334.1 219C333.512 219.04 332.926 218.889 332.43 218.57C332.031 218.267 331.749 217.837 331.63 217.35C331.482 216.745 331.411 216.123 331.42 215.5V208.83H332.76V215.56C332.757 215.955 332.787 216.35 332.85 216.74C332.887 217.055 333.02 217.352 333.23 217.59C333.346 217.699 333.483 217.783 333.633 217.836C333.782 217.89 333.942 217.911 334.1 217.9C334.262 217.911 334.424 217.889 334.577 217.836C334.73 217.783 334.87 217.699 334.99 217.59C335.193 217.349 335.322 217.053 335.36 216.74C335.419 216.35 335.446 215.955 335.44 215.56V208.83H336.77V215.5C336.779 216.123 336.709 216.745 336.56 217.35C336.446 217.836 336.167 218.267 335.77 218.57C335.275 218.89 334.689 219.041 334.1 219Z" fill="#263238"/>
<path d="M340.77 219C340.187 219.035 339.609 218.88 339.12 218.56C338.72 218.26 338.431 217.834 338.3 217.35C338.137 216.802 338.06 216.232 338.07 215.66V212.11C338.057 211.509 338.135 210.909 338.3 210.33C338.43 209.857 338.72 209.444 339.12 209.16C339.601 208.897 340.138 208.753 340.687 208.741C341.235 208.729 341.778 208.849 342.27 209.09C342.643 209.322 342.926 209.675 343.07 210.09C343.242 210.592 343.323 211.12 343.31 211.65V212.44H342V211.73C342.004 211.396 341.984 211.062 341.94 210.73C341.922 210.479 341.816 210.241 341.64 210.06C341.402 209.882 341.106 209.8 340.81 209.83C340.499 209.801 340.188 209.89 339.94 210.08C339.747 210.276 339.621 210.528 339.58 210.8C339.525 211.161 339.498 211.526 339.5 211.89V215.89C339.487 216.291 339.53 216.692 339.63 217.08C339.68 217.336 339.827 217.562 340.04 217.71C340.272 217.851 340.54 217.917 340.81 217.9C340.957 217.913 341.105 217.897 341.246 217.852C341.387 217.808 341.517 217.736 341.63 217.64C341.805 217.446 341.914 217.201 341.94 216.94C341.981 216.609 342.001 216.275 342 215.94V215.19H343.33V215.94C343.336 216.488 343.261 217.034 343.11 217.56C342.983 218.003 342.708 218.388 342.33 218.65C341.86 218.929 341.314 219.051 340.77 219Z" fill="#263238"/>
<path d="M345.76 218.932V209.932H344.05V208.932H348.81V209.932H347.16V218.932H345.76Z" fill="#263238"/>
<path d="M349.85 218.931V208.871H351.23V218.931H349.85Z" fill="#263238"/>
<path d="M355.43 219C354.864 219.029 354.301 218.894 353.81 218.61C353.399 218.34 353.092 217.938 352.94 217.47C352.752 216.913 352.664 216.328 352.68 215.74V212C352.664 211.419 352.752 210.84 352.94 210.29C353.101 209.84 353.407 209.457 353.81 209.2C354.303 208.923 354.865 208.792 355.43 208.82C355.996 208.791 356.559 208.927 357.05 209.21C357.45 209.468 357.752 209.851 357.91 210.3C358.102 210.846 358.194 211.422 358.18 212V215.83C358.19 216.412 358.099 216.99 357.91 217.54C357.754 218.003 357.452 218.403 357.05 218.68C356.553 218.944 355.99 219.055 355.43 219ZM355.43 217.9C355.731 217.921 356.03 217.84 356.28 217.67C356.478 217.504 356.612 217.274 356.66 217.02C356.735 216.692 356.769 216.356 356.76 216.02V211.61C356.77 211.274 356.736 210.938 356.66 210.61C356.609 210.366 356.475 210.147 356.28 209.99C356.026 209.832 355.728 209.759 355.43 209.78C355.132 209.762 354.835 209.835 354.58 209.99C354.386 210.149 354.249 210.367 354.19 210.61C354.114 210.938 354.08 211.274 354.09 211.61V216.02C354.081 216.356 354.115 216.692 354.19 217.02C354.246 217.274 354.383 217.502 354.58 217.67C354.826 217.851 355.125 217.946 355.43 217.94V217.9Z" fill="#263238"/>
<path d="M359.56 218.931V208.871H360.51L363.37 215.551V208.871H364.54V218.931H363.64L360.75 212.061V218.931H359.56Z" fill="#263238"/>
<path d="M302.3 128.79V119.26H304.49C304.868 119.255 305.245 119.302 305.61 119.4C305.904 119.485 306.174 119.635 306.4 119.84C306.622 120.043 306.784 120.302 306.87 120.59C306.985 120.931 307.04 121.29 307.03 121.65C307.035 121.989 306.984 122.327 306.88 122.65C306.796 122.911 306.64 123.143 306.43 123.32C306.209 123.497 305.942 123.608 305.66 123.64C306.003 123.703 306.324 123.855 306.59 124.08C306.831 124.298 307.013 124.573 307.12 124.88C307.239 125.258 307.297 125.654 307.29 126.05C307.292 126.428 307.245 126.804 307.15 127.17C307.062 127.485 306.909 127.778 306.7 128.03C306.494 128.271 306.234 128.46 305.94 128.58C305.589 128.712 305.216 128.776 304.84 128.77L302.3 128.79ZM303.63 123.24H304.42C304.722 123.251 305.022 123.196 305.3 123.08C305.508 122.974 305.666 122.791 305.74 122.57C305.838 122.274 305.882 121.962 305.87 121.65C305.91 121.304 305.84 120.954 305.67 120.65C305.599 120.548 305.507 120.462 305.4 120.399C305.293 120.335 305.174 120.294 305.05 120.28C304.687 120.222 304.319 120.195 303.95 120.2H303.63V123.24ZM303.63 127.84H304.52C304.739 127.87 304.962 127.847 305.171 127.774C305.379 127.701 305.568 127.58 305.72 127.42C305.953 127.01 306.057 126.54 306.02 126.07C306.027 125.73 305.972 125.391 305.86 125.07C305.765 124.814 305.585 124.599 305.35 124.46C305.065 124.307 304.744 124.234 304.42 124.25H303.63V127.84Z" fill="#263238"/>
<path d="M310.92 128.892C310.36 128.93 309.802 128.787 309.33 128.482C308.95 128.196 308.684 127.785 308.58 127.322C308.439 126.753 308.372 126.168 308.38 125.582V119.262H309.65V125.642C309.649 126.013 309.676 126.384 309.73 126.752C309.769 127.048 309.894 127.326 310.09 127.552C310.199 127.658 310.329 127.74 310.473 127.791C310.616 127.843 310.768 127.864 310.92 127.852C311.073 127.864 311.227 127.843 311.372 127.792C311.517 127.74 311.649 127.658 311.76 127.552C311.952 127.325 312.074 127.047 312.11 126.752C312.164 126.384 312.191 126.013 312.19 125.642V119.262H313.45V125.582C313.458 126.168 313.391 126.753 313.25 127.322C313.146 127.785 312.88 128.196 312.5 128.482C312.033 128.788 311.477 128.933 310.92 128.892Z" fill="#263238"/>
<path d="M317.09 128.891C316.609 128.91 316.133 128.788 315.72 128.541C315.351 128.296 315.063 127.948 314.89 127.541C314.699 127.08 314.591 126.589 314.57 126.091L315.74 125.771C315.767 126.108 315.82 126.442 315.9 126.771C315.969 127.058 316.11 127.323 316.31 127.541C316.411 127.644 316.533 127.724 316.667 127.776C316.802 127.828 316.946 127.85 317.09 127.841C317.235 127.853 317.381 127.833 317.517 127.783C317.654 127.733 317.778 127.653 317.88 127.551C318.067 127.316 318.16 127.02 318.14 126.721C318.149 126.365 318.047 126.016 317.85 125.721C317.628 125.436 317.38 125.171 317.11 124.931L315.51 123.511C315.215 123.268 314.976 122.965 314.81 122.621C314.652 122.238 314.577 121.825 314.59 121.411C314.572 121.114 314.615 120.816 314.719 120.537C314.822 120.258 314.983 120.004 315.19 119.791C315.41 119.59 315.667 119.436 315.947 119.336C316.227 119.236 316.524 119.194 316.82 119.211C317.16 119.204 317.498 119.254 317.82 119.361C318.089 119.452 318.332 119.607 318.53 119.811C318.74 120.029 318.897 120.292 318.99 120.581C319.116 120.932 319.194 121.298 319.22 121.671L318.09 121.971C318.072 121.68 318.025 121.392 317.95 121.111C317.89 120.866 317.762 120.644 317.58 120.471C317.367 120.297 317.095 120.211 316.82 120.231C316.68 120.223 316.54 120.242 316.408 120.289C316.276 120.335 316.154 120.407 316.05 120.501C315.952 120.604 315.878 120.727 315.831 120.861C315.785 120.996 315.767 121.139 315.78 121.281C315.773 121.528 315.821 121.774 315.92 122.001C316.043 122.219 316.206 122.412 316.4 122.571L318 124.001C318.373 124.322 318.694 124.7 318.95 125.121C319.239 125.585 319.385 126.124 319.37 126.671C319.382 127.094 319.278 127.512 319.07 127.881C318.886 128.213 318.608 128.485 318.27 128.661C317.901 128.831 317.496 128.909 317.09 128.891Z" fill="#263238"/>
<path d="M320.48 128.792V119.262H321.79V128.792H320.48Z" fill="#263238"/>
<path d="M323.33 128.792V119.262H324.23L326.94 125.592V119.262H328V128.792H327.16L324.42 122.292V128.792H323.33Z" fill="#263238"/>
<path d="M329.54 128.792V119.262H333.23V120.262H330.87V123.412H332.78V124.352H330.87V127.852H333.25V128.802L329.54 128.792Z" fill="#263238"/>
<path d="M336.57 128.891C336.089 128.912 335.612 128.79 335.2 128.541C334.831 128.296 334.542 127.948 334.37 127.541C334.17 127.082 334.058 126.59 334.04 126.091L335.22 125.771C335.236 126.109 335.29 126.444 335.38 126.771C335.445 127.057 335.583 127.322 335.78 127.541C335.882 127.645 336.005 127.726 336.142 127.778C336.278 127.83 336.424 127.851 336.57 127.841C336.713 127.851 336.857 127.831 336.992 127.781C337.126 127.731 337.248 127.652 337.35 127.551C337.544 127.319 337.64 127.022 337.62 126.721C337.629 126.364 337.524 126.013 337.32 125.721C337.103 125.431 336.855 125.166 336.58 124.931L334.98 123.511C334.69 123.265 334.455 122.962 334.29 122.621C334.128 122.238 334.049 121.826 334.06 121.411C334.043 121.113 334.088 120.815 334.193 120.536C334.298 120.257 334.461 120.003 334.67 119.791C334.889 119.59 335.147 119.436 335.426 119.336C335.706 119.236 336.003 119.194 336.3 119.211C336.639 119.204 336.978 119.254 337.3 119.361C337.573 119.45 337.82 119.604 338.02 119.811C338.226 120.032 338.382 120.295 338.48 120.581C338.601 120.933 338.678 121.299 338.71 121.671L337.58 121.971C337.562 121.68 337.515 121.392 337.44 121.111C337.376 120.868 337.248 120.647 337.07 120.471C336.856 120.298 336.584 120.213 336.31 120.231C336.17 120.219 336.029 120.237 335.896 120.283C335.764 120.33 335.642 120.404 335.54 120.501C335.44 120.603 335.364 120.726 335.315 120.86C335.267 120.995 335.248 121.138 335.26 121.281C335.251 121.529 335.303 121.776 335.41 122.001C335.533 122.219 335.696 122.412 335.89 122.571L337.5 123.991C337.873 124.312 338.194 124.69 338.45 125.111C338.731 125.578 338.873 126.115 338.86 126.661C338.87 127.082 338.77 127.499 338.57 127.871C338.38 128.203 338.099 128.473 337.76 128.651C337.389 128.828 336.98 128.91 336.57 128.891Z" fill="#263238"/>
<path d="M342.13 128.891C341.649 128.911 341.172 128.789 340.76 128.541C340.391 128.296 340.102 127.948 339.93 127.541C339.73 127.082 339.618 126.59 339.6 126.091L340.78 125.771C340.801 126.108 340.855 126.443 340.94 126.771C341.009 127.056 341.147 127.32 341.34 127.541C341.442 127.645 341.565 127.726 341.702 127.778C341.838 127.83 341.985 127.851 342.13 127.841C342.273 127.851 342.417 127.831 342.552 127.781C342.686 127.731 342.809 127.652 342.91 127.551C343.104 127.319 343.201 127.022 343.18 126.721C343.19 126.364 343.084 126.013 342.88 125.721C342.664 125.431 342.415 125.166 342.14 124.931L340.54 123.511C340.251 123.265 340.015 122.962 339.85 122.621C339.691 122.238 339.616 121.825 339.63 121.411C339.611 121.114 339.655 120.816 339.758 120.537C339.862 120.258 340.022 120.004 340.23 119.791C340.449 119.59 340.707 119.436 340.987 119.336C341.266 119.236 341.563 119.194 341.86 119.211C342.199 119.204 342.538 119.254 342.86 119.361C343.129 119.452 343.372 119.607 343.57 119.811C343.776 120.032 343.932 120.295 344.03 120.581C344.156 120.932 344.233 121.298 344.26 121.671L343.13 121.971C343.112 121.68 343.065 121.392 342.99 121.111C342.93 120.866 342.802 120.644 342.62 120.471C342.406 120.298 342.135 120.213 341.86 120.231C341.72 120.223 341.58 120.242 341.448 120.289C341.316 120.335 341.194 120.407 341.09 120.501C340.992 120.604 340.917 120.727 340.871 120.861C340.824 120.996 340.807 121.139 340.82 121.281C340.808 121.528 340.856 121.775 340.96 122.001C341.083 122.219 341.246 122.412 341.44 122.571L343.05 123.991C343.423 124.312 343.744 124.69 344 125.111C344.286 125.576 344.429 126.115 344.41 126.661C344.425 127.083 344.325 127.501 344.12 127.871C343.93 128.203 343.649 128.473 343.31 128.651C342.942 128.826 342.537 128.909 342.13 128.891Z" fill="#263238"/>
<path d="M304.69 143.001C304.133 143.037 303.58 142.886 303.12 142.571C302.742 142.286 302.468 141.886 302.34 141.431C302.19 140.911 302.116 140.372 302.12 139.831V136.471C302.114 135.903 302.188 135.338 302.34 134.791C302.463 134.341 302.739 133.949 303.12 133.681C303.577 133.427 304.089 133.288 304.611 133.276C305.134 133.264 305.652 133.379 306.12 133.611C306.468 133.834 306.735 134.164 306.88 134.551C307.042 135.024 307.12 135.521 307.11 136.021V136.781H305.85V136.111C305.853 135.796 305.833 135.482 305.79 135.171C305.774 134.934 305.675 134.711 305.51 134.541C305.284 134.371 305.002 134.293 304.72 134.321C304.426 134.294 304.133 134.379 303.9 134.561C303.712 134.741 303.591 134.982 303.56 135.241C303.507 135.571 303.48 135.906 303.48 136.241V140.021C303.47 140.401 303.51 140.781 303.6 141.151C303.654 141.388 303.792 141.598 303.99 141.741C304.21 141.872 304.464 141.935 304.72 141.921C304.858 141.936 304.998 141.923 305.13 141.882C305.263 141.841 305.385 141.772 305.49 141.681C305.66 141.5 305.765 141.268 305.79 141.021C305.833 140.689 305.853 140.355 305.85 140.021V139.311H307.11V140.021C307.121 140.539 307.046 141.056 306.89 141.551C306.763 141.955 306.507 142.307 306.16 142.551C305.729 142.851 305.215 143.009 304.69 143.001Z" fill="#263238"/>
<path d="M310.79 143.001C310.251 143.027 309.716 142.895 309.25 142.621C308.865 142.366 308.576 141.99 308.43 141.551C308.252 141.02 308.167 140.461 308.18 139.901V136.301C308.167 135.754 308.251 135.208 308.43 134.691C308.591 134.277 308.882 133.926 309.26 133.691C309.734 133.451 310.259 133.326 310.79 133.326C311.322 133.326 311.846 133.451 312.32 133.691C312.694 133.927 312.982 134.278 313.14 134.691C313.319 135.208 313.404 135.754 313.39 136.301V139.931C313.403 140.482 313.318 141.03 313.14 141.551C312.989 141.989 312.701 142.367 312.32 142.631C311.857 142.901 311.325 143.029 310.79 143.001ZM310.79 142.001C311.074 142.023 311.357 141.945 311.59 141.781C311.781 141.628 311.909 141.412 311.95 141.171C312.023 140.87 312.056 140.561 312.05 140.251V136.001C312.057 135.695 312.023 135.389 311.95 135.091C311.904 134.858 311.776 134.649 311.59 134.501C311.344 134.37 311.069 134.301 310.79 134.301C310.511 134.301 310.236 134.37 309.99 134.501C309.8 134.648 309.665 134.857 309.61 135.091C309.546 135.39 309.516 135.695 309.52 136.001V140.181C309.516 140.49 309.546 140.799 309.61 141.101C309.663 141.342 309.797 141.558 309.99 141.711C310.214 141.9 310.497 142.003 310.79 142.001Z" fill="#263238"/>
<path d="M314.67 142.901L314.85 133.381H316.15L317.84 141.101L319.53 133.381H320.82L321 142.901H319.93L319.82 135.991L318.21 142.901H317.46L315.86 135.991L315.75 142.901H314.67Z" fill="#263238"/>
<path d="M322.43 142.901L322.61 133.381H323.92L325.6 141.101L327.29 133.381H328.58L328.76 142.901H327.69L327.58 135.991L326 142.901H325.25L323.65 135.991L323.55 142.901H322.43Z" fill="#263238"/>
<path d="M332.68 143.001C332.12 143.035 331.564 142.891 331.09 142.591C330.71 142.306 330.444 141.895 330.34 141.431C330.195 140.859 330.128 140.271 330.14 139.681V133.371H331.41V139.741C331.404 140.116 331.431 140.491 331.49 140.861C331.525 141.159 331.65 141.438 331.85 141.661C332.086 141.849 332.379 141.952 332.68 141.952C332.982 141.952 333.274 141.849 333.51 141.661C333.703 141.435 333.825 141.156 333.86 140.861C333.923 140.491 333.953 140.116 333.95 139.741V133.371H335.21V139.681C335.22 140.271 335.149 140.86 335 141.431C334.892 141.891 334.631 142.3 334.26 142.591C333.79 142.892 333.237 143.035 332.68 143.001Z" fill="#263238"/>
<path d="M336.6 142.901V133.381H337.51L340.22 139.701V133.381H341.32V142.901H340.47L337.73 136.401V142.901H336.6Z" fill="#263238"/>
<path d="M342.89 142.901V133.381H344.19V142.901H342.89Z" fill="#263238"/>
<path d="M348.12 143.001C347.563 143.038 347.011 142.886 346.55 142.571C346.175 142.284 345.902 141.884 345.77 141.431C345.62 140.911 345.546 140.372 345.55 139.831V136.471C345.544 135.903 345.618 135.338 345.77 134.791C345.897 134.343 346.172 133.952 346.55 133.681C347.018 133.385 347.568 133.245 348.12 133.281C348.615 133.257 349.107 133.371 349.54 133.611C349.881 133.84 350.143 134.168 350.29 134.551C350.452 135.024 350.53 135.521 350.52 136.021V136.781H349.26V136.111C349.261 135.797 349.244 135.483 349.21 135.171C349.185 134.935 349.083 134.714 348.92 134.541C348.694 134.371 348.412 134.293 348.13 134.321C347.836 134.294 347.543 134.379 347.31 134.561C347.122 134.741 347.002 134.982 346.97 135.241C346.917 135.572 346.89 135.906 346.89 136.241V140.021C346.88 140.401 346.92 140.781 347.01 141.151C347.064 141.389 347.203 141.598 347.4 141.741C347.62 141.872 347.874 141.935 348.13 141.921C348.412 141.947 348.692 141.861 348.91 141.681C349.073 141.496 349.174 141.266 349.2 141.021C349.243 140.689 349.263 140.355 349.26 140.021V139.311H350.52V140.021C350.529 140.539 350.458 141.055 350.31 141.551C350.179 141.953 349.923 142.303 349.58 142.551C349.151 142.846 348.641 143.003 348.12 143.001Z" fill="#263238"/>
<path d="M351.27 142.901L353.27 133.381H354.56L356.56 142.901H355.3L354.87 140.501H353L352.54 142.901H351.27ZM353.15 139.551H354.74L353.94 135.261L353.15 139.551Z" fill="#263238"/>
<path d="M358.24 142.901V134.361H356.63V133.361H361.14V134.361H359.57V142.901H358.24Z" fill="#263238"/>
<path d="M362.13 142.901V133.381H363.43V142.901H362.13Z" fill="#263238"/>
<path d="M367.41 143C366.868 143.025 366.33 142.893 365.86 142.62C365.477 142.363 365.189 141.987 365.04 141.55C364.867 141.017 364.783 140.46 364.79 139.9V136.3C364.78 135.752 364.868 135.207 365.05 134.69C365.205 134.275 365.494 133.923 365.87 133.69C366.339 133.427 366.873 133.302 367.41 133.33C367.942 133.305 368.47 133.434 368.93 133.7C369.304 133.936 369.592 134.287 369.75 134.7C369.929 135.217 370.014 135.763 370 136.31V139.94C370.013 140.49 369.929 141.039 369.75 141.56C369.599 141.998 369.312 142.376 368.93 142.64C368.47 142.908 367.942 143.033 367.41 143ZM367.41 142C367.691 142.022 367.971 141.944 368.2 141.78C368.395 141.629 368.526 141.412 368.57 141.17C368.635 140.868 368.665 140.559 368.66 140.25V136C368.665 135.694 368.635 135.389 368.57 135.09C368.522 134.855 368.39 134.646 368.2 134.5C367.964 134.352 367.688 134.282 367.41 134.3C367.126 134.281 366.843 134.351 366.6 134.5C366.41 134.646 366.279 134.855 366.23 135.09C366.166 135.389 366.136 135.694 366.14 136V140.18C366.136 140.489 366.166 140.798 366.23 141.1C366.28 141.34 366.41 141.555 366.6 141.71C366.827 141.9 367.114 142.003 367.41 142Z" fill="#263238"/>
<path d="M371.31 142.901V133.381H372.22L374.92 139.701V133.381H376V142.901H375.15L372.41 136.401V142.901H371.31Z" fill="#263238"/>
<path d="M408.07 232.121H433.99" stroke="#263238" stroke-miterlimit="10"/>
<path d="M349.76 232.121H403.09" stroke="#263238" stroke-miterlimit="10"/>
<path d="M297.92 232.121H344.77" stroke="#263238" stroke-miterlimit="10"/>
<path d="M332.31 239.602H433.99" stroke="#263238" stroke-miterlimit="10"/>
<path d="M297.92 239.602H327.82" stroke="#263238" stroke-miterlimit="10"/>
<path d="M419.54 247.08H433.99" stroke="#263238" stroke-miterlimit="10"/>
<path d="M352.25 247.08H414.55" stroke="#263238" stroke-miterlimit="10"/>
<path d="M297.92 247.08H346.77" stroke="#263238" stroke-miterlimit="10"/>
<path d="M426.52 254.551H433.99" stroke="#263238" stroke-miterlimit="10"/>
<path d="M406.58 254.551H421.53" stroke="#263238" stroke-miterlimit="10"/>
<path d="M332.81 254.551H402.59" stroke="#263238" stroke-miterlimit="10"/>
<path d="M297.92 254.551H328.32" stroke="#263238" stroke-miterlimit="10"/>
<path d="M422.03 119.691L400.6 127.671L408.57 131.161L395.61 148.111L386.14 137.641L352.75 170.541L332.81 159.071L301.2 187.331H325.41L335.8 175.521L354.74 184.991L383.15 153.091L399.6 160.071L413.56 134.151L423.03 139.131L422.03 119.691Z" fill="#263238" stroke="#263238" stroke-linecap="round" stroke-linejoin="round"/>
<path d="M419.428 178.611C427.114 170.926 427.114 158.465 419.428 150.779C411.743 143.094 399.282 143.094 391.597 150.779C383.911 158.465 383.911 170.926 391.597 178.611C399.282 186.297 411.743 186.297 419.428 178.611Z" fill="#ECECEC" stroke="#263238" stroke-linecap="round" stroke-linejoin="round"/>
<path d="M405.51 181.64C414.871 181.64 422.46 174.051 422.46 164.69C422.46 155.329 414.871 147.74 405.51 147.74C396.149 147.74 388.56 155.329 388.56 164.69C388.56 174.051 396.149 181.64 405.51 181.64Z" fill="#ECECEC" stroke="#263238" stroke-linecap="round" stroke-linejoin="round"/>
<path d="M405.89 180.441V177.441C405.021 177.454 404.159 177.283 403.361 176.938C402.562 176.593 401.847 176.083 401.26 175.441C400.234 174.208 399.68 172.314 399.6 169.761L404.18 169.081C404.179 169.925 404.27 170.767 404.45 171.591C404.545 172.109 404.788 172.589 405.15 172.971C405.46 173.25 405.864 173.4 406.28 173.391C406.499 173.42 406.72 173.38 406.915 173.278C407.111 173.176 407.269 173.017 407.37 172.821C407.538 172.443 407.623 172.034 407.62 171.621C407.651 170.726 407.407 169.843 406.92 169.091C406.372 168.315 405.723 167.616 404.99 167.011L402.86 165.181C402.28 164.665 401.735 164.111 401.23 163.521C400.727 162.925 400.328 162.249 400.05 161.521C399.731 160.664 399.579 159.755 399.6 158.841C399.554 158.026 399.675 157.21 399.955 156.443C400.236 155.676 400.67 154.974 401.23 154.381C402.422 153.256 403.983 152.605 405.62 152.551V149.711H407.14V152.521C408.124 152.532 409.087 152.805 409.93 153.311C410.596 153.745 411.137 154.344 411.5 155.051C411.85 155.74 412.093 156.479 412.22 157.241C412.343 157.948 412.417 158.663 412.44 159.381L407.8 159.941C407.8 159.231 407.74 158.601 407.67 158.061C407.635 157.619 407.49 157.193 407.25 156.821C407.134 156.672 406.98 156.555 406.805 156.483C406.629 156.411 406.438 156.386 406.25 156.411C406.025 156.4 405.8 156.453 405.604 156.565C405.407 156.676 405.246 156.841 405.14 157.041C404.911 157.422 404.787 157.857 404.78 158.301C404.739 159.137 404.998 159.96 405.51 160.621C406.005 161.21 406.539 161.765 407.11 162.281L409.11 164.051C409.783 164.67 410.408 165.338 410.98 166.051C411.552 166.756 412.01 167.545 412.34 168.391C412.701 169.349 412.874 170.368 412.85 171.391C412.863 172.396 412.637 173.39 412.19 174.291C411.764 175.161 411.115 175.902 410.31 176.441C409.426 177.007 408.417 177.35 407.37 177.441V180.441H405.89Z" fill="#263238"/>
<path d="M307.88 164.9H302.9V187.33H307.88V164.9Z" fill="#EB434A"/>
<path d="M316.85 172.961H311.87V187.321H316.85V172.961Z" fill="#EB434A"/>
<path d="M325.83 173.451H320.85V187.331H325.83V173.451Z" fill="#EB434A"/>
<path d="M334.8 164.9H329.82V187.33H334.8V164.9Z" fill="#EB434A"/>
<path d="M343.77 169.791H338.79V187.331H343.77V169.791Z" fill="#EB434A"/>
<path d="M352.74 171.99H347.76V187.33H352.74V171.99Z" fill="#EB434A"/>
<path d="M361.71 164.9H356.73V187.33H361.71V164.9Z" fill="#EB434A"/>
<path d="M370.69 158.301H365.71V187.331H370.69V158.301Z" fill="#EB434A"/>
<path d="M379.66 151.461H374.68V187.331H379.66V151.461Z" fill="#EB434A"/>
<path d="M398.66 276.891H340.6V282.701H398.66V276.891Z" fill="#263238" stroke="#263238" stroke-linecap="round" stroke-linejoin="round"/>
<path d="M416.6 287.182H340.6V292.992H416.6V287.182Z" fill="#263238" stroke="#263238" stroke-linecap="round" stroke-linejoin="round"/>
<path d="M398.66 321.621H340.6V327.431H398.66V321.621Z" fill="#263238" stroke="#263238" stroke-linecap="round" stroke-linejoin="round"/>
<path d="M416.6 331.91H340.6V337.72H416.6V331.91Z" fill="#263238" stroke="#263238" stroke-linecap="round" stroke-linejoin="round"/>
<path d="M325.96 267.182H302.06C299.437 267.182 297.31 269.308 297.31 271.932V296.132C297.31 298.755 299.437 300.882 302.06 300.882H325.96C328.583 300.882 330.71 298.755 330.71 296.132V271.932C330.71 269.308 328.583 267.182 325.96 267.182Z" fill="#D4D4D4"/>
<path d="M314.01 292.4C318.633 292.4 322.38 288.653 322.38 284.03C322.38 279.408 318.633 275.66 314.01 275.66C309.388 275.66 305.64 279.408 305.64 284.03C305.64 288.653 309.388 292.4 314.01 292.4Z" fill="#263238"/>
<path d="M318.86 284.212L311.58 280.012V288.422L318.86 284.212Z" fill="#ECECEC"/>
<path d="M325.96 310.691H302.06C299.437 310.691 297.31 312.818 297.31 315.441V339.641C297.31 342.265 299.437 344.391 302.06 344.391H325.96C328.583 344.391 330.71 342.265 330.71 339.641V315.441C330.71 312.818 328.583 310.691 325.96 310.691Z" fill="#D4D4D4"/>
<path d="M321.604 331.051C323.545 326.856 321.716 321.881 317.521 319.941C313.325 318 308.351 319.829 306.41 324.024C304.47 328.22 306.298 333.194 310.494 335.135C314.689 337.075 319.664 335.247 321.604 331.051Z" fill="#263238"/>
<path d="M318.86 327.732L311.58 323.521V331.931L318.86 327.732Z" fill="#ECECEC"/>
<path d="M299.1 305.66H434.5" stroke="#263238" stroke-miterlimit="10"/>
<path d="M429.3 60.1816H439.87" stroke="#263238" stroke-linecap="round" stroke-linejoin="round"/>
<path d="M429.3 65.1914H439.87" stroke="#263238" stroke-linecap="round" stroke-linejoin="round"/>
<path d="M429.3 70.1914H439.87" stroke="#263238" stroke-linecap="round" stroke-linejoin="round"/>
<path d="M425.06 56.8516H296.26V73.5316H425.06V56.8516Z" fill="#ECECEC" stroke="#263238" stroke-linecap="round" stroke-linejoin="round"/>
<path d="M311.56 62.4405C311.562 61.6584 311.332 60.8933 310.899 60.2422C310.465 59.5911 309.849 59.0833 309.126 58.7831C308.404 58.4829 307.609 58.4038 306.842 58.5559C306.075 58.708 305.37 59.0844 304.817 59.6374C304.264 60.1904 303.888 60.8952 303.736 61.6623C303.583 62.4295 303.663 63.2245 303.963 63.9467C304.263 64.6689 304.771 65.2857 305.422 65.7189C306.073 66.1522 306.838 66.3824 307.62 66.3805C308.665 66.3805 309.667 65.9653 310.406 65.2265C311.145 64.4876 311.56 63.4854 311.56 62.4405Z" fill="#ECECEC" stroke="#263238" stroke-linecap="round" stroke-linejoin="round"/>
<path d="M302.86 67.9707L299.95 71.6407" stroke="#263238" stroke-width="2" stroke-linecap="round" stroke-linejoin="round"/>
<path d="M304.99 65.291L302.86 67.971" stroke="#263238" stroke-linecap="round" stroke-linejoin="round"/>
<path d="M315.72 56.9609V73.6109" stroke="#263238" stroke-linecap="round" stroke-linejoin="round"/>
<path d="M73.3403 279.09C73.3495 279.067 73.3495 279.042 73.3401 279.019C73.3307 278.997 73.3128 278.979 73.2903 278.97C73.2677 278.961 73.2424 278.961 73.2199 278.97C73.1974 278.979 73.1795 278.997 73.1703 279.02C70.3701 285.718 68.1584 292.648 66.5603 299.73C64.9394 306.812 63.7208 313.98 62.9103 321.2L62.4003 326.63C62.3203 327.54 62.2203 328.44 62.1503 329.35L62.0003 332.06C61.9303 333.88 61.8103 335.69 61.7603 337.51L61.8103 342.97L61.8703 345.69C61.8703 346.6 61.9803 347.51 62.0403 348.41C62.1803 350.23 62.2903 352.04 62.4503 353.85C62.8003 357.47 63.3503 361.06 63.9003 364.64C63.9049 364.663 63.9175 364.683 63.9358 364.698C63.954 364.713 63.9769 364.72 64.0003 364.72C64.0003 364.72 64.1003 364.72 64.0903 364.63C64.0903 362.82 64.0103 361.01 63.9703 359.2C63.9303 357.39 63.7603 355.59 63.7803 353.78C63.8003 351.97 63.7803 350.17 63.7203 348.37V345.66V342.96V337.56L63.8603 332.15L63.9203 329.45C63.9203 328.55 64.0203 327.65 64.0703 326.75L64.4003 321.35C65.0155 314.158 66.0372 307.006 67.4603 299.93C68.8167 292.827 70.784 285.854 73.3403 279.09Z" fill="#263238"/>
<path d="M74.1103 307.349C74.1183 307.326 74.1164 307.3 74.1052 307.277C74.0939 307.255 74.0742 307.237 74.0503 307.229C74.0265 307.222 74.0004 307.223 73.9779 307.235C73.9554 307.246 73.9383 307.266 73.9303 307.289C72.4003 311.786 71.1184 316.363 70.0903 320.999C69.0664 325.656 68.3052 330.367 67.8103 335.109C67.3303 339.839 66.8103 344.579 66.7403 349.329C66.6203 354.092 66.7907 358.858 67.2503 363.599C67.2525 363.62 67.2616 363.639 67.2762 363.654C67.2907 363.668 67.3098 363.677 67.3303 363.679C67.3554 363.682 67.3806 363.676 67.401 363.661C67.4214 363.646 67.4355 363.624 67.4403 363.599C67.9903 358.859 68.3203 354.139 68.6503 349.419C68.9803 344.699 69.0303 339.959 69.3403 335.239C69.6294 330.532 70.1836 325.845 71.0003 321.199C71.7863 316.53 72.8245 311.907 74.1103 307.349Z" fill="#263238"/>
<path d="M89.78 317.29C89.7619 317.274 89.7388 317.266 89.715 317.266C89.6912 317.266 89.6681 317.274 89.65 317.29C85.7296 319.809 82.1988 322.888 79.17 326.43C77.6509 328.209 76.2828 330.113 75.08 332.12L74.24 333.71L73.58 335.36C73.3551 335.895 73.1615 336.442 73 337C72.83 337.57 72.64 338.13 72.49 338.69C71.2917 343.212 70.5645 347.847 70.32 352.52C70.0883 357.166 70.2623 361.824 70.84 366.44C70.8456 366.46 70.8571 366.479 70.8731 366.493C70.8891 366.507 70.9089 366.516 70.93 366.52C70.9549 366.52 70.9789 366.511 70.9974 366.494C71.0159 366.477 71.0275 366.454 71.03 366.43L72.23 352.65C72.5666 348.09 73.1575 343.553 74 339.06C74.13 338.51 74.29 337.97 74.43 337.42C74.5596 336.868 74.7198 336.324 74.91 335.79L75.47 334.2L76.19 332.7C77.279 330.698 78.5334 328.792 79.94 327C82.7418 323.349 86.056 320.123 89.78 317.42C89.7888 317.411 89.7958 317.401 89.8005 317.39C89.8053 317.379 89.8078 317.367 89.8078 317.355C89.8078 317.342 89.8053 317.33 89.8005 317.319C89.7958 317.308 89.7888 317.298 89.78 317.29Z" fill="#263238"/>
<path d="M82.2001 335C80.1633 336.486 78.5277 338.455 77.4402 340.73C76.2897 342.956 75.394 345.304 74.7701 347.73C74.5801 348.33 74.4302 348.94 74.3002 349.55L73.8702 351.38C73.6435 352.61 73.4866 353.852 73.4002 355.1C73.4002 356.35 73.3502 357.6 73.4002 358.85C73.4896 360.099 73.6532 361.341 73.8901 362.57C73.8901 362.57 73.8901 362.64 73.9601 362.64C73.9853 362.646 74.0119 362.643 74.0343 362.629C74.0567 362.616 74.0731 362.595 74.0802 362.57C74.3669 361.36 74.5872 360.135 74.7401 358.9C74.9301 357.69 75.1201 356.49 75.2701 355.28C75.4201 354.07 75.6001 352.88 75.7001 351.67C75.8001 350.46 75.9501 349.25 76.2101 348.07C76.6157 345.686 77.2865 343.355 78.2101 341.12C79.0495 338.832 80.4205 336.775 82.2101 335.12C82.2189 335.112 82.2259 335.102 82.2307 335.091C82.2354 335.079 82.2379 335.067 82.2379 335.055C82.2379 335.043 82.2354 335.031 82.2307 335.02C82.2259 335.009 82.2189 334.999 82.2101 334.99C82.2066 334.993 82.2033 334.997 82.2001 335Z" fill="#263238"/>
<path d="M60.2202 348.799C59.7102 342.679 58.7002 336.619 57.7502 330.569C56.8002 324.519 55.7502 318.479 54.6302 312.459C53.5102 306.439 52.2802 300.459 50.9902 294.459C50.9821 294.436 50.9673 294.416 50.9476 294.402C50.928 294.388 50.9045 294.38 50.8802 294.379C50.8669 294.381 50.8543 294.386 50.843 294.394C50.8318 294.401 50.8221 294.411 50.8146 294.422C50.8072 294.433 50.802 294.446 50.7996 294.459C50.7971 294.472 50.7973 294.486 50.8002 294.499C51.8502 300.499 52.8002 306.569 53.6902 312.629C54.5802 318.689 55.4702 324.729 56.2302 330.799C56.9902 336.869 57.5602 342.949 58.3302 349.009L60.5602 367.219C60.5658 367.24 60.5773 367.258 60.5933 367.272C60.6093 367.287 60.6291 367.296 60.6502 367.299C60.6628 367.3 60.6756 367.299 60.6877 367.295C60.6998 367.291 60.711 367.285 60.7204 367.276C60.7299 367.268 60.7374 367.257 60.7425 367.246C60.7477 367.234 60.7503 367.222 60.7502 367.209C60.8202 365.679 60.8302 364.139 60.8602 362.599C60.8902 361.059 60.8002 359.539 60.7702 357.999C60.7202 354.909 60.4602 351.859 60.2202 348.799Z" fill="#263238"/>
<path d="M56.56 348.71C56.23 346.29 55.78 343.88 55.32 341.48L54.46 337.9C54.18 336.71 53.92 335.52 53.57 334.35C52.3507 329.603 50.7866 324.95 48.89 320.43L48.16 318.75L47.34 317.1C46.82 316 46.2 314.94 45.6 313.87C44.4009 311.724 42.9175 309.75 41.19 308C41.1816 307.992 41.1715 307.985 41.1603 307.98C41.1491 307.975 41.1371 307.973 41.125 307.973C41.1128 307.973 41.1008 307.975 41.0896 307.98C41.0785 307.985 41.0684 307.992 41.06 308C41.0512 308.009 41.0442 308.019 41.0395 308.03C41.0347 308.041 41.0322 308.053 41.0322 308.065C41.0322 308.078 41.0347 308.09 41.0395 308.101C41.0442 308.112 41.0512 308.122 41.06 308.13C42.6563 309.942 44.0017 311.96 45.06 314.13C45.59 315.22 46.16 316.29 46.61 317.41L47.33 319.07L47.97 320.77C49.6604 325.306 51.0206 329.958 52.04 334.69C52.6 337.04 52.97 339.44 53.43 341.81L54 345.4C54.21 346.59 54.46 347.77 54.63 348.97C55.01 351.37 55.45 353.75 55.87 356.14C56.29 358.53 56.68 360.94 57.18 363.34C57.1862 363.362 57.1992 363.382 57.2171 363.396C57.2351 363.411 57.257 363.419 57.28 363.42C57.3047 363.418 57.3277 363.406 57.3443 363.388C57.3609 363.369 57.3701 363.345 57.37 363.32C57.37 360.88 57.37 358.43 57.2 355.99C57.03 353.55 56.81 351.14 56.56 348.71Z" fill="#263238"/>
<path d="M51.49 348.999C50.36 345.789 49.05 342.649 47.62 339.569C46.1772 336.498 44.5509 333.516 42.75 330.639C42.7319 330.624 42.7089 330.615 42.685 330.615C42.6612 330.615 42.6381 330.624 42.62 330.639C42.6113 330.648 42.6043 330.658 42.5995 330.669C42.5947 330.68 42.5923 330.692 42.5923 330.704C42.5923 330.716 42.5947 330.728 42.5995 330.74C42.6043 330.751 42.6113 330.761 42.62 330.769C44.1782 333.76 45.5541 336.842 46.74 339.999C47.99 343.129 49.11 346.299 50.04 349.529C50.97 352.759 51.68 356.029 52.54 359.269C53.4 362.509 54.17 365.769 55.17 369.039C55.1756 369.06 55.1871 369.078 55.2031 369.093C55.2191 369.107 55.2389 369.116 55.26 369.119C55.2858 369.117 55.3099 369.106 55.3282 369.087C55.3465 369.069 55.3578 369.045 55.36 369.019C55.3828 365.6 55.0476 362.188 54.36 358.839C53.6712 355.487 52.7114 352.196 51.49 348.999Z" fill="#263238"/>
<path d="M51.2803 359.709C50.661 357.709 49.7549 355.809 48.5903 354.069C47.5087 352.274 46.1902 350.633 44.6703 349.189C43.8935 348.495 43.0607 347.866 42.1803 347.309C41.3101 346.729 40.3555 346.288 39.3503 345.999C39.3346 345.987 39.3152 345.98 39.2953 345.98C39.2754 345.98 39.2561 345.987 39.2403 345.999C39.2248 346.017 39.2163 346.04 39.2163 346.064C39.2163 346.088 39.2248 346.111 39.2403 346.129C41.0752 347.018 42.6983 348.29 44.0003 349.859C45.3088 351.354 46.4088 353.019 47.2703 354.809C48.2003 356.569 48.6803 358.509 49.4803 360.319C49.8403 361.249 50.1903 362.179 50.6103 363.109C50.9549 364.08 51.3659 365.025 51.8403 365.939C51.8477 365.954 51.8591 365.967 51.8732 365.976C51.8874 365.984 51.9037 365.989 51.9203 365.989C51.9329 365.991 51.9457 365.989 51.9578 365.985C51.9699 365.982 51.9811 365.975 51.9905 365.967C52 365.958 52.0075 365.948 52.0126 365.936C52.0178 365.925 52.0204 365.912 52.0203 365.899C52.0588 364.855 52.022 363.809 51.9103 362.769C51.7503 361.749 51.5303 360.729 51.2803 359.709Z" fill="#263238"/>
<path d="M51.6602 303.209C48.6063 302.354 45.8439 300.68 43.671 298.37C41.4982 296.06 39.9973 293.2 39.3302 290.099C37.0002 279.299 44.4702 283.929 37.7802 266.999C31.0902 250.069 32.6402 246.149 35.0002 241.259C37.3602 236.369 38.5902 237.919 40.6502 244.349C42.7102 250.779 50.1202 260.799 53.0002 279.559C55.8802 298.319 51.6602 303.209 51.6602 303.209Z" fill="#EB434A"/>
<path d="M71.45 284.999C71.45 284.999 64.77 282.679 64.51 270.089C64.25 257.499 69.4 260.089 70.17 244.389C70.94 228.689 71.97 217.659 74.79 217.389C77.61 217.119 85.08 225.099 87.65 242.579C90.22 260.059 84.3 271.579 79.16 276.759C74.02 281.939 71.45 284.999 71.45 284.999Z" fill="#EB434A"/>
<path d="M48.0602 318.369C48.0602 318.369 46.5202 309.119 43.4402 304.749C40.3602 300.379 33.6702 296.519 29.3002 287.999C24.9302 279.479 20.0502 275.409 20.3002 287.489C20.5502 299.569 26.0002 305.779 32.6402 309.889C39.2802 313.999 48.0602 318.369 48.0602 318.369Z" fill="#EB434A"/>
<path d="M45.2402 334.309C45.2402 334.309 39.0702 322.479 30.0702 313.739C21.0702 304.999 13.8802 300.639 16.4502 304.999C19.0202 309.359 22.1102 309.109 26.4502 316.819C30.7902 324.529 29.5402 330.179 35.7102 334.549C41.8802 338.919 45.2402 334.309 45.2402 334.309Z" fill="#EB434A"/>
<path d="M44.4703 349.469C44.2103 348.699 43.9503 343.039 35.2103 338.419C26.4703 333.799 18.2103 335.589 19.2803 337.899C20.3503 340.209 25.7003 344.069 31.1003 346.389C36.5003 348.709 44.4703 349.469 44.4703 349.469Z" fill="#EB434A"/>
<path d="M70.9403 318.879C70.9403 318.879 67.0803 313.999 69.1403 303.719C71.2003 293.439 75.8203 295.999 81.0003 290.609C86.1803 285.219 85.1203 284.439 90.2603 278.789C95.4003 273.139 100.02 270.049 102.08 272.359C104.14 274.669 101.08 281.869 97.9703 285.989C94.8603 290.109 89.9703 292.149 87.6903 297.289C85.4103 302.429 86.4003 310.659 80.4903 314.509C74.5803 318.359 70.9403 318.879 70.9403 318.879Z" fill="#EB434A"/>
<path d="M83.79 321.71C83.79 321.71 93 311.17 99.73 303.46C106.46 295.75 108.98 289.84 109.24 294.98C109.5 300.12 111.55 304.23 106.15 310.92C100.75 317.61 83.79 321.71 83.79 321.71Z" fill="#EB434A"/>
<path d="M78.91 338.669C78.91 338.669 78.65 334.559 93.3 325.049C107.95 315.539 114.12 313.739 112.58 317.599C111.04 321.459 104.58 325.309 97.67 332.249C90.76 339.189 78.91 338.669 78.91 338.669Z" fill="#EB434A"/>
<path d="M52.2704 302.11C52.2704 302.11 48.8404 283.67 45.2704 270.56C41.7004 257.45 39.3604 249.49 39.3604 249.49" stroke="#263238" stroke-linecap="round" stroke-linejoin="round"/>
<path d="M70.8604 285.149C70.8604 285.149 77.1104 265.149 79.1604 253.089C81.2104 241.029 78.9103 232.009 77.8803 226.609" stroke="#263238" stroke-linecap="round" stroke-linejoin="round"/>
<path d="M47.2499 317.999C44.4848 313.24 41.3165 308.726 37.7799 304.509C32.1299 297.829 27.7799 294.229 25.1899 287.799" stroke="#263238" stroke-linecap="round" stroke-linejoin="round"/>
<path d="M70.9404 318.88C70.9404 318.88 73.0004 306.55 77.8804 300.12C82.7604 293.69 92.5304 283.67 96.3804 277.25" stroke="#263238" stroke-linecap="round" stroke-linejoin="round"/>
<path d="M43.8603 349.189C43.8603 349.189 35.2103 343.559 29.0503 340.469" stroke="#263238" stroke-linecap="round" stroke-linejoin="round"/>
<path d="M93.38 401C92.81 385.41 75.48 375 75.48 375H48.92C48.92 375 31.59 385.4 31 401C30.41 416.6 50.64 473.79 50.64 473.79H73.74C73.74 473.79 94 416.59 93.38 401Z" fill="#263238" stroke="#263238" stroke-linecap="round" stroke-linejoin="round"/>
<path d="M78.9003 359.67H45.0103L48.9203 375H74.9903L78.9003 359.67Z" fill="#263238" stroke="#263238" stroke-linecap="round" stroke-linejoin="round"/>
<path d="M213.25 274.56C213.25 274.56 204.48 283.86 204.48 286.78C204.48 289.7 205.54 296.62 205.01 299.27C204.48 301.92 182.69 318.67 182.69 318.67L189.33 335.41C189.33 335.41 207.13 307.25 212.45 299.81C217.77 292.37 223.61 284.66 224.14 280.67C224.67 276.68 215.64 273 213.25 274.56Z" fill="#D4D4D4" stroke="#263238" stroke-miterlimit="10"/>
<path d="M214.71 343.551L240.54 333.371C240.54 333.371 257.36 314.371 270.24 300.451C283.12 286.531 299.24 289.711 299.24 299.731C299.24 309.751 294.59 324.731 290.3 331.231C286.01 337.731 277.41 354.491 277.41 354.491C277.41 354.491 307.48 361.651 315.71 366.301C323.94 370.951 357 394.411 374 406.661C385.18 414.661 391.67 417.921 393.46 417.921C393.94 417.921 394.8 417.841 395.82 417.721C399.91 417.241 404.82 412.931 408.34 410.721C413.17 407.721 420.56 403.571 424.86 403.121C431.66 402.401 429.16 412.421 424.15 419.581C419.14 426.741 410.15 428.891 406.97 431.391C403.79 433.891 396.97 435.331 394.44 435.691C391.91 436.051 369.39 426.741 359.72 422.801C350.05 418.861 331.82 417.961 320.8 404.801C317.149 400.355 313.039 396.306 308.54 392.721C308.54 392.721 248.77 395.221 238.03 396.301C227.29 397.381 202.6 398.091 192.22 398.091C181.84 398.091 176.55 393.981 176.55 393.981C176.55 393.981 172.55 388.421 178.62 379.481C184.69 370.541 214.71 343.551 214.71 343.551Z" fill="#6E6E6E" stroke="#263238" stroke-miterlimit="10"/>
<path d="M424.15 419.631C429.15 412.471 431.66 402.451 424.86 403.171C420.56 403.621 413.17 407.781 408.34 410.771C404.83 412.931 399.91 417.241 395.82 417.771C394.82 417.891 393.94 417.971 393.46 417.971C391.95 417.971 387.05 415.651 378.8 410.061C377.64 414.881 374.28 420.971 365.28 425.171C376.15 429.601 392.34 436.091 394.44 435.791C396.95 435.431 403.75 434.001 406.97 431.491C410.19 428.981 419.14 426.791 424.15 419.631Z" fill="#D4D4D4" stroke="#263238" stroke-miterlimit="10"/>
<path d="M424.15 419.631C429.15 412.471 431.66 402.451 424.86 403.171C420.56 403.621 413.17 407.781 408.34 410.771C404.83 412.931 399.91 417.241 395.82 417.771C394.82 417.891 393.94 417.971 393.46 417.971C392.959 417.93 392.467 417.816 392 417.631C393.22 420.531 394.3 426.741 386 433.301C390.32 434.871 393.6 435.911 394.47 435.791C396.98 435.431 403.78 434.001 407 431.491C410.22 428.981 419.14 426.791 424.15 419.631Z" fill="white" stroke="#263238" stroke-miterlimit="10"/>
<path d="M238.35 346.141C237.581 345.598 236.783 345.098 235.96 344.641" stroke="#263238" stroke-miterlimit="10"/>
<path d="M277.4 354.491L245 352.591C243.662 350.79 242.115 349.155 240.39 347.721" stroke="#263238" stroke-miterlimit="10"/>
<path d="M219.6 360.301C221.011 359.031 222.632 358.016 224.39 357.301" stroke="#263238" stroke-miterlimit="10"/>
<path d="M210.29 370.67C212.252 367.969 214.397 365.406 216.71 363" stroke="#263238" stroke-miterlimit="10"/>
<path d="M213.91 360.91C213.91 360.91 206.68 367.41 204.91 375.73" stroke="#263238" stroke-miterlimit="10"/>
<path d="M214.71 343.551C214.66 344.527 214.468 345.49 214.14 346.411C213.56 348.141 209.84 362.491 199.79 374.821C193.272 382.585 185.397 389.101 176.55 394.051C164.44 384.649 153.376 373.971 143.55 362.201C126.61 342.111 116.55 322.891 117.14 300.501C117.73 278.111 124.9 264.061 124.9 264.061L124.32 246.841C125.47 243.971 131.5 239.961 139.53 245.121C147.56 250.281 153.88 262.341 153.88 262.341L152.73 269.221C152.73 269.221 156.17 271.521 158.18 272.671C160.19 273.821 167.65 280.411 174.25 288.731C180.85 297.051 187.74 322.031 188.89 328.341C190.04 334.651 199.51 335.791 199.51 335.791L209.26 340.971L214.71 343.551Z" fill="#EB434A" stroke="#263238" stroke-miterlimit="10"/>
<path d="M153.88 262.341L152.73 269.221C152.73 269.221 134.94 263.481 124.9 264.061L124.32 246.841C125.47 243.971 131.5 239.961 139.53 245.121C147.56 250.281 153.88 262.341 153.88 262.341Z" fill="#D4D4D4" stroke="#263238" stroke-miterlimit="10"/>
<path d="M163.93 215.941C163.93 215.941 168.81 228.651 167.55 231.941C166.822 233.853 166.208 235.806 165.71 237.791C165.71 237.791 173.15 245.881 171.71 248.031C170.27 250.181 166.43 251.171 166.43 251.171C166.43 251.171 165.43 264.631 164.6 266.841C163.77 269.051 161.19 271.361 155.87 269.841C150.55 268.321 142.76 263.401 139.87 261.041C136.98 258.681 135.2 241.711 135.2 241.711L141.2 239.811C141.2 239.811 139.75 232.421 140.48 231.061C141.21 229.701 149.48 230.671 148.06 225.591C146.64 220.511 143.69 218.431 145.35 216.591C147.01 214.751 163.93 215.941 163.93 215.941Z" fill="#D4D4D4" stroke="#263238" stroke-miterlimit="10"/>
<path d="M165.33 256.001C165.33 256.001 156.86 256.741 155.7 249.381" stroke="#263238" stroke-miterlimit="10"/>
<path d="M158.08 248.771L152.62 251.021" stroke="#263238" stroke-miterlimit="10"/>
<path d="M161.63 238.13C161.37 239.62 160.63 240.73 160.02 240.62C159.41 240.51 159.11 239.22 159.37 237.73C159.63 236.24 160.37 235.14 160.98 235.25C161.59 235.36 161.89 236.65 161.63 238.13Z" fill="#263238"/>
<path d="M157.21 233.94C157.21 233.94 161.1 230.35 164.5 233.34" stroke="#263238" stroke-miterlimit="10"/>
<path d="M170.4 215.001C170.03 218.131 163.93 216.001 163.93 216.001L151.36 219.741C151.36 219.741 151.62 224.961 151.5 228.421C151.38 231.881 144.19 234.211 144.19 234.211L143.19 249.991L124.19 249.211L121.46 242.831C121.46 242.831 109.46 231.611 110.77 220.491C111.57 213.681 116.69 207.041 124.93 203.491C127.801 202.272 130.832 201.473 133.93 201.121C137.255 200.742 140.614 200.775 143.93 201.221C163.05 203.711 170.77 211.831 170.4 215.001Z" fill="#263238" stroke="#263238" stroke-miterlimit="10"/>
<path d="M133.85 235.172L126.68 239.172C126.38 238.622 120 226.872 124.98 203.472C127.85 202.253 130.882 201.454 133.98 201.102C131.08 212.312 130.98 220.562 131.55 225.712C132.19 232.002 133.84 235.142 133.85 235.172Z" fill="white" stroke="#263238" stroke-miterlimit="10"/>
<path d="M136.203 253.788C142.254 251.413 145.234 244.582 142.859 238.531C140.484 232.48 133.653 229.5 127.602 231.875C121.551 234.25 118.571 241.081 120.946 247.132C123.321 253.183 130.152 256.163 136.203 253.788Z" fill="white" stroke="#263238" stroke-miterlimit="10"/>
<path d="M136.37 299.071C140.121 310.259 144.825 321.106 150.43 331.491C159.62 348.421 173.43 366.791 178.56 365.641C183.69 364.491 212.7 314.561 214.71 310.261C216.72 305.961 219.88 299.641 219.88 299.641C219.88 299.641 226.48 294.761 227.05 292.751C227.62 290.741 226.29 281.211 226.29 281.211C226.29 281.211 229.79 276.611 228.65 274.601C227.51 272.591 225.58 273.221 223.58 274.371C221.58 275.521 217.21 278.731 217.21 278.731C217.768 276.489 217.809 274.15 217.33 271.891C216.47 268.741 213.85 269.801 213.56 271.811C213.27 273.821 213.28 275.811 212.42 277.811C211.191 280.219 210.306 282.787 209.79 285.441C209.22 288.881 207.67 298.191 207.67 298.191C207.67 298.191 191.78 315.931 187.47 320.251C185.34 322.371 180.83 325.831 180.83 325.831L169.09 302.491C169.09 302.491 163.09 281.261 156.75 275.491C153.681 272.708 149.843 270.917 145.739 270.354C141.635 269.79 137.456 270.479 133.75 272.331" fill="#EB434A"/>
<path d="M136.37 299.071C140.121 310.259 144.825 321.106 150.43 331.491C159.62 348.421 173.43 366.791 178.56 365.641C183.69 364.491 212.7 314.561 214.71 310.261C216.72 305.961 219.88 299.641 219.88 299.641C219.88 299.641 226.48 294.761 227.05 292.751C227.62 290.741 226.29 281.211 226.29 281.211C226.29 281.211 229.79 276.611 228.65 274.601C227.51 272.591 225.58 273.221 223.58 274.371C221.58 275.521 217.21 278.731 217.21 278.731C217.768 276.489 217.809 274.15 217.33 271.891C216.47 268.741 213.85 269.801 213.56 271.811C213.27 273.821 213.28 275.811 212.42 277.811C211.191 280.219 210.306 282.787 209.79 285.441C209.22 288.881 207.67 298.191 207.67 298.191C207.67 298.191 191.78 315.931 187.47 320.251C185.34 322.371 180.83 325.831 180.83 325.831L169.09 302.491C169.09 302.491 163.09 281.261 156.75 275.491C153.681 272.708 149.843 270.917 145.739 270.354C141.635 269.79 137.456 270.479 133.75 272.331" stroke="#263238" stroke-miterlimit="10"/>
<path d="M217.38 286.001C217.188 285.964 217.006 285.889 216.843 285.781C216.68 285.672 216.541 285.532 216.433 285.369C216.325 285.207 216.25 285.024 216.214 284.832C216.177 284.639 216.18 284.442 216.22 284.251L223.29 251.201C223.372 250.829 223.595 250.503 223.912 250.293C224.229 250.082 224.616 250.002 224.99 250.071C225.182 250.108 225.365 250.183 225.528 250.291C225.69 250.399 225.83 250.539 225.938 250.702C226.046 250.865 226.12 251.048 226.157 251.24C226.193 251.432 226.191 251.63 226.15 251.821L219.07 284.821C219.002 285.201 218.786 285.539 218.469 285.76C218.152 285.981 217.761 286.068 217.38 286.001Z" fill="#263238" stroke="#263238" stroke-miterlimit="10"/>
<path d="M227.05 292.751C227.62 290.751 226.29 281.211 226.29 281.211C226.29 281.211 229.79 276.611 228.65 274.601C227.51 272.591 225.58 273.221 223.58 274.371C221.58 275.521 217.21 278.731 217.21 278.731C217.768 276.489 217.809 274.15 217.33 271.891C216.47 268.741 213.85 269.801 213.56 271.811C213.27 273.821 213.28 275.811 212.42 277.811C211.192 280.219 210.306 282.787 209.79 285.441C209.22 288.881 207.67 298.191 207.67 298.191C207.67 298.191 204.99 301.191 201.53 305.011L213 313.461C213.88 311.881 214.48 310.761 214.71 310.261C216.71 305.951 219.88 299.641 219.88 299.641C219.88 299.641 226.48 294.761 227.05 292.751Z" fill="#D4D4D4" stroke="#263238" stroke-miterlimit="10"/>
<path d="M217.21 278.73C217.21 278.73 213.91 281.33 212.96 283.33" stroke="#263238" stroke-miterlimit="10"/>
<path d="M279.83 305.65C279.83 305.65 277.77 316.49 281.12 324.75C284.47 333.01 300.22 362.94 301.25 368.36C302.28 373.78 298.67 382.82 301.51 386.17C304.35 389.52 318.03 390.56 330.93 389.79C343.83 389.02 351.32 387.46 352.87 382.04C354.42 376.62 355.45 373.78 351.58 373.78C347.71 373.78 343.83 374.3 338.67 373.27C333.51 372.24 322.16 365.78 320.61 364.75C319.06 363.72 317.77 360.62 317.77 360.62C317.77 360.62 314.16 350.04 310.54 325.26C306.92 300.48 309.54 289.91 297.9 286.26C286.26 282.61 272.79 297.54 270.24 300.42" fill="#6E6E6E"/>
<path d="M279.83 305.65C279.83 305.65 277.77 316.49 281.12 324.75C284.47 333.01 300.22 362.94 301.25 368.36C302.28 373.78 298.67 382.82 301.51 386.17C304.35 389.52 318.03 390.56 330.93 389.79C343.83 389.02 351.32 387.46 352.87 382.04C354.42 376.62 355.45 373.78 351.58 373.78C347.71 373.78 343.83 374.3 338.67 373.27C333.51 372.24 322.16 365.78 320.61 364.75C319.06 363.72 317.77 360.62 317.77 360.62C317.77 360.62 314.16 350.04 310.54 325.26C306.92 300.48 309.54 289.91 297.9 286.26C286.26 282.61 272.79 297.54 270.24 300.42" stroke="#263238" stroke-miterlimit="10"/>
<path d="M352.87 382C354.42 376.58 355.45 373.74 351.58 373.74C347.71 373.74 343.83 374.26 338.67 373.23C333.51 372.2 322.16 365.74 320.61 364.71C319.06 363.68 317.77 360.58 317.77 360.58C316.337 355.938 315.159 351.221 314.24 346.45C305.15 343.3 298.24 349.28 294.82 353.28C298.14 360.22 300.82 366.19 301.25 368.28C302.25 373.7 298.67 382.74 301.51 386.09C304.35 389.44 318.03 390.48 330.93 389.71C343.83 388.94 351.32 387.46 352.87 382Z" fill="#D4D4D4" stroke="#263238" stroke-miterlimit="10"/>
<path d="M351.58 373.781C347.71 373.781 343.83 374.301 338.67 373.271C333.51 372.241 322.16 365.781 320.61 364.751C319.06 363.721 317.77 360.621 317.77 360.621C317.77 360.621 317.46 359.721 316.94 357.831C307.76 357.271 302.67 361.241 300.01 364.741C300.526 365.91 300.941 367.121 301.25 368.361C302.25 373.781 298.67 382.821 301.51 386.171C304.35 389.521 318.03 390.561 330.93 389.791C343.83 389.021 351.32 387.461 352.87 382.041C354.42 376.621 355.45 373.781 351.58 373.781Z" fill="white" stroke="#263238" stroke-miterlimit="10"/>
<path d="M226.79 435.18H126.26V441.15H226.79V435.18Z" fill="#919191" stroke="#263238" stroke-miterlimit="10"/>
<path d="M213.85 404.32L246.39 468.94C246.63 469.42 246.744 469.953 246.72 470.489C246.697 471.025 246.536 471.546 246.255 472.003C245.974 472.46 245.58 472.837 245.112 473.099C244.644 473.361 244.117 473.499 243.58 473.5C243.018 473.5 242.466 473.348 241.982 473.061C241.498 472.775 241.101 472.363 240.83 471.87L204.89 406.31L213.85 404.32Z" fill="#919191" stroke="#263238" stroke-miterlimit="10"/>
<path d="M141 387.08L111.41 469.5C111.216 470.001 111.154 470.543 111.229 471.074C111.303 471.606 111.513 472.109 111.838 472.537C112.163 472.964 112.593 473.301 113.085 473.515C113.577 473.729 114.116 473.814 114.65 473.76C115.212 473.707 115.749 473.503 116.205 473.171C116.66 472.838 117.018 472.389 117.24 471.87L150.06 388.18L141 387.08Z" fill="#919191" stroke="#263238" stroke-miterlimit="10"/>
<path d="M132.73 288.37C132.73 288.37 118.8 269.46 112.83 270.45C106.86 271.44 100.83 313.75 107.83 342.12C114.83 370.49 139.21 399.81 173 408.8C212.32 419.25 245.87 400.8 246.16 397.36C246.45 393.92 209.87 379.94 132.73 288.37Z" fill="#2A4D61"/>
<path opacity="0.29" d="M173 408.8C212.32 419.25 245.87 400.8 246.16 397.36C246.28 395.91 240.04 392.66 227.16 382.82C162.63 385.11 125.06 359.57 108.26 343.93C115.87 371.72 139.93 400 173 408.8Z" fill="black"/>
<path d="M132.73 288.37C132.73 288.37 118.8 269.46 112.83 270.45C106.86 271.44 100.83 313.75 107.83 342.12C114.83 370.49 139.21 399.81 173 408.8C212.32 419.25 245.87 400.8 246.16 397.36C246.45 393.92 209.87 379.94 132.73 288.37Z" stroke="#263238" stroke-miterlimit="10"/>
<path d="M424.86 432.002C424.86 432.002 413.36 427.902 386.54 426.002C359.72 424.102 334.29 427.002 333.29 429.492C332.53 431.392 336.43 456.292 338.29 467.892C338.554 469.534 339.395 471.029 340.661 472.109C341.927 473.188 343.536 473.781 345.2 473.782H418.35C420.023 473.782 421.641 473.183 422.91 472.093C424.18 471.003 425.017 469.495 425.27 467.842L429.71 438.922C429.982 437.382 429.641 435.797 428.761 434.504C427.882 433.212 426.532 432.314 425 432.002H424.86Z" fill="#2A4D61"/>
<path opacity="0.29" d="M423.59 471.42C388.12 471.5 369.24 453.83 360.31 438.35C356.83 432.35 351.16 428.71 345.31 426.58C338.23 427.37 333.67 428.46 333.31 429.49C332.55 431.39 336.45 456.29 338.31 467.89C338.574 469.533 339.415 471.028 340.681 472.107C341.947 473.187 343.556 473.78 345.22 473.78H418.37C419.358 473.777 420.333 473.565 421.233 473.159C422.132 472.752 422.936 472.159 423.59 471.42Z" fill="black"/>
<path d="M424.86 432.002C424.86 432.002 413.36 427.902 386.54 426.002C359.72 424.102 334.29 427.002 333.29 429.492C332.53 431.392 336.43 456.292 338.29 467.892C338.554 469.534 339.395 471.029 340.661 472.109C341.927 473.188 343.536 473.781 345.2 473.782H418.35C420.023 473.782 421.641 473.183 422.91 472.093C424.18 471.003 425.017 469.495 425.27 467.842L429.71 438.922C429.982 437.382 429.641 435.797 428.761 434.504C427.882 433.212 426.532 432.314 425 432.002H424.86Z" stroke="#263238" stroke-miterlimit="10"/>
<path d="M458.37 473.779H478.37" stroke="#263238" stroke-miterlimit="10"/>
<path d="M18.1099 473.779H450.03" stroke="#263238" stroke-miterlimit="10"/>
</svg>
