<svg width="522" height="471" viewBox="0 0 522 471" fill="none" xmlns="http://www.w3.org/2000/svg">
<g clip-path="url(#clip0_1111_12838)">
<path d="M557 396.469H-34V396.772H557V396.469Z" fill="#EBEBEB"/>
<path d="M497.782 415.971H458.634V416.274H497.782V415.971Z" fill="#EBEBEB"/>
<path d="M357.502 419.268H347.23V419.571H357.502V419.268Z" fill="#EBEBEB"/>
<path d="M457.452 404.723H434.77V405.026H457.452V404.723Z" fill="#EBEBEB"/>
<path d="M79.0584 406.76H28.0078V407.063H79.0584V406.76Z" fill="#EBEBEB"/>
<path d="M97.0719 406.76H89.5898V407.063H97.0719V406.76Z" fill="#EBEBEB"/>
<path d="M232.127 411.873H121.397V412.176H232.127V411.873Z" fill="#EBEBEB"/>
<path d="M246.134 342.414H17.9015C16.1135 342.411 14.3999 341.68 13.1367 340.383C11.8735 339.085 11.1641 337.327 11.1641 335.493V6.52008C11.1796 4.69726 11.8959 2.95435 13.1574 1.66992C14.4189 0.385488 16.1237 -0.336721 17.9015 -0.339844H246.134C247.924 -0.339844 249.641 0.389281 250.906 1.68713C252.172 2.98498 252.883 4.74524 252.883 6.58068V335.493C252.883 337.329 252.172 339.089 250.906 340.387C249.641 341.685 247.924 342.414 246.134 342.414ZM17.9015 -0.0974428C16.1919 -0.0942322 14.5534 0.604383 13.3456 1.84506C12.1379 3.08574 11.4596 4.7671 11.4596 6.52008V335.493C11.4596 337.246 12.1379 338.928 13.3456 340.168C14.5534 341.409 16.1919 342.108 17.9015 342.111H246.134C247.845 342.108 249.484 341.409 250.694 340.169C251.903 338.929 252.584 337.247 252.588 335.493V6.52008C252.584 4.76599 251.903 3.08465 250.694 1.84432C249.484 0.603989 247.845 -0.094239 246.134 -0.0974428H17.9015Z" fill="#41C1CB" fill-opacity="0.02"/>
<path d="M501.813 342.414H273.569C271.78 342.411 270.065 341.68 268.8 340.383C267.535 339.086 266.822 337.328 266.819 335.493V6.52008C266.838 4.69615 267.557 2.95325 268.82 1.66916C270.084 0.385064 271.79 -0.336755 273.569 -0.339844H501.813C503.588 -0.333536 505.29 0.390082 506.549 1.67417C507.808 2.95826 508.523 4.69935 508.538 6.52008V335.493C508.538 337.324 507.831 339.081 506.57 340.378C505.309 341.675 503.599 342.407 501.813 342.414ZM273.569 -0.0974428C271.858 -0.094239 270.218 0.60399 269.009 1.84432C267.799 3.08465 267.118 4.76598 267.115 6.52008V335.493C267.118 337.247 267.799 338.929 269.009 340.169C270.218 341.409 271.858 342.108 273.569 342.111H501.813C503.523 342.108 505.163 341.409 506.373 340.169C507.582 338.929 508.263 337.247 508.266 335.493V6.52008C508.263 4.76598 507.582 3.08465 506.373 1.84432C505.163 0.60399 503.523 -0.094239 501.813 -0.0974428H273.569Z" fill="#41C1CB" fill-opacity="0.02"/>
<path d="M214.965 63.5449H33.8232V216.645H214.965V63.5449Z" fill="black" fill-opacity="0.05"/>
<path d="M69.5315 78.5488H46.0215V102.656H69.5315V78.5488Z" fill="#2A4D61"/>
<path d="M204.917 140.566H181.407V164.673H204.917V140.566Z" fill="#F5F5F5"/>
<path d="M98.6438 91.252H75.1338V115.359H98.6438V91.252Z" fill="#2A4D61"/>
<path d="M178.405 148.154H154.896V172.261H178.405V148.154Z" fill="#F5F5F5"/>
<path d="M86.8836 148.711H53.043V194.815H86.8836V148.711Z" fill="#2A4D61"/>
<path d="M125.522 149.062H91.6816V195.167H125.522V149.062Z" fill="#F5F5F5"/>
<path d="M193.157 80.2578H159.316V126.362H193.157V80.2578Z" fill="#F5F5F5"/>
<path d="M496.825 30.5176H376.592V289.001H496.825V30.5176Z" fill="#41C1CB" fill-opacity="0.02"/>
<path d="M499.602 27.1484H373.813V39.3169H499.602V27.1484Z" fill="black" fill-opacity="0.05"/>
<path d="M499.602 44.2988H373.813V50.3831H499.602V44.2988Z" fill="black" fill-opacity="0.05"/>
<path d="M499.602 53.3281H373.813V59.4124H499.602V53.3281Z" fill="black" fill-opacity="0.05"/>
<path d="M499.602 62.3574H373.813V68.4417H499.602V62.3574Z" fill="black" fill-opacity="0.05"/>
<path d="M499.602 71.3867H373.813V77.471H499.602V71.3867Z" fill="black" fill-opacity="0.05"/>
<path d="M499.602 80.4043H373.813V86.4885H499.602V80.4043Z" fill="black" fill-opacity="0.05"/>
<path d="M499.602 89.4336H373.813V95.5178H499.602V89.4336Z" fill="black" fill-opacity="0.05"/>
<path d="M499.602 98.4629H373.813V104.547H499.602V98.4629Z" fill="black" fill-opacity="0.05"/>
<path d="M499.602 107.492H373.813V113.576H499.602V107.492Z" fill="black" fill-opacity="0.05"/>
<path d="M499.602 116.521H373.813V122.606H499.602V116.521Z" fill="black" fill-opacity="0.05"/>
<path d="M499.602 125.539H373.813V131.623H499.602V125.539Z" fill="black" fill-opacity="0.05"/>
<path d="M499.602 134.568H373.813V140.653H499.602V134.568Z" fill="black" fill-opacity="0.05"/>
<path d="M499.602 143.598H373.813V149.682H499.602V143.598Z" fill="black" fill-opacity="0.05"/>
<path d="M499.602 152.627H373.813V158.711H499.602V152.627Z" fill="black" fill-opacity="0.05"/>
<path d="M499.602 161.656H373.813V167.74H499.602V161.656Z" fill="black" fill-opacity="0.05"/>
<path d="M499.602 170.686H373.813V176.77H499.602V170.686Z" fill="black" fill-opacity="0.05"/>
<path d="M499.602 179.703H373.813V185.787H499.602V179.703Z" fill="black" fill-opacity="0.05"/>
<path d="M499.602 188.732H373.813V194.817H499.602V188.732Z" fill="black" fill-opacity="0.05"/>
<path d="M499.602 197.762H373.813V203.846H499.602V197.762Z" fill="black" fill-opacity="0.05"/>
<path d="M499.602 206.791H373.813V212.875H499.602V206.791Z" fill="black" fill-opacity="0.05"/>
<path d="M499.602 215.82H373.813V221.905H499.602V215.82Z" fill="black" fill-opacity="0.05"/>
<path d="M499.602 224.838H373.813V230.922H499.602V224.838Z" fill="black" fill-opacity="0.05"/>
<path d="M499.602 233.867H373.813V239.951H499.602V233.867Z" fill="black" fill-opacity="0.05"/>
<path d="M499.602 242.896H373.813V248.981H499.602V242.896Z" fill="black" fill-opacity="0.05"/>
<path d="M499.602 251.926H373.813V258.01H499.602V251.926Z" fill="black" fill-opacity="0.05"/>
<path d="M499.602 260.955H373.813V267.039H499.602V260.955Z" fill="black" fill-opacity="0.05"/>
<path d="M499.602 269.984H373.813V276.069H499.602V269.984Z" fill="black" fill-opacity="0.05"/>
<path d="M499.602 279.002H373.813V285.086H499.602V279.002Z" fill="black" fill-opacity="0.05"/>
<path d="M52.0144 357.539C51.8371 356.327 47.7001 327.033 55.9859 316.925C56.8174 315.853 57.8719 314.986 59.0724 314.386C60.2729 313.786 61.5889 313.469 62.9242 313.458C79.6495 313.046 81.9426 326.79 81.9663 326.972L79.9923 327.287C79.9096 326.79 77.9356 315.167 62.9715 315.494C61.9282 315.512 60.9018 315.768 59.9673 316.244C59.0328 316.72 58.2137 317.404 57.5698 318.246C49.8631 327.651 54.0238 356.945 54.0238 357.236L52.0144 357.539Z" fill="#EDFEFF"/>
<path d="M50.9979 356.207L49.0121 356.146C49.0121 355.88 49.674 329.179 36.8375 323.665C24.2728 318.259 18.6111 329.361 18.3747 329.846L16.5898 328.925C16.6608 328.791 23.2918 315.593 37.6176 321.774C51.7071 327.834 51.0333 355.055 50.9979 356.207Z" fill="#EDFEFF"/>
<path d="M51.1035 358.303C51.1035 357.879 50.9853 315.653 42.9596 303.303C35.2529 291.449 22.8656 297.025 22.2864 297.243L21.459 295.376C21.6126 295.304 35.9621 288.807 44.6144 302.139C52.9829 314.999 53.1011 356.51 53.1011 358.267L51.1035 358.303Z" fill="#EDFEFF"/>
<path d="M65.2883 314.464C65.2883 314.464 57.9599 317.204 60.123 323.748C62.2861 330.293 85.3824 340.995 85.3824 340.995C85.3824 340.995 95.0511 331.905 86.1743 317.119C77.2975 302.332 65.4538 309.798 65.2883 314.464Z" fill="#FFF2F3"/>
<path d="M42.546 301.084C42.546 301.084 47.735 300.514 47.274 297.266C46.813 294.018 27.1564 285.692 15.5137 299.181C15.5137 299.181 22.9721 312.307 33.7519 312.513C44.5318 312.719 42.546 301.084 42.546 301.084Z" fill="#FFF2F3"/>
<path d="M37.2269 322.718C37.2269 322.718 40.7729 319.748 36.9432 318.306C33.1136 316.864 14.1306 317.276 13.9297 336.486C13.9297 336.486 36.0094 340.243 38.7517 332.911C41.4939 325.578 37.2269 322.718 37.2269 322.718Z" fill="#FFF2F3"/>
<path d="M69.1884 396.76H34.934L31.2344 358.303H72.8762L69.1884 396.76Z" fill="#EBEBEB"/>
<path d="M74.7083 354.061H29.4141V362.545H74.7083V354.061Z" fill="black" fill-opacity="0.05"/>
<path d="M479.225 361.94C479.225 361.94 472.546 346.996 480.17 332.27C487.794 317.544 490.016 314.09 485.147 311.06C480.277 308.03 478.055 322.841 478.055 322.841C478.055 322.841 473.953 312.66 477.345 302.006C480.738 291.353 482.853 273.997 478.22 272.143C473.587 270.288 477.345 293.789 473.327 301.8C471.283 296.174 469.964 290.299 469.402 284.323C468.859 275.767 469.721 262.095 466.069 258.593C462.417 255.09 460.076 257.514 463.705 276.397C465.854 287.683 467.041 299.139 467.251 310.636C467.251 310.636 459.332 285.863 454.013 285.184C448.694 284.505 448.694 292.456 453.256 299.449C457.819 306.442 466.577 318.841 468.019 325.289C468.019 325.289 459.32 306.636 451.471 312.357C443.623 318.078 458.292 329.325 464.804 333.397C471.317 337.47 475.856 362.97 475.856 362.97L479.225 361.94Z" fill="black" fill-opacity="0.05"/>
<path d="M473.953 368.109C473.953 368.109 480.454 353.068 472.653 338.464C464.851 323.859 462.594 320.417 467.428 317.326C472.263 314.236 474.662 328.998 474.662 328.998C474.662 328.998 478.634 318.756 475.123 308.164C471.612 297.571 469.296 280.288 473.941 278.3C478.586 276.312 475.123 299.934 479.177 307.885C481.154 302.229 482.406 296.334 482.901 290.347C483.35 281.79 482.333 268.143 485.938 264.58C489.543 261.017 491.907 263.368 488.551 282.348C486.525 293.661 485.465 305.134 485.383 316.635C485.383 316.635 493.018 291.741 498.326 290.941C503.633 290.141 503.727 298.152 499.259 305.182C494.791 312.212 486.151 324.804 484.792 331.24C484.792 331.24 493.267 312.466 501.151 318.066C509.035 323.665 494.543 335.143 488.066 339.312C481.589 343.481 477.369 369.042 477.369 369.042L473.953 368.109Z" fill="#EBEBEB"/>
<path d="M503.94 357.346H450.229L454.567 396.76H499.59L503.94 357.346Z" fill="white"/>
<path d="M361.852 357.055L358.306 356.533C358.944 352 362.632 343.432 372.088 343.432C383.293 343.432 388.86 350.061 389.428 356.63L385.882 356.945C385.456 352.025 381.036 347.068 372.076 347.068C363.4 347.068 361.97 356.642 361.852 357.055Z" fill="black" fill-opacity="0.05"/>
<path d="M403.34 353.855H345.741C342.588 353.855 340.032 356.476 340.032 359.709V390.252C340.032 393.485 342.588 396.106 345.741 396.106H403.34C406.493 396.106 409.049 393.485 409.049 390.252V359.709C409.049 356.476 406.493 353.855 403.34 353.855Z" fill="#2A4D61"/>
<path d="M389.463 396.759C340.694 396.759 338.33 362.448 338.33 362.048L340.316 358.072C340.387 359.345 344.228 393.075 389.522 393.075C408.151 393.075 424.25 393.075 425.881 389.439C427.311 386.215 420.314 377.973 409.12 364.75V359.684C423.387 376.531 431.483 385.597 429.108 390.942C426.566 396.529 415.787 396.759 389.463 396.759Z" fill="black" fill-opacity="0.05"/>
<path d="M261.5 451.203C388.072 451.203 490.678 445.061 490.678 437.483C490.678 429.906 388.072 423.764 261.5 423.764C134.929 423.764 32.3223 429.906 32.3223 437.483C32.3223 445.061 134.929 451.203 261.5 451.203Z" fill="#F5F5F5"/>
<path d="M359.275 44.6002C360.843 44.6002 362.346 45.2387 363.454 46.3752C364.563 47.5116 365.185 49.053 365.185 50.6602V248.495C365.185 250.102 364.563 251.644 363.454 252.78C362.346 253.917 360.843 254.555 359.275 254.555H100.216C98.6489 254.555 97.1457 253.917 96.0374 252.78C94.929 251.644 94.3064 250.102 94.3064 248.495V50.5633C94.3064 48.9561 94.929 47.4147 96.0374 46.2782C97.1457 45.1417 98.6489 44.5033 100.216 44.5033H359.275M359.275 42.9883H100.216C99.2484 42.9883 98.2901 43.1845 97.3964 43.5658C96.5028 43.9471 95.6915 44.5058 95.0092 45.2099C94.327 45.9139 93.7873 46.7494 93.4212 47.6681C93.0552 48.5869 92.8699 49.5708 92.8761 50.5633V248.495C92.8761 250.491 93.6495 252.406 95.026 253.817C96.4026 255.229 98.2696 256.022 100.216 256.022H359.275C361.222 256.022 363.089 255.229 364.466 253.817C365.842 252.406 366.615 250.491 366.615 248.495V50.5633C366.615 48.5671 365.842 46.6527 364.466 45.2412C363.089 43.8297 361.222 43.0368 359.275 43.0368V42.9883Z" fill="#EB434A"/>
<path opacity="0.7" d="M359.275 43.0859H100.216C96.1623 43.0859 92.876 46.4557 92.876 50.6125V248.496C92.876 252.652 96.1623 256.022 100.216 256.022H359.275C363.329 256.022 366.615 252.652 366.615 248.496V50.6125C366.615 46.4557 363.329 43.0859 359.275 43.0859Z" fill="white"/>
<path d="M336.073 65.168H332.681V68.0646H336.073V65.168Z" fill="#EB434A"/>
<path d="M336.061 227.515H332.681V221.818H336.061V227.515ZM336.061 216.122H332.681V210.426H336.061V216.122ZM336.061 204.741H332.681V199.045H336.061V204.741ZM336.061 193.349H332.681V187.664H336.061V193.349ZM336.061 181.968H332.681V176.271H336.061V181.968ZM336.061 170.575H332.681V164.891H336.061V170.575ZM336.061 159.194H332.681V153.498H336.061V159.194ZM336.061 147.814H332.681V142.117H336.061V147.814ZM336.061 136.421H332.681V130.725H336.061V136.421ZM336.061 125.04H332.681V119.344H336.061V125.04ZM336.061 113.647H332.681V107.963H336.061V113.647ZM336.061 102.267H332.681V96.5704H336.061V102.267ZM336.061 90.874H332.681V85.1897H336.061V90.874ZM336.061 79.4933H332.681V73.7969H336.061V79.4933Z" fill="#EB434A"/>
<path d="M336.073 233.15H332.681V236.047H336.073V233.15Z" fill="#EB434A"/>
<path d="M131.173 227.515H127.78V221.818H131.173V227.515Z" fill="#EB434A"/>
<path d="M131.173 233.15H127.78V236.047H131.173V233.15Z" fill="#EB434A"/>
<path d="M172.153 227.515H168.761V221.818H172.153V227.515ZM172.153 216.122H168.761V210.425H172.153V216.122ZM172.153 204.741H168.761V199.045H172.153V204.741ZM172.153 193.348H168.761V187.664H172.153V193.348Z" fill="#EB434A"/>
<path d="M172.153 233.15H168.761V236.047H172.153V233.15Z" fill="#EB434A"/>
<path d="M213.133 227.515H209.74V221.818H213.133V227.515ZM213.133 216.122H209.74V210.426H213.133V216.122ZM213.133 204.741H209.74V199.045H213.133V204.741ZM213.133 193.349H209.74V187.664H213.133V193.349ZM213.133 181.968H209.74V176.271H213.133V181.968Z" fill="#EB434A"/>
<path d="M213.133 233.15H209.74V236.047H213.133V233.15Z" fill="#EB434A"/>
<path d="M254.113 227.515H250.721V221.818H254.113V227.515ZM254.113 216.122H250.721V210.425H254.113V216.122ZM254.113 204.741H250.721V199.045H254.113V204.741ZM254.113 193.348H250.721V187.664H254.113V193.348ZM254.113 181.968H250.721V176.271H254.113V181.968ZM254.113 170.575H250.721V164.891H254.113V170.575ZM254.113 159.194H250.721V153.498H254.113V159.194ZM254.113 147.814H250.721V142.117H254.113V147.814Z" fill="#EB434A"/>
<path d="M254.113 233.15H250.721V236.047H254.113V233.15Z" fill="#EB434A"/>
<path d="M295.093 227.515H291.7V221.818H295.093V227.515ZM295.093 216.122H291.7V210.426H295.093V216.122ZM295.093 204.741H291.7V199.045H295.093V204.741ZM295.093 193.348H291.7V187.664H295.093V193.348ZM295.093 181.968H291.7V176.271H295.093V181.968ZM295.093 170.575H291.7V164.891H295.093V170.575ZM295.093 159.194H291.7V153.498H295.093V159.194ZM295.093 147.814H291.7V142.117H295.093V147.814ZM295.093 136.421H291.7V130.724H295.093V136.421ZM295.093 125.04H291.7V119.344H295.093V125.04Z" fill="#EB434A"/>
<path d="M295.093 233.15H291.7V236.047H295.093V233.15Z" fill="#EB434A"/>
<g opacity="0.7">
<path d="M336.072 65.168H332.68V68.0646H336.072V65.168Z" fill="white"/>
<path d="M336.06 227.515H332.68V221.818H336.06V227.515ZM336.06 216.122H332.68V210.426H336.06V216.122ZM336.06 204.741H332.68V199.045H336.06V204.741ZM336.06 193.349H332.68V187.664H336.06V193.349ZM336.06 181.968H332.68V176.271H336.06V181.968ZM336.06 170.575H332.68V164.891H336.06V170.575ZM336.06 159.194H332.68V153.498H336.06V159.194ZM336.06 147.814H332.68V142.117H336.06V147.814ZM336.06 136.421H332.68V130.725H336.06V136.421ZM336.06 125.04H332.68V119.344H336.06V125.04ZM336.06 113.647H332.68V107.963H336.06V113.647ZM336.06 102.267H332.68V96.5704H336.06V102.267ZM336.06 90.874H332.68V85.1897H336.06V90.874ZM336.06 79.4933H332.68V73.7969H336.06V79.4933Z" fill="white"/>
<path d="M336.072 233.15H332.68V236.047H336.072V233.15Z" fill="white"/>
<path d="M131.173 227.515H127.78V221.818H131.173V227.515Z" fill="white"/>
<path d="M131.173 233.15H127.78V236.047H131.173V233.15Z" fill="white"/>
<path d="M172.152 227.515H168.76V221.818H172.152V227.515ZM172.152 216.122H168.76V210.425H172.152V216.122ZM172.152 204.741H168.76V199.045H172.152V204.741ZM172.152 193.348H168.76V187.664H172.152V193.348Z" fill="white"/>
<path d="M172.152 233.15H168.76V236.047H172.152V233.15Z" fill="white"/>
<path d="M213.133 227.515H209.74V221.818H213.133V227.515ZM213.133 216.122H209.74V210.426H213.133V216.122ZM213.133 204.741H209.74V199.045H213.133V204.741ZM213.133 193.349H209.74V187.664H213.133V193.349ZM213.133 181.968H209.74V176.271H213.133V181.968Z" fill="white"/>
<path d="M213.133 233.15H209.74V236.047H213.133V233.15Z" fill="white"/>
<path d="M254.112 227.515H250.72V221.818H254.112V227.515ZM254.112 216.122H250.72V210.425H254.112V216.122ZM254.112 204.741H250.72V199.045H254.112V204.741ZM254.112 193.348H250.72V187.664H254.112V193.348ZM254.112 181.968H250.72V176.271H254.112V181.968ZM254.112 170.575H250.72V164.891H254.112V170.575ZM254.112 159.194H250.72V153.498H254.112V159.194ZM254.112 147.814H250.72V142.117H254.112V147.814Z" fill="white"/>
<path d="M254.112 233.15H250.72V236.047H254.112V233.15Z" fill="white"/>
<path d="M295.093 227.515H291.7V221.818H295.093V227.515ZM295.093 216.122H291.7V210.426H295.093V216.122ZM295.093 204.741H291.7V199.045H295.093V204.741ZM295.093 193.348H291.7V187.664H295.093V193.348ZM295.093 181.968H291.7V176.271H295.093V181.968ZM295.093 170.575H291.7V164.891H295.093V170.575ZM295.093 159.194H291.7V153.498H295.093V159.194ZM295.093 147.814H291.7V142.117H295.093V147.814ZM295.093 136.421H291.7V130.724H295.093V136.421ZM295.093 125.04H291.7V119.344H295.093V125.04Z" fill="white"/>
<path d="M295.093 233.15H291.7V236.047H295.093V233.15Z" fill="white"/>
</g>
<path d="M334.371 59.3496C333.424 59.3499 332.492 59.5938 331.661 60.0589C330.83 60.524 330.125 61.1954 329.613 62.0117C329.1 62.8281 328.795 63.7632 328.726 64.7316C328.657 65.7 328.826 66.6707 329.217 67.5548L295.4 104.23C294.543 103.886 293.617 103.763 292.703 103.87C291.788 103.977 290.913 104.311 290.154 104.844C289.394 105.377 288.773 106.092 288.344 106.927C287.915 107.762 287.692 108.692 287.694 109.635C287.681 109.829 287.681 110.024 287.694 110.217L255.874 127.694C254.88 126.837 253.627 126.362 252.328 126.349C250.827 126.352 249.389 126.965 248.328 128.053C247.267 129.141 246.669 130.616 246.666 132.154C246.677 132.701 246.76 133.243 246.915 133.766L214.067 160.6C213.232 160.107 212.288 159.844 211.325 159.837C209.943 159.841 208.611 160.364 207.579 161.306C206.547 162.248 205.886 163.544 205.722 164.951L174.765 173.653C174.048 172.691 173.054 171.984 171.923 171.632C170.793 171.28 169.583 171.301 168.465 171.692C167.347 172.083 166.377 172.824 165.692 173.811C165.007 174.798 164.641 175.981 164.647 177.192C164.652 177.739 164.736 178.283 164.896 178.804L132.048 205.699C131.214 205.204 130.269 204.94 129.306 204.935C128.182 204.933 127.084 205.272 126.149 205.91C125.214 206.549 124.485 207.457 124.054 208.521C123.623 209.584 123.51 210.755 123.729 211.885C123.947 213.014 124.488 214.052 125.282 214.866C126.076 215.681 127.088 216.235 128.19 216.459C129.291 216.683 130.433 216.567 131.47 216.125C132.508 215.683 133.394 214.936 134.016 213.977C134.639 213.019 134.97 211.892 134.967 210.741C134.957 210.194 134.873 209.652 134.719 209.129L167.579 182.295C168.412 182.79 169.358 183.053 170.321 183.058C171.699 183.051 173.027 182.529 174.056 181.59C175.085 180.65 175.745 179.358 175.912 177.956L206.868 169.242C207.584 170.209 208.579 170.921 209.712 171.276C210.844 171.631 212.057 171.611 213.179 171.22C214.3 170.828 215.272 170.084 215.958 169.094C216.643 168.104 217.007 166.917 216.998 165.703C216.988 165.156 216.904 164.614 216.75 164.091L249.598 137.257C250.432 137.75 251.377 138.014 252.34 138.021C253.843 138.021 255.284 137.409 256.348 136.321C257.411 135.232 258.01 133.756 258.014 132.215C258.014 132.009 258.014 131.827 257.954 131.621L289.774 114.156C290.756 114.995 291.987 115.466 293.264 115.494C294.542 115.521 295.791 115.102 296.806 114.306C297.822 113.511 298.543 112.385 298.852 111.113C299.162 109.842 299.041 108.5 298.509 107.308L332.338 70.6212C332.984 70.889 333.674 71.0288 334.371 71.0333C335.829 70.965 337.206 70.3229 338.214 69.2405C339.223 68.1581 339.785 66.7187 339.785 65.2218C339.785 63.7248 339.223 62.2854 338.214 61.203C337.206 60.1206 335.829 59.4785 334.371 59.4102V59.3496Z" fill="#EB434A"/>
<path d="M204.587 153.329C204.271 153.328 203.962 153.419 203.695 153.593C203.429 153.768 203.218 154.017 203.086 154.311H169.564C168.978 154.311 168.416 154.072 168.001 153.647C167.587 153.222 167.354 152.646 167.354 152.044V116.012H165.936V152.069C165.939 153.053 166.322 153.997 167.003 154.692C167.683 155.387 168.604 155.777 169.564 155.777H203.086C203.213 156.052 203.409 156.286 203.654 156.456C203.899 156.626 204.184 156.725 204.479 156.744C204.775 156.762 205.069 156.7 205.333 156.562C205.597 156.424 205.819 156.216 205.978 155.96C206.136 155.704 206.225 155.409 206.235 155.105C206.244 154.802 206.175 154.502 206.033 154.236C205.891 153.97 205.682 153.747 205.427 153.592C205.173 153.437 204.883 153.355 204.587 153.353V153.329Z" fill="#EB434A"/>
<path d="M186.313 105.963H146.965C145.274 105.963 143.903 107.368 143.903 109.102V120.507C143.903 122.241 145.274 123.646 146.965 123.646H186.313C188.004 123.646 189.375 122.241 189.375 120.507V109.102C189.375 107.368 188.004 105.963 186.313 105.963Z" fill="#EB434A"/>
<g opacity="0.4">
<path d="M204.587 153.327C204.271 153.326 203.962 153.417 203.695 153.592C203.429 153.766 203.218 154.015 203.086 154.309H169.564C168.978 154.309 168.416 154.07 168.001 153.645C167.587 153.22 167.354 152.644 167.354 152.043V116.01H165.936V152.067C165.939 153.051 166.322 153.995 167.003 154.69C167.683 155.385 168.604 155.775 169.564 155.775H203.086C203.213 156.05 203.409 156.284 203.654 156.454C203.899 156.624 204.184 156.723 204.479 156.742C204.775 156.76 205.069 156.698 205.333 156.56C205.597 156.422 205.819 156.214 205.978 155.958C206.136 155.702 206.225 155.407 206.235 155.103C206.244 154.8 206.175 154.5 206.033 154.234C205.891 153.968 205.682 153.745 205.427 153.59C205.173 153.435 204.883 153.353 204.587 153.351V153.327Z" fill="white"/>
<path d="M186.313 105.963H146.965C145.274 105.963 143.903 107.368 143.903 109.102V120.507C143.903 122.241 145.274 123.646 146.965 123.646H186.313C188.004 123.646 189.375 122.241 189.375 120.507V109.102C189.375 107.368 188.004 105.963 186.313 105.963Z" fill="white"/>
</g>
<path d="M253.049 116.703V64.7441H251.642V116.703C251.298 116.867 251.019 117.146 250.851 117.495C250.683 117.844 250.636 118.241 250.718 118.621C250.8 119.001 251.006 119.341 251.302 119.584C251.598 119.828 251.966 119.961 252.345 119.961C252.725 119.961 253.093 119.828 253.389 119.584C253.685 119.341 253.891 119.001 253.973 118.621C254.055 118.241 254.008 117.844 253.84 117.495C253.672 117.146 253.393 116.867 253.049 116.703Z" fill="#EB434A"/>
<path d="M272.02 55.8965H232.672C230.981 55.8965 229.61 57.3019 229.61 59.0356V70.4405C229.61 72.1742 230.981 73.5796 232.672 73.5796H272.02C273.711 73.5796 275.082 72.1742 275.082 70.4405V59.0356C275.082 57.3019 273.711 55.8965 272.02 55.8965Z" fill="#EB434A"/>
<g opacity="0.4">
<path d="M253.05 116.703V64.7441H251.643V116.703C251.299 116.867 251.02 117.146 250.852 117.495C250.684 117.844 250.637 118.241 250.719 118.621C250.801 119.001 251.007 119.341 251.303 119.584C251.599 119.828 251.967 119.961 252.346 119.961C252.726 119.961 253.094 119.828 253.39 119.584C253.686 119.341 253.892 119.001 253.974 118.621C254.056 118.241 254.009 117.844 253.841 117.495C253.673 117.146 253.394 116.867 253.05 116.703Z" fill="white"/>
<path d="M272.02 55.8965H232.672C230.981 55.8965 229.61 57.3019 229.61 59.0356V70.4405C229.61 72.1742 230.981 73.5796 232.672 73.5796H272.02C273.711 73.5796 275.082 72.1742 275.082 70.4405V59.0356C275.082 57.3019 273.711 55.8965 272.02 55.8965Z" fill="white"/>
</g>
<path d="M347.207 243.66H113.384C113.384 242.444 113.854 241.277 114.692 240.416C115.529 239.555 116.666 239.07 117.852 239.066H342.727C343.915 239.066 345.055 239.55 345.895 240.412C346.735 241.273 347.207 242.442 347.207 243.66Z" fill="#EB434A"/>
<path opacity="0.4" d="M347.207 243.66H113.384C113.384 242.444 113.854 241.277 114.692 240.416C115.529 239.555 116.666 239.07 117.852 239.066H342.727C343.915 239.066 345.055 239.55 345.895 240.412C346.735 241.273 347.207 242.442 347.207 243.66Z" fill="white"/>
<path opacity="0.2" d="M170.321 181.349C172.56 181.349 174.375 179.488 174.375 177.192C174.375 174.896 172.56 173.035 170.321 173.035C168.082 173.035 166.267 174.896 166.267 177.192C166.267 179.488 168.082 181.349 170.321 181.349Z" fill="white"/>
<path opacity="0.4" d="M211.336 169.812C213.576 169.812 215.391 167.951 215.391 165.655C215.391 163.359 213.576 161.498 211.336 161.498C209.097 161.498 207.282 163.359 207.282 165.655C207.282 167.951 209.097 169.812 211.336 169.812Z" fill="white"/>
<path opacity="0.6" d="M252.339 136.312C254.579 136.312 256.394 134.451 256.394 132.155C256.394 129.859 254.579 127.998 252.339 127.998C250.1 127.998 248.285 129.859 248.285 132.155C248.285 134.451 250.1 136.312 252.339 136.312Z" fill="white"/>
<path opacity="0.8" d="M293.355 113.793C295.594 113.793 297.409 111.932 297.409 109.636C297.409 107.34 295.594 105.479 293.355 105.479C291.116 105.479 289.301 107.34 289.301 109.636C289.301 111.932 291.116 113.793 293.355 113.793Z" fill="white"/>
<path d="M334.371 69.3241C336.61 69.3241 338.425 67.4629 338.425 65.1669C338.425 62.871 336.61 61.0098 334.371 61.0098C332.132 61.0098 330.316 62.871 330.316 65.1669C330.316 67.4629 332.132 69.3241 334.371 69.3241Z" fill="white"/>
<path d="M477.641 239.637L482.676 253.211C482.676 253.211 488.444 256.544 488.881 257.489C489.319 258.435 490.595 269.997 489.685 271.221C488.775 272.446 477.026 269.258 477.002 267.998C476.979 266.737 476.423 256.411 476.423 256.411L469.662 241.576L477.641 239.637Z" fill="#E4897B"/>
<path d="M453.279 132.531C462.038 137.913 462.971 186.792 464.378 191.362C465.784 195.931 483.101 246.265 483.101 246.265L470.926 251.113C470.926 251.113 453.61 213.723 449.875 203.142C446.14 192.562 443.634 168.6 443.634 168.6L453.279 132.531Z" fill="#EB434A"/>
<path opacity="0.2" d="M453.279 132.531C462.038 137.913 462.971 186.792 464.378 191.362C465.784 195.931 483.101 246.265 483.101 246.265L470.926 251.113C470.926 251.113 453.61 213.723 449.875 203.142C446.14 192.562 443.634 168.6 443.634 168.6L453.279 132.531Z" fill="black"/>
<path d="M441.365 126.158C428.174 118.728 411.129 120.291 411.129 120.291L395.929 142.326L374.476 220.972L377.632 223.917L378.979 217.676L437.311 223.736L438.292 231.88L441.649 230.196L443.634 133.514L441.365 126.158Z" fill="#EB434A"/>
<path opacity="0.4" d="M441.365 126.158C428.174 118.728 411.129 120.291 411.129 120.291L395.929 142.326L374.476 220.972L377.632 223.917L378.979 217.676L437.311 223.736L438.292 231.88L441.649 230.196L443.634 133.514L441.365 126.158Z" fill="black"/>
<path d="M358.684 68.8292L354.476 54.2004C354.963 51.1145 355.212 47.994 355.221 44.868C354.972 42.2016 348.861 37.0991 346.947 35.3053C345.032 33.5115 337.112 39.3291 337.491 40.5896C337.869 41.8501 342.491 51.7279 343.956 52.8672L346.32 54.2367L349.973 72.6591L358.684 68.8292Z" fill="#E4897B"/>
<path d="M399.427 121.491C386.047 114.462 375.846 103.602 372.099 97.2515C368.352 90.9006 357.324 57.6797 357.324 57.6797L345.682 59.4977C345.682 59.4977 352.691 100.306 356.438 109.19C360.185 118.074 394.581 150.313 394.581 150.313L399.427 121.491Z" fill="#EB434A"/>
<path opacity="0.2" d="M399.427 121.491C386.047 114.462 375.846 103.602 372.099 97.2515C368.352 90.9006 357.324 57.6797 357.324 57.6797L345.682 59.4977C345.682 59.4977 352.691 100.306 356.438 109.19C360.185 118.074 394.581 150.313 394.581 150.313L399.427 121.491Z" fill="black"/>
<path d="M390.727 428.163L381.141 429.205L379.333 407.995L388.931 406.953L390.727 428.163Z" fill="#E4897B"/>
<path d="M438.575 427.447H429.285L428.517 405.377H437.819L438.575 427.447Z" fill="#E4897B"/>
<path d="M427.997 426.345H439.285C439.47 426.346 439.649 426.412 439.792 426.531C439.936 426.649 440.037 426.815 440.077 427L441.909 435.484C441.982 435.849 441.911 436.228 441.712 436.54C441.512 436.851 441.201 437.068 440.845 437.144C440.747 437.156 440.648 437.156 440.55 437.144C436.897 437.084 434.238 436.853 429.652 436.853C426.827 436.853 418.304 437.156 414.404 437.156C410.503 437.156 409.995 433.205 411.591 432.842C418.753 431.242 424.143 429.024 426.436 426.915C426.866 426.527 427.425 426.323 427.997 426.345Z" fill="#263238"/>
<path d="M424.923 428.017C424.292 428.068 423.662 427.897 423.138 427.532C422.966 427.388 422.833 427.201 422.752 426.989C422.671 426.776 422.646 426.546 422.677 426.32C422.672 426.189 422.706 426.059 422.773 425.947C422.841 425.834 422.939 425.745 423.055 425.69C424.084 425.145 427.086 427.035 427.417 427.254C427.454 427.275 427.484 427.307 427.503 427.346C427.522 427.385 427.529 427.429 427.523 427.472C427.518 427.517 427.499 427.56 427.47 427.595C427.44 427.629 427.401 427.654 427.358 427.666C426.561 427.873 425.745 427.99 424.923 428.017ZM423.54 426.042C423.442 426.03 423.342 426.051 423.256 426.102C423.197 426.102 423.126 426.187 423.115 426.369C423.096 426.519 423.113 426.671 423.165 426.812C423.216 426.954 423.3 427.08 423.41 427.181C424.452 427.666 425.635 427.726 426.72 427.351C425.753 426.706 424.673 426.262 423.54 426.042Z" fill="#EB434A"/>
<path d="M427.299 427.678H427.192C426.235 427.144 424.379 425.048 424.568 424.042C424.601 423.874 424.69 423.723 424.819 423.615C424.948 423.506 425.11 423.447 425.277 423.448C425.444 423.425 425.614 423.44 425.775 423.49C425.936 423.54 426.085 423.625 426.211 423.739C427.287 424.636 427.511 427.375 427.523 427.508C427.522 427.548 427.511 427.588 427.493 427.624C427.475 427.659 427.449 427.69 427.417 427.714C427.375 427.715 427.333 427.702 427.299 427.678ZM425.431 423.86H425.325C425.041 423.86 425.017 424.03 425.005 424.09C424.887 424.708 426.069 426.296 427.027 427.035C426.965 425.95 426.581 424.91 425.927 424.054C425.789 423.933 425.613 423.864 425.431 423.86Z" fill="#EB434A"/>
<path d="M380.126 426.043H391.414C391.599 426.044 391.777 426.109 391.921 426.228C392.065 426.347 392.165 426.512 392.206 426.697L394.038 435.181C394.111 435.546 394.04 435.926 393.841 436.237C393.641 436.548 393.33 436.766 392.974 436.842C392.876 436.853 392.777 436.853 392.678 436.842C389.026 436.781 386.367 436.551 381.78 436.551C378.955 436.551 370.433 436.854 366.533 436.854C362.632 436.854 362.124 432.903 363.719 432.539C370.882 430.939 376.272 428.721 378.565 426.612C378.995 426.224 379.554 426.021 380.126 426.043Z" fill="#263238"/>
<path d="M377.052 427.714C376.421 427.765 375.791 427.594 375.267 427.23C375.095 427.086 374.962 426.898 374.881 426.686C374.8 426.473 374.774 426.243 374.806 426.018C374.801 425.886 374.835 425.756 374.902 425.644C374.969 425.532 375.068 425.442 375.184 425.387C376.213 424.842 379.215 426.733 379.546 426.951C379.583 426.972 379.613 427.004 379.632 427.043C379.651 427.082 379.658 427.126 379.652 427.169C379.647 427.215 379.628 427.257 379.598 427.292C379.569 427.327 379.53 427.351 379.487 427.363C378.69 427.57 377.874 427.688 377.052 427.714ZM375.669 425.739C375.571 425.727 375.471 425.749 375.385 425.799C375.326 425.799 375.255 425.884 375.243 426.066C375.225 426.216 375.242 426.368 375.294 426.509C375.345 426.651 375.429 426.777 375.539 426.878C376.581 427.363 377.764 427.423 378.849 427.048C377.882 426.404 376.802 425.959 375.669 425.739Z" fill="#EB434A"/>
<path d="M379.428 427.375H379.322C378.365 426.842 376.509 424.745 376.698 423.739C376.731 423.571 376.82 423.42 376.949 423.312C377.078 423.203 377.24 423.145 377.407 423.145C377.574 423.123 377.744 423.137 377.905 423.187C378.066 423.237 378.215 423.322 378.341 423.436C379.417 424.333 379.641 427.072 379.653 427.205C379.652 427.246 379.641 427.285 379.623 427.321C379.605 427.357 379.578 427.387 379.547 427.411C379.504 427.412 379.463 427.399 379.428 427.375ZM377.561 423.509H377.454C377.171 423.509 377.147 423.678 377.135 423.739C377.017 424.357 378.199 425.945 379.157 426.684C379.094 425.599 378.711 424.559 378.057 423.703C377.919 423.581 377.743 423.513 377.561 423.509Z" fill="#EB434A"/>
<path opacity="0.2" d="M388.931 406.953L379.333 407.995L380.279 418.94L389.865 417.897L388.931 406.953Z" fill="black"/>
<path opacity="0.2" d="M437.819 405.389H428.517L428.919 416.769H438.221L437.819 405.389Z" fill="black"/>
<path d="M433.977 211.76H384.664C379.936 238.024 365.291 330.936 375.823 413.715L392.525 411.594C392.525 411.594 390.976 301.714 405.704 261.088C407.406 282.831 409.415 305.932 411.165 318.282C415.455 348.582 424.64 414.794 424.64 414.794H441.637C441.637 414.794 438.162 351.419 436.554 321.64C434.805 289.328 434.072 218.426 433.977 211.76Z" fill="#263238"/>
<path opacity="0.2" d="M405.704 261.09C403.277 268.212 401.435 275.529 400.196 282.966C398.813 263.574 404.333 243.104 404.333 243.104L405.704 261.09Z" fill="black"/>
<path d="M373.92 417.728L394.581 414.577L393.955 408.711L372.454 411.608L373.92 417.728Z" fill="#EB434A"/>
<path opacity="0.6" d="M373.92 417.728L394.581 414.577L393.955 408.711L372.454 411.608L373.92 417.728Z" fill="white"/>
<path d="M422.606 414.939H442.653V408.795L421.85 408.395L422.606 414.939Z" fill="#EB434A"/>
<path opacity="0.6" d="M422.606 414.939H442.653V408.795L421.85 408.395L422.606 414.939Z" fill="white"/>
<path d="M384.251 212.391H433.895V218.451L383.612 217.832L384.251 212.391Z" fill="#263238"/>
<path opacity="0.2" d="M384.251 212.391H433.895V218.451L383.612 217.832L384.251 212.391Z" fill="white"/>
<path d="M417.937 209.664H416.164V220.427H417.937V209.664Z" fill="#263238"/>
<path d="M392.82 209.664H391.047V220.427H392.82V209.664Z" fill="#263238"/>
<path d="M399.428 121.49C399.428 121.49 430.751 123.732 453.279 132.532C453.279 132.532 436.98 184.199 433.93 214.342L384.286 212.39C384.286 212.39 387.785 151.572 399.428 121.49Z" fill="#EB434A"/>
<path opacity="0.7" d="M453.279 132.533C453.279 132.533 450.029 142.835 446.187 156.906C444.757 162.142 443.232 167.899 441.755 173.874C438.327 187.764 435.136 202.683 433.954 214.367L384.31 212.416C384.31 212.416 387.856 151.598 399.486 121.516C399.427 121.492 430.75 123.734 453.279 132.533Z" fill="white"/>
<path d="M435.951 127.029C430.975 130.665 420.136 127.804 420.136 127.804C420.136 127.804 413.481 125.053 415.171 123.017C419.297 122.823 421.483 121.114 422.583 118.739C423.196 117.25 423.518 115.652 423.528 114.036C423.575 113.144 423.575 112.25 423.528 111.358L438.291 102.68C435.726 109.261 432.11 121.551 435.951 127.029Z" fill="#E4897B"/>
<path opacity="0.2" d="M434.391 108.85C432.902 117.152 425.916 118.667 422.571 118.74C423.185 117.251 423.506 115.653 423.517 114.037L434.391 108.85Z" fill="black"/>
<path d="M426.743 75.7988C426.743 75.7988 418.221 85.7978 421.306 93.797C424.391 101.796 437.204 81.1922 437.204 81.1922L426.743 75.7988Z" fill="#263238"/>
<path d="M432.476 113.48C430.141 114.517 427.538 114.74 425.067 114.114C422.596 113.488 420.395 112.047 418.8 110.013C416.686 107.427 415.616 104.11 415.809 100.742C415.828 100.27 415.875 99.8008 415.951 99.3356C417.334 90.7304 423.788 78.3074 433.528 78.4286C435.683 78.4343 437.801 79.0069 439.679 80.0916C441.557 81.1763 443.132 82.7369 444.254 84.6241C445.376 86.5112 446.007 88.6619 446.086 90.8705C446.166 93.0791 445.692 95.2718 444.709 97.2388C440.596 105.711 438.598 110.886 432.476 113.48Z" fill="#E4897B"/>
<path d="M430.774 94.1236C430.538 94.8387 429.888 95.2507 429.439 95.0447C428.989 94.8387 428.859 94.1115 429.143 93.4085C429.427 92.7055 430.041 92.2935 430.491 92.4874C430.94 92.6813 431.07 93.3964 430.774 94.1236Z" fill="#263238"/>
<path d="M422.973 90.7544C422.724 91.4695 422.074 91.8695 421.625 91.6756C421.176 91.4816 421.046 90.7423 421.33 90.0394C421.613 89.3364 422.228 88.9243 422.677 89.1182C423.126 89.3122 423.244 90.0757 422.973 90.7544Z" fill="#263238"/>
<path d="M425.301 92.1719C423.594 93.9829 421.648 95.5411 419.521 96.8017C419.852 97.3566 420.298 97.83 420.827 98.1882C421.356 98.5464 421.955 98.7807 422.583 98.8742L425.301 92.1719Z" fill="#DE5753"/>
<path d="M434.261 92.5732C434.184 92.5536 434.113 92.5127 434.057 92.4551C434.001 92.3974 433.961 92.3251 433.942 92.246C433.819 91.6922 433.57 91.1756 433.217 90.7378C432.864 90.3 432.416 89.9532 431.909 89.725C431.799 89.6865 431.709 89.6048 431.658 89.4979C431.607 89.3911 431.599 89.2679 431.637 89.1554C431.677 89.0448 431.757 88.9542 431.86 88.9023C431.964 88.8505 432.083 88.8413 432.192 88.8766C432.838 89.1477 433.411 89.5747 433.862 90.1211C434.312 90.6676 434.628 91.3175 434.781 92.0157C434.799 92.0722 434.806 92.1318 434.8 92.191C434.795 92.2502 434.778 92.3076 434.75 92.3598C434.723 92.412 434.685 92.4578 434.639 92.4945C434.594 92.5312 434.542 92.558 434.486 92.5732H434.261Z" fill="#263238"/>
<path d="M422.252 103.033C423.179 103.61 424.227 103.952 425.309 104.028C426.391 104.104 427.475 103.912 428.469 103.469C428.516 103.437 428.549 103.39 428.565 103.335C428.58 103.28 428.576 103.222 428.553 103.169C428.531 103.117 428.491 103.075 428.441 103.05C428.391 103.025 428.334 103.019 428.28 103.033C427.351 103.422 426.347 103.586 425.346 103.51C424.345 103.434 423.375 103.121 422.512 102.596C422.463 102.563 422.404 102.551 422.347 102.563C422.289 102.574 422.238 102.608 422.205 102.657C422.172 102.709 422.16 102.772 422.171 102.833C422.182 102.893 422.215 102.948 422.264 102.984L422.252 103.033Z" fill="#263238"/>
<path d="M420.75 86.5486C420.662 86.5405 420.577 86.5114 420.502 86.4637C420.421 86.3777 420.375 86.2625 420.375 86.1425C420.375 86.0226 420.421 85.9073 420.502 85.8214C421.015 85.3326 421.635 84.979 422.311 84.7911C422.986 84.6032 423.696 84.5866 424.379 84.7427C424.49 84.7739 424.584 84.8487 424.642 84.9507C424.699 85.0528 424.715 85.174 424.687 85.2881C424.651 85.4004 424.575 85.4945 424.474 85.5509C424.372 85.6073 424.254 85.6217 424.143 85.5911C423.599 85.4871 423.039 85.5152 422.507 85.673C421.975 85.8309 421.487 86.1141 421.081 86.5001C420.98 86.555 420.863 86.5721 420.75 86.5486Z" fill="#263238"/>
<path d="M442.877 83.7012L440.679 87.2402C441.158 87.8456 441.396 88.614 441.345 89.3917C441.295 90.1693 440.96 90.8987 440.407 91.4337C437.759 94.0153 437.227 99.7723 438.67 102.875C438.67 102.875 439.391 101.542 440.36 102.414C441.329 103.287 437.7 110.268 433.93 112.583C433.93 112.583 438.658 111.141 444.036 104.584C448.988 98.5239 451.896 92.8639 451.754 89.5067L442.877 83.7012Z" fill="#263238"/>
<path d="M445.431 105.978C444.565 106.753 443.559 107.344 442.47 107.719C441.38 108.093 440.229 108.243 439.083 108.159C436.022 107.929 435.537 104.863 437.251 102.451C438.8 100.318 442.275 97.7968 444.922 99.2512C447.57 100.706 447.558 104.026 445.431 105.978Z" fill="#E4897B"/>
<path d="M437.204 82.8769C437.204 82.8769 438.67 81.471 438.788 84.6343C438.906 87.7976 440.762 89.9429 444.97 92.173C449.178 94.403 450.513 94.597 450.513 94.597C450.513 94.597 457.357 87.9673 450.206 80.4166C450.206 80.4166 450.537 76.526 446.033 73.993C438.291 69.6298 427.665 71.4356 423.93 75.8473C423.126 76.7095 422.574 77.7853 422.336 78.9527C422.098 80.1201 422.183 81.3325 422.583 82.4527C422.583 82.4527 434.804 75.7988 437.204 82.8769Z" fill="#263238"/>
<path d="M434.544 121.466L420.845 125.927L420.632 121.006L415.644 122.157C414.775 122.359 413.998 122.855 413.439 123.565C412.879 124.276 412.569 125.159 412.559 126.072L412.488 131.429L417.937 129.175C417.937 129.175 409.817 148.712 408.753 176.443C408.753 176.443 411.85 146.555 420.266 129.926L422.263 133.695L438.811 127.854L434.544 121.466Z" fill="#EB434A"/>
<path opacity="0.6" d="M434.544 121.466L420.845 125.927L420.632 121.006L415.644 122.157C414.775 122.359 413.998 122.855 413.439 123.565C412.879 124.276 412.569 125.159 412.559 126.072L412.488 131.429L417.937 129.175C417.937 129.175 409.817 148.712 408.753 176.443C408.753 176.443 411.85 146.555 420.266 129.926L422.263 133.695L438.811 127.854L434.544 121.466Z" fill="white"/>
<path d="M406.874 211.336H397.689V218.123H406.874V211.336Z" fill="#EB434A"/>
<path opacity="0.4" d="M406.874 211.336H397.689V218.123H406.874V211.336Z" fill="white"/>
<path d="M408.753 122.448C408.753 122.448 384.262 188.817 378.648 220.499L374.972 218.45C374.972 218.45 389.085 145.827 399.486 121.49L408.753 122.448Z" fill="#EB434A"/>
<path d="M442.842 129.078C442.842 129.078 432.464 182.503 437.204 226.293L442.842 225.008C442.842 225.008 449.662 155.124 453.279 132.532L442.842 129.078Z" fill="#EB434A"/>
<path d="M405.704 130.957L406.662 122.23L411.153 120.291C411.212 122.399 410.742 124.486 409.788 126.354C408.834 128.222 407.428 129.807 405.704 130.957Z" fill="#EB434A"/>
<path opacity="0.2" d="M405.704 130.957L406.662 122.23L411.153 120.291C411.212 122.399 410.742 124.486 409.788 126.354C408.834 128.222 407.428 129.807 405.704 130.957Z" fill="black"/>
<path d="M441.365 137.67C439.975 133.965 439.975 129.862 441.365 126.156L445.561 129.974L441.365 137.67Z" fill="#EB434A"/>
<path opacity="0.2" d="M441.365 137.67C439.975 133.965 439.975 129.862 441.365 126.156L445.561 129.974L441.365 137.67Z" fill="black"/>
<path d="M508.594 285.142L502.403 256.718C502.234 255.941 501.482 255.451 500.724 255.625L458.664 265.257C457.906 265.431 457.429 266.202 457.598 266.979L463.789 295.403C463.959 296.18 464.711 296.67 465.469 296.496L507.528 286.864C508.286 286.691 508.764 285.92 508.594 285.142Z" fill="#263238"/>
<path opacity="0.2" d="M508.594 285.142L502.403 256.718C502.234 255.941 501.482 255.451 500.724 255.625L458.664 265.257C457.906 265.431 457.429 266.202 457.598 266.979L463.789 295.403C463.959 296.18 464.711 296.67 465.469 296.496L507.528 286.864C508.286 286.691 508.764 285.92 508.594 285.142Z" fill="white"/>
<path d="M489.318 307.799L471.896 291.34C474.26 266.142 499.259 258.07 499.259 258.07L505.169 285.292C505.169 285.292 484.791 287.183 489.318 307.799Z" fill="#EB434A"/>
<path opacity="0.7" d="M489.318 307.799L471.896 291.34C474.26 266.142 499.259 258.07 499.259 258.07L505.169 285.292C505.169 285.292 484.791 287.183 489.318 307.799Z" fill="white"/>
<path d="M500.453 277.123L498.361 267.512C498.316 267.31 498.311 267.101 498.347 266.898C498.382 266.694 498.457 266.5 498.568 266.327C498.678 266.154 498.821 266.006 498.989 265.89C499.156 265.775 499.345 265.696 499.543 265.657L502.131 265.063C502.328 265.019 502.531 265.016 502.729 265.053C502.927 265.09 503.115 265.167 503.284 265.28C503.452 265.393 503.597 265.539 503.71 265.71C503.822 265.881 503.901 266.073 503.94 266.275L506.032 275.887C506.075 276.088 506.079 276.296 506.042 276.499C506.006 276.702 505.931 276.896 505.821 277.068C505.711 277.241 505.568 277.389 505.401 277.505C505.235 277.62 505.047 277.701 504.85 277.741L502.261 278.335C502.065 278.379 501.862 278.383 501.664 278.346C501.466 278.308 501.277 278.231 501.109 278.118C500.941 278.005 500.796 277.859 500.683 277.688C500.571 277.517 500.492 277.325 500.453 277.123ZM502.817 266.482C502.792 266.369 502.724 266.272 502.629 266.21C502.533 266.149 502.418 266.129 502.309 266.154L499.72 266.748C499.665 266.76 499.612 266.782 499.566 266.815C499.519 266.847 499.479 266.889 499.448 266.938C499.417 266.986 499.396 267.04 499.386 267.097C499.376 267.154 499.377 267.213 499.389 267.269L501.481 276.88C501.509 276.991 501.578 277.087 501.672 277.148C501.767 277.208 501.88 277.23 501.99 277.208L504.59 276.614C504.7 276.588 504.795 276.518 504.854 276.421C504.914 276.323 504.934 276.205 504.909 276.093L502.817 266.482Z" fill="#EB434A"/>
<g opacity="0.4">
<path d="M500.453 277.123L498.361 267.512C498.316 267.31 498.311 267.101 498.347 266.898C498.382 266.694 498.457 266.5 498.568 266.327C498.678 266.154 498.821 266.006 498.989 265.89C499.156 265.775 499.345 265.696 499.543 265.657L502.131 265.063C502.328 265.019 502.531 265.016 502.729 265.053C502.927 265.09 503.115 265.167 503.284 265.28C503.452 265.393 503.597 265.539 503.71 265.71C503.822 265.881 503.901 266.073 503.94 266.275L506.032 275.887C506.075 276.088 506.079 276.296 506.042 276.499C506.006 276.702 505.931 276.896 505.821 277.068C505.711 277.241 505.568 277.389 505.401 277.505C505.235 277.62 505.047 277.701 504.85 277.741L502.261 278.335C502.065 278.379 501.862 278.383 501.664 278.346C501.466 278.308 501.277 278.231 501.109 278.118C500.941 278.005 500.796 277.859 500.683 277.688C500.571 277.517 500.492 277.325 500.453 277.123ZM502.817 266.482C502.792 266.369 502.724 266.272 502.629 266.21C502.533 266.149 502.418 266.129 502.309 266.154L499.72 266.748C499.665 266.76 499.612 266.782 499.566 266.815C499.519 266.847 499.479 266.889 499.448 266.938C499.417 266.986 499.396 267.04 499.386 267.097C499.376 267.154 499.377 267.213 499.389 267.269L501.481 276.88C501.509 276.991 501.578 277.087 501.672 277.148C501.767 277.208 501.88 277.23 501.99 277.208L504.59 276.614C504.7 276.588 504.795 276.518 504.854 276.421C504.914 276.323 504.934 276.205 504.909 276.093L502.817 266.482Z" fill="white"/>
</g>
<path d="M107.308 215.275H113.218C113.218 215.275 116.681 216.875 118.466 216.487C120.25 216.099 131.468 209.348 130.841 208.197C130.215 207.045 106.291 209.493 106.291 209.493L107.308 215.275Z" fill="#EBB376"/>
<path d="M114.305 283.05C114.305 283.05 113.714 292.08 112.497 306.078C112.059 311.193 111.539 316.986 110.925 323.216C108.277 350.268 104.022 386.131 98.0055 415.11L92.0955 415.013C92.0955 415.013 87.7103 371.26 95.0505 342.063L94.3058 321.325L93.7858 307.036L92.9229 283.002L114.305 283.05Z" fill="#EBB376"/>
<path d="M87.8996 287.292C87.8996 287.292 86.0321 295.206 82.8289 307.641C81.8833 311.277 80.8313 315.349 79.6729 319.7C72.5809 346.449 61.5883 384.736 49.922 414.636L44.0947 413.509C44.0947 413.509 47.0379 369.623 59.1179 342.135L62.3212 317.725L63.5032 308.623L66.8009 283.559L87.8996 287.292Z" fill="#EBB376"/>
<path opacity="0.2" d="M63.5141 308.622L82.828 307.641C81.8824 311.277 80.8304 315.349 79.6721 319.7L62.3203 317.724L63.5141 308.622Z" fill="black"/>
<path opacity="0.2" d="M112.496 306.127C112.059 311.242 111.539 317.035 110.924 323.265L94.2935 321.374L93.7734 307.084L112.496 306.127Z" fill="black"/>
<path d="M60.3941 175.51C56.5408 177.061 57.9001 213.797 64.6493 223.735C71.3985 233.674 110.936 218.451 110.936 218.451L109.991 209.555L74.7436 209.664L60.3941 175.51Z" fill="#263238"/>
<path d="M151.999 204.755L109.991 207.337L114.991 175.825C115.054 175.496 115.221 175.199 115.468 174.979C115.714 174.76 116.025 174.631 116.35 174.613L156.172 172.189C156.294 172.182 156.416 172.203 156.529 172.251C156.642 172.298 156.743 172.371 156.824 172.464C156.906 172.557 156.966 172.668 157.001 172.788C157.035 172.908 157.043 173.035 157.023 173.158L151.999 204.755Z" fill="#263238"/>
<path opacity="0.2" d="M151.999 204.755L109.991 207.337L114.991 175.825C115.054 175.496 115.221 175.199 115.468 174.979C115.714 174.76 116.025 174.631 116.35 174.613L156.172 172.189C156.294 172.182 156.416 172.203 156.529 172.251C156.642 172.298 156.743 172.371 156.824 172.464C156.906 172.557 156.966 172.668 157.001 172.788C157.035 172.908 157.043 173.035 157.023 173.158L151.999 204.755Z" fill="white"/>
<path d="M151.456 204.791L109.447 207.373L114.447 175.861C114.508 175.532 114.675 175.233 114.922 175.013C115.168 174.793 115.48 174.665 115.806 174.649L155.628 172.225C155.749 172.216 155.871 172.235 155.984 172.281C156.097 172.328 156.198 172.399 156.28 172.492C156.362 172.584 156.423 172.694 156.457 172.814C156.492 172.933 156.499 173.059 156.479 173.182L151.456 204.791Z" fill="#263238"/>
<path d="M150.285 203.834L110.937 206.258L115.795 175.594L155.143 173.17L150.285 203.834Z" fill="#EB434A"/>
<path opacity="0.4" d="M150.285 203.834L110.937 206.258L115.795 175.594L155.143 173.17L150.285 203.834Z" fill="white"/>
<path d="M151.455 204.791L151.538 206.342C151.56 206.756 151.423 207.163 151.155 207.474C150.888 207.785 150.511 207.975 150.108 208.003L89.4473 211.76C89.247 211.773 89.0461 211.746 88.8562 211.679C88.6663 211.612 88.4911 211.508 88.3406 211.372C88.1902 211.235 88.0674 211.07 87.9795 210.885C87.8915 210.7 87.84 210.499 87.828 210.293L87.7334 208.754L151.455 204.791Z" fill="#263238"/>
<path opacity="0.2" d="M151.455 204.791L151.538 206.342C151.56 206.756 151.423 207.163 151.155 207.474C150.888 207.785 150.511 207.975 150.108 208.003L89.4473 211.76C89.247 211.773 89.0461 211.746 88.8562 211.679C88.6663 211.612 88.4911 211.508 88.3406 211.372C88.1902 211.235 88.0674 211.07 87.9795 210.885C87.8915 210.7 87.84 210.499 87.828 210.293L87.7334 208.754L151.455 204.791Z" fill="white"/>
<path opacity="0.2" d="M151.456 204.791L151.538 206.342C151.561 206.756 151.424 207.163 151.156 207.474C150.888 207.785 150.512 207.975 150.108 208.003L124.837 209.554C124.436 209.584 124.04 209.451 123.735 209.183C123.429 208.915 123.239 208.535 123.206 208.124L123.111 206.573L151.456 204.791Z" fill="white"/>
<g opacity="0.4">
<path d="M117.603 199.932L115.995 200.029L116.669 196.077L118.276 195.98L117.603 199.932Z" fill="white"/>
<path d="M120.664 199.737L119.045 199.834L120.132 193.435L121.752 193.338L120.664 199.737Z" fill="white"/>
<path d="M123.714 199.543L122.106 199.64L123.608 190.792L125.215 190.695L123.714 199.543Z" fill="white"/>
<path d="M126.775 199.349L125.155 199.446L126.869 189.374L128.489 189.277L126.775 199.349Z" fill="white"/>
<path d="M129.824 199.155L128.217 199.252L130.132 187.956L131.751 187.859L129.824 199.155Z" fill="white"/>
<path d="M132.886 198.961L131.267 199.058L133.607 185.314L135.214 185.205L132.886 198.961Z" fill="white"/>
<path d="M135.936 198.768L134.328 198.865L136.456 186.345L138.063 186.236L135.936 198.768Z" fill="white"/>
<path d="M138.997 198.574L137.378 198.671L139.305 187.375L140.912 187.266L138.997 198.574Z" fill="white"/>
<path d="M142.046 198.381L140.427 198.478L142.767 184.734L144.386 184.625L142.046 198.381Z" fill="white"/>
<path d="M145.108 198.186L143.488 198.283L146.443 180.855L148.063 180.758L145.108 198.186Z" fill="white"/>
</g>
<path d="M115.452 316.792C122.638 249.95 110.216 227.213 110.216 227.213L75.1575 221.068C73.7686 227.705 72.7856 234.425 72.2143 241.188C72.2143 241.188 68.8456 253.55 67.77 256.944C61.8987 276.286 59.2807 296.512 60.0279 316.756L115.452 316.792Z" fill="#EB434A"/>
<g opacity="0.2">
<path d="M115.452 316.791H60.0277C60.0277 316.791 59.7441 312.513 59.945 305.495C60.3598 289.043 62.9931 272.728 67.7698 257.015C68.8455 253.585 72.2142 241.259 72.2142 241.259C72.3008 240.451 72.3836 239.643 72.4624 238.835C73.0061 232.89 73.9061 226.984 75.1573 221.152L110.204 227.212C110.204 227.212 122.638 249.949 115.452 316.791Z" fill="black"/>
</g>
<path opacity="0.2" d="M93.4077 280.311C93.4077 280.311 79.2237 298.782 59.9453 305.496C60.3601 289.043 62.9934 272.729 67.7701 257.016C68.8458 253.586 72.2145 241.26 72.2145 241.26C72.3011 240.452 72.3839 239.644 72.4627 238.836L108.608 236C108.608 236 95.5117 249.465 81.4223 252.968C81.4814 252.968 82.0605 272.954 93.4077 280.311Z" fill="black"/>
<path d="M93.8096 143.888C93.8096 144.652 94.1996 145.27 94.6961 145.27C95.1925 145.27 95.5826 144.64 95.5826 143.864C95.5826 143.088 95.1689 142.482 94.6843 142.482C94.1996 142.482 93.8096 143.137 93.8096 143.888Z" fill="#263238"/>
<path d="M92.2611 142.071C92.3414 142.083 92.4234 142.072 92.4983 142.04C92.5732 142.008 92.6383 141.956 92.6866 141.889C93.0058 141.429 93.4252 141.051 93.9114 140.786C94.3977 140.521 94.9374 140.376 95.4879 140.362C95.6052 140.368 95.7203 140.328 95.8087 140.248C95.8971 140.169 95.9516 140.058 95.9607 139.938C95.9639 139.879 95.9558 139.82 95.9367 139.764C95.9176 139.708 95.888 139.657 95.8496 139.613C95.8111 139.569 95.7646 139.534 95.7127 139.508C95.6608 139.483 95.6045 139.468 95.547 139.465C94.8528 139.466 94.1689 139.637 93.5522 139.964C92.9354 140.291 92.4036 140.764 92.001 141.343C91.9653 141.39 91.9388 141.442 91.923 141.499C91.9073 141.556 91.9025 141.615 91.9091 141.674C91.9157 141.732 91.9335 141.789 91.9614 141.84C91.9894 141.892 92.0269 141.937 92.072 141.974L92.2611 142.071Z" fill="#263238"/>
<path d="M94.3886 145.803C94.9065 147.465 95.6422 149.046 96.5753 150.505C96.2038 150.744 95.7857 150.896 95.3506 150.95C94.9156 151.005 94.4741 150.96 94.0576 150.82L94.3886 145.803Z" fill="#DE726F"/>
<path d="M76.517 159.244C76.6035 159.328 76.6987 159.401 76.8007 159.463C78.1491 160.517 79.6877 161.287 81.3278 161.729C86.1149 162.868 89.389 162.19 91.5284 159.972C94.5189 156.639 95.2636 150.736 94.838 143.61C94.7683 140.773 94.2576 137.967 93.3251 135.295C93.3251 135.295 93.3251 135.186 93.3251 135.162C93.3251 135.138 93.2542 134.956 93.2069 134.859C92.621 133.352 91.6755 132.019 90.4571 130.984C89.2387 129.948 87.7863 129.243 86.2331 128.932C84.8865 128.624 83.5113 128.465 82.1315 128.46C68.574 128.314 66.1391 151.318 76.517 159.244Z" fill="#EBB376"/>
<path opacity="0.2" d="M77.001 160.044C78.3845 160.999 79.9394 161.662 81.5753 161.995C86.3861 163.001 89.6366 162.08 91.7169 159.765C88.8744 160.577 85.8506 160.406 83.1119 159.28C82.1038 158.923 81.0293 158.805 79.9703 158.938C78.9113 159.07 77.8957 159.448 77.001 160.044Z" fill="black"/>
<path d="M75.4293 172.007C74.59 175.958 79.5899 177.57 79.5899 177.57C87.7575 173.994 89.2705 169.534 89.2705 169.534C82.4503 165.898 84.4243 155.584 84.4243 155.584L83.0413 156.287L73.3135 158.238C73.3135 158.238 76.0084 163.547 76.363 164.759C78.207 171.122 75.4293 172.007 75.4293 172.007Z" fill="#EBB376"/>
<path d="M93.3362 135.198C93.3362 135.198 94.0809 144.894 85.0622 149.124C85.0622 149.124 81.1971 159.244 75.5116 159.378C67.7459 159.572 60.9139 148.264 63.5971 136.738C67.1076 121.781 89.1992 120.569 93.3362 135.198Z" fill="#263238"/>
<path d="M89.6488 146.312C89.6488 144.797 88.4668 142.24 86.1028 142.591C83.7388 142.943 82.3913 148.979 88.254 150.324C89.1405 150.53 89.6488 149.5 89.6488 146.312Z" fill="#EBB376"/>
<path d="M76.7998 124.848C76.7998 124.848 85.8657 122.496 90.8656 126.242C96.7756 130.605 98.9386 135.113 92.0476 142.119C92.0476 142.119 76.8352 137.065 71.7763 138.131C68.8193 138.743 65.9173 139.606 63.1004 140.713C62.0011 130.411 71.7408 122.739 76.7998 124.848Z" fill="#263238"/>
<path d="M94.9556 131.078C94.9556 131.078 99.1517 134.011 97.2251 138.532C95.2984 143.053 89.6484 143.162 89.6484 143.162" stroke="#263238" stroke-width="0.5" stroke-linecap="round" stroke-linejoin="round"/>
<path d="M89.6486 143.986C89.6486 143.986 87.2846 155.209 90.996 164.784C90.996 164.784 69.4836 172.432 62.0016 168.275C54.5195 164.117 61.3751 150.167 61.6943 142.12C62.0134 134.072 65.4176 122.182 76.8002 124.849C88.1829 127.515 89.6486 143.986 89.6486 143.986Z" fill="#263238"/>
<path d="M109.565 435.204C108.464 434.292 107.211 433.593 105.865 433.144C105.865 433.144 101.835 429.035 99.9552 416.697L94.6717 415.279C93.7755 415.06 92.8355 415.127 91.9777 415.471C91.1199 415.816 90.3854 416.421 89.8727 417.206C89.7272 417.425 89.6156 417.666 89.5418 417.921C89.2693 419.244 89.0798 420.584 88.9744 421.933C88.6814 426.444 88.6577 430.969 88.9035 435.483H89.8491L90.2273 426.999C90.3692 424.102 92.5913 427.496 93.1469 430.635C93.7024 433.774 95.0735 437.058 101.255 437.204C108.395 437.301 111.385 437.01 109.565 435.204Z" fill="#263238"/>
<path d="M89.6249 417.303C89.2822 414.418 89.1758 409.4 89.1758 409.4L100.901 410.734C100.901 410.734 99.4828 416.442 100.653 420.733C94.743 419.133 89.6249 417.303 89.6249 417.303Z" fill="#263238"/>
<path d="M61.8598 435.204C60.7594 434.292 59.5055 433.593 58.1601 433.144C58.1601 433.144 54.1295 429.035 52.2501 416.697L46.9666 415.279C46.0705 415.06 45.1304 415.127 44.2726 415.471C43.4148 415.816 42.6803 416.421 42.1677 417.206C42.0221 417.425 41.9105 417.666 41.8367 417.921C41.5642 419.244 41.3747 420.584 41.2693 421.933C40.9763 426.444 40.9526 430.969 41.1984 435.483H42.144L42.5223 426.999C42.6641 424.102 44.8863 427.496 45.4418 430.635C45.9973 433.774 47.3685 437.058 53.5503 437.204C60.6896 437.301 63.6801 437.01 61.8598 435.204Z" fill="#263238"/>
<path d="M41.9317 417.303C41.5771 414.418 41.4707 409.4 41.4707 409.4L53.1961 410.734C53.1961 410.734 51.7777 416.442 52.9479 420.733C47.0379 419.133 41.9317 417.303 41.9317 417.303Z" fill="#263238"/>
<path d="M60.3943 175.51C60.3943 175.51 67.8764 172.504 74.5783 170.662C79.8091 169.33 85.1258 168.383 90.4881 167.826C95.5495 167.244 100.645 167.038 105.736 167.208C105.594 169.729 105.488 172.056 105.393 174.335C105.263 177.28 105.168 180.007 105.109 182.54C104.991 187.291 105.003 191.363 105.109 194.975C105.291 202.854 106.222 210.697 107.887 218.391L115.452 237.213L70.0986 243.14L72.6635 224.608C65.146 202.15 61.9191 190.321 60.7017 183.606C59.3778 176.104 60.3943 175.51 60.3943 175.51Z" fill="#263238"/>
<path opacity="0.1" d="M60.3943 175.51C60.3943 175.51 67.8764 172.504 74.5783 170.662C79.8091 169.33 85.1258 168.383 90.4881 167.826C95.5495 167.244 100.645 167.038 105.736 167.208C105.594 169.729 105.488 172.056 105.393 174.335C105.263 177.28 105.168 180.007 105.109 182.54C104.991 187.291 105.003 191.363 105.109 194.975C105.291 202.854 106.222 210.697 107.887 218.391L115.452 237.213L70.0986 243.14L72.6635 224.608C65.146 202.15 61.9191 190.321 60.7017 183.606C59.3778 176.104 60.3943 175.51 60.3943 175.51Z" fill="white"/>
<path d="M150.392 216.607L160.675 219.746C161.898 219.363 163.152 219.095 164.422 218.947C165.51 218.947 174.859 222.583 176.112 223.795C177.365 225.007 170.202 231.467 169.812 231.782C169.422 232.097 159.742 228.146 159.281 227.952C158.82 227.758 158.654 226.267 158.654 226.267L147.271 223.31L150.392 216.607Z" fill="#EBB376"/>
<path d="M105.748 167.158C111.41 170.988 125.641 207.3 127.509 208.257C129.376 209.215 157.059 217.359 157.059 217.359L153.607 226.207C153.607 226.207 123.301 220.668 120.263 218.499C117.225 216.329 105.121 193.774 105.121 193.774C103.616 188.875 102.758 183.792 102.568 178.66C102.463 174.584 103.573 170.572 105.748 167.158Z" fill="#263238"/>
<path d="M283.437 391.209H275.021V437.192H283.437V391.209Z" fill="#EB434A"/>
<path d="M283.437 391.209H278.567V437.192H283.437V391.209Z" fill="#EB434A"/>
<path opacity="0.2" d="M283.437 391.209H278.567V437.192H283.437V391.209Z" fill="black"/>
<path opacity="0.2" d="M283.437 391.209V410.153L278.567 408.456L275.021 407.219V391.209H283.437Z" fill="black"/>
<path d="M318.897 391.209H310.481V437.192H318.897V391.209Z" fill="#EB434A"/>
<path d="M210.153 391.209H201.737V437.192H210.153V391.209Z" fill="#EB434A"/>
<path opacity="0.2" d="M210.153 391.209H201.737V437.192H210.153V391.209Z" fill="black"/>
<path d="M320.245 369.418V437.193H313.956V395.367H236.027V437.193H224.491V395.367H205.472V437.193H201.737V369.418H320.245Z" fill="#EB434A"/>
<path d="M227.517 369.417H225.425V358.764H229.609L227.517 369.417Z" fill="#263238"/>
<path opacity="0.2" d="M320.245 369.418V437.193H313.957V395.367H236.028V437.193H229.609V369.418H320.245Z" fill="black"/>
<path d="M295.836 349.214H295.907L275.53 344.16C275.074 344.015 274.6 343.937 274.123 343.93H228.226C226.959 343.927 225.738 344.411 224.801 345.286C223.865 346.161 223.282 347.363 223.167 348.657L222.245 358.692C222.14 359.862 222.425 361.034 223.054 362.016C223.684 362.998 224.619 363.732 225.708 364.097L226.027 364.182L226.417 364.279L246.31 369.261C246.726 369.378 247.156 369.439 247.587 369.442H293.413C294.679 369.442 295.899 368.957 296.835 368.083C297.771 367.209 298.354 366.008 298.472 364.716L299.394 354.68C299.503 353.489 299.209 352.295 298.561 351.3C297.913 350.304 296.951 349.568 295.836 349.214Z" fill="#263238"/>
<path opacity="0.2" d="M295.836 349.214H295.907L275.53 344.16C275.074 344.015 274.6 343.937 274.123 343.93H228.226C226.959 343.927 225.738 344.411 224.801 345.286C223.865 346.161 223.282 347.363 223.167 348.657L222.245 358.692C222.14 359.862 222.425 361.034 223.054 362.016C223.684 362.998 224.619 363.732 225.708 364.097L226.027 364.182L226.417 364.279L246.31 369.261C246.726 369.378 247.156 369.439 247.587 369.442H293.413C294.679 369.442 295.899 368.957 296.835 368.083C297.771 367.209 298.354 366.008 298.472 364.716L299.394 354.68C299.503 353.489 299.209 352.295 298.561 351.3C297.913 350.304 296.951 349.568 295.836 349.214Z" fill="white"/>
<path opacity="0.1" d="M293.413 369.418H247.54C246.832 369.417 246.132 369.266 245.485 368.973C244.838 368.679 244.257 368.251 243.78 367.715C243.303 367.18 242.94 366.548 242.714 365.86C242.489 365.172 242.405 364.444 242.469 363.721L243.391 353.686C243.509 352.393 244.093 351.193 245.028 350.318C245.964 349.444 247.184 348.959 248.45 348.959H294.347C295.055 348.959 295.755 349.111 296.402 349.404C297.049 349.697 297.63 350.125 298.107 350.661C298.584 351.197 298.947 351.829 299.173 352.517C299.398 353.204 299.482 353.933 299.418 354.655L298.496 364.691C298.378 365.987 297.791 367.191 296.85 368.066C295.909 368.941 294.683 369.423 293.413 369.418Z" fill="white"/>
<g opacity="0.1">
<path d="M280.814 360.012C280.631 361.429 279.955 362.731 278.91 363.677C277.866 364.624 276.522 365.151 275.128 365.163C274.48 365.186 273.834 365.066 273.236 364.81C272.637 364.554 272.1 364.168 271.661 363.678C271.222 363.189 270.891 362.607 270.692 361.975C270.493 361.342 270.429 360.672 270.507 360.012C270.694 358.597 271.372 357.3 272.416 356.356C273.46 355.412 274.8 354.886 276.192 354.873C276.84 354.847 277.485 354.965 278.084 355.22C278.682 355.475 279.22 355.86 279.659 356.349C280.099 356.837 280.429 357.418 280.629 358.05C280.828 358.682 280.891 359.352 280.814 360.012Z" fill="white"/>
<path d="M294.147 361.866H286.664C286.567 361.871 286.469 361.853 286.378 361.815C286.288 361.776 286.207 361.718 286.14 361.644C286.074 361.571 286.024 361.483 285.994 361.387C285.964 361.292 285.955 361.19 285.967 361.091L286.192 358.909C286.22 358.695 286.323 358.498 286.482 358.356C286.64 358.213 286.844 358.134 287.055 358.133H294.596C294.694 358.129 294.791 358.147 294.882 358.185C294.972 358.223 295.053 358.282 295.12 358.355C295.186 358.429 295.236 358.517 295.266 358.613C295.296 358.708 295.305 358.809 295.293 358.909L295.068 361.091C295.039 361.316 294.928 361.521 294.756 361.665C294.585 361.809 294.367 361.881 294.147 361.866Z" fill="white"/>
<path d="M253.958 366.216H251.299L251.571 363.574H254.23L253.958 366.216Z" fill="white"/>
<path d="M257.611 366.216H254.963L255.235 363.574H257.882L257.611 366.216Z" fill="white"/>
</g>
<path d="M154.446 289.607C154.166 289.606 153.896 289.507 153.678 289.328L150.782 286.82C150.542 286.612 150.392 286.316 150.366 285.995C150.339 285.675 150.438 285.357 150.64 285.111C150.842 284.865 151.131 284.711 151.444 284.684C151.756 284.657 152.067 284.758 152.306 284.965L155.202 287.474C155.385 287.634 155.516 287.848 155.577 288.087C155.639 288.325 155.627 288.578 155.545 288.809C155.463 289.041 155.314 289.242 155.117 289.385C154.921 289.527 154.686 289.605 154.446 289.607Z" fill="#EB434A"/>
<path d="M169.304 302.382C169.025 302.38 168.754 302.282 168.536 302.103C165.384 299.38 162.232 296.669 159.08 293.97C158.948 293.873 158.837 293.749 158.754 293.606C158.671 293.463 158.618 293.303 158.598 293.138C158.578 292.973 158.591 292.805 158.637 292.646C158.683 292.486 158.76 292.337 158.864 292.21C158.968 292.082 159.097 291.978 159.242 291.903C159.388 291.829 159.546 291.786 159.709 291.777C159.871 291.768 160.033 291.794 160.185 291.852C160.337 291.911 160.476 292 160.593 292.116C163.745 294.815 166.897 297.526 170.049 300.249C170.231 300.409 170.362 300.623 170.424 300.861C170.485 301.1 170.473 301.352 170.391 301.584C170.309 301.816 170.16 302.017 169.963 302.159C169.767 302.302 169.533 302.379 169.292 302.382H169.304Z" fill="#EB434A"/>
<path d="M181.123 312.671C180.842 312.671 180.569 312.568 180.355 312.38L174.741 307.532C174.622 307.429 174.524 307.303 174.453 307.16C174.382 307.018 174.339 306.863 174.326 306.704C174.314 306.545 174.332 306.384 174.379 306.232C174.427 306.08 174.504 305.939 174.605 305.818C174.705 305.696 174.829 305.596 174.967 305.523C175.106 305.45 175.257 305.406 175.413 305.393C175.568 305.38 175.724 305.398 175.873 305.447C176.021 305.496 176.158 305.575 176.277 305.678L181.88 310.526C181.999 310.629 182.097 310.754 182.168 310.896C182.239 311.037 182.283 311.192 182.296 311.35C182.309 311.509 182.292 311.669 182.245 311.821C182.198 311.973 182.122 312.113 182.022 312.235C181.912 312.37 181.775 312.479 181.619 312.555C181.464 312.63 181.295 312.67 181.123 312.671Z" fill="#EB434A"/>
<path d="M206.643 334.911C206.367 334.911 206.099 334.813 205.886 334.632C199.307 328.976 192.751 323.272 186.218 317.519L185.934 317.264C185.815 317.161 185.718 317.036 185.646 316.894C185.575 316.753 185.531 316.598 185.518 316.44C185.505 316.281 185.522 316.121 185.569 315.969C185.616 315.818 185.692 315.677 185.792 315.555C185.893 315.434 186.017 315.335 186.155 315.263C186.293 315.19 186.444 315.147 186.599 315.135C186.754 315.122 186.909 315.141 187.057 315.19C187.204 315.24 187.341 315.318 187.459 315.422L187.755 315.676C194.287 321.381 200.839 327.081 207.411 332.778C207.595 332.939 207.726 333.154 207.787 333.393C207.848 333.633 207.836 333.886 207.752 334.119C207.668 334.351 207.517 334.552 207.319 334.693C207.12 334.835 206.885 334.911 206.643 334.911Z" fill="#EB434A"/>
<path d="M218.569 345.079C218.293 345.08 218.026 344.981 217.813 344.801L212.151 339.953C212.032 339.85 211.934 339.724 211.863 339.583C211.791 339.442 211.748 339.287 211.735 339.128C211.722 338.97 211.739 338.81 211.786 338.658C211.833 338.506 211.909 338.365 212.009 338.244C212.211 338.001 212.498 337.85 212.808 337.823C213.117 337.796 213.425 337.895 213.664 338.098L219.326 342.946C219.446 343.048 219.544 343.173 219.617 343.314C219.69 343.455 219.734 343.609 219.748 343.768C219.763 343.927 219.746 344.087 219.7 344.239C219.654 344.391 219.579 344.533 219.48 344.655C219.367 344.79 219.228 344.898 219.07 344.971C218.913 345.044 218.742 345.081 218.569 345.079Z" fill="#EB434A"/>
<path d="M203.333 270.118C203.107 270.118 202.886 270.053 202.695 269.928C202.505 269.803 202.353 269.625 202.258 269.415L200.662 265.779C200.533 265.488 200.522 265.156 200.631 264.857C200.739 264.557 200.959 264.314 201.241 264.179C201.382 264.112 201.535 264.074 201.691 264.067C201.846 264.061 202.002 264.086 202.148 264.141C202.294 264.196 202.428 264.281 202.542 264.389C202.656 264.497 202.748 264.628 202.813 264.773L204.409 268.409C204.538 268.7 204.549 269.032 204.441 269.331C204.332 269.631 204.113 269.874 203.83 270.009C203.675 270.085 203.505 270.123 203.333 270.118Z" fill="#EB434A"/>
<path d="M213.889 293.267C213.662 293.267 213.441 293.201 213.25 293.077C213.06 292.952 212.908 292.774 212.813 292.564C210.307 286.916 208.085 282.019 205.91 277.608C205.841 277.465 205.8 277.309 205.79 277.149C205.779 276.99 205.8 276.83 205.85 276.678C205.9 276.527 205.978 276.387 206.081 276.267C206.183 276.147 206.308 276.048 206.448 275.978C206.588 275.907 206.739 275.865 206.895 275.854C207.05 275.844 207.207 275.865 207.354 275.916C207.502 275.967 207.638 276.047 207.755 276.153C207.873 276.258 207.969 276.386 208.038 276.529C210.189 280.977 212.447 285.886 214.964 291.558C215.092 291.85 215.102 292.183 214.991 292.483C214.88 292.783 214.658 293.025 214.373 293.158C214.221 293.229 214.056 293.266 213.889 293.267Z" fill="#EB434A"/>
<path d="M220.295 308.042C220.065 308.044 219.84 307.978 219.647 307.851C219.454 307.724 219.301 307.542 219.207 307.327C218.344 305.303 217.481 303.291 216.607 301.267C216.5 300.977 216.507 300.655 216.624 300.369C216.742 300.083 216.962 299.855 217.24 299.73C217.517 299.606 217.83 299.596 218.115 299.701C218.4 299.807 218.634 300.02 218.77 300.298C219.645 302.31 220.507 304.334 221.37 306.358C221.433 306.503 221.468 306.66 221.471 306.819C221.475 306.979 221.448 307.137 221.392 307.286C221.336 307.434 221.252 307.57 221.145 307.685C221.038 307.801 220.909 307.893 220.767 307.957C220.617 308.019 220.456 308.047 220.295 308.042Z" fill="#EB434A"/>
<path d="M234.006 338.886C233.784 338.887 233.567 338.824 233.379 338.704C233.191 338.584 233.04 338.412 232.942 338.208C229.065 330.172 225.448 321.894 222.127 314.137C222.064 313.992 222.03 313.835 222.026 313.676C222.022 313.516 222.049 313.358 222.105 313.209C222.161 313.061 222.245 312.925 222.352 312.81C222.459 312.694 222.588 312.602 222.73 312.538C222.872 312.473 223.025 312.438 223.18 312.434C223.335 312.43 223.49 312.458 223.635 312.515C223.78 312.572 223.912 312.659 224.024 312.769C224.137 312.878 224.227 313.01 224.29 313.156C227.599 320.888 231.205 329.142 235.058 337.129C235.149 337.314 235.192 337.519 235.183 337.725C235.175 337.932 235.115 338.132 235.01 338.308C234.904 338.485 234.757 338.63 234.581 338.731C234.405 338.832 234.207 338.886 234.006 338.886Z" fill="#EB434A"/>
<path d="M248.285 275.366C247.971 275.366 247.67 275.238 247.449 275.011C247.227 274.784 247.103 274.475 247.103 274.154V261.452C247.103 261.131 247.227 260.823 247.449 260.595C247.67 260.368 247.971 260.24 248.285 260.24C248.598 260.24 248.899 260.368 249.12 260.595C249.342 260.823 249.467 261.131 249.467 261.452V274.166C249.463 274.485 249.338 274.791 249.116 275.015C248.895 275.24 248.596 275.366 248.285 275.366Z" fill="#EB434A"/>
<path d="M248.355 289.922C248.042 289.922 247.741 289.794 247.52 289.567C247.298 289.34 247.173 289.031 247.173 288.71L247.103 282.347C247.103 282.025 247.227 281.717 247.449 281.49C247.67 281.262 247.971 281.135 248.285 281.135C248.598 281.135 248.899 281.262 249.12 281.49C249.342 281.717 249.467 282.025 249.467 282.347L249.537 288.722C249.537 289.043 249.413 289.352 249.191 289.579C248.97 289.806 248.669 289.934 248.355 289.934V289.922Z" fill="#EB434A"/>
<path d="M248.414 323.034C248.101 323.034 247.8 322.906 247.579 322.679C247.357 322.451 247.232 322.143 247.232 321.822C247.232 313.338 247.232 304.696 247.232 295.97C247.232 295.648 247.357 295.34 247.579 295.113C247.8 294.885 248.101 294.758 248.414 294.758C248.728 294.758 249.029 294.885 249.25 295.113C249.472 295.34 249.596 295.648 249.596 295.97C249.596 304.696 249.656 313.398 249.596 321.846C249.59 322.163 249.463 322.465 249.242 322.687C249.021 322.909 248.724 323.034 248.414 323.034Z" fill="#EB434A"/>
<path d="M248.285 338.888C247.971 338.888 247.67 338.76 247.449 338.533C247.227 338.305 247.103 337.997 247.103 337.676C247.103 335.167 247.162 332.67 247.185 330.161C247.185 329.84 247.31 329.531 247.531 329.304C247.753 329.077 248.054 328.949 248.367 328.949C248.681 328.949 248.981 329.077 249.203 329.304C249.425 329.531 249.549 329.84 249.549 330.161C249.549 332.67 249.549 335.167 249.467 337.676C249.467 337.997 249.342 338.305 249.12 338.533C248.899 338.76 248.598 338.888 248.285 338.888Z" fill="#EB434A"/>
<path d="M291.712 288.299C291.479 288.3 291.251 288.237 291.05 288.117C290.916 288.035 290.799 287.926 290.706 287.797C290.613 287.669 290.546 287.522 290.509 287.367C290.472 287.211 290.465 287.05 290.489 286.891C290.512 286.733 290.567 286.581 290.648 286.444L294.194 280.457C294.259 280.297 294.356 280.153 294.479 280.034C294.602 279.916 294.749 279.826 294.909 279.771C295.069 279.715 295.239 279.696 295.407 279.713C295.575 279.731 295.738 279.785 295.884 279.873C296.03 279.96 296.155 280.079 296.253 280.22C296.35 280.362 296.417 280.523 296.448 280.694C296.48 280.864 296.475 281.039 296.435 281.207C296.395 281.376 296.32 281.533 296.215 281.669L292.669 287.669C292.574 287.848 292.437 287.999 292.27 288.11C292.102 288.22 291.91 288.285 291.712 288.299Z" fill="#EB434A"/>
<path d="M275.447 315.555C275.235 315.555 275.027 315.497 274.845 315.386C274.575 315.222 274.38 314.955 274.302 314.643C274.225 314.332 274.271 314.002 274.431 313.725C277.811 307.835 282.315 300.102 287.102 292.576C287.273 292.308 287.541 292.121 287.847 292.055C288.152 291.989 288.471 292.05 288.733 292.224C288.864 292.312 288.977 292.424 289.065 292.556C289.153 292.688 289.215 292.837 289.247 292.994C289.279 293.15 289.28 293.312 289.251 293.469C289.221 293.626 289.162 293.776 289.076 293.909C284.348 301.387 279.833 309.083 276.464 314.962C276.359 315.142 276.211 315.292 276.032 315.396C275.854 315.501 275.652 315.555 275.447 315.555Z" fill="#EB434A"/>
<path d="M267.835 328.863C267.623 328.859 267.416 328.801 267.232 328.693C266.963 328.529 266.768 328.262 266.69 327.951C266.613 327.639 266.659 327.309 266.819 327.033L270.459 320.67C270.617 320.394 270.874 320.194 271.175 320.113C271.476 320.031 271.797 320.074 272.067 320.233C272.201 320.314 272.319 320.42 272.413 320.547C272.507 320.674 272.576 320.819 272.616 320.973C272.655 321.127 272.665 321.288 272.643 321.446C272.622 321.604 272.571 321.756 272.492 321.894L268.852 328.269C268.747 328.45 268.598 328.6 268.42 328.704C268.242 328.808 268.04 328.863 267.835 328.863Z" fill="#EB434A"/>
<path d="M260.826 340.801C260.609 340.8 260.396 340.737 260.211 340.619C260.078 340.536 259.963 340.427 259.871 340.298C259.779 340.168 259.713 340.022 259.677 339.866C259.641 339.711 259.635 339.55 259.66 339.392C259.684 339.234 259.739 339.083 259.821 338.947C260.798 337.331 261.768 335.715 262.729 334.099C262.901 333.856 263.155 333.688 263.441 333.626C263.728 333.564 264.026 333.613 264.279 333.764C264.532 333.915 264.721 334.156 264.811 334.442C264.9 334.728 264.883 335.037 264.762 335.311C263.793 336.947 262.824 338.583 261.831 340.219C261.726 340.396 261.578 340.543 261.402 340.644C261.226 340.746 261.028 340.8 260.826 340.801Z" fill="#EB434A"/>
<g opacity="0.7">
<path d="M154.446 289.607C154.166 289.606 153.896 289.507 153.678 289.328L150.782 286.82C150.542 286.612 150.392 286.316 150.366 285.995C150.339 285.675 150.438 285.357 150.64 285.111C150.842 284.865 151.131 284.711 151.444 284.684C151.756 284.657 152.067 284.758 152.306 284.965L155.202 287.474C155.385 287.634 155.516 287.848 155.577 288.087C155.639 288.325 155.627 288.578 155.545 288.809C155.463 289.041 155.314 289.242 155.117 289.385C154.921 289.527 154.686 289.605 154.446 289.607Z" fill="white"/>
<path d="M169.304 302.382C169.025 302.38 168.754 302.282 168.536 302.103C165.384 299.38 162.232 296.669 159.08 293.97C158.948 293.873 158.837 293.749 158.754 293.606C158.671 293.463 158.618 293.303 158.598 293.138C158.578 292.973 158.591 292.805 158.637 292.646C158.683 292.486 158.76 292.337 158.864 292.21C158.968 292.082 159.097 291.978 159.242 291.903C159.388 291.829 159.546 291.786 159.709 291.777C159.871 291.768 160.033 291.794 160.185 291.852C160.337 291.911 160.476 292 160.593 292.116C163.745 294.815 166.897 297.526 170.049 300.249C170.231 300.409 170.362 300.623 170.424 300.861C170.485 301.1 170.473 301.352 170.391 301.584C170.309 301.816 170.16 302.017 169.963 302.159C169.767 302.302 169.533 302.379 169.292 302.382H169.304Z" fill="white"/>
<path d="M181.123 312.671C180.842 312.671 180.569 312.568 180.355 312.38L174.741 307.532C174.622 307.429 174.524 307.303 174.453 307.16C174.382 307.018 174.339 306.863 174.326 306.704C174.314 306.545 174.332 306.384 174.379 306.232C174.427 306.08 174.504 305.939 174.605 305.818C174.705 305.696 174.829 305.596 174.967 305.523C175.106 305.45 175.257 305.406 175.413 305.393C175.568 305.38 175.724 305.398 175.873 305.447C176.021 305.496 176.158 305.575 176.277 305.678L181.88 310.526C181.999 310.629 182.097 310.754 182.168 310.896C182.239 311.037 182.283 311.192 182.296 311.35C182.309 311.509 182.292 311.669 182.245 311.821C182.198 311.973 182.122 312.113 182.022 312.235C181.912 312.37 181.775 312.479 181.619 312.555C181.464 312.63 181.295 312.67 181.123 312.671Z" fill="white"/>
<path d="M206.643 334.911C206.367 334.911 206.099 334.813 205.886 334.632C199.307 328.976 192.751 323.272 186.218 317.519L185.934 317.264C185.815 317.161 185.718 317.036 185.646 316.894C185.575 316.753 185.531 316.598 185.518 316.44C185.505 316.281 185.522 316.121 185.569 315.969C185.616 315.818 185.692 315.677 185.792 315.555C185.893 315.434 186.017 315.335 186.155 315.263C186.293 315.19 186.444 315.147 186.599 315.135C186.754 315.122 186.909 315.141 187.057 315.19C187.204 315.24 187.341 315.318 187.459 315.422L187.755 315.676C194.287 321.381 200.839 327.081 207.411 332.778C207.595 332.939 207.726 333.154 207.787 333.393C207.848 333.633 207.836 333.886 207.752 334.119C207.668 334.351 207.517 334.552 207.319 334.693C207.12 334.835 206.885 334.911 206.643 334.911Z" fill="white"/>
<path d="M218.569 345.079C218.293 345.08 218.026 344.981 217.813 344.801L212.151 339.953C212.032 339.85 211.934 339.724 211.863 339.583C211.791 339.442 211.748 339.287 211.735 339.128C211.722 338.97 211.739 338.81 211.786 338.658C211.833 338.506 211.909 338.365 212.009 338.244C212.211 338.001 212.498 337.85 212.808 337.823C213.117 337.796 213.425 337.895 213.664 338.098L219.326 342.946C219.446 343.048 219.544 343.173 219.617 343.314C219.69 343.455 219.734 343.609 219.748 343.768C219.763 343.927 219.746 344.087 219.7 344.239C219.654 344.391 219.579 344.533 219.48 344.655C219.367 344.79 219.228 344.898 219.07 344.971C218.913 345.044 218.742 345.081 218.569 345.079Z" fill="white"/>
<path d="M203.333 270.118C203.107 270.118 202.886 270.053 202.695 269.928C202.505 269.803 202.353 269.625 202.258 269.415L200.662 265.779C200.533 265.488 200.522 265.156 200.631 264.857C200.739 264.557 200.959 264.314 201.241 264.179C201.382 264.112 201.535 264.074 201.691 264.067C201.846 264.061 202.002 264.086 202.148 264.141C202.294 264.196 202.428 264.281 202.542 264.389C202.656 264.497 202.748 264.628 202.813 264.773L204.409 268.409C204.538 268.7 204.549 269.032 204.441 269.331C204.332 269.631 204.113 269.874 203.83 270.009C203.675 270.085 203.505 270.123 203.333 270.118Z" fill="white"/>
<path d="M213.889 293.267C213.662 293.267 213.441 293.201 213.25 293.077C213.06 292.952 212.908 292.774 212.813 292.564C210.307 286.916 208.085 282.019 205.91 277.608C205.841 277.465 205.8 277.309 205.79 277.149C205.779 276.99 205.8 276.83 205.85 276.678C205.9 276.527 205.978 276.387 206.081 276.267C206.183 276.147 206.308 276.048 206.448 275.978C206.588 275.907 206.739 275.865 206.895 275.854C207.05 275.844 207.207 275.865 207.354 275.916C207.502 275.967 207.638 276.047 207.755 276.153C207.873 276.258 207.969 276.386 208.038 276.529C210.189 280.977 212.447 285.886 214.964 291.558C215.092 291.85 215.102 292.183 214.991 292.483C214.88 292.783 214.658 293.025 214.373 293.158C214.221 293.229 214.056 293.266 213.889 293.267Z" fill="white"/>
<path d="M220.295 308.042C220.065 308.044 219.84 307.978 219.647 307.851C219.454 307.724 219.301 307.542 219.207 307.327C218.344 305.303 217.481 303.291 216.607 301.267C216.5 300.977 216.507 300.655 216.624 300.369C216.742 300.083 216.962 299.855 217.24 299.73C217.517 299.606 217.83 299.596 218.115 299.701C218.4 299.807 218.634 300.02 218.77 300.298C219.645 302.31 220.507 304.334 221.37 306.358C221.433 306.503 221.468 306.66 221.471 306.819C221.475 306.979 221.448 307.137 221.392 307.286C221.336 307.434 221.252 307.57 221.145 307.685C221.038 307.801 220.909 307.893 220.767 307.957C220.617 308.019 220.456 308.047 220.295 308.042Z" fill="white"/>
<path d="M234.006 338.886C233.784 338.887 233.567 338.824 233.379 338.704C233.191 338.584 233.04 338.412 232.942 338.208C229.065 330.172 225.448 321.894 222.127 314.137C222.064 313.992 222.03 313.835 222.026 313.676C222.022 313.516 222.049 313.358 222.105 313.209C222.161 313.061 222.245 312.925 222.352 312.81C222.459 312.694 222.588 312.602 222.73 312.538C222.872 312.473 223.025 312.438 223.18 312.434C223.335 312.43 223.49 312.458 223.635 312.515C223.78 312.572 223.912 312.659 224.024 312.769C224.137 312.878 224.227 313.01 224.29 313.156C227.599 320.888 231.205 329.142 235.058 337.129C235.149 337.314 235.192 337.519 235.183 337.725C235.175 337.932 235.115 338.132 235.01 338.308C234.904 338.485 234.757 338.63 234.581 338.731C234.405 338.832 234.207 338.886 234.006 338.886Z" fill="white"/>
<path d="M248.285 275.366C247.971 275.366 247.67 275.238 247.449 275.011C247.227 274.784 247.103 274.475 247.103 274.154V261.452C247.103 261.131 247.227 260.823 247.449 260.595C247.67 260.368 247.971 260.24 248.285 260.24C248.598 260.24 248.899 260.368 249.12 260.595C249.342 260.823 249.467 261.131 249.467 261.452V274.166C249.463 274.485 249.338 274.791 249.116 275.015C248.895 275.24 248.596 275.366 248.285 275.366Z" fill="white"/>
<path d="M248.355 289.922C248.042 289.922 247.741 289.794 247.52 289.567C247.298 289.34 247.173 289.031 247.173 288.71L247.103 282.347C247.103 282.025 247.227 281.717 247.449 281.49C247.67 281.262 247.971 281.135 248.285 281.135C248.598 281.135 248.899 281.262 249.12 281.49C249.342 281.717 249.467 282.025 249.467 282.347L249.537 288.722C249.537 289.043 249.413 289.352 249.191 289.579C248.97 289.806 248.669 289.934 248.355 289.934V289.922Z" fill="white"/>
<path d="M248.414 323.034C248.101 323.034 247.8 322.906 247.579 322.679C247.357 322.451 247.232 322.143 247.232 321.822C247.232 313.338 247.232 304.696 247.232 295.97C247.232 295.648 247.357 295.34 247.579 295.113C247.8 294.885 248.101 294.758 248.414 294.758C248.728 294.758 249.029 294.885 249.25 295.113C249.472 295.34 249.596 295.648 249.596 295.97C249.596 304.696 249.656 313.398 249.596 321.846C249.59 322.163 249.463 322.465 249.242 322.687C249.021 322.909 248.724 323.034 248.414 323.034Z" fill="white"/>
<path d="M248.285 338.888C247.971 338.888 247.67 338.76 247.449 338.533C247.227 338.305 247.103 337.997 247.103 337.676C247.103 335.167 247.162 332.67 247.185 330.161C247.185 329.84 247.31 329.531 247.531 329.304C247.753 329.077 248.054 328.949 248.367 328.949C248.681 328.949 248.981 329.077 249.203 329.304C249.425 329.531 249.549 329.84 249.549 330.161C249.549 332.67 249.549 335.167 249.467 337.676C249.467 337.997 249.342 338.305 249.12 338.533C248.899 338.76 248.598 338.888 248.285 338.888Z" fill="white"/>
<path d="M291.712 288.299C291.479 288.3 291.251 288.237 291.05 288.117C290.916 288.035 290.799 287.926 290.706 287.797C290.613 287.669 290.546 287.522 290.509 287.367C290.472 287.211 290.465 287.05 290.489 286.891C290.512 286.733 290.567 286.581 290.648 286.444L294.194 280.457C294.259 280.297 294.356 280.153 294.479 280.034C294.602 279.916 294.749 279.826 294.909 279.771C295.069 279.715 295.239 279.696 295.407 279.713C295.575 279.731 295.738 279.785 295.884 279.873C296.03 279.96 296.155 280.079 296.253 280.22C296.35 280.362 296.417 280.523 296.448 280.694C296.48 280.864 296.475 281.039 296.435 281.207C296.395 281.376 296.32 281.533 296.215 281.669L292.669 287.669C292.574 287.848 292.437 287.999 292.27 288.11C292.102 288.22 291.91 288.285 291.712 288.299Z" fill="white"/>
<path d="M275.447 315.555C275.235 315.555 275.027 315.497 274.845 315.386C274.575 315.222 274.38 314.955 274.302 314.643C274.225 314.332 274.271 314.002 274.431 313.725C277.811 307.835 282.315 300.102 287.102 292.576C287.273 292.308 287.541 292.121 287.847 292.055C288.152 291.989 288.471 292.05 288.733 292.224C288.864 292.312 288.977 292.424 289.065 292.556C289.153 292.688 289.215 292.837 289.247 292.994C289.279 293.15 289.28 293.312 289.251 293.469C289.221 293.626 289.162 293.776 289.076 293.909C284.348 301.387 279.833 309.083 276.464 314.962C276.359 315.142 276.211 315.292 276.032 315.396C275.854 315.501 275.652 315.555 275.447 315.555Z" fill="white"/>
<path d="M267.835 328.863C267.623 328.859 267.416 328.801 267.232 328.693C266.963 328.529 266.768 328.262 266.69 327.951C266.613 327.639 266.659 327.309 266.819 327.033L270.459 320.67C270.617 320.394 270.874 320.194 271.175 320.113C271.476 320.031 271.797 320.074 272.067 320.233C272.201 320.314 272.319 320.42 272.413 320.547C272.507 320.674 272.576 320.819 272.616 320.973C272.655 321.127 272.665 321.288 272.643 321.446C272.622 321.604 272.571 321.756 272.492 321.894L268.852 328.269C268.747 328.45 268.598 328.6 268.42 328.704C268.242 328.808 268.04 328.863 267.835 328.863Z" fill="white"/>
<path d="M260.826 340.801C260.609 340.8 260.396 340.737 260.211 340.619C260.078 340.536 259.963 340.427 259.871 340.298C259.779 340.168 259.713 340.022 259.677 339.866C259.641 339.711 259.635 339.55 259.66 339.392C259.684 339.234 259.739 339.083 259.821 338.947C260.798 337.331 261.768 335.715 262.729 334.099C262.901 333.856 263.155 333.688 263.441 333.626C263.728 333.564 264.026 333.613 264.279 333.764C264.532 333.915 264.721 334.156 264.811 334.442C264.9 334.728 264.883 335.037 264.762 335.311C263.793 336.947 262.824 338.583 261.831 340.219C261.726 340.396 261.578 340.543 261.402 340.644C261.226 340.746 261.028 340.8 260.826 340.801Z" fill="white"/>
</g>
</g>
<defs>
<clipPath id="clip0_1111_12838">
<rect width="522" height="471" fill="white"/>
</clipPath>
</defs>
</svg>
