<svg width="500" height="500" viewBox="0 0 500 500" fill="none" xmlns="http://www.w3.org/2000/svg">
<path d="M27.3501 208.531C29.8775 183.627 38.5532 159.742 52.5974 139.021C66.6416 118.3 85.6142 101.394 107.81 89.821C147.114 69.3848 189.997 56.7363 234.1 52.571C354 41.321 387.75 102.781 408 158.241C428.25 213.701 494.19 307.391 487.45 399.581C487.45 399.581 482.2 450.581 462.71 473.781H26.4901C26.4901 473.781 1.0001 439.301 28.0001 374.101C55.0001 308.901 19.0001 305.891 25.7501 225.701C26.2601 219.581 26.8001 213.871 27.3501 208.531Z" fill="black" fill-opacity="0.1"/>
<path opacity="0.7" d="M27.3501 208.531C29.8775 183.627 38.5532 159.742 52.5974 139.021C66.6416 118.3 85.6142 101.394 107.81 89.821C147.114 69.3848 189.997 56.7363 234.1 52.571C354 41.321 387.75 102.781 408 158.241C428.25 213.701 494.19 307.391 487.45 399.581C487.45 399.581 482.2 450.581 462.71 473.781H26.4901C26.4901 473.781 1.0001 439.301 28.0001 374.101C55.0001 308.901 19.0001 305.891 25.7501 225.701C26.2601 219.581 26.8001 213.871 27.3501 208.531Z" fill="black" fill-opacity="0.1"/>
<g opacity="0.3">
<path d="M105.85 28.8086H39.23V124.169H105.85V28.8086Z" stroke="white" stroke-linecap="round" stroke-linejoin="round"/>
<path d="M177.05 28.8086H110.43V124.169H177.05V28.8086Z" stroke="white" stroke-linecap="round" stroke-linejoin="round"/>
<path d="M248.24 28.8086H181.62V124.169H248.24V28.8086Z" stroke="white" stroke-linecap="round" stroke-linejoin="round"/>
<path d="M105.85 128.738H39.23V224.098H105.85V128.738Z" stroke="white" stroke-linecap="round" stroke-linejoin="round"/>
<path d="M177.05 128.738H110.43V224.098H177.05V128.738Z" stroke="white" stroke-linecap="round" stroke-linejoin="round"/>
<path d="M248.24 128.738H181.62V224.098H248.24V128.738Z" stroke="white" stroke-linecap="round" stroke-linejoin="round"/>
<path d="M105.85 228.68H39.23V324.04H105.85V228.68Z" stroke="white" stroke-linecap="round" stroke-linejoin="round"/>
<path d="M177.05 228.68H110.43V324.04H177.05V228.68Z" stroke="white" stroke-linecap="round" stroke-linejoin="round"/>
<path d="M248.24 228.68H181.62V324.04H248.24V228.68Z" stroke="white" stroke-linecap="round" stroke-linejoin="round"/>
</g>
<path d="M446.52 43.1777V346.628C446.52 350.628 444.932 354.465 442.104 357.294C439.276 360.124 435.44 361.715 431.44 361.718H300.32C296.32 361.715 292.484 360.124 289.656 357.294C286.828 354.465 285.24 350.628 285.24 346.628V43.1677C285.24 39.1709 286.828 35.3378 289.654 32.5116C292.48 29.6855 296.313 28.0977 300.31 28.0977H356.59L356.64 28.2677C358.04 33.3177 361.27 36.5977 364.85 36.5977H366.85C370.44 36.5977 373.66 33.3177 375.07 28.2677L375.12 28.0977H431.39C433.375 28.0912 435.341 28.4764 437.176 29.2313C439.012 29.9861 440.68 31.0959 442.086 32.4969C443.491 33.8978 444.606 35.5624 445.367 37.3953C446.128 39.2282 446.52 41.1932 446.52 43.1777Z" fill="#ECECEC"/>
<path d="M446.52 260.768V43.1777C446.52 39.1782 444.931 35.3425 442.103 32.5145C439.275 29.6864 435.439 28.0977 431.44 28.0977H375.17L375.12 28.2677C373.71 33.3177 370.49 36.5977 366.9 36.5977H364.9C361.32 36.5977 358.09 33.3177 356.69 28.2677L356.64 28.0977H300.31C296.313 28.0977 292.48 29.6854 289.654 32.5116C286.828 35.3377 285.24 39.1708 285.24 43.1677V260.768H446.52Z" fill="#EB434A"/>
<path d="M375.12 28.2677C373.71 33.3177 370.49 36.5977 366.9 36.5977H364.9C361.32 36.5977 358.09 33.3177 356.69 28.2677L356.64 28.0977H309.16C303.469 28.0976 297.963 30.126 293.633 33.819C289.302 37.512 286.429 42.6276 285.53 48.2477H446.22C445.321 42.6293 442.45 37.515 438.121 33.8222C433.793 30.1295 428.29 28.0999 422.6 28.0977H375.17L375.12 28.2677Z" fill="#D4D4D4"/>
<path d="M456.77 115.659V85.3489H454V46.5489C454 40.2049 451.48 34.1208 446.994 29.6349C442.508 25.149 436.424 22.6289 430.08 22.6289H301.64C298.499 22.6289 295.388 23.2476 292.486 24.4497C289.584 25.6518 286.947 27.4137 284.726 29.6349C282.505 31.8561 280.743 34.493 279.541 37.3951C278.339 40.2972 277.72 43.4077 277.72 46.5489V354.879C277.72 358.02 278.339 361.131 279.541 364.033C280.743 366.935 282.505 369.572 284.726 371.793C286.947 374.014 289.584 375.776 292.486 376.978C295.388 378.18 298.499 378.799 301.64 378.799H430.11C436.449 378.791 442.525 376.267 447.005 371.782C451.484 367.297 454 361.218 454 354.879V141.489H456.74V123.579H454V115.659H456.77ZM446.52 337.799C446.517 344.142 443.996 350.225 439.511 354.71C435.026 359.195 428.943 361.716 422.6 361.719H309.16C306.019 361.719 302.908 361.1 300.006 359.898C297.104 358.696 294.467 356.934 292.246 354.713C290.025 352.492 288.263 349.855 287.061 346.953C285.859 344.051 285.24 340.94 285.24 337.799V51.9989C285.245 45.6584 287.768 39.5794 292.253 35.0978C296.738 30.6163 302.819 28.0989 309.16 28.0989H356.59L356.64 28.2689C358.04 33.3189 361.27 36.5989 364.85 36.5989H366.85C370.44 36.5989 373.66 33.3189 375.07 28.2689L375.12 28.0989H422.6C428.94 28.1016 435.019 30.6198 439.504 35.1008C443.989 39.5817 446.512 45.6592 446.52 51.9989V337.799Z" fill="#707070" stroke="#263238" stroke-linejoin="round"/>
<path d="M428.2 25.9297H303.56C300.53 25.9284 297.53 26.5242 294.73 27.6831C291.93 28.842 289.387 30.5413 287.244 32.6838C285.102 34.8263 283.402 37.3701 282.243 40.1696C281.084 42.9692 280.489 45.9697 280.49 48.9997V352.44C280.49 355.469 281.087 358.468 282.246 361.267C283.406 364.065 285.105 366.608 287.248 368.749C289.39 370.891 291.933 372.589 294.732 373.747C297.531 374.906 300.531 375.501 303.56 375.5H428.2C431.228 375.5 434.227 374.903 437.025 373.744C439.822 372.585 442.365 370.887 444.506 368.746C446.647 366.604 448.346 364.062 449.505 361.264C450.664 358.467 451.26 355.468 451.26 352.44V48.9997C451.261 45.9706 450.666 42.9709 449.508 40.1719C448.349 37.373 446.651 34.8297 444.509 32.6873C442.368 30.545 439.825 28.8455 437.027 27.686C434.229 26.5265 431.229 25.9297 428.2 25.9297ZM446.52 338.65C446.52 344.768 444.089 350.636 439.763 354.963C435.436 359.289 429.569 361.72 423.45 361.72H308.31C302.191 361.72 296.324 359.289 291.997 354.963C287.671 350.636 285.24 344.768 285.24 338.65V51.1597C285.24 45.0438 287.67 39.1784 291.994 34.8538C296.319 30.5292 302.184 28.0997 308.3 28.0997H356.59L356.64 28.2697C358.04 33.3197 361.27 36.5997 364.85 36.5997H366.85C370.44 36.5997 373.66 33.3197 375.07 28.2697L375.12 28.0997H423.4C429.519 28.0997 435.386 30.5303 439.713 34.8567C444.039 39.1832 446.47 45.0511 446.47 51.1697L446.52 338.65Z" fill="#263238" stroke="#263238" stroke-linejoin="round"/>
<path d="M367.63 29.2383C367.63 28.7933 367.498 28.3583 367.251 27.9882C367.004 27.6182 366.652 27.3298 366.241 27.1596C365.83 26.9893 365.377 26.9447 364.941 27.0315C364.505 27.1183 364.104 27.3326 363.789 27.6473C363.474 27.962 363.26 28.3629 363.173 28.7993C363.086 29.2358 363.131 29.6882 363.301 30.0993C363.472 30.5105 363.76 30.8619 364.13 31.1091C364.5 31.3563 364.935 31.4883 365.38 31.4883C365.676 31.4896 365.969 31.4323 366.243 31.3197C366.516 31.2071 366.765 31.0414 366.974 30.8322C367.183 30.623 367.349 30.3745 367.461 30.1009C367.574 29.8273 367.631 29.5341 367.63 29.2383Z" fill="#ECECEC"/>
<path d="M299.57 37.8487C299.57 40.1187 297.02 40.9387 297.01 42.6687V42.7887H299.49V43.5487H296.18V42.9087C296.18 40.4787 298.73 39.9987 298.73 37.9087C298.73 37.1387 298.47 36.7287 297.85 36.7287C297.23 36.7287 296.97 37.1687 296.97 37.8387V38.4987H296.18V37.8887C296.18 36.7387 296.71 35.9688 297.87 35.9688C299.03 35.9688 299.57 36.6987 299.57 37.8487Z" fill="#263238"/>
<path d="M303.7 37.8375V37.9975C303.735 38.3207 303.665 38.6465 303.499 38.9261C303.333 39.2056 303.081 39.4237 302.78 39.5475C303.082 39.6717 303.336 39.8914 303.502 40.173C303.668 40.4546 303.738 40.7827 303.7 41.1075V41.6875C303.7 42.8475 303.16 43.5975 302 43.5975C300.84 43.5975 300.31 42.8475 300.31 41.6875V41.1775H301.09V41.7475C301.09 42.4275 301.37 42.8375 301.97 42.8375C302.57 42.8375 302.86 42.4375 302.86 41.6675V41.0875C302.86 40.3475 302.54 39.9875 301.91 39.9675H301.46V39.2175H302C302.127 39.2181 302.254 39.192 302.37 39.1407C302.487 39.0895 302.592 39.0143 302.677 38.92C302.763 38.8257 302.828 38.7145 302.868 38.5934C302.908 38.4724 302.923 38.3443 302.91 38.2175V37.8675C302.91 37.0975 302.64 36.6975 302.02 36.6975C301.4 36.6975 301.14 37.1175 301.14 37.7975V38.1775H300.36V37.8375C300.36 36.6875 300.89 35.9375 302.05 35.9375C303.21 35.9375 303.7 36.6875 303.7 37.8375Z" fill="#263238"/>
<path d="M305.32 38.4102V39.4102H304.52V38.4102H305.32ZM305.32 42.5102V43.5102H304.52V42.5102H305.32Z" fill="#263238"/>
<path d="M307 39.0895C307.11 38.8915 307.274 38.7278 307.471 38.6166C307.669 38.5055 307.893 38.4511 308.12 38.4595C309.12 38.4595 309.52 39.1695 309.52 40.2495V41.7195C309.52 42.8795 308.98 43.6295 307.82 43.6295C306.66 43.6295 306.13 42.8795 306.13 41.7195V41.2195H306.92V41.7795C306.92 42.4595 307.2 42.8695 307.8 42.8695C308.4 42.8695 308.68 42.4595 308.68 41.7795V40.3095C308.68 39.6395 308.4 39.2295 307.8 39.2295C307.691 39.2255 307.583 39.2431 307.482 39.2813C307.38 39.3194 307.287 39.3774 307.208 39.4519C307.129 39.5263 307.065 39.6157 307.021 39.7148C306.977 39.814 306.953 39.921 306.95 40.0295V40.2095H306.17L306.37 36.0195H309.37V36.7695H307.15L307 39.0895Z" fill="#263238"/>
<path d="M313.73 37.8275V37.9975H313V37.7975C313 37.1275 312.72 36.7275 312.1 36.7275C311.48 36.7275 311.19 37.1375 311.19 37.9375V39.5975C311.279 39.3496 311.446 39.1373 311.666 38.993C311.886 38.8486 312.147 38.78 312.41 38.7975C313.41 38.7975 313.81 39.4975 313.81 40.5775V41.7175C313.81 42.8775 313.23 43.6275 312.08 43.6275C310.93 43.6275 310.35 42.8775 310.35 41.7175V37.8775C310.35 36.6875 310.89 35.9375 312.08 35.9375C313.27 35.9375 313.73 36.6775 313.73 37.8275ZM311.14 40.6475V41.7775C311.14 42.4575 311.42 42.8675 312.03 42.8675C312.64 42.8675 312.93 42.4575 312.93 41.7775V40.6475C312.93 39.9675 312.64 39.5575 312.03 39.5575C311.42 39.5575 311.14 39.9975 311.14 40.6475Z" fill="#263238"/>
<path d="M396.01 38.1602H393.88V43.4802H396.01V38.1602Z" fill="#263238"/>
<path d="M398.85 37.0898H396.72V43.4798H398.85V37.0898Z" fill="#263238"/>
<path d="M401.68 36.3398H399.55V43.4798H401.68V36.3398Z" fill="#263238"/>
<path d="M404.52 35.0195H402.39V43.4795H404.52V35.0195Z" fill="#263238"/>
<path d="M430.85 43.3273H418.08V35.5273H430.85V43.3273ZM418.79 42.6173H430.14V36.2373H418.79V42.6173Z" fill="#263238"/>
<path d="M426.6 37.0078H419.86V41.8478H426.6V37.0078Z" fill="#263238"/>
<path d="M432.02 38.5078H430.41V40.3478H432.02V38.5078Z" fill="#263238"/>
<path d="M413.4 41.6383C413.315 41.6353 413.233 41.6112 413.16 41.5683C410.56 40.0183 408.84 41.4583 408.77 41.5683C408.723 41.6097 408.668 41.6412 408.609 41.6611C408.55 41.681 408.487 41.6889 408.424 41.6842C408.362 41.6796 408.301 41.6625 408.245 41.634C408.19 41.6055 408.14 41.5662 408.1 41.5183C408.013 41.4287 407.964 41.3085 407.964 41.1833C407.964 41.0582 408.013 40.938 408.1 40.8483C408.19 40.7683 410.39 38.8483 413.61 40.8483C413.663 40.8802 413.71 40.9224 413.747 40.9724C413.784 41.0225 413.811 41.0794 413.826 41.1399C413.841 41.2004 413.844 41.2632 413.834 41.3247C413.824 41.3863 413.803 41.4453 413.77 41.4983C413.721 41.5461 413.663 41.5832 413.6 41.6073C413.536 41.6314 413.468 41.642 413.4 41.6383Z" fill="#263238"/>
<path d="M414.36 39.9988C414.276 39.9992 414.194 39.9785 414.12 39.9388C410.36 37.6988 407.84 39.8588 407.81 39.8788C407.763 39.9201 407.709 39.9519 407.65 39.9723C407.591 39.9927 407.529 40.0012 407.467 39.9975C407.404 39.9938 407.344 39.9779 407.288 39.9506C407.231 39.9234 407.181 39.8854 407.14 39.8388C407.099 39.7921 407.067 39.7378 407.046 39.6789C407.026 39.62 407.018 39.5577 407.021 39.4955C407.025 39.4333 407.041 39.3724 407.068 39.3163C407.095 39.2603 407.133 39.2101 407.18 39.1688C407.18 39.1688 410.26 36.5288 414.61 39.1188C414.663 39.1506 414.71 39.1928 414.747 39.2428C414.784 39.2929 414.811 39.3498 414.826 39.4103C414.841 39.4708 414.844 39.5336 414.834 39.5951C414.824 39.6567 414.803 39.7157 414.77 39.7688C414.727 39.839 414.667 39.8971 414.595 39.9374C414.523 39.9777 414.442 39.9988 414.36 39.9988Z" fill="#263238"/>
<path d="M415.24 38.1791C415.152 38.176 415.067 38.152 414.99 38.1091C410.23 35.2791 407.07 37.9391 406.94 38.1091C406.893 38.1504 406.838 38.182 406.779 38.2019C406.72 38.2218 406.657 38.2296 406.594 38.225C406.532 38.2203 406.471 38.2032 406.415 38.1747C406.36 38.1463 406.31 38.1069 406.27 38.0591C406.226 38.0153 406.19 37.9632 406.166 37.9057C406.142 37.8482 406.13 37.7864 406.13 37.7241C406.13 37.6617 406.142 37.6 406.166 37.5425C406.19 37.4849 406.226 37.4328 406.27 37.3891C406.27 37.3891 410.06 34.1391 415.44 37.3391C415.548 37.4036 415.626 37.5078 415.658 37.6294C415.689 37.7509 415.672 37.88 415.61 37.9891C415.566 38.0459 415.51 38.0924 415.446 38.1253C415.382 38.1581 415.312 38.1765 415.24 38.1791Z" fill="#263238"/>
<path d="M412 42.4283C412.002 42.666 411.933 42.899 411.803 43.0977C411.672 43.2963 411.485 43.4517 411.266 43.544C411.047 43.6364 410.805 43.6616 410.572 43.6164C410.339 43.5713 410.124 43.4578 409.955 43.2904C409.786 43.1229 409.671 42.9091 409.624 42.6761C409.577 42.443 409.6 42.2013 409.69 41.9814C409.781 41.7615 409.935 41.5735 410.132 41.4412C410.33 41.3089 410.562 41.2383 410.8 41.2383C411.116 41.2383 411.42 41.3633 411.645 41.5862C411.87 41.8091 411.997 42.1118 412 42.4283Z" fill="#263238"/>
<path d="M437.89 110.188H295.43V201.357H437.89V110.188Z" fill="#ECECEC" stroke="#263238" stroke-linecap="round" stroke-linejoin="round"/>
<path d="M437.89 191.207H295.43V201.367H437.89V191.207Z" fill="#ECECEC" stroke="#263238" stroke-linecap="round" stroke-linejoin="round"/>
<path d="M437.89 194.809H295.43V197.769H437.89V194.809Z" fill="#ECECEC" stroke="#263238" stroke-linecap="round" stroke-linejoin="round"/>
<path d="M297.72 100.359L297.94 87.6094H300.69L302.27 95.6094L303.95 87.6094H306.62L306.84 100.359H305L304.79 91.7194L303.17 100.359H301.5L299.8 91.6494L299.62 100.359H297.72Z" fill="#263238"/>
<path d="M310.29 100.36V95.3602L307.8 87.6602H310.24L311.61 92.1402L312.88 87.6602H315.25L312.79 95.3602V100.36H310.29Z" fill="#263238"/>
<path d="M323.72 100.538C322.934 100.579 322.152 100.391 321.47 99.9983C320.927 99.6486 320.521 99.1224 320.32 98.5083C320.091 97.7947 319.983 97.0477 320 96.2983V91.7183C319.983 90.9453 320.095 90.1749 320.33 89.4383C320.532 88.8411 320.935 88.3323 321.47 87.9983C322.156 87.6177 322.936 87.4375 323.72 87.4783C324.463 87.441 325.204 87.596 325.87 87.9283C326.377 88.2196 326.767 88.6796 326.97 89.2283C327.198 89.8457 327.306 90.5006 327.29 91.1583V92.1983H324.77V90.9983C324.786 90.7219 324.786 90.4448 324.77 90.1683C324.75 89.9366 324.659 89.7166 324.51 89.5383C324.409 89.4509 324.291 89.3846 324.164 89.3434C324.037 89.3022 323.903 89.2869 323.77 89.2983C323.635 89.2868 323.498 89.3031 323.369 89.3461C323.24 89.3891 323.121 89.4579 323.02 89.5483C322.854 89.728 322.749 89.9555 322.72 90.1983C322.678 90.4931 322.658 90.7906 322.66 91.0883V96.8883C322.658 97.2001 322.684 97.5115 322.74 97.8183C322.781 98.055 322.896 98.2724 323.07 98.4383C323.271 98.5891 323.519 98.6635 323.77 98.6483C323.9 98.6618 324.032 98.6474 324.156 98.606C324.28 98.5646 324.394 98.4972 324.49 98.4083C324.641 98.2184 324.734 97.9895 324.76 97.7483C324.781 97.462 324.781 97.1746 324.76 96.8883V95.6483H327.28V96.7083C327.295 97.388 327.19 98.065 326.97 98.7083C326.77 99.2687 326.386 99.7446 325.88 100.058C325.219 100.418 324.471 100.585 323.72 100.538Z" fill="#263238"/>
<path d="M332.44 100.537C331.667 100.576 330.899 100.399 330.22 100.027C329.678 99.6943 329.265 99.1864 329.05 98.5874C328.802 97.8672 328.684 97.1088 328.7 96.3474V91.5874C328.684 90.8259 328.802 90.0676 329.05 89.3474C329.266 88.7566 329.679 88.2585 330.22 87.9374C330.903 87.5778 331.669 87.4086 332.44 87.4474C333.22 87.4066 333.997 87.5758 334.69 87.9374C335.233 88.2637 335.648 88.7642 335.87 89.3574C336.126 90.0722 336.248 90.8282 336.23 91.5874V96.3474C336.248 97.1098 336.126 97.869 335.87 98.5874C335.655 99.1891 335.238 99.6979 334.69 100.027C334.001 100.401 333.223 100.578 332.44 100.537ZM332.44 98.6574C332.574 98.6716 332.71 98.6585 332.838 98.619C332.967 98.5794 333.087 98.5143 333.19 98.4274C333.353 98.2602 333.461 98.0474 333.5 97.8174C333.553 97.5439 333.58 97.266 333.58 96.9874V90.9974C333.58 90.7221 333.553 90.4474 333.5 90.1774C333.457 89.9486 333.349 89.737 333.19 89.5674C332.977 89.4021 332.709 89.3235 332.44 89.3474C332.187 89.3293 331.937 89.408 331.74 89.5674C331.574 89.7336 331.462 89.9463 331.42 90.1774C331.367 90.4474 331.34 90.7221 331.34 90.9974V96.9974C331.342 97.2754 331.365 97.5529 331.41 97.8274C331.444 98.0589 331.553 98.273 331.72 98.4374C331.922 98.6017 332.18 98.6806 332.44 98.6574Z" fill="#263238"/>
<path d="M341.55 100.539C340.768 100.583 339.99 100.41 339.3 100.039C338.764 99.714 338.363 99.2063 338.17 98.6094C337.938 97.8722 337.83 97.1018 337.85 96.3294V87.6094H340.41V96.6894C340.413 97.0006 340.436 97.3113 340.48 97.6194C340.516 97.8909 340.627 98.1471 340.8 98.3594C340.895 98.4607 341.012 98.5394 341.142 98.5896C341.272 98.6398 341.411 98.6602 341.55 98.6494C341.69 98.657 341.83 98.6351 341.961 98.5851C342.092 98.5352 342.211 98.4583 342.31 98.3594C342.484 98.1485 342.592 97.8912 342.62 97.6194C342.661 97.3111 342.681 97.0004 342.68 96.6894V87.6094H345.25V96.3294C345.266 97.1016 345.158 97.8713 344.93 98.6094C344.726 99.1898 344.327 99.6813 343.8 99.9994C343.113 100.381 342.335 100.568 341.55 100.539Z" fill="#263238"/>
<path d="M347.06 100.358V87.6078H350.37C351.117 87.5888 351.863 87.6867 352.58 87.8978C353.156 88.0547 353.658 88.4086 354 88.8978C354.353 89.5032 354.523 90.1978 354.49 90.8978C354.497 91.3645 354.453 91.8305 354.36 92.2878C354.273 92.6498 354.113 92.9901 353.89 93.2878C353.625 93.6111 353.28 93.8593 352.89 94.0078L354.66 100.228H352L350.53 94.4478H349.62V100.228L347.06 100.358ZM349.66 93.0378H350.41C350.756 93.0555 351.1 92.9832 351.41 92.8278C351.653 92.6935 351.835 92.4718 351.92 92.2078C352.025 91.885 352.076 91.5471 352.07 91.2078C352.099 90.7361 351.987 90.2665 351.75 89.8578C351.601 89.688 351.413 89.5573 351.202 89.4771C350.991 89.3969 350.764 89.3697 350.54 89.3978H349.66V93.0378Z" fill="#263238"/>
<path d="M359.5 100.537C358.806 100.566 358.117 100.415 357.5 100.097C356.973 99.8036 356.556 99.3475 356.31 98.797C356.021 98.0883 355.865 97.3323 355.85 96.567L358.09 96.187C358.098 96.628 358.152 97.067 358.25 97.497C358.309 97.794 358.451 98.0681 358.66 98.287C358.848 98.4584 359.095 98.5514 359.35 98.547C359.481 98.5625 359.613 98.5418 359.733 98.4871C359.853 98.4325 359.956 98.3459 360.03 98.237C360.153 98.0135 360.215 97.7619 360.21 97.507C360.225 97.0318 360.092 96.5636 359.83 96.167C359.54 95.7627 359.205 95.3936 358.83 95.067L357.51 93.917C357.05 93.536 356.657 93.0795 356.35 92.567C356.035 91.9988 355.88 91.3562 355.9 90.707C355.872 90.2613 355.939 89.8148 356.098 89.3974C356.257 88.98 356.503 88.6014 356.82 88.287C357.526 87.6963 358.431 87.396 359.35 87.447C359.891 87.4239 360.429 87.5302 360.92 87.757C361.326 87.9424 361.672 88.2366 361.92 88.607C362.143 88.9595 362.303 89.3489 362.39 89.757C362.476 90.1624 362.533 90.5734 362.56 90.987L360.33 91.317C360.316 90.982 360.282 90.6481 360.23 90.317C360.207 90.0645 360.109 89.8245 359.95 89.627C359.862 89.5381 359.756 89.4691 359.639 89.4244C359.522 89.3798 359.397 89.3607 359.272 89.3682C359.147 89.3758 359.025 89.4099 358.914 89.4683C358.804 89.5268 358.707 89.6081 358.63 89.707C358.488 89.9317 358.412 90.1914 358.41 90.457C358.397 90.85 358.505 91.2375 358.72 91.567C358.969 91.8977 359.25 92.2025 359.56 92.477L360.85 93.607C361.385 94.063 361.85 94.5954 362.23 95.187C362.635 95.8473 362.837 96.6126 362.81 97.387C362.817 97.9535 362.675 98.512 362.4 99.007C362.131 99.4839 361.737 99.8781 361.26 100.147C360.717 100.427 360.11 100.561 359.5 100.537Z" fill="#263238"/>
<path d="M363.94 100.359V87.6094H369.5V89.3994H366.5V92.7894H368.79V94.5994H366.5V98.5994H369.5V100.359H363.94Z" fill="#263238"/>
<path d="M297.12 218.927V208.867H298.5V218.927H297.12Z" fill="#263238"/>
<path d="M300.13 218.927V208.867H301.08L303.94 215.547V208.867H305.11V218.927H304.21L301.32 212.057V218.927H300.13Z" fill="#263238"/>
<path d="M307.79 218.93V209.93H306.09V208.93H310.85V209.93H309.2V218.93H307.79Z" fill="#263238"/>
<path d="M311.82 218.929V208.869H313.82C314.389 208.852 314.956 208.944 315.49 209.139C315.918 209.288 316.275 209.591 316.49 209.989C316.72 210.472 316.83 211.004 316.81 211.539C316.815 211.897 316.772 212.254 316.68 212.599C316.613 212.895 316.48 213.172 316.29 213.409C316.097 213.631 315.849 213.797 315.57 213.889L316.99 218.889H315.64L314.32 214.169H313.23V218.889L311.82 218.929ZM313.22 213.199H313.75C314.089 213.218 314.429 213.17 314.75 213.059C314.992 212.967 315.19 212.784 315.3 212.549C315.429 212.232 315.487 211.891 315.47 211.549C315.509 211.102 315.396 210.655 315.15 210.279C314.977 210.126 314.773 210.012 314.552 209.945C314.332 209.878 314.099 209.859 313.87 209.889H313.25L313.22 213.199Z" fill="#263238"/>
<path d="M320.84 219C320.271 219.027 319.705 218.892 319.21 218.61C318.799 218.339 318.492 217.938 318.34 217.47C318.152 216.913 318.064 216.327 318.08 215.74V212C318.069 211.419 318.157 210.841 318.34 210.29C318.501 209.84 318.807 209.456 319.21 209.2C319.708 208.926 320.272 208.795 320.84 208.82C321.403 208.792 321.962 208.928 322.45 209.21C322.852 209.465 323.156 209.849 323.31 210.3C323.502 210.846 323.594 211.422 323.58 212V215.83C323.59 216.411 323.499 216.99 323.31 217.54C323.157 218.005 322.855 218.406 322.45 218.68C321.956 218.943 321.396 219.054 320.84 219ZM320.84 217.9C321.138 217.92 321.434 217.839 321.68 217.67C321.877 217.502 322.014 217.273 322.07 217.02C322.136 216.691 322.166 216.356 322.16 216.02V211.61C322.167 211.274 322.137 210.939 322.07 210.61C322.011 210.366 321.874 210.149 321.68 209.99C321.429 209.834 321.135 209.76 320.84 209.78C320.539 209.761 320.238 209.834 319.98 209.99C319.786 210.149 319.649 210.366 319.59 210.61C319.519 210.938 319.485 211.274 319.49 211.61V216.02C319.487 216.356 319.52 216.691 319.59 217.02C319.646 217.273 319.783 217.502 319.98 217.67C320.229 217.852 320.531 217.947 320.84 217.94V217.9Z" fill="#263238"/>
<path d="M325 218.927V208.867H327.19C327.799 208.839 328.405 208.956 328.96 209.207C329.378 209.421 329.707 209.775 329.89 210.207C330.089 210.751 330.184 211.328 330.17 211.907V215.607C330.183 216.219 330.088 216.828 329.89 217.407C329.724 217.871 329.402 218.263 328.98 218.517C328.466 218.797 327.884 218.928 327.3 218.897L325 218.927ZM326.4 217.927H327.2C327.588 217.965 327.976 217.858 328.29 217.627C328.525 217.397 328.664 217.086 328.68 216.757C328.732 216.299 328.756 215.838 328.75 215.377V212.107C328.759 211.682 328.726 211.256 328.65 210.837C328.632 210.697 328.584 210.562 328.51 210.441C328.436 210.321 328.337 210.217 328.22 210.137C327.895 209.965 327.528 209.885 327.16 209.907H326.4V217.927Z" fill="#263238"/>
<path d="M334.1 218.998C333.512 219.038 332.926 218.887 332.43 218.568C332.031 218.265 331.749 217.835 331.63 217.348C331.481 216.743 331.411 216.121 331.42 215.498V208.828H332.76V215.558C332.757 215.953 332.787 216.348 332.85 216.738C332.887 217.054 333.02 217.35 333.23 217.588C333.346 217.697 333.483 217.781 333.632 217.834C333.782 217.888 333.941 217.909 334.1 217.898C334.262 217.909 334.424 217.887 334.577 217.834C334.73 217.781 334.87 217.697 334.99 217.588C335.193 217.347 335.322 217.051 335.36 216.738C335.419 216.348 335.446 215.953 335.44 215.558V208.828H336.77V215.498C336.779 216.121 336.709 216.743 336.56 217.348C336.445 217.834 336.166 218.265 335.77 218.568C335.274 218.888 334.688 219.039 334.1 218.998Z" fill="#263238"/>
<path d="M340.77 218.998C340.187 219.033 339.609 218.878 339.12 218.558C338.72 218.258 338.431 217.832 338.3 217.348C338.137 216.8 338.059 216.23 338.07 215.658V212.108C338.057 211.507 338.135 210.907 338.3 210.328C338.43 209.855 338.72 209.442 339.12 209.158C339.601 208.895 340.138 208.751 340.686 208.739C341.235 208.727 341.778 208.847 342.27 209.088C342.643 209.32 342.926 209.673 343.07 210.088C343.241 210.59 343.323 211.118 343.31 211.648V212.438H342V211.728C342.004 211.394 341.984 211.06 341.94 210.728C341.922 210.477 341.816 210.239 341.64 210.058C341.402 209.88 341.106 209.798 340.81 209.828C340.499 209.799 340.188 209.888 339.94 210.078C339.747 210.274 339.621 210.526 339.58 210.798C339.524 211.159 339.498 211.524 339.5 211.888V215.888C339.486 216.289 339.53 216.69 339.63 217.078C339.68 217.334 339.827 217.56 340.04 217.708C340.271 217.849 340.54 217.915 340.81 217.898C340.957 217.911 341.105 217.895 341.246 217.85C341.387 217.806 341.517 217.734 341.63 217.638C341.805 217.444 341.914 217.199 341.94 216.938C341.981 216.607 342.001 216.273 342 215.938V215.188H343.33V215.938C343.335 216.486 343.261 217.032 343.11 217.558C342.983 218.001 342.708 218.386 342.33 218.648C341.86 218.927 341.314 219.049 340.77 218.998Z" fill="#263238"/>
<path d="M345.76 218.93V209.93H344.05V208.93H348.81V209.93H347.16V218.93H345.76Z" fill="#263238"/>
<path d="M349.85 218.927V208.867H351.23V218.927H349.85Z" fill="#263238"/>
<path d="M355.43 219C354.864 219.029 354.301 218.894 353.81 218.61C353.399 218.34 353.092 217.938 352.94 217.47C352.752 216.913 352.664 216.328 352.68 215.74V212C352.664 211.419 352.752 210.84 352.94 210.29C353.101 209.84 353.407 209.457 353.81 209.2C354.303 208.923 354.865 208.792 355.43 208.82C355.996 208.791 356.559 208.927 357.05 209.21C357.45 209.468 357.752 209.851 357.91 210.3C358.102 210.846 358.194 211.422 358.18 212V215.83C358.19 216.412 358.099 216.99 357.91 217.54C357.754 218.003 357.452 218.403 357.05 218.68C356.553 218.944 355.99 219.055 355.43 219ZM355.43 217.9C355.731 217.921 356.03 217.84 356.28 217.67C356.478 217.504 356.612 217.274 356.66 217.02C356.735 216.692 356.769 216.356 356.76 216.02V211.61C356.77 211.274 356.736 210.938 356.66 210.61C356.609 210.366 356.475 210.147 356.28 209.99C356.026 209.832 355.728 209.759 355.43 209.78C355.132 209.762 354.835 209.835 354.58 209.99C354.386 210.149 354.249 210.367 354.19 210.61C354.114 210.938 354.08 211.274 354.09 211.61V216.02C354.081 216.356 354.115 216.692 354.19 217.02C354.246 217.274 354.383 217.502 354.58 217.67C354.826 217.851 355.125 217.946 355.43 217.94V217.9Z" fill="#263238"/>
<path d="M359.56 218.927V208.867H360.51L363.37 215.547V208.867H364.54V218.927H363.64L360.75 212.057V218.927H359.56Z" fill="#263238"/>
<path d="M302.3 128.788V119.258H304.49C304.868 119.253 305.245 119.3 305.61 119.398C305.903 119.483 306.174 119.633 306.4 119.838C306.622 120.041 306.784 120.3 306.87 120.588C306.985 120.929 307.039 121.288 307.03 121.648C307.034 121.987 306.984 122.325 306.88 122.648C306.795 122.909 306.64 123.141 306.43 123.318C306.209 123.495 305.942 123.606 305.66 123.638C306.003 123.701 306.324 123.853 306.59 124.078C306.831 124.296 307.013 124.571 307.12 124.878C307.239 125.257 307.296 125.652 307.29 126.048C307.292 126.426 307.245 126.802 307.15 127.168C307.061 127.483 306.908 127.776 306.7 128.028C306.494 128.269 306.233 128.458 305.94 128.578C305.588 128.71 305.215 128.774 304.84 128.768L302.3 128.788ZM303.63 123.238H304.42C304.721 123.249 305.021 123.194 305.3 123.078C305.508 122.972 305.666 122.789 305.74 122.568C305.837 122.272 305.881 121.96 305.87 121.648C305.91 121.302 305.84 120.952 305.67 120.648C305.599 120.546 305.507 120.46 305.4 120.397C305.293 120.333 305.174 120.292 305.05 120.278C304.686 120.22 304.318 120.193 303.95 120.198H303.63V123.238ZM303.63 127.838H304.52C304.739 127.868 304.962 127.845 305.17 127.772C305.379 127.699 305.567 127.578 305.72 127.418C305.953 127.008 306.057 126.538 306.02 126.068C306.026 125.728 305.972 125.389 305.86 125.068C305.765 124.812 305.585 124.597 305.35 124.458C305.065 124.305 304.743 124.232 304.42 124.248H303.63V127.838Z" fill="#263238"/>
<path d="M310.92 128.888C310.36 128.926 309.802 128.783 309.33 128.478C308.95 128.192 308.684 127.781 308.58 127.318C308.439 126.749 308.372 126.164 308.38 125.578V119.258H309.65V125.638C309.649 126.009 309.676 126.38 309.73 126.748C309.769 127.044 309.894 127.322 310.09 127.548C310.199 127.654 310.329 127.736 310.473 127.787C310.616 127.839 310.768 127.86 310.92 127.848C311.073 127.86 311.227 127.839 311.372 127.788C311.517 127.736 311.649 127.654 311.76 127.548C311.952 127.321 312.074 127.043 312.11 126.748C312.164 126.38 312.191 126.009 312.19 125.638V119.258H313.45V125.578C313.458 126.164 313.391 126.749 313.25 127.318C313.146 127.781 312.88 128.192 312.5 128.478C312.033 128.785 311.477 128.929 310.92 128.888Z" fill="#263238"/>
<path d="M317.09 128.891C316.609 128.91 316.133 128.788 315.72 128.541C315.351 128.296 315.062 127.948 314.89 127.541C314.699 127.08 314.59 126.589 314.57 126.091L315.74 125.771C315.766 126.108 315.82 126.442 315.9 126.771C315.969 127.058 316.11 127.323 316.31 127.541C316.411 127.644 316.532 127.724 316.667 127.776C316.802 127.828 316.946 127.85 317.09 127.841C317.235 127.853 317.381 127.833 317.517 127.783C317.653 127.733 317.777 127.653 317.88 127.551C318.066 127.316 318.159 127.02 318.14 126.721C318.148 126.365 318.047 126.016 317.85 125.721C317.628 125.436 317.38 125.171 317.11 124.931L315.51 123.511C315.215 123.268 314.976 122.965 314.81 122.621C314.651 122.238 314.576 121.825 314.59 121.411C314.571 121.114 314.615 120.816 314.718 120.537C314.822 120.258 314.982 120.004 315.19 119.791C315.409 119.59 315.666 119.436 315.946 119.336C316.226 119.236 316.523 119.194 316.82 119.211C317.159 119.204 317.498 119.254 317.82 119.361C318.089 119.452 318.332 119.607 318.53 119.811C318.74 120.029 318.897 120.292 318.99 120.581C319.116 120.932 319.193 121.298 319.22 121.671L318.09 121.971C318.072 121.68 318.025 121.392 317.95 121.111C317.89 120.866 317.762 120.644 317.58 120.471C317.366 120.297 317.095 120.211 316.82 120.231C316.68 120.223 316.54 120.242 316.408 120.289C316.276 120.335 316.154 120.407 316.05 120.501C315.952 120.604 315.877 120.727 315.831 120.861C315.784 120.996 315.767 121.139 315.78 121.281C315.773 121.528 315.821 121.774 315.92 122.001C316.043 122.219 316.206 122.412 316.4 122.571L318 124.001C318.373 124.322 318.694 124.7 318.95 125.121C319.239 125.585 319.385 126.124 319.37 126.671C319.381 127.094 319.278 127.512 319.07 127.881C318.886 128.213 318.607 128.485 318.27 128.661C317.901 128.831 317.496 128.909 317.09 128.891Z" fill="#263238"/>
<path d="M320.48 128.788V119.258H321.79V128.788H320.48Z" fill="#263238"/>
<path d="M323.33 128.788V119.258H324.23L326.94 125.588V119.258H328V128.788H327.16L324.42 122.288V128.788H323.33Z" fill="#263238"/>
<path d="M329.54 128.788V119.258H333.23V120.258H330.87V123.408H332.78V124.348H330.87V127.848H333.25V128.798L329.54 128.788Z" fill="#263238"/>
<path d="M336.57 128.891C336.089 128.912 335.612 128.79 335.2 128.541C334.831 128.296 334.542 127.948 334.37 127.541C334.17 127.082 334.058 126.59 334.04 126.091L335.22 125.771C335.236 126.109 335.29 126.444 335.38 126.771C335.445 127.057 335.583 127.322 335.78 127.541C335.882 127.645 336.005 127.726 336.142 127.778C336.278 127.83 336.424 127.851 336.57 127.841C336.713 127.851 336.857 127.831 336.992 127.781C337.126 127.731 337.248 127.652 337.35 127.551C337.544 127.319 337.64 127.022 337.62 126.721C337.629 126.364 337.524 126.013 337.32 125.721C337.103 125.431 336.855 125.166 336.58 124.931L334.98 123.511C334.69 123.265 334.455 122.962 334.29 122.621C334.128 122.238 334.049 121.826 334.06 121.411C334.043 121.113 334.088 120.815 334.193 120.536C334.298 120.257 334.461 120.003 334.67 119.791C334.889 119.59 335.147 119.436 335.426 119.336C335.706 119.236 336.003 119.194 336.3 119.211C336.639 119.204 336.978 119.254 337.3 119.361C337.573 119.45 337.82 119.604 338.02 119.811C338.226 120.032 338.382 120.295 338.48 120.581C338.601 120.933 338.678 121.299 338.71 121.671L337.58 121.971C337.562 121.68 337.515 121.392 337.44 121.111C337.376 120.868 337.248 120.647 337.07 120.471C336.856 120.298 336.584 120.213 336.31 120.231C336.17 120.219 336.029 120.237 335.896 120.283C335.764 120.33 335.642 120.404 335.54 120.501C335.44 120.603 335.364 120.726 335.315 120.86C335.267 120.995 335.248 121.138 335.26 121.281C335.251 121.529 335.303 121.776 335.41 122.001C335.533 122.219 335.696 122.412 335.89 122.571L337.5 123.991C337.873 124.312 338.194 124.69 338.45 125.111C338.731 125.578 338.873 126.115 338.86 126.661C338.87 127.082 338.77 127.499 338.57 127.871C338.38 128.203 338.099 128.473 337.76 128.651C337.389 128.828 336.98 128.91 336.57 128.891Z" fill="#263238"/>
<path d="M342.13 128.891C341.649 128.911 341.172 128.789 340.76 128.541C340.391 128.296 340.102 127.948 339.93 127.541C339.73 127.082 339.618 126.59 339.6 126.091L340.78 125.771C340.801 126.108 340.855 126.443 340.94 126.771C341.009 127.056 341.147 127.32 341.34 127.541C341.442 127.645 341.565 127.726 341.702 127.778C341.838 127.83 341.984 127.851 342.13 127.841C342.273 127.851 342.417 127.831 342.552 127.781C342.686 127.731 342.808 127.652 342.91 127.551C343.104 127.319 343.2 127.022 343.18 126.721C343.189 126.364 343.084 126.013 342.88 125.721C342.663 125.431 342.415 125.166 342.14 124.931L340.54 123.511C340.25 123.265 340.015 122.962 339.85 122.621C339.691 122.238 339.616 121.825 339.63 121.411C339.611 121.114 339.655 120.816 339.758 120.537C339.862 120.258 340.022 120.004 340.23 119.791C340.449 119.59 340.707 119.436 340.986 119.336C341.266 119.236 341.563 119.194 341.86 119.211C342.199 119.204 342.538 119.254 342.86 119.361C343.129 119.452 343.372 119.607 343.57 119.811C343.775 120.032 343.932 120.295 344.03 120.581C344.156 120.932 344.233 121.298 344.26 121.671L343.13 121.971C343.112 121.68 343.065 121.392 342.99 121.111C342.93 120.866 342.802 120.644 342.62 120.471C342.406 120.298 342.134 120.213 341.86 120.231C341.72 120.223 341.58 120.242 341.448 120.289C341.316 120.335 341.194 120.407 341.09 120.501C340.992 120.604 340.917 120.727 340.871 120.861C340.824 120.996 340.807 121.139 340.82 121.281C340.808 121.528 340.856 121.775 340.96 122.001C341.083 122.219 341.246 122.412 341.44 122.571L343.05 123.991C343.423 124.312 343.744 124.69 344 125.111C344.286 125.576 344.428 126.115 344.41 126.661C344.425 127.083 344.325 127.501 344.12 127.871C343.93 128.203 343.649 128.473 343.31 128.651C342.942 128.826 342.537 128.909 342.13 128.891Z" fill="#263238"/>
<path d="M304.69 142.999C304.133 143.035 303.58 142.884 303.12 142.569C302.742 142.284 302.468 141.884 302.34 141.429C302.19 140.909 302.116 140.37 302.12 139.829V136.469C302.114 135.901 302.188 135.336 302.34 134.789C302.463 134.339 302.739 133.947 303.12 133.679C303.577 133.425 304.089 133.287 304.611 133.274C305.134 133.262 305.652 133.377 306.12 133.609C306.468 133.832 306.735 134.162 306.88 134.549C307.042 135.022 307.12 135.519 307.11 136.019V136.779H305.85V136.109C305.853 135.794 305.833 135.48 305.79 135.169C305.774 134.932 305.675 134.709 305.51 134.539C305.284 134.369 305.002 134.291 304.72 134.319C304.426 134.292 304.133 134.377 303.9 134.559C303.712 134.739 303.591 134.98 303.56 135.239C303.507 135.57 303.48 135.904 303.48 136.239V140.019C303.47 140.399 303.51 140.779 303.6 141.149C303.654 141.386 303.792 141.596 303.99 141.739C304.21 141.87 304.464 141.933 304.72 141.919C304.858 141.934 304.998 141.921 305.13 141.88C305.263 141.839 305.385 141.77 305.49 141.679C305.66 141.498 305.765 141.266 305.79 141.019C305.833 140.687 305.853 140.353 305.85 140.019V139.309H307.11V140.019C307.121 140.537 307.046 141.054 306.89 141.549C306.763 141.953 306.507 142.305 306.16 142.549C305.729 142.85 305.215 143.007 304.69 142.999Z" fill="#263238"/>
<path d="M310.79 142.999C310.251 143.025 309.716 142.893 309.25 142.619C308.864 142.365 308.576 141.988 308.43 141.549C308.252 141.018 308.167 140.459 308.18 139.899V136.299C308.166 135.752 308.251 135.207 308.43 134.689C308.591 134.275 308.882 133.924 309.26 133.689C309.734 133.449 310.258 133.324 310.79 133.324C311.322 133.324 311.846 133.449 312.32 133.689C312.694 133.925 312.982 134.276 313.14 134.689C313.319 135.207 313.404 135.752 313.39 136.299V139.929C313.403 140.48 313.318 141.028 313.14 141.549C312.988 141.987 312.701 142.365 312.32 142.629C311.857 142.899 311.325 143.028 310.79 142.999ZM310.79 141.999C311.074 142.021 311.357 141.943 311.59 141.779C311.78 141.627 311.908 141.41 311.95 141.169C312.023 140.868 312.056 140.559 312.05 140.249V135.999C312.056 135.693 312.023 135.387 311.95 135.089C311.904 134.856 311.776 134.647 311.59 134.499C311.344 134.368 311.069 134.299 310.79 134.299C310.511 134.299 310.236 134.368 309.99 134.499C309.799 134.646 309.665 134.855 309.61 135.089C309.546 135.388 309.516 135.693 309.52 135.999V140.179C309.516 140.488 309.546 140.797 309.61 141.099C309.663 141.34 309.797 141.556 309.99 141.709C310.214 141.898 310.497 142.001 310.79 141.999Z" fill="#263238"/>
<path d="M314.67 142.899L314.85 133.379H316.15L317.84 141.099L319.53 133.379H320.82L321 142.899H319.93L319.82 135.989L318.21 142.899H317.46L315.86 135.989L315.75 142.899H314.67Z" fill="#263238"/>
<path d="M322.43 142.899L322.61 133.379H323.92L325.6 141.099L327.29 133.379H328.58L328.76 142.899H327.69L327.58 135.989L326 142.899H325.25L323.65 135.989L323.55 142.899H322.43Z" fill="#263238"/>
<path d="M332.68 142.997C332.12 143.031 331.564 142.887 331.09 142.587C330.71 142.302 330.444 141.891 330.34 141.427C330.195 140.856 330.127 140.267 330.14 139.677V133.367H331.41V139.737C331.404 140.112 331.431 140.487 331.49 140.857C331.524 141.155 331.65 141.434 331.85 141.657C332.086 141.845 332.378 141.948 332.68 141.948C332.982 141.948 333.274 141.845 333.51 141.657C333.703 141.431 333.825 141.153 333.86 140.857C333.923 140.487 333.953 140.112 333.95 139.737V133.367H335.21V139.677C335.22 140.267 335.149 140.856 335 141.427C334.892 141.887 334.631 142.296 334.26 142.587C333.79 142.888 333.237 143.032 332.68 142.997Z" fill="#263238"/>
<path d="M336.6 142.899V133.379H337.51L340.22 139.699V133.379H341.32V142.899H340.47L337.73 136.399V142.899H336.6Z" fill="#263238"/>
<path d="M342.89 142.899V133.379H344.19V142.899H342.89Z" fill="#263238"/>
<path d="M348.12 142.999C347.563 143.036 347.01 142.884 346.55 142.569C346.175 142.282 345.901 141.883 345.77 141.429C345.62 140.909 345.546 140.37 345.55 139.829V136.469C345.543 135.901 345.618 135.336 345.77 134.789C345.897 134.341 346.172 133.95 346.55 133.679C347.018 133.383 347.568 133.243 348.12 133.279C348.615 133.255 349.107 133.369 349.54 133.609C349.88 133.838 350.142 134.166 350.29 134.549C350.452 135.022 350.53 135.519 350.52 136.019V136.779H349.26V136.109C349.261 135.795 349.244 135.481 349.21 135.169C349.184 134.933 349.083 134.712 348.92 134.539C348.693 134.369 348.412 134.291 348.13 134.319C347.836 134.292 347.543 134.378 347.31 134.559C347.121 134.74 347.001 134.98 346.97 135.239C346.917 135.57 346.89 135.904 346.89 136.239V140.019C346.88 140.399 346.92 140.779 347.01 141.149C347.064 141.387 347.202 141.596 347.4 141.739C347.62 141.87 347.874 141.933 348.13 141.919C348.411 141.945 348.692 141.859 348.91 141.679C349.073 141.494 349.174 141.264 349.2 141.019C349.243 140.687 349.263 140.353 349.26 140.019V139.309H350.52V140.019C350.529 140.537 350.458 141.053 350.31 141.549C350.179 141.951 349.923 142.301 349.58 142.549C349.15 142.844 348.641 143.001 348.12 142.999Z" fill="#263238"/>
<path d="M351.27 142.899L353.27 133.379H354.56L356.56 142.899H355.3L354.87 140.499H353L352.54 142.899H351.27ZM353.15 139.549H354.74L353.94 135.259L353.15 139.549Z" fill="#263238"/>
<path d="M358.24 142.899V134.359H356.63V133.359H361.14V134.359H359.57V142.899H358.24Z" fill="#263238"/>
<path d="M362.13 142.899V133.379H363.43V142.899H362.13Z" fill="#263238"/>
<path d="M367.41 142.998C366.867 143.023 366.329 142.891 365.86 142.618C365.477 142.361 365.189 141.985 365.04 141.548C364.867 141.015 364.782 140.458 364.79 139.898V136.298C364.779 135.75 364.867 135.205 365.05 134.688C365.205 134.273 365.493 133.921 365.87 133.688C366.339 133.425 366.873 133.3 367.41 133.328C367.942 133.303 368.469 133.432 368.93 133.698C369.304 133.934 369.592 134.285 369.75 134.698C369.929 135.215 370.013 135.761 370 136.308V139.938C370.013 140.489 369.928 141.037 369.75 141.558C369.598 141.996 369.311 142.374 368.93 142.638C368.47 142.906 367.941 143.031 367.41 142.998ZM367.41 141.998C367.691 142.02 367.971 141.942 368.2 141.778C368.394 141.627 368.526 141.41 368.57 141.168C368.634 140.866 368.664 140.557 368.66 140.248V135.998C368.664 135.692 368.634 135.387 368.57 135.088C368.521 134.853 368.39 134.644 368.2 134.498C367.964 134.35 367.688 134.28 367.41 134.298C367.126 134.279 366.843 134.349 366.6 134.498C366.41 134.644 366.279 134.853 366.23 135.088C366.166 135.387 366.136 135.692 366.14 135.998V140.178C366.136 140.487 366.166 140.796 366.23 141.098C366.279 141.338 366.41 141.554 366.6 141.708C366.827 141.898 367.114 142.001 367.41 141.998Z" fill="#263238"/>
<path d="M371.31 142.899V133.379H372.22L374.92 139.699V133.379H376V142.899H375.15L372.41 136.399V142.899H371.31Z" fill="#263238"/>
<path d="M408.07 232.117H433.99" stroke="#263238" stroke-miterlimit="10"/>
<path d="M349.76 232.117H403.09" stroke="#263238" stroke-miterlimit="10"/>
<path d="M297.92 232.117H344.77" stroke="#263238" stroke-miterlimit="10"/>
<path d="M332.31 239.598H433.99" stroke="#263238" stroke-miterlimit="10"/>
<path d="M297.92 239.598H327.82" stroke="#263238" stroke-miterlimit="10"/>
<path d="M419.54 247.078H433.99" stroke="#263238" stroke-miterlimit="10"/>
<path d="M352.25 247.078H414.55" stroke="#263238" stroke-miterlimit="10"/>
<path d="M297.92 247.078H346.77" stroke="#263238" stroke-miterlimit="10"/>
<path d="M426.52 254.551H433.99" stroke="#263238" stroke-miterlimit="10"/>
<path d="M406.58 254.551H421.53" stroke="#263238" stroke-miterlimit="10"/>
<path d="M332.81 254.551H402.59" stroke="#263238" stroke-miterlimit="10"/>
<path d="M297.92 254.551H328.32" stroke="#263238" stroke-miterlimit="10"/>
<path d="M422.03 119.688L400.6 127.667L408.57 131.158L395.61 148.107L386.14 137.637L352.75 170.537L332.81 159.068L301.2 187.327H325.41L335.8 175.518L354.74 184.988L383.15 153.087L399.6 160.068L413.56 134.147L423.03 139.128L422.03 119.688Z" fill="#263238" stroke="#263238" stroke-linecap="round" stroke-linejoin="round"/>
<path d="M419.428 178.611C427.114 170.926 427.114 158.465 419.428 150.779C411.743 143.094 399.282 143.094 391.596 150.779C383.911 158.465 383.911 170.926 391.596 178.611C399.282 186.297 411.743 186.297 419.428 178.611Z" fill="#ECECEC" stroke="#263238" stroke-linecap="round" stroke-linejoin="round"/>
<path d="M405.51 181.638C414.871 181.638 422.46 174.05 422.46 164.688C422.46 155.327 414.871 147.738 405.51 147.738C396.149 147.738 388.56 155.327 388.56 164.688C388.56 174.05 396.149 181.638 405.51 181.638Z" fill="#ECECEC" stroke="#263238" stroke-linecap="round" stroke-linejoin="round"/>
<path d="M405.89 180.437V177.437C405.021 177.45 404.158 177.279 403.36 176.934C402.562 176.59 401.846 176.079 401.26 175.437C400.233 174.204 399.68 172.31 399.6 169.757L404.18 169.077C404.179 169.921 404.269 170.763 404.45 171.587C404.544 172.105 404.788 172.585 405.15 172.967C405.459 173.246 405.864 173.397 406.28 173.387C406.498 173.416 406.72 173.376 406.915 173.274C407.11 173.172 407.269 173.013 407.37 172.817C407.538 172.439 407.623 172.03 407.62 171.617C407.651 170.722 407.407 169.839 406.92 169.087C406.371 168.311 405.722 167.612 404.99 167.007L402.86 165.177C402.279 164.662 401.735 164.107 401.23 163.517C400.727 162.921 400.328 162.245 400.05 161.517C399.731 160.66 399.578 159.751 399.6 158.837C399.554 158.022 399.675 157.206 399.955 156.439C400.235 155.672 400.669 154.97 401.23 154.377C402.421 153.252 403.983 152.601 405.62 152.547V149.707H407.14V152.517C408.124 152.528 409.086 152.801 409.93 153.307C410.596 153.741 411.137 154.34 411.5 155.047C411.85 155.736 412.093 156.475 412.22 157.237C412.343 157.944 412.416 158.659 412.44 159.377L407.8 159.937C407.8 159.227 407.74 158.597 407.67 158.057C407.634 157.615 407.49 157.189 407.25 156.817C407.133 156.668 406.98 156.551 406.804 156.479C406.629 156.407 406.438 156.383 406.25 156.407C406.024 156.396 405.8 156.449 405.603 156.561C405.407 156.672 405.246 156.837 405.14 157.037C404.911 157.418 404.787 157.853 404.78 158.297C404.738 159.133 404.997 159.956 405.51 160.617C406.004 161.207 406.539 161.761 407.11 162.277L409.11 164.047C409.782 164.666 410.408 165.335 410.98 166.047C411.551 166.752 412.01 167.542 412.34 168.387C412.7 169.345 412.874 170.364 412.85 171.387C412.863 172.392 412.637 173.386 412.19 174.287C411.764 175.157 411.115 175.898 410.31 176.437C409.425 177.003 408.416 177.346 407.37 177.437V180.437H405.89Z" fill="#263238"/>
<path d="M307.88 164.898H302.9V187.328H307.88V164.898Z" fill="#EB434A"/>
<path d="M316.85 172.957H311.87V187.317H316.85V172.957Z" fill="#EB434A"/>
<path d="M325.83 173.449H320.85V187.329H325.83V173.449Z" fill="#EB434A"/>
<path d="M334.8 164.898H329.82V187.328H334.8V164.898Z" fill="#EB434A"/>
<path d="M343.77 169.789H338.79V187.329H343.77V169.789Z" fill="#EB434A"/>
<path d="M352.74 171.988H347.76V187.328H352.74V171.988Z" fill="#EB434A"/>
<path d="M361.71 164.898H356.73V187.328H361.71V164.898Z" fill="#EB434A"/>
<path d="M370.69 158.301H365.71V187.331H370.69V158.301Z" fill="#EB434A"/>
<path d="M379.66 151.457H374.68V187.327H379.66V151.457Z" fill="#EB434A"/>
<path d="M398.66 276.891H340.6V282.701H398.66V276.891Z" fill="#263238" stroke="#263238" stroke-linecap="round" stroke-linejoin="round"/>
<path d="M416.6 287.18H340.6V292.99H416.6V287.18Z" fill="#263238" stroke="#263238" stroke-linecap="round" stroke-linejoin="round"/>
<path d="M398.66 321.617H340.6V327.427H398.66V321.617Z" fill="#263238" stroke="#263238" stroke-linecap="round" stroke-linejoin="round"/>
<path d="M416.6 331.91H340.6V337.72H416.6V331.91Z" fill="#263238" stroke="#263238" stroke-linecap="round" stroke-linejoin="round"/>
<path d="M325.96 267.18H302.06C299.437 267.18 297.31 269.306 297.31 271.93V296.13C297.31 298.753 299.437 300.88 302.06 300.88H325.96C328.583 300.88 330.71 298.753 330.71 296.13V271.93C330.71 269.306 328.583 267.18 325.96 267.18Z" fill="#D4D4D4"/>
<path d="M314.01 292.4C318.633 292.4 322.38 288.653 322.38 284.03C322.38 279.408 318.633 275.66 314.01 275.66C309.387 275.66 305.64 279.408 305.64 284.03C305.64 288.653 309.387 292.4 314.01 292.4Z" fill="#263238"/>
<path d="M318.86 284.208L311.58 280.008V288.418L318.86 284.208Z" fill="#ECECEC"/>
<path d="M325.96 310.688H302.06C299.437 310.688 297.31 312.814 297.31 315.438V339.638C297.31 342.261 299.437 344.388 302.06 344.388H325.96C328.583 344.388 330.71 342.261 330.71 339.638V315.438C330.71 312.814 328.583 310.688 325.96 310.688Z" fill="#D4D4D4"/>
<path d="M321.604 331.047C323.544 326.852 321.716 321.877 317.521 319.937C313.325 317.996 308.351 319.825 306.41 324.02C304.47 328.216 306.298 333.19 310.494 335.131C314.689 337.071 319.663 335.243 321.604 331.047Z" fill="#263238"/>
<path d="M318.86 327.73L311.58 323.52V331.93L318.86 327.73Z" fill="#ECECEC"/>
<path d="M299.1 305.66H434.5" stroke="#263238" stroke-miterlimit="10"/>
<path d="M429.3 60.1797H439.87" stroke="#263238" stroke-linecap="round" stroke-linejoin="round"/>
<path d="M429.3 65.1875H439.87" stroke="#263238" stroke-linecap="round" stroke-linejoin="round"/>
<path d="M429.3 70.1875H439.87" stroke="#263238" stroke-linecap="round" stroke-linejoin="round"/>
<path d="M425.06 56.8477H296.26V73.5277H425.06V56.8477Z" fill="#ECECEC" stroke="#263238" stroke-linecap="round" stroke-linejoin="round"/>
<path d="M311.56 62.4405C311.562 61.6584 311.332 60.8933 310.898 60.2422C310.465 59.5911 309.848 59.0833 309.126 58.7831C308.404 58.4829 307.609 58.4038 306.842 58.5559C306.075 58.708 305.37 59.0844 304.817 59.6374C304.264 60.1904 303.887 60.8952 303.735 61.6623C303.583 62.4295 303.662 63.2245 303.963 63.9467C304.263 64.6689 304.771 65.2857 305.422 65.7189C306.073 66.1522 306.838 66.3824 307.62 66.3805C308.665 66.3805 309.667 65.9653 310.406 65.2265C311.145 64.4876 311.56 63.4854 311.56 62.4405Z" fill="#ECECEC" stroke="#263238" stroke-linecap="round" stroke-linejoin="round"/>
<path d="M302.86 67.9688L299.95 71.6387" stroke="#263238" stroke-width="2" stroke-linecap="round" stroke-linejoin="round"/>
<path d="M304.99 65.2891L302.86 67.9691" stroke="#263238" stroke-linecap="round" stroke-linejoin="round"/>
<path d="M315.72 56.957V73.607" stroke="#263238" stroke-linecap="round" stroke-linejoin="round"/>
<path d="M73.34 279.088C73.3493 279.065 73.3492 279.04 73.3399 279.018C73.3305 278.995 73.3126 278.977 73.29 278.968C73.2675 278.959 73.2422 278.959 73.2197 278.968C73.1971 278.977 73.1793 278.995 73.17 279.018C70.3699 285.716 68.1582 292.646 66.56 299.728C64.9391 306.81 63.7205 313.978 62.91 321.198L62.4 326.628C62.32 327.538 62.22 328.438 62.15 329.348L62 332.058C61.93 333.878 61.81 335.688 61.76 337.508L61.81 342.968L61.87 345.688C61.87 346.598 61.98 347.508 62.04 348.408C62.18 350.228 62.29 352.038 62.45 353.848C62.8 357.468 63.35 361.058 63.9 364.638C63.9047 364.661 63.9173 364.681 63.9355 364.696C63.9538 364.711 63.9766 364.718 64 364.718C64 364.718 64.1 364.718 64.09 364.628C64.09 362.818 64.01 361.008 63.97 359.198C63.93 357.388 63.76 355.588 63.78 353.778C63.8 351.968 63.78 350.168 63.72 348.368V345.658V342.958V337.558L63.86 332.148L63.92 329.448C63.92 328.548 64.02 327.648 64.07 326.748L64.4 321.348C65.0153 314.156 66.0369 307.004 67.46 299.928C68.8165 292.825 70.7838 285.852 73.34 279.088Z" fill="#263238"/>
<path d="M74.1098 307.348C74.1178 307.324 74.1159 307.298 74.1047 307.275C74.0934 307.253 74.0737 307.235 74.0498 307.228C74.026 307.22 73.9999 307.221 73.9774 307.233C73.9549 307.244 73.9378 307.264 73.9298 307.288C72.3999 311.784 71.1179 316.361 70.0898 320.998C69.0659 325.654 68.3047 330.365 67.8098 335.108C67.3298 339.838 66.8098 344.578 66.7398 349.328C66.6199 354.09 66.7902 358.856 67.2498 363.598C67.252 363.618 67.2611 363.637 67.2757 363.652C67.2902 363.666 67.3094 363.675 67.3298 363.678C67.3549 363.681 67.3801 363.674 67.4005 363.659C67.4209 363.644 67.435 363.622 67.4398 363.598C67.9898 358.858 68.3198 354.138 68.6498 349.418C68.9798 344.698 69.0298 339.958 69.3398 335.238C69.6289 330.53 70.1831 325.843 70.9998 321.198C71.7858 316.528 72.824 311.905 74.1098 307.348Z" fill="#263238"/>
<path d="M89.78 317.29C89.7619 317.274 89.7388 317.266 89.715 317.266C89.6912 317.266 89.6681 317.274 89.65 317.29C85.7296 319.809 82.1988 322.888 79.17 326.43C77.6509 328.209 76.2828 330.113 75.08 332.12L74.24 333.71L73.58 335.36C73.3551 335.895 73.1615 336.442 73 337C72.83 337.57 72.64 338.13 72.49 338.69C71.2917 343.212 70.5645 347.847 70.32 352.52C70.0883 357.166 70.2623 361.824 70.84 366.44C70.8456 366.46 70.8571 366.479 70.8731 366.493C70.8891 366.507 70.9089 366.516 70.93 366.52C70.9549 366.52 70.9789 366.511 70.9974 366.494C71.0159 366.477 71.0275 366.454 71.03 366.43L72.23 352.65C72.5666 348.09 73.1575 343.553 74 339.06C74.13 338.51 74.29 337.97 74.43 337.42C74.5596 336.868 74.7198 336.324 74.91 335.79L75.47 334.2L76.19 332.7C77.279 330.698 78.5334 328.792 79.94 327C82.7418 323.349 86.056 320.123 89.78 317.42C89.7888 317.411 89.7958 317.401 89.8005 317.39C89.8053 317.379 89.8078 317.367 89.8078 317.355C89.8078 317.342 89.8053 317.33 89.8005 317.319C89.7958 317.308 89.7888 317.298 89.78 317.29Z" fill="#263238"/>
<path d="M82.1999 334.998C80.1631 336.485 78.5275 338.454 77.4399 340.728C76.2894 342.954 75.3938 345.302 74.7699 347.728C74.5799 348.328 74.4299 348.938 74.2999 349.548L73.8699 351.378C73.6432 352.608 73.4863 353.85 73.3999 355.098C73.3999 356.348 73.3499 357.598 73.3999 358.848C73.4894 360.097 73.653 361.339 73.8899 362.568C73.8899 362.568 73.8899 362.638 73.9599 362.638C73.9851 362.644 74.0117 362.641 74.034 362.628C74.0564 362.614 74.0729 362.593 74.0799 362.568C74.3667 361.358 74.587 360.133 74.7399 358.898C74.9299 357.688 75.1199 356.488 75.2699 355.278C75.4199 354.068 75.5999 352.878 75.6999 351.668C75.7999 350.458 75.9499 349.248 76.2099 348.068C76.6154 345.684 77.2863 343.353 78.2099 341.118C79.0493 338.83 80.4202 336.773 82.2099 335.118C82.2187 335.11 82.2257 335.1 82.2304 335.089C82.2352 335.077 82.2377 335.065 82.2377 335.053C82.2377 335.041 82.2352 335.029 82.2304 335.018C82.2257 335.007 82.2187 334.997 82.2099 334.988C82.2064 334.991 82.203 334.995 82.1999 334.998Z" fill="#263238"/>
<path d="M60.22 348.799C59.71 342.679 58.7 336.619 57.75 330.569C56.8 324.519 55.75 318.479 54.63 312.459C53.51 306.439 52.28 300.459 50.99 294.459C50.9819 294.436 50.967 294.416 50.9474 294.402C50.9278 294.388 50.9042 294.38 50.88 294.379C50.8667 294.381 50.8541 294.386 50.8428 294.394C50.8315 294.401 50.8219 294.411 50.8144 294.422C50.8069 294.433 50.8018 294.446 50.7993 294.459C50.7968 294.472 50.7971 294.486 50.8 294.499C51.85 300.499 52.8 306.569 53.69 312.629C54.58 318.689 55.47 324.729 56.23 330.799C56.99 336.869 57.56 342.949 58.33 349.009L60.56 367.219C60.5656 367.24 60.5771 367.258 60.593 367.272C60.609 367.287 60.6288 367.296 60.65 367.299C60.6626 367.3 60.6754 367.299 60.6875 367.295C60.6996 367.291 60.7107 367.285 60.7202 367.276C60.7296 367.268 60.7372 367.257 60.7423 367.246C60.7474 367.234 60.75 367.222 60.75 367.209C60.82 365.679 60.83 364.139 60.86 362.599C60.89 361.059 60.8 359.539 60.77 357.999C60.72 354.909 60.46 351.859 60.22 348.799Z" fill="#263238"/>
<path d="M56.56 348.71C56.23 346.29 55.78 343.88 55.32 341.48L54.46 337.9C54.18 336.71 53.92 335.52 53.57 334.35C52.3507 329.603 50.7866 324.95 48.89 320.43L48.16 318.75L47.34 317.1C46.82 316 46.2 314.94 45.6 313.87C44.4009 311.724 42.9175 309.75 41.19 308C41.1816 307.992 41.1715 307.985 41.1603 307.98C41.1491 307.975 41.1371 307.973 41.125 307.973C41.1128 307.973 41.1008 307.975 41.0896 307.98C41.0785 307.985 41.0684 307.992 41.06 308C41.0512 308.009 41.0442 308.019 41.0395 308.03C41.0347 308.041 41.0322 308.053 41.0322 308.065C41.0322 308.078 41.0347 308.09 41.0395 308.101C41.0442 308.112 41.0512 308.122 41.06 308.13C42.6563 309.942 44.0017 311.96 45.06 314.13C45.59 315.22 46.16 316.29 46.61 317.41L47.33 319.07L47.97 320.77C49.6604 325.306 51.0206 329.958 52.04 334.69C52.6 337.04 52.97 339.44 53.43 341.81L54 345.4C54.21 346.59 54.46 347.77 54.63 348.97C55.01 351.37 55.45 353.75 55.87 356.14C56.29 358.53 56.68 360.94 57.18 363.34C57.1862 363.362 57.1992 363.382 57.2171 363.396C57.2351 363.411 57.257 363.419 57.28 363.42C57.3047 363.418 57.3277 363.406 57.3443 363.388C57.3609 363.369 57.3701 363.345 57.37 363.32C57.37 360.88 57.37 358.43 57.2 355.99C57.03 353.55 56.81 351.14 56.56 348.71Z" fill="#263238"/>
<path d="M51.49 349.001C50.36 345.791 49.05 342.651 47.62 339.571C46.1772 336.5 44.5509 333.518 42.75 330.641C42.7319 330.626 42.7089 330.617 42.685 330.617C42.6612 330.617 42.6381 330.626 42.62 330.641C42.6113 330.65 42.6043 330.66 42.5995 330.671C42.5947 330.682 42.5923 330.694 42.5923 330.706C42.5923 330.718 42.5947 330.73 42.5995 330.742C42.6043 330.753 42.6113 330.763 42.62 330.771C44.1782 333.762 45.5541 336.844 46.74 340.001C47.99 343.131 49.11 346.301 50.04 349.531C50.97 352.761 51.68 356.031 52.54 359.271C53.4 362.511 54.17 365.771 55.17 369.041C55.1756 369.062 55.1871 369.08 55.2031 369.095C55.2191 369.109 55.2389 369.118 55.26 369.121C55.2858 369.119 55.3099 369.108 55.3282 369.089C55.3465 369.071 55.3578 369.047 55.36 369.021C55.3828 365.602 55.0476 362.19 54.36 358.841C53.6712 355.489 52.7114 352.198 51.49 349.001Z" fill="#263238"/>
<path d="M51.2798 359.709C50.6605 357.709 49.7544 355.809 48.5898 354.069C47.5082 352.274 46.1897 350.633 44.6698 349.189C43.8931 348.495 43.0602 347.866 42.1798 347.309C41.3096 346.729 40.355 346.288 39.3498 345.999C39.3341 345.987 39.3147 345.98 39.2948 345.98C39.2749 345.98 39.2556 345.987 39.2398 345.999C39.2243 346.017 39.2158 346.04 39.2158 346.064C39.2158 346.088 39.2243 346.111 39.2398 346.129C41.0748 347.018 42.6979 348.29 43.9998 349.859C45.3083 351.354 46.4083 353.019 47.2698 354.809C48.1998 356.569 48.6798 358.509 49.4798 360.319C49.8398 361.249 50.1898 362.179 50.6098 363.109C50.9544 364.08 51.3654 365.025 51.8398 365.939C51.8472 365.954 51.8586 365.967 51.8728 365.976C51.8869 365.984 51.9032 365.989 51.9198 365.989C51.9325 365.991 51.9452 365.989 51.9573 365.985C51.9694 365.982 51.9806 365.975 51.99 365.967C51.9995 365.958 52.007 365.948 52.0122 365.936C52.0173 365.925 52.0199 365.912 52.0198 365.899C52.0583 364.855 52.0215 363.809 51.9098 362.769C51.7498 361.749 51.5298 360.729 51.2798 359.709Z" fill="#263238"/>
<path d="M51.66 303.209C48.606 302.354 45.8436 300.68 43.6708 298.37C41.4979 296.06 39.997 293.2 39.33 290.099C37 279.299 44.47 283.929 37.78 266.999C31.09 250.069 32.64 246.149 35 241.259C37.36 236.369 38.59 237.919 40.65 244.349C42.71 250.779 50.12 260.799 53 279.559C55.88 298.319 51.66 303.209 51.66 303.209Z" fill="#EB434A"/>
<path d="M71.45 284.999C71.45 284.999 64.77 282.679 64.51 270.089C64.25 257.499 69.4 260.089 70.17 244.389C70.94 228.689 71.97 217.659 74.79 217.389C77.61 217.119 85.08 225.099 87.65 242.579C90.22 260.059 84.3 271.579 79.16 276.759C74.02 281.939 71.45 284.999 71.45 284.999Z" fill="#EB434A"/>
<path d="M48.06 318.369C48.06 318.369 46.52 309.119 43.44 304.749C40.36 300.379 33.67 296.519 29.3 287.999C24.93 279.479 20.05 275.409 20.3 287.489C20.55 299.569 26 305.779 32.64 309.889C39.28 313.999 48.06 318.369 48.06 318.369Z" fill="#EB434A"/>
<path d="M45.2399 334.309C45.2399 334.309 39.0699 322.479 30.0699 313.739C21.0699 304.999 13.8799 300.639 16.4499 304.999C19.0199 309.359 22.1099 309.109 26.4499 316.819C30.7899 324.529 29.5399 330.179 35.7099 334.549C41.8799 338.919 45.2399 334.309 45.2399 334.309Z" fill="#EB434A"/>
<path d="M44.4701 349.469C44.2101 348.699 43.9501 343.039 35.2101 338.419C26.4701 333.799 18.2101 335.589 19.2801 337.899C20.3501 340.209 25.7001 344.069 31.1001 346.389C36.5001 348.709 44.4701 349.469 44.4701 349.469Z" fill="#EB434A"/>
<path d="M70.9398 318.878C70.9398 318.878 67.0798 313.998 69.1398 303.718C71.1998 293.438 75.8198 295.997 80.9998 290.607C86.1798 285.217 85.1198 284.438 90.2598 278.788C95.3998 273.138 100.02 270.047 102.08 272.357C104.14 274.667 101.08 281.868 97.9698 285.988C94.8598 290.108 89.9698 292.148 87.6898 297.288C85.4098 302.428 86.3998 310.658 80.4898 314.508C74.5798 318.358 70.9398 318.878 70.9398 318.878Z" fill="#EB434A"/>
<path d="M83.79 321.708C83.79 321.708 93 311.168 99.73 303.458C106.46 295.748 108.98 289.838 109.24 294.978C109.5 300.118 111.55 304.228 106.15 310.918C100.75 317.608 83.79 321.708 83.79 321.708Z" fill="#EB434A"/>
<path d="M78.91 338.669C78.91 338.669 78.65 334.559 93.3 325.049C107.95 315.539 114.12 313.739 112.58 317.599C111.04 321.459 104.58 325.309 97.67 332.249C90.76 339.189 78.91 338.669 78.91 338.669Z" fill="#EB434A"/>
<path d="M52.2699 302.108C52.2699 302.108 48.8399 283.668 45.2699 270.558C41.6999 257.448 39.3599 249.488 39.3599 249.488" stroke="#263238" stroke-linecap="round" stroke-linejoin="round"/>
<path d="M70.8599 285.149C70.8599 285.149 77.1099 265.149 79.1599 253.089C81.2099 241.029 78.9099 232.009 77.8799 226.609" stroke="#263238" stroke-linecap="round" stroke-linejoin="round"/>
<path d="M47.2499 318.001C44.4848 313.242 41.3165 308.728 37.7799 304.511C32.1299 297.831 27.7799 294.231 25.1899 287.801" stroke="#263238" stroke-linecap="round" stroke-linejoin="round"/>
<path d="M70.9399 318.88C70.9399 318.88 72.9999 306.55 77.8799 300.12C82.7599 293.69 92.5299 283.67 96.3799 277.25" stroke="#263238" stroke-linecap="round" stroke-linejoin="round"/>
<path d="M43.8601 349.189C43.8601 349.189 35.21 343.559 29.05 340.469" stroke="#263238" stroke-linecap="round" stroke-linejoin="round"/>
<path d="M93.38 401C92.81 385.41 75.48 375 75.48 375H48.92C48.92 375 31.59 385.4 31 401C30.41 416.6 50.64 473.79 50.64 473.79H73.74C73.74 473.79 94 416.59 93.38 401Z" fill="#263238" stroke="#263238" stroke-linecap="round" stroke-linejoin="round"/>
<path d="M78.9 359.668H45.01L48.92 374.998H74.99L78.9 359.668Z" fill="#263238" stroke="#263238" stroke-linecap="round" stroke-linejoin="round"/>
<path d="M213.25 274.562C213.25 274.562 204.48 283.862 204.48 286.782C204.48 289.702 205.54 296.622 205.01 299.272C204.48 301.922 182.69 318.672 182.69 318.672L189.33 335.412C189.33 335.412 207.13 307.252 212.45 299.812C217.77 292.372 223.61 284.662 224.14 280.672C224.67 276.682 215.64 273.002 213.25 274.562Z" fill="#D4D4D4" stroke="#263238" stroke-miterlimit="10"/>
<path d="M214.71 343.551L240.54 333.371C240.54 333.371 257.36 314.371 270.24 300.451C283.12 286.531 299.24 289.711 299.24 299.731C299.24 309.751 294.59 324.731 290.3 331.231C286.01 337.731 277.41 354.491 277.41 354.491C277.41 354.491 307.48 361.651 315.71 366.301C323.94 370.951 357 394.411 374 406.661C385.18 414.661 391.67 417.921 393.46 417.921C393.94 417.921 394.8 417.841 395.82 417.721C399.91 417.241 404.82 412.931 408.34 410.721C413.17 407.721 420.56 403.571 424.86 403.121C431.66 402.401 429.16 412.421 424.15 419.581C419.14 426.741 410.15 428.891 406.97 431.391C403.79 433.891 396.97 435.331 394.44 435.691C391.91 436.051 369.39 426.741 359.72 422.801C350.05 418.861 331.82 417.961 320.8 404.801C317.149 400.355 313.039 396.306 308.54 392.721C308.54 392.721 248.77 395.221 238.03 396.301C227.29 397.381 202.6 398.091 192.22 398.091C181.84 398.091 176.55 393.981 176.55 393.981C176.55 393.981 172.55 388.421 178.62 379.481C184.69 370.541 214.71 343.551 214.71 343.551Z" fill="#6E6E6E" stroke="#263238" stroke-miterlimit="10"/>
<path d="M424.15 419.63C429.15 412.47 431.66 402.45 424.86 403.17C420.56 403.62 413.17 407.78 408.34 410.77C404.83 412.93 399.91 417.24 395.82 417.77C394.82 417.89 393.94 417.97 393.46 417.97C391.95 417.97 387.05 415.65 378.8 410.06C377.64 414.88 374.28 420.97 365.28 425.17C376.15 429.6 392.34 436.09 394.44 435.79C396.95 435.43 403.75 434 406.97 431.49C410.19 428.98 419.14 426.79 424.15 419.63Z" fill="#D4D4D4" stroke="#263238" stroke-miterlimit="10"/>
<path d="M424.15 419.63C429.15 412.47 431.66 402.45 424.86 403.17C420.56 403.62 413.17 407.78 408.34 410.77C404.83 412.93 399.91 417.24 395.82 417.77C394.82 417.89 393.94 417.97 393.46 417.97C392.959 417.928 392.467 417.814 392 417.63C393.22 420.53 394.3 426.74 386 433.3C390.32 434.87 393.6 435.91 394.47 435.79C396.98 435.43 403.78 434 407 431.49C410.22 428.98 419.14 426.79 424.15 419.63Z" fill="white" stroke="#263238" stroke-miterlimit="10"/>
<path d="M238.35 346.141C237.581 345.598 236.783 345.098 235.96 344.641" stroke="#263238" stroke-miterlimit="10"/>
<path d="M277.4 354.489L245 352.589C243.662 350.788 242.115 349.153 240.39 347.719" stroke="#263238" stroke-miterlimit="10"/>
<path d="M219.6 360.301C221.011 359.031 222.632 358.016 224.39 357.301" stroke="#263238" stroke-miterlimit="10"/>
<path d="M210.29 370.67C212.252 367.969 214.397 365.406 216.71 363" stroke="#263238" stroke-miterlimit="10"/>
<path d="M213.91 360.91C213.91 360.91 206.68 367.41 204.91 375.73" stroke="#263238" stroke-miterlimit="10"/>
<path d="M214.71 343.549C214.66 344.525 214.468 345.488 214.14 346.409C213.56 348.139 209.84 362.489 199.79 374.819C193.271 382.583 185.397 389.099 176.55 394.049C164.439 384.647 153.376 373.969 143.55 362.199C126.61 342.109 116.55 322.889 117.14 300.499C117.73 278.109 124.9 264.059 124.9 264.059L124.32 246.839C125.47 243.969 131.5 239.959 139.53 245.119C147.56 250.279 153.88 262.339 153.88 262.339L152.73 269.219C152.73 269.219 156.17 271.519 158.18 272.669C160.19 273.819 167.65 280.409 174.25 288.729C180.85 297.049 187.74 322.029 188.89 328.339C190.04 334.649 199.51 335.789 199.51 335.789L209.26 340.969L214.71 343.549Z" fill="#EB434A" stroke="#263238" stroke-miterlimit="10"/>
<path d="M153.88 262.339L152.73 269.219C152.73 269.219 134.94 263.479 124.9 264.059L124.32 246.839C125.47 243.969 131.5 239.959 139.53 245.119C147.56 250.279 153.88 262.339 153.88 262.339Z" fill="#D4D4D4" stroke="#263238" stroke-miterlimit="10"/>
<path d="M163.93 215.941C163.93 215.941 168.81 228.651 167.55 231.941C166.822 233.853 166.208 235.806 165.71 237.791C165.71 237.791 173.15 245.881 171.71 248.031C170.27 250.181 166.43 251.171 166.43 251.171C166.43 251.171 165.43 264.631 164.6 266.841C163.77 269.051 161.19 271.361 155.87 269.841C150.55 268.321 142.76 263.401 139.87 261.041C136.98 258.681 135.2 241.711 135.2 241.711L141.2 239.811C141.2 239.811 139.75 232.421 140.48 231.061C141.21 229.701 149.48 230.671 148.06 225.591C146.64 220.511 143.69 218.431 145.35 216.591C147.01 214.751 163.93 215.941 163.93 215.941Z" fill="#D4D4D4" stroke="#263238" stroke-miterlimit="10"/>
<path d="M165.33 255.999C165.33 255.999 156.86 256.739 155.7 249.379" stroke="#263238" stroke-miterlimit="10"/>
<path d="M158.08 248.77L152.62 251.02" stroke="#263238" stroke-miterlimit="10"/>
<path d="M161.63 238.13C161.37 239.62 160.63 240.73 160.02 240.62C159.41 240.51 159.11 239.22 159.37 237.73C159.63 236.24 160.37 235.14 160.98 235.25C161.59 235.36 161.89 236.65 161.63 238.13Z" fill="#263238"/>
<path d="M157.21 233.942C157.21 233.942 161.1 230.352 164.5 233.342" stroke="#263238" stroke-miterlimit="10"/>
<path d="M170.4 215.001C170.03 218.131 163.93 216.001 163.93 216.001L151.36 219.741C151.36 219.741 151.62 224.961 151.5 228.421C151.38 231.881 144.19 234.211 144.19 234.211L143.19 249.991L124.19 249.211L121.46 242.831C121.46 242.831 109.46 231.611 110.77 220.491C111.57 213.681 116.69 207.041 124.93 203.491C127.8 202.272 130.831 201.473 133.93 201.121C137.255 200.742 140.613 200.775 143.93 201.221C163.05 203.711 170.77 211.831 170.4 215.001Z" fill="#263238" stroke="#263238" stroke-miterlimit="10"/>
<path d="M133.85 235.172L126.68 239.172C126.38 238.622 120 226.872 124.98 203.472C127.85 202.253 130.881 201.454 133.98 201.102C131.08 212.312 130.98 220.562 131.55 225.712C132.19 232.002 133.84 235.142 133.85 235.172Z" fill="white" stroke="#263238" stroke-miterlimit="10"/>
<path d="M136.203 253.788C142.254 251.413 145.234 244.582 142.859 238.531C140.484 232.48 133.653 229.5 127.602 231.875C121.551 234.25 118.571 241.081 120.946 247.132C123.321 253.183 130.152 256.163 136.203 253.788Z" fill="white" stroke="#263238" stroke-miterlimit="10"/>
<path d="M136.37 299.071C140.121 310.259 144.825 321.106 150.43 331.491C159.62 348.421 173.43 366.791 178.56 365.641C183.69 364.491 212.7 314.561 214.71 310.261C216.72 305.961 219.88 299.641 219.88 299.641C219.88 299.641 226.48 294.761 227.05 292.751C227.62 290.741 226.29 281.211 226.29 281.211C226.29 281.211 229.79 276.611 228.65 274.601C227.51 272.591 225.58 273.221 223.58 274.371C221.58 275.521 217.21 278.731 217.21 278.731C217.768 276.489 217.809 274.15 217.33 271.891C216.47 268.741 213.85 269.801 213.56 271.811C213.27 273.821 213.28 275.811 212.42 277.811C211.191 280.219 210.306 282.787 209.79 285.441C209.22 288.881 207.67 298.191 207.67 298.191C207.67 298.191 191.78 315.931 187.47 320.251C185.34 322.371 180.83 325.831 180.83 325.831L169.09 302.491C169.09 302.491 163.09 281.261 156.75 275.491C153.681 272.708 149.843 270.917 145.739 270.354C141.635 269.79 137.456 270.479 133.75 272.331" fill="#EB434A"/>
<path d="M136.37 299.071C140.121 310.259 144.825 321.106 150.43 331.491C159.62 348.421 173.43 366.791 178.56 365.641C183.69 364.491 212.7 314.561 214.71 310.261C216.72 305.961 219.88 299.641 219.88 299.641C219.88 299.641 226.48 294.761 227.05 292.751C227.62 290.741 226.29 281.211 226.29 281.211C226.29 281.211 229.79 276.611 228.65 274.601C227.51 272.591 225.58 273.221 223.58 274.371C221.58 275.521 217.21 278.731 217.21 278.731C217.768 276.489 217.809 274.15 217.33 271.891C216.47 268.741 213.85 269.801 213.56 271.811C213.27 273.821 213.28 275.811 212.42 277.811C211.191 280.219 210.306 282.787 209.79 285.441C209.22 288.881 207.67 298.191 207.67 298.191C207.67 298.191 191.78 315.931 187.47 320.251C185.34 322.371 180.83 325.831 180.83 325.831L169.09 302.491C169.09 302.491 163.09 281.261 156.75 275.491C153.681 272.708 149.843 270.917 145.739 270.354C141.635 269.79 137.456 270.479 133.75 272.331" stroke="#263238" stroke-miterlimit="10"/>
<path d="M217.38 286.001C217.188 285.964 217.005 285.889 216.843 285.781C216.68 285.672 216.54 285.532 216.432 285.369C216.324 285.207 216.25 285.024 216.214 284.832C216.177 284.639 216.179 284.442 216.22 284.251L223.29 251.201C223.372 250.829 223.595 250.503 223.912 250.293C224.229 250.082 224.616 250.002 224.99 250.071C225.182 250.108 225.365 250.183 225.527 250.291C225.69 250.399 225.83 250.539 225.938 250.702C226.046 250.865 226.12 251.048 226.157 251.24C226.193 251.432 226.191 251.63 226.15 251.821L219.07 284.821C219.002 285.201 218.786 285.539 218.469 285.76C218.152 285.981 217.761 286.068 217.38 286.001Z" fill="#263238" stroke="#263238" stroke-miterlimit="10"/>
<path d="M227.05 292.751C227.62 290.751 226.29 281.211 226.29 281.211C226.29 281.211 229.79 276.611 228.65 274.601C227.51 272.591 225.58 273.221 223.58 274.371C221.58 275.521 217.21 278.731 217.21 278.731C217.768 276.489 217.809 274.15 217.33 271.891C216.47 268.741 213.85 269.801 213.56 271.811C213.27 273.821 213.28 275.811 212.42 277.811C211.191 280.219 210.306 282.787 209.79 285.441C209.22 288.881 207.67 298.191 207.67 298.191C207.67 298.191 204.99 301.191 201.53 305.011L213 313.461C213.88 311.881 214.48 310.761 214.71 310.261C216.71 305.951 219.88 299.641 219.88 299.641C219.88 299.641 226.48 294.761 227.05 292.751Z" fill="#D4D4D4" stroke="#263238" stroke-miterlimit="10"/>
<path d="M217.21 278.73C217.21 278.73 213.91 281.33 212.96 283.33" stroke="#263238" stroke-miterlimit="10"/>
<path d="M279.83 305.652C279.83 305.652 277.77 316.492 281.12 324.752C284.47 333.012 300.22 362.942 301.25 368.362C302.28 373.782 298.67 382.822 301.51 386.172C304.35 389.522 318.03 390.562 330.93 389.792C343.83 389.022 351.32 387.462 352.87 382.042C354.42 376.622 355.45 373.782 351.58 373.782C347.71 373.782 343.83 374.302 338.67 373.272C333.51 372.242 322.16 365.782 320.61 364.752C319.06 363.722 317.77 360.622 317.77 360.622C317.77 360.622 314.16 350.042 310.54 325.262C306.92 300.482 309.54 289.912 297.9 286.262C286.26 282.612 272.79 297.542 270.24 300.422" fill="#6E6E6E"/>
<path d="M279.83 305.652C279.83 305.652 277.77 316.492 281.12 324.752C284.47 333.012 300.22 362.942 301.25 368.362C302.28 373.782 298.67 382.822 301.51 386.172C304.35 389.522 318.03 390.562 330.93 389.792C343.83 389.022 351.32 387.462 352.87 382.042C354.42 376.622 355.45 373.782 351.58 373.782C347.71 373.782 343.83 374.302 338.67 373.272C333.51 372.242 322.16 365.782 320.61 364.752C319.06 363.722 317.77 360.622 317.77 360.622C317.77 360.622 314.16 350.042 310.54 325.262C306.92 300.482 309.54 289.912 297.9 286.262C286.26 282.612 272.79 297.542 270.24 300.422" stroke="#263238" stroke-miterlimit="10"/>
<path d="M352.87 382C354.42 376.58 355.45 373.74 351.58 373.74C347.71 373.74 343.83 374.26 338.67 373.23C333.51 372.2 322.16 365.74 320.61 364.71C319.06 363.68 317.77 360.58 317.77 360.58C316.337 355.938 315.159 351.221 314.24 346.45C305.15 343.3 298.24 349.28 294.82 353.28C298.14 360.22 300.82 366.19 301.25 368.28C302.25 373.7 298.67 382.74 301.51 386.09C304.35 389.44 318.03 390.48 330.93 389.71C343.83 388.94 351.32 387.46 352.87 382Z" fill="#D4D4D4" stroke="#263238" stroke-miterlimit="10"/>
<path d="M351.58 373.781C347.71 373.781 343.83 374.301 338.67 373.271C333.51 372.241 322.16 365.781 320.61 364.751C319.06 363.721 317.77 360.621 317.77 360.621C317.77 360.621 317.46 359.721 316.94 357.831C307.76 357.271 302.67 361.241 300.01 364.741C300.526 365.91 300.941 367.121 301.25 368.361C302.25 373.781 298.67 382.821 301.51 386.171C304.35 389.521 318.03 390.561 330.93 389.791C343.83 389.021 351.32 387.461 352.87 382.041C354.42 376.621 355.45 373.781 351.58 373.781Z" fill="white" stroke="#263238" stroke-miterlimit="10"/>
<path d="M226.79 435.18H126.26V441.15H226.79V435.18Z" fill="#919191" stroke="#263238" stroke-miterlimit="10"/>
<path d="M213.85 404.32L246.39 468.94C246.63 469.42 246.744 469.953 246.72 470.489C246.696 471.025 246.536 471.546 246.255 472.003C245.973 472.46 245.58 472.837 245.112 473.099C244.644 473.361 244.116 473.499 243.58 473.5C243.018 473.5 242.466 473.348 241.982 473.061C241.498 472.775 241.1 472.363 240.83 471.87L204.89 406.31L213.85 404.32Z" fill="#919191" stroke="#263238" stroke-miterlimit="10"/>
<path d="M141 387.082L111.41 469.502C111.216 470.003 111.153 470.544 111.228 471.076C111.303 471.608 111.513 472.111 111.838 472.538C112.163 472.966 112.592 473.303 113.085 473.517C113.577 473.731 114.116 473.815 114.65 473.762C115.212 473.709 115.749 473.505 116.204 473.173C116.66 472.84 117.018 472.391 117.24 471.872L150.06 388.182L141 387.082Z" fill="#919191" stroke="#263238" stroke-miterlimit="10"/>
<path d="M132.73 288.372C132.73 288.372 118.8 269.462 112.83 270.452C106.86 271.442 100.83 313.752 107.83 342.122C114.83 370.492 139.21 399.812 173 408.802C212.32 419.252 245.87 400.802 246.16 397.362C246.45 393.922 209.87 379.942 132.73 288.372Z" fill="#41C1CB"/>
<path opacity="0.29" d="M173 408.8C212.32 419.25 245.87 400.8 246.16 397.36C246.28 395.91 240.04 392.66 227.16 382.82C162.63 385.11 125.06 359.57 108.26 343.93C115.87 371.72 139.93 400 173 408.8Z" fill="black"/>
<path d="M132.73 288.372C132.73 288.372 118.8 269.462 112.83 270.452C106.86 271.442 100.83 313.752 107.83 342.122C114.83 370.492 139.21 399.812 173 408.802C212.32 419.252 245.87 400.802 246.16 397.362C246.45 393.922 209.87 379.942 132.73 288.372Z" stroke="#263238" stroke-miterlimit="10"/>
<path d="M424.86 432C424.86 432 413.36 427.9 386.54 426C359.72 424.1 334.29 427 333.29 429.49C332.53 431.39 336.43 456.29 338.29 467.89C338.554 469.532 339.394 471.028 340.66 472.107C341.927 473.186 343.536 473.779 345.2 473.78H418.35C420.023 473.78 421.641 473.181 422.91 472.091C424.179 471.001 425.017 469.493 425.27 467.84L429.71 438.92C429.981 437.38 429.641 435.795 428.761 434.503C427.881 433.21 426.532 432.312 425 432H424.86Z" fill="#41C1CB"/>
<path opacity="0.29" d="M423.59 471.422C388.12 471.502 369.24 453.832 360.31 438.352C356.83 432.352 351.16 428.712 345.31 426.582C338.23 427.372 333.67 428.462 333.31 429.492C332.55 431.392 336.45 456.292 338.31 467.892C338.574 469.535 339.414 471.03 340.68 472.109C341.947 473.189 343.556 473.782 345.22 473.782H418.37C419.357 473.779 420.333 473.567 421.232 473.16C422.132 472.754 422.936 472.161 423.59 471.422Z" fill="black"/>
<path d="M424.86 432C424.86 432 413.36 427.9 386.54 426C359.72 424.1 334.29 427 333.29 429.49C332.53 431.39 336.43 456.29 338.29 467.89C338.554 469.532 339.394 471.028 340.66 472.107C341.927 473.186 343.536 473.779 345.2 473.78H418.35C420.023 473.78 421.641 473.181 422.91 472.091C424.179 471.001 425.017 469.493 425.27 467.84L429.71 438.92C429.981 437.38 429.641 435.795 428.761 434.503C427.881 433.21 426.532 432.312 425 432H424.86Z" stroke="#263238" stroke-miterlimit="10"/>
<path d="M458.37 473.781H478.37" stroke="#263238" stroke-miterlimit="10"/>
<path d="M18.1101 473.781H450.03" stroke="#263238" stroke-miterlimit="10"/>
</svg>
