<svg width="522" height="471" viewBox="0 0 522 471" fill="none" xmlns="http://www.w3.org/2000/svg">
<g clip-path="url(#clip0_1390_19615)">
<path d="M557 396.469H-34V396.772H557V396.469Z" fill="#EBEBEB"/>
<path d="M497.782 415.969H458.634V416.272H497.782V415.969Z" fill="#EBEBEB"/>
<path d="M357.502 419.266H347.23V419.569H357.502V419.266Z" fill="#EBEBEB"/>
<path d="M457.452 404.723H434.769V405.026H457.452V404.723Z" fill="#EBEBEB"/>
<path d="M79.0584 406.758H28.0078V407.061H79.0584V406.758Z" fill="#EBEBEB"/>
<path d="M97.0719 406.758H89.5898V407.061H97.0719V406.758Z" fill="#EBEBEB"/>
<path d="M232.127 411.875H121.397V412.178H232.127V411.875Z" fill="#EBEBEB"/>
<path d="M246.134 342.414H17.9017C16.1138 342.411 14.4001 341.68 13.1369 340.383C11.8738 339.085 11.1643 337.327 11.1643 335.493V6.52008C11.1799 4.69726 11.8962 2.95435 13.1577 1.66992C14.4192 0.385488 16.1239 -0.336721 17.9017 -0.339844H246.134C247.924 -0.339844 249.641 0.389281 250.907 1.68713C252.172 2.98498 252.883 4.74524 252.883 6.58068V335.493C252.883 337.329 252.172 339.089 250.907 340.387C249.641 341.685 247.924 342.414 246.134 342.414ZM17.9017 -0.0974428C16.1921 -0.0942322 14.5536 0.604383 13.3459 1.84506C12.1381 3.08574 11.4598 4.7671 11.4598 6.52008V335.493C11.4598 337.246 12.1381 338.928 13.3459 340.168C14.5536 341.409 16.1921 342.108 17.9017 342.111H246.134C247.845 342.108 249.484 341.409 250.694 340.169C251.904 338.929 252.585 337.247 252.588 335.493V6.52008C252.585 4.76599 251.904 3.08465 250.694 1.84432C249.484 0.603989 247.845 -0.094239 246.134 -0.0974428H17.9017Z" fill="#ADB8B9" fill-opacity="0.06"/>
<path d="M501.813 342.414H273.569C271.78 342.411 270.065 341.68 268.8 340.383C267.535 339.086 266.822 337.328 266.819 335.493V6.52008C266.838 4.69615 267.557 2.95325 268.82 1.66916C270.084 0.385064 271.79 -0.336755 273.569 -0.339844H501.813C503.588 -0.333536 505.29 0.390082 506.549 1.67417C507.808 2.95826 508.523 4.69935 508.538 6.52008V335.493C508.538 337.324 507.831 339.081 506.57 340.378C505.309 341.675 503.599 342.407 501.813 342.414ZM273.569 -0.0974428C271.858 -0.094239 270.218 0.60399 269.009 1.84432C267.799 3.08465 267.118 4.76598 267.115 6.52008V335.493C267.118 337.247 267.799 338.929 269.009 340.169C270.218 341.409 271.858 342.108 273.569 342.111H501.813C503.523 342.108 505.163 341.409 506.373 340.169C507.582 338.929 508.263 337.247 508.266 335.493V6.52008C508.263 4.76598 507.582 3.08465 506.373 1.84432C505.163 0.60399 503.523 -0.094239 501.813 -0.0974428H273.569Z" fill="#ADB8B9" fill-opacity="0.06"/>
<path d="M214.965 63.5469H33.8232V216.647H214.965V63.5469Z" fill="white" fill-opacity="0.1"/>
<path d="M69.5315 78.5469H46.0215V102.654H69.5315V78.5469Z" fill="#41C1CB"/>
<path d="M204.917 140.566H181.407V164.673H204.917V140.566Z" fill="#F5F5F5"/>
<path d="M98.6438 91.25H75.1338V115.357H98.6438V91.25Z" fill="#41C1CB"/>
<path d="M178.405 148.156H154.896V172.263H178.405V148.156Z" fill="#F5F5F5"/>
<path d="M86.8836 148.711H53.043V194.815H86.8836V148.711Z" fill="#41C1CB"/>
<path d="M125.522 149.062H91.6816V195.167H125.522V149.062Z" fill="#F5F5F5"/>
<path d="M193.157 80.2578H159.316V126.362H193.157V80.2578Z" fill="#F5F5F5"/>
<path d="M496.825 30.5156H376.592V288.999H496.825V30.5156Z" fill="#ADB8B9" fill-opacity="0.06"/>
<path d="M499.602 27.1484H373.814V39.3169H499.602V27.1484Z" fill="white" fill-opacity="0.1"/>
<path d="M499.602 44.2969H373.813V50.3811H499.602V44.2969Z" fill="white" fill-opacity="0.1"/>
<path d="M499.602 53.3281H373.813V59.4124H499.602V53.3281Z" fill="white" fill-opacity="0.1"/>
<path d="M499.602 62.3594H373.813V68.4436H499.602V62.3594Z" fill="white" fill-opacity="0.1"/>
<path d="M499.602 71.3867H373.813V77.471H499.602V71.3867Z" fill="white" fill-opacity="0.1"/>
<path d="M499.602 80.4062H373.813V86.4905H499.602V80.4062Z" fill="white" fill-opacity="0.1"/>
<path d="M499.602 89.4336H373.813V95.5178H499.602V89.4336Z" fill="white" fill-opacity="0.1"/>
<path d="M499.602 98.4609H373.813V104.545H499.602V98.4609Z" fill="white" fill-opacity="0.1"/>
<path d="M499.602 107.492H373.813V113.576H499.602V107.492Z" fill="white" fill-opacity="0.1"/>
<path d="M499.602 116.523H373.813V122.608H499.602V116.523Z" fill="white" fill-opacity="0.1"/>
<path d="M499.602 125.539H373.813V131.623H499.602V125.539Z" fill="white" fill-opacity="0.1"/>
<path d="M499.602 134.57H373.813V140.655H499.602V134.57Z" fill="white" fill-opacity="0.1"/>
<path d="M499.602 143.598H373.813V149.682H499.602V143.598Z" fill="white" fill-opacity="0.1"/>
<path d="M499.602 152.625H373.813V158.709H499.602V152.625Z" fill="white" fill-opacity="0.1"/>
<path d="M499.602 161.656H373.814V167.74H499.602V161.656Z" fill="white" fill-opacity="0.1"/>
<path d="M499.602 170.684H373.814V176.768H499.602V170.684Z" fill="white" fill-opacity="0.1"/>
<path d="M499.602 179.703H373.813V185.787H499.602V179.703Z" fill="white" fill-opacity="0.1"/>
<path d="M499.602 188.734H373.813V194.819H499.602V188.734Z" fill="white" fill-opacity="0.1"/>
<path d="M499.602 197.762H373.814V203.846H499.602V197.762Z" fill="white" fill-opacity="0.1"/>
<path d="M499.602 206.789H373.814V212.873H499.602V206.789Z" fill="white" fill-opacity="0.1"/>
<path d="M499.602 215.82H373.814V221.905H499.602V215.82Z" fill="white" fill-opacity="0.1"/>
<path d="M499.602 224.836H373.813V230.92H499.602V224.836Z" fill="white" fill-opacity="0.1"/>
<path d="M499.602 233.867H373.814V239.951H499.602V233.867Z" fill="white" fill-opacity="0.1"/>
<path d="M499.602 242.895H373.814V248.979H499.602V242.895Z" fill="white" fill-opacity="0.1"/>
<path d="M499.602 251.926H373.814V258.01H499.602V251.926Z" fill="white" fill-opacity="0.1"/>
<path d="M499.602 260.957H373.814V267.041H499.602V260.957Z" fill="white" fill-opacity="0.1"/>
<path d="M499.602 269.984H373.813V276.069H499.602V269.984Z" fill="white" fill-opacity="0.1"/>
<path d="M499.602 279H373.814V285.084H499.602V279Z" fill="white" fill-opacity="0.1"/>
<path d="M52.0144 357.539C51.8371 356.327 47.7001 327.033 55.9859 316.925C56.8174 315.853 57.8719 314.986 59.0724 314.386C60.2729 313.786 61.5889 313.469 62.9242 313.458C79.6495 313.046 81.9426 326.79 81.9663 326.972L79.9923 327.287C79.9096 326.79 77.9356 315.167 62.9715 315.494C61.9282 315.512 60.9018 315.768 59.9673 316.244C59.0328 316.72 58.2137 317.404 57.5698 318.246C49.8631 327.651 54.0238 356.945 54.0238 357.236L52.0144 357.539Z" fill="#0E1313"/>
<path d="M50.9979 356.205L49.0121 356.144C49.0121 355.878 49.674 329.177 36.8375 323.663C24.2728 318.257 18.6111 329.359 18.3747 329.844L16.5898 328.923C16.6608 328.79 23.2918 315.591 37.6176 321.772C51.7071 327.832 51.0333 355.054 50.9979 356.205Z" fill="#0E1313"/>
<path d="M51.1035 358.303C51.1035 357.879 50.9853 315.653 42.9596 303.303C35.2529 291.449 22.8656 297.025 22.2864 297.243L21.459 295.376C21.6126 295.304 35.9621 288.807 44.6144 302.139C52.9829 314.999 53.1011 356.51 53.1011 358.267L51.1035 358.303Z" fill="#0E1313"/>
<path d="M65.2883 314.464C65.2883 314.464 57.9599 317.204 60.123 323.748C62.2861 330.293 85.3824 340.995 85.3824 340.995C85.3824 340.995 95.0511 331.905 86.1743 317.119C77.2975 302.332 65.4538 309.798 65.2883 314.464Z" fill="#241015"/>
<path d="M42.546 301.082C42.546 301.082 47.735 300.513 47.274 297.264C46.813 294.016 27.1564 285.69 15.5137 299.179C15.5137 299.179 22.9721 312.305 33.7519 312.511C44.5318 312.717 42.546 301.082 42.546 301.082Z" fill="#241015"/>
<path d="M37.2269 322.716C37.2269 322.716 40.7729 319.747 36.9432 318.304C33.1136 316.862 14.1306 317.274 13.9297 336.484C13.9297 336.484 36.0094 340.241 38.7517 332.909C41.4939 325.576 37.2269 322.716 37.2269 322.716Z" fill="#241015"/>
<path d="M69.1884 396.761H34.934L31.2344 358.305H72.8762L69.1884 396.761Z" fill="#EBEBEB"/>
<path d="M74.7083 354.062H29.4141V362.547H74.7083V354.062Z" fill="white" fill-opacity="0.1"/>
<path d="M479.225 361.942C479.225 361.942 472.546 346.998 480.17 332.272C487.794 317.546 490.016 314.092 485.147 311.062C480.277 308.032 478.055 322.843 478.055 322.843C478.055 322.843 473.953 312.662 477.345 302.008C480.738 291.355 482.853 273.999 478.22 272.145C473.587 270.29 477.345 293.791 473.327 301.802C471.283 296.176 469.964 290.301 469.402 284.325C468.859 275.769 469.721 262.097 466.069 258.595C462.417 255.092 460.076 257.516 463.705 276.399C465.854 287.685 467.041 299.141 467.251 310.638C467.251 310.638 459.332 285.865 454.013 285.186C448.694 284.507 448.694 292.458 453.256 299.451C457.819 306.444 466.577 318.843 468.019 325.291C468.019 325.291 459.32 306.638 451.471 312.359C443.623 318.08 458.292 329.327 464.804 333.399C471.317 337.472 475.856 362.972 475.856 362.972L479.225 361.942Z" fill="white" fill-opacity="0.1"/>
<path d="M473.953 368.109C473.953 368.109 480.454 353.068 472.653 338.464C464.851 323.859 462.594 320.417 467.428 317.326C472.263 314.236 474.662 328.998 474.662 328.998C474.662 328.998 478.634 318.756 475.123 308.164C471.612 297.571 469.296 280.288 473.941 278.3C478.586 276.312 475.123 299.934 479.177 307.885C481.154 302.229 482.406 296.334 482.901 290.347C483.35 281.79 482.333 268.143 485.938 264.58C489.543 261.017 491.907 263.368 488.551 282.348C486.525 293.661 485.465 305.134 485.383 316.635C485.383 316.635 493.018 291.741 498.326 290.941C503.633 290.141 503.727 298.152 499.259 305.182C494.791 312.212 486.151 324.804 484.792 331.24C484.792 331.24 493.267 312.466 501.151 318.066C509.035 323.665 494.543 335.143 488.066 339.312C481.589 343.481 477.369 369.042 477.369 369.042L473.953 368.109Z" fill="#EBEBEB"/>
<path d="M503.94 357.344H450.229L454.567 396.758H499.59L503.94 357.344Z" fill="black"/>
<path d="M361.852 357.056L358.306 356.535C358.944 352.002 362.632 343.434 372.088 343.434C383.293 343.434 388.86 350.063 389.428 356.632L385.882 356.947C385.456 352.027 381.036 347.07 372.076 347.07C363.4 347.07 361.97 356.644 361.852 357.056Z" fill="white" fill-opacity="0.1"/>
<path d="M403.34 353.855H345.741C342.588 353.855 340.032 356.476 340.032 359.709V390.252C340.032 393.485 342.588 396.106 345.741 396.106H403.34C406.493 396.106 409.049 393.485 409.049 390.252V359.709C409.049 356.476 406.493 353.855 403.34 353.855Z" fill="#41C1CB"/>
<path d="M389.463 396.757C340.694 396.757 338.33 362.446 338.33 362.046L340.316 358.07C340.387 359.343 344.228 393.073 389.522 393.073C408.151 393.073 424.25 393.073 425.881 389.437C427.311 386.213 420.314 377.971 409.12 364.748V359.682C423.387 376.529 431.483 385.595 429.108 390.94C426.566 396.527 415.787 396.757 389.463 396.757Z" fill="white" fill-opacity="0.1"/>
<path d="M261.5 451.205C388.072 451.205 490.678 445.063 490.678 437.485C490.678 429.908 388.072 423.766 261.5 423.766C134.929 423.766 32.3223 429.908 32.3223 437.485C32.3223 445.063 134.929 451.205 261.5 451.205Z" fill="#F5F5F5"/>
<path d="M359.275 44.6002C360.843 44.6002 362.346 45.2387 363.454 46.3752C364.563 47.5116 365.185 49.053 365.185 50.6602V248.495C365.185 250.102 364.563 251.644 363.454 252.78C362.346 253.917 360.843 254.555 359.275 254.555H100.216C98.6489 254.555 97.1457 253.917 96.0374 252.78C94.929 251.644 94.3064 250.102 94.3064 248.495V50.5633C94.3064 48.9561 94.929 47.4147 96.0374 46.2782C97.1457 45.1417 98.6489 44.5033 100.216 44.5033H359.275M359.275 42.9883H100.216C99.2484 42.9883 98.2901 43.1845 97.3964 43.5658C96.5028 43.9471 95.6915 44.5058 95.0092 45.2099C94.327 45.9139 93.7873 46.7494 93.4212 47.6681C93.0552 48.5869 92.8699 49.5708 92.8761 50.5633V248.495C92.8761 250.491 93.6495 252.406 95.026 253.817C96.4026 255.229 98.2696 256.022 100.216 256.022H359.275C361.222 256.022 363.089 255.229 364.466 253.817C365.842 252.406 366.615 250.491 366.615 248.495V50.5633C366.615 48.5671 365.842 46.6527 364.466 45.2412C363.089 43.8297 361.222 43.0368 359.275 43.0368V42.9883Z" fill="#EB434A"/>
<path opacity="0.7" d="M359.275 43.0859H100.216C96.1623 43.0859 92.876 46.4557 92.876 50.6125V248.496C92.876 252.652 96.1623 256.022 100.216 256.022H359.275C363.329 256.022 366.615 252.652 366.615 248.496V50.6125C366.615 46.4557 363.329 43.0859 359.275 43.0859Z" fill="black"/>
<path d="M336.073 65.168H332.681V68.0646H336.073V65.168Z" fill="#EB434A"/>
<path d="M336.061 227.515H332.681V221.818H336.061V227.515ZM336.061 216.122H332.681V210.426H336.061V216.122ZM336.061 204.741H332.681V199.045H336.061V204.741ZM336.061 193.349H332.681V187.664H336.061V193.349ZM336.061 181.968H332.681V176.271H336.061V181.968ZM336.061 170.575H332.681V164.891H336.061V170.575ZM336.061 159.194H332.681V153.498H336.061V159.194ZM336.061 147.814H332.681V142.117H336.061V147.814ZM336.061 136.421H332.681V130.725H336.061V136.421ZM336.061 125.04H332.681V119.344H336.061V125.04ZM336.061 113.647H332.681V107.963H336.061V113.647ZM336.061 102.267H332.681V96.5704H336.061V102.267ZM336.061 90.874H332.681V85.1897H336.061V90.874ZM336.061 79.4933H332.681V73.7969H336.061V79.4933Z" fill="#EB434A"/>
<path d="M336.073 233.148H332.681V236.045H336.073V233.148Z" fill="#EB434A"/>
<path d="M131.173 227.517H127.78V221.82H131.173V227.517Z" fill="#EB434A"/>
<path d="M131.173 233.148H127.78V236.045H131.173V233.148Z" fill="#EB434A"/>
<path d="M172.153 227.515H168.761V221.818H172.153V227.515ZM172.153 216.122H168.761V210.425H172.153V216.122ZM172.153 204.741H168.761V199.045H172.153V204.741ZM172.153 193.348H168.761V187.664H172.153V193.348Z" fill="#EB434A"/>
<path d="M172.153 233.148H168.761V236.045H172.153V233.148Z" fill="#EB434A"/>
<path d="M213.133 227.517H209.74V221.82H213.133V227.517ZM213.133 216.124H209.74V210.428H213.133V216.124ZM213.133 204.743H209.74V199.047H213.133V204.743ZM213.133 193.351H209.74V187.666H213.133V193.351ZM213.133 181.97H209.74V176.273H213.133V181.97Z" fill="#EB434A"/>
<path d="M213.133 233.148H209.74V236.045H213.133V233.148Z" fill="#EB434A"/>
<path d="M254.113 227.515H250.721V221.818H254.113V227.515ZM254.113 216.122H250.721V210.425H254.113V216.122ZM254.113 204.741H250.721V199.045H254.113V204.741ZM254.113 193.348H250.721V187.664H254.113V193.348ZM254.113 181.968H250.721V176.271H254.113V181.968ZM254.113 170.575H250.721V164.891H254.113V170.575ZM254.113 159.194H250.721V153.498H254.113V159.194ZM254.113 147.814H250.721V142.117H254.113V147.814Z" fill="#EB434A"/>
<path d="M254.113 233.148H250.721V236.045H254.113V233.148Z" fill="#EB434A"/>
<path d="M295.093 227.515H291.7V221.818H295.093V227.515ZM295.093 216.122H291.7V210.426H295.093V216.122ZM295.093 204.741H291.7V199.045H295.093V204.741ZM295.093 193.348H291.7V187.664H295.093V193.348ZM295.093 181.968H291.7V176.271H295.093V181.968ZM295.093 170.575H291.7V164.891H295.093V170.575ZM295.093 159.194H291.7V153.498H295.093V159.194ZM295.093 147.814H291.7V142.117H295.093V147.814ZM295.093 136.421H291.7V130.724H295.093V136.421ZM295.093 125.04H291.7V119.344H295.093V125.04Z" fill="#EB434A"/>
<path d="M295.093 233.148H291.7V236.045H295.093V233.148Z" fill="#EB434A"/>
<g opacity="0.7">
<path d="M336.072 65.168H332.68V68.0646H336.072V65.168Z" fill="black"/>
<path d="M336.06 227.515H332.68V221.818H336.06V227.515ZM336.06 216.122H332.68V210.426H336.06V216.122ZM336.06 204.741H332.68V199.045H336.06V204.741ZM336.06 193.349H332.68V187.664H336.06V193.349ZM336.06 181.968H332.68V176.271H336.06V181.968ZM336.06 170.575H332.68V164.891H336.06V170.575ZM336.06 159.194H332.68V153.498H336.06V159.194ZM336.06 147.814H332.68V142.117H336.06V147.814ZM336.06 136.421H332.68V130.725H336.06V136.421ZM336.06 125.04H332.68V119.344H336.06V125.04ZM336.06 113.647H332.68V107.963H336.06V113.647ZM336.06 102.267H332.68V96.5704H336.06V102.267ZM336.06 90.874H332.68V85.1897H336.06V90.874ZM336.06 79.4933H332.68V73.7969H336.06V79.4933Z" fill="black"/>
<path d="M336.072 233.148H332.68V236.045H336.072V233.148Z" fill="black"/>
<path d="M131.173 227.517H127.78V221.82H131.173V227.517Z" fill="black"/>
<path d="M131.173 233.148H127.78V236.045H131.173V233.148Z" fill="black"/>
<path d="M172.152 227.515H168.76V221.818H172.152V227.515ZM172.152 216.122H168.76V210.425H172.152V216.122ZM172.152 204.741H168.76V199.045H172.152V204.741ZM172.152 193.348H168.76V187.664H172.152V193.348Z" fill="black"/>
<path d="M172.152 233.148H168.76V236.045H172.152V233.148Z" fill="black"/>
<path d="M213.133 227.517H209.74V221.82H213.133V227.517ZM213.133 216.124H209.74V210.428H213.133V216.124ZM213.133 204.743H209.74V199.047H213.133V204.743ZM213.133 193.351H209.74V187.666H213.133V193.351ZM213.133 181.97H209.74V176.273H213.133V181.97Z" fill="black"/>
<path d="M213.133 233.148H209.74V236.045H213.133V233.148Z" fill="black"/>
<path d="M254.112 227.515H250.72V221.818H254.112V227.515ZM254.112 216.122H250.72V210.425H254.112V216.122ZM254.112 204.741H250.72V199.045H254.112V204.741ZM254.112 193.348H250.72V187.664H254.112V193.348ZM254.112 181.968H250.72V176.271H254.112V181.968ZM254.112 170.575H250.72V164.891H254.112V170.575ZM254.112 159.194H250.72V153.498H254.112V159.194ZM254.112 147.814H250.72V142.117H254.112V147.814Z" fill="black"/>
<path d="M254.112 233.148H250.72V236.045H254.112V233.148Z" fill="black"/>
<path d="M295.093 227.515H291.7V221.818H295.093V227.515ZM295.093 216.122H291.7V210.426H295.093V216.122ZM295.093 204.741H291.7V199.045H295.093V204.741ZM295.093 193.348H291.7V187.664H295.093V193.348ZM295.093 181.968H291.7V176.271H295.093V181.968ZM295.093 170.575H291.7V164.891H295.093V170.575ZM295.093 159.194H291.7V153.498H295.093V159.194ZM295.093 147.814H291.7V142.117H295.093V147.814ZM295.093 136.421H291.7V130.724H295.093V136.421ZM295.093 125.04H291.7V119.344H295.093V125.04Z" fill="black"/>
<path d="M295.093 233.148H291.7V236.045H295.093V233.148Z" fill="black"/>
</g>
<path d="M334.371 59.3516C333.424 59.3519 332.492 59.5958 331.661 60.0608C330.83 60.5259 330.125 61.1973 329.613 62.0137C329.1 62.83 328.795 63.7652 328.726 64.7336C328.657 65.702 328.826 66.6727 329.217 67.5568L295.4 104.232C294.543 103.888 293.617 103.765 292.703 103.872C291.788 103.979 290.913 104.313 290.154 104.846C289.394 105.379 288.773 106.094 288.344 106.929C287.915 107.764 287.692 108.694 287.694 109.637C287.681 109.831 287.681 110.025 287.694 110.219L255.874 127.696C254.88 126.839 253.627 126.363 252.328 126.351C250.827 126.354 249.389 126.967 248.328 128.055C247.267 129.143 246.669 130.618 246.666 132.156C246.677 132.703 246.76 133.245 246.915 133.768L214.067 160.602C213.232 160.109 212.288 159.845 211.325 159.838C209.943 159.843 208.611 160.366 207.579 161.308C206.547 162.25 205.886 163.546 205.722 164.953L174.765 173.655C174.048 172.693 173.054 171.986 171.923 171.634C170.793 171.282 169.583 171.303 168.465 171.694C167.347 172.085 166.377 172.826 165.692 173.813C165.007 174.8 164.641 175.983 164.647 177.194C164.652 177.741 164.736 178.284 164.896 178.806L132.048 205.701C131.214 205.206 130.269 204.942 129.306 204.937C128.182 204.935 127.084 205.274 126.149 205.912C125.214 206.551 124.485 207.459 124.054 208.523C123.623 209.586 123.51 210.757 123.729 211.887C123.947 213.016 124.488 214.054 125.282 214.868C126.076 215.683 127.088 216.237 128.19 216.461C129.291 216.685 130.433 216.569 131.47 216.127C132.508 215.685 133.394 214.938 134.016 213.979C134.639 213.021 134.97 211.894 134.967 210.742C134.957 210.196 134.873 209.654 134.719 209.131L167.579 182.297C168.412 182.792 169.358 183.055 170.321 183.06C171.699 183.053 173.027 182.531 174.056 181.592C175.085 180.652 175.745 179.36 175.912 177.958L206.868 169.244C207.584 170.211 208.579 170.923 209.712 171.278C210.844 171.633 212.057 171.613 213.179 171.222C214.3 170.83 215.272 170.086 215.958 169.096C216.643 168.106 217.007 166.919 216.998 165.705C216.988 165.158 216.904 164.616 216.75 164.093L249.598 137.259C250.432 137.752 251.377 138.015 252.34 138.022C253.843 138.022 255.284 137.411 256.348 136.323C257.411 135.234 258.01 133.758 258.014 132.217C258.014 132.011 258.014 131.829 257.954 131.623L289.774 114.158C290.756 114.997 291.987 115.468 293.264 115.496C294.542 115.523 295.791 115.104 296.806 114.308C297.822 113.512 298.543 112.386 298.852 111.115C299.162 109.844 299.041 108.502 298.509 107.31L332.338 70.6232C332.984 70.8909 333.674 71.0307 334.371 71.0352C335.829 70.9669 337.206 70.3248 338.214 69.2424C339.223 68.16 339.785 66.7207 339.785 65.2237C339.785 63.7267 339.223 62.2874 338.214 61.205C337.206 60.1226 335.829 59.4805 334.371 59.4122V59.3516Z" fill="#EB434A"/>
<path d="M204.587 153.329C204.271 153.328 203.962 153.419 203.695 153.593C203.429 153.768 203.218 154.017 203.086 154.311H169.564C168.978 154.311 168.416 154.072 168.001 153.647C167.587 153.222 167.354 152.646 167.354 152.044V116.012H165.936V152.069C165.939 153.053 166.322 153.997 167.003 154.692C167.683 155.387 168.604 155.777 169.564 155.777H203.086C203.213 156.052 203.409 156.286 203.654 156.456C203.899 156.626 204.184 156.725 204.479 156.744C204.775 156.762 205.069 156.7 205.333 156.562C205.597 156.424 205.819 156.216 205.978 155.96C206.136 155.704 206.225 155.409 206.235 155.105C206.244 154.802 206.175 154.502 206.033 154.236C205.891 153.97 205.682 153.747 205.427 153.592C205.173 153.437 204.883 153.355 204.587 153.353V153.329Z" fill="#EB434A"/>
<path d="M186.313 105.961H146.965C145.274 105.961 143.903 107.366 143.903 109.1V120.505C143.903 122.239 145.274 123.644 146.965 123.644H186.313C188.004 123.644 189.375 122.239 189.375 120.505V109.1C189.375 107.366 188.004 105.961 186.313 105.961Z" fill="#EB434A"/>
<g opacity="0.4">
<path d="M204.587 153.325C204.271 153.324 203.962 153.415 203.695 153.59C203.429 153.764 203.218 154.013 203.086 154.307H169.564C168.978 154.307 168.416 154.068 168.001 153.643C167.587 153.218 167.354 152.642 167.354 152.041V116.008H165.936V152.065C165.939 153.05 166.322 153.993 167.003 154.688C167.683 155.383 168.604 155.774 169.564 155.774H203.086C203.213 156.048 203.409 156.282 203.654 156.452C203.899 156.622 204.184 156.721 204.479 156.74C204.775 156.759 205.069 156.696 205.333 156.558C205.597 156.42 205.819 156.212 205.978 155.956C206.136 155.7 206.225 155.405 206.235 155.102C206.244 154.798 206.175 154.498 206.033 154.232C205.891 153.966 205.682 153.743 205.427 153.588C205.173 153.433 204.883 153.351 204.587 153.35V153.325Z" fill="black"/>
<path d="M186.313 105.961H146.965C145.274 105.961 143.903 107.366 143.903 109.1V120.505C143.903 122.239 145.274 123.644 146.965 123.644H186.313C188.004 123.644 189.375 122.239 189.375 120.505V109.1C189.375 107.366 188.004 105.961 186.313 105.961Z" fill="black"/>
</g>
<path d="M253.049 116.701V64.7422H251.642V116.701C251.298 116.865 251.019 117.144 250.851 117.493C250.683 117.842 250.636 118.239 250.718 118.619C250.8 118.999 251.006 119.339 251.302 119.583C251.598 119.826 251.966 119.959 252.345 119.959C252.725 119.959 253.093 119.826 253.389 119.583C253.685 119.339 253.891 118.999 253.973 118.619C254.055 118.239 254.008 117.842 253.84 117.493C253.672 117.144 253.393 116.865 253.049 116.701Z" fill="#EB434A"/>
<path d="M272.02 55.8984H232.672C230.981 55.8984 229.61 57.3038 229.61 59.0375V70.4424C229.61 72.1761 230.981 73.5815 232.672 73.5815H272.02C273.711 73.5815 275.082 72.1761 275.082 70.4424V59.0375C275.082 57.3038 273.711 55.8984 272.02 55.8984Z" fill="#EB434A"/>
<g opacity="0.4">
<path d="M253.049 116.705V64.7461H251.643V116.705C251.299 116.869 251.02 117.148 250.852 117.497C250.684 117.846 250.637 118.243 250.719 118.623C250.801 119.003 251.007 119.343 251.303 119.586C251.599 119.83 251.967 119.963 252.346 119.963C252.726 119.963 253.094 119.83 253.389 119.586C253.685 119.343 253.891 119.003 253.973 118.623C254.055 118.243 254.008 117.846 253.84 117.497C253.672 117.148 253.393 116.869 253.049 116.705Z" fill="black"/>
<path d="M272.02 55.8984H232.672C230.981 55.8984 229.61 57.3038 229.61 59.0375V70.4424C229.61 72.1761 230.981 73.5815 232.672 73.5815H272.02C273.711 73.5815 275.082 72.1761 275.082 70.4424V59.0375C275.082 57.3038 273.711 55.8984 272.02 55.8984Z" fill="black"/>
</g>
<path d="M347.207 243.66H113.384C113.384 242.444 113.854 241.277 114.692 240.416C115.529 239.555 116.666 239.07 117.852 239.066H342.727C343.915 239.066 345.055 239.55 345.895 240.412C346.735 241.273 347.207 242.442 347.207 243.66Z" fill="#EB434A"/>
<path opacity="0.4" d="M347.207 243.66H113.384C113.384 242.444 113.854 241.277 114.692 240.416C115.529 239.555 116.666 239.07 117.852 239.066H342.727C343.915 239.066 345.055 239.55 345.895 240.412C346.735 241.273 347.207 242.442 347.207 243.66Z" fill="black"/>
<path opacity="0.2" d="M170.321 181.349C172.56 181.349 174.375 179.488 174.375 177.192C174.375 174.896 172.56 173.035 170.321 173.035C168.082 173.035 166.267 174.896 166.267 177.192C166.267 179.488 168.082 181.349 170.321 181.349Z" fill="black"/>
<path opacity="0.4" d="M211.336 169.814C213.576 169.814 215.391 167.953 215.391 165.657C215.391 163.361 213.576 161.5 211.336 161.5C209.097 161.5 207.282 163.361 207.282 165.657C207.282 167.953 209.097 169.814 211.336 169.814Z" fill="black"/>
<path opacity="0.6" d="M252.339 136.314C254.579 136.314 256.394 134.453 256.394 132.157C256.394 129.861 254.579 128 252.339 128C250.1 128 248.285 129.861 248.285 132.157C248.285 134.453 250.1 136.314 252.339 136.314Z" fill="black"/>
<path opacity="0.8" d="M293.355 113.791C295.594 113.791 297.409 111.93 297.409 109.634C297.409 107.338 295.594 105.477 293.355 105.477C291.116 105.477 289.301 107.338 289.301 109.634C289.301 111.93 291.116 113.791 293.355 113.791Z" fill="black"/>
<path d="M334.371 69.3221C336.61 69.3221 338.425 67.4609 338.425 65.165C338.425 62.869 336.61 61.0078 334.371 61.0078C332.132 61.0078 330.316 62.869 330.316 65.165C330.316 67.4609 332.132 69.3221 334.371 69.3221Z" fill="black"/>
<path d="M477.641 239.637L482.676 253.211C482.676 253.211 488.444 256.544 488.881 257.489C489.319 258.435 490.595 269.997 489.685 271.221C488.775 272.446 477.026 269.258 477.002 267.998C476.979 266.737 476.423 256.411 476.423 256.411L469.662 241.576L477.641 239.637Z" fill="#E4897B"/>
<path d="M453.279 132.531C462.038 137.913 462.971 186.792 464.378 191.362C465.784 195.931 483.101 246.265 483.101 246.265L470.926 251.113C470.926 251.113 453.61 213.723 449.875 203.142C446.14 192.562 443.634 168.6 443.634 168.6L453.279 132.531Z" fill="#EB434A"/>
<path opacity="0.2" d="M453.279 132.531C462.038 137.913 462.971 186.792 464.378 191.362C465.784 195.931 483.101 246.265 483.101 246.265L470.926 251.113C470.926 251.113 453.61 213.723 449.875 203.142C446.14 192.562 443.634 168.6 443.634 168.6L453.279 132.531Z" fill="black"/>
<path d="M441.365 126.16C428.174 118.73 411.129 120.293 411.129 120.293L395.929 142.328L374.476 220.974L377.632 223.919L378.979 217.678L437.311 223.738L438.292 231.882L441.649 230.198L443.634 133.516L441.365 126.16Z" fill="#EB434A"/>
<path opacity="0.4" d="M441.365 126.16C428.174 118.73 411.129 120.293 411.129 120.293L395.929 142.328L374.476 220.974L377.632 223.919L378.979 217.678L437.311 223.738L438.292 231.882L441.649 230.198L443.634 133.516L441.365 126.16Z" fill="black"/>
<path d="M358.684 68.8292L354.476 54.2004C354.963 51.1145 355.212 47.994 355.221 44.868C354.972 42.2016 348.861 37.0991 346.947 35.3053C345.032 33.5115 337.112 39.3291 337.491 40.5896C337.869 41.8501 342.491 51.7279 343.956 52.8672L346.32 54.2367L349.973 72.6591L358.684 68.8292Z" fill="#E4897B"/>
<path d="M399.427 121.491C386.047 114.462 375.846 103.602 372.099 97.2515C368.352 90.9006 357.324 57.6797 357.324 57.6797L345.682 59.4977C345.682 59.4977 352.691 100.306 356.438 109.19C360.185 118.074 394.581 150.313 394.581 150.313L399.427 121.491Z" fill="#EB434A"/>
<path opacity="0.2" d="M399.427 121.491C386.047 114.462 375.846 103.602 372.099 97.2515C368.352 90.9006 357.324 57.6797 357.324 57.6797L345.682 59.4977C345.682 59.4977 352.691 100.306 356.438 109.19C360.185 118.074 394.581 150.313 394.581 150.313L399.427 121.491Z" fill="black"/>
<path d="M390.727 428.163L381.141 429.205L379.333 407.995L388.931 406.953L390.727 428.163Z" fill="#E4897B"/>
<path d="M438.575 427.446H429.285L428.517 405.375H437.819L438.575 427.446Z" fill="#E4897B"/>
<path d="M427.997 426.345H439.285C439.47 426.346 439.649 426.412 439.792 426.531C439.936 426.649 440.037 426.815 440.077 427L441.909 435.484C441.982 435.849 441.911 436.228 441.712 436.54C441.512 436.851 441.201 437.068 440.845 437.144C440.747 437.156 440.648 437.156 440.55 437.144C436.897 437.084 434.238 436.853 429.652 436.853C426.827 436.853 418.304 437.156 414.404 437.156C410.503 437.156 409.995 433.205 411.591 432.842C418.753 431.242 424.143 429.024 426.436 426.915C426.866 426.527 427.425 426.323 427.997 426.345Z" fill="#263238"/>
<path d="M424.923 428.019C424.292 428.07 423.662 427.899 423.138 427.534C422.966 427.39 422.833 427.203 422.752 426.991C422.671 426.778 422.646 426.548 422.677 426.322C422.672 426.191 422.706 426.061 422.773 425.948C422.841 425.836 422.939 425.747 423.055 425.692C424.084 425.147 427.086 427.037 427.417 427.256C427.454 427.277 427.484 427.309 427.503 427.348C427.522 427.387 427.529 427.431 427.523 427.474C427.518 427.519 427.499 427.562 427.47 427.597C427.44 427.631 427.401 427.656 427.358 427.668C426.561 427.874 425.745 427.992 424.923 428.019ZM423.54 426.044C423.442 426.032 423.342 426.053 423.256 426.104C423.197 426.104 423.126 426.189 423.115 426.371C423.096 426.521 423.113 426.673 423.165 426.814C423.216 426.956 423.3 427.082 423.41 427.183C424.452 427.667 425.635 427.728 426.72 427.353C425.753 426.708 424.673 426.264 423.54 426.044Z" fill="#EB434A"/>
<path d="M427.299 427.678H427.192C426.235 427.144 424.379 425.048 424.568 424.042C424.601 423.874 424.69 423.723 424.819 423.615C424.948 423.506 425.11 423.447 425.277 423.448C425.444 423.425 425.614 423.44 425.775 423.49C425.936 423.54 426.085 423.625 426.211 423.739C427.287 424.636 427.511 427.375 427.523 427.508C427.522 427.548 427.511 427.588 427.493 427.624C427.475 427.659 427.449 427.69 427.417 427.714C427.375 427.715 427.333 427.702 427.299 427.678ZM425.431 423.86H425.325C425.041 423.86 425.017 424.03 425.005 424.09C424.887 424.708 426.069 426.296 427.027 427.035C426.965 425.95 426.581 424.91 425.927 424.054C425.789 423.933 425.613 423.864 425.431 423.86Z" fill="#EB434A"/>
<path d="M380.126 426.041H391.414C391.599 426.042 391.777 426.107 391.921 426.226C392.065 426.345 392.165 426.51 392.206 426.695L394.038 435.179C394.111 435.544 394.04 435.924 393.841 436.235C393.641 436.546 393.33 436.764 392.974 436.84C392.876 436.851 392.777 436.851 392.678 436.84C389.026 436.779 386.367 436.549 381.78 436.549C378.955 436.549 370.433 436.852 366.533 436.852C362.632 436.852 362.124 432.901 363.719 432.537C370.882 430.937 376.272 428.719 378.565 426.61C378.995 426.222 379.554 426.019 380.126 426.041Z" fill="#263238"/>
<path d="M377.052 427.714C376.421 427.765 375.791 427.594 375.267 427.23C375.095 427.086 374.962 426.898 374.881 426.686C374.8 426.473 374.775 426.243 374.806 426.018C374.802 425.886 374.835 425.756 374.902 425.644C374.97 425.532 375.068 425.442 375.185 425.387C376.213 424.842 379.215 426.733 379.546 426.951C379.583 426.972 379.613 427.004 379.632 427.043C379.651 427.082 379.658 427.126 379.653 427.169C379.647 427.215 379.628 427.257 379.599 427.292C379.569 427.327 379.53 427.351 379.487 427.363C378.69 427.57 377.874 427.688 377.052 427.714ZM375.669 425.739C375.571 425.727 375.471 425.749 375.386 425.799C375.326 425.799 375.256 425.884 375.244 426.066C375.225 426.216 375.242 426.368 375.294 426.509C375.345 426.651 375.43 426.777 375.539 426.878C376.582 427.363 377.765 427.423 378.849 427.048C377.882 426.404 376.802 425.959 375.669 425.739Z" fill="#EB434A"/>
<path d="M379.428 427.373H379.322C378.365 426.84 376.509 424.743 376.698 423.737C376.731 423.569 376.82 423.418 376.949 423.31C377.078 423.202 377.24 423.143 377.407 423.143C377.574 423.121 377.744 423.135 377.905 423.185C378.066 423.235 378.215 423.32 378.341 423.434C379.417 424.331 379.641 427.07 379.653 427.203C379.652 427.244 379.641 427.283 379.623 427.319C379.605 427.355 379.578 427.386 379.547 427.409C379.504 427.41 379.463 427.398 379.428 427.373ZM377.561 423.507H377.454C377.171 423.507 377.147 423.676 377.135 423.737C377.017 424.355 378.199 425.943 379.157 426.682C379.094 425.597 378.711 424.557 378.057 423.701C377.919 423.579 377.743 423.511 377.561 423.507Z" fill="#EB434A"/>
<path opacity="0.2" d="M388.931 406.953L379.333 407.995L380.279 418.94L389.865 417.897L388.931 406.953Z" fill="black"/>
<path opacity="0.2" d="M437.819 405.391H428.517L428.919 416.771H438.221L437.819 405.391Z" fill="black"/>
<path d="M433.977 211.758H384.664C379.936 238.022 365.291 330.934 375.823 413.713L392.525 411.592C392.525 411.592 390.976 301.712 405.704 261.086C407.406 282.83 409.415 305.93 411.165 318.281C415.455 348.581 424.64 414.792 424.64 414.792H441.637C441.637 414.792 438.162 351.417 436.554 321.638C434.805 289.326 434.072 218.424 433.977 211.758Z" fill="#263238"/>
<path opacity="0.2" d="M405.704 261.088C403.277 268.21 401.435 275.528 400.196 282.964C398.813 263.572 404.333 243.102 404.333 243.102L405.704 261.088Z" fill="black"/>
<path d="M373.92 417.728L394.581 414.577L393.955 408.711L372.454 411.608L373.92 417.728Z" fill="#EB434A"/>
<path opacity="0.6" d="M373.92 417.728L394.581 414.577L393.955 408.711L372.454 411.608L373.92 417.728Z" fill="black"/>
<path d="M422.606 414.939H442.653V408.795L421.85 408.395L422.606 414.939Z" fill="#EB434A"/>
<path opacity="0.6" d="M422.606 414.939H442.653V408.795L421.85 408.395L422.606 414.939Z" fill="black"/>
<path d="M384.251 212.391H433.895V218.451L383.612 217.832L384.251 212.391Z" fill="#263238"/>
<path opacity="0.2" d="M384.251 212.391H433.895V218.451L383.612 217.832L384.251 212.391Z" fill="black"/>
<path d="M417.937 209.664H416.164V220.427H417.937V209.664Z" fill="#263238"/>
<path d="M392.82 209.664H391.047V220.427H392.82V209.664Z" fill="#263238"/>
<path d="M399.428 121.492C399.428 121.492 430.751 123.734 453.279 132.534C453.279 132.534 436.98 184.201 433.93 214.344L384.286 212.392C384.286 212.392 387.785 151.574 399.428 121.492Z" fill="#EB434A"/>
<path opacity="0.7" d="M453.279 132.533C453.279 132.533 450.029 142.835 446.187 156.906C444.757 162.142 443.232 167.899 441.755 173.874C438.327 187.764 435.136 202.683 433.954 214.367L384.31 212.416C384.31 212.416 387.856 151.598 399.486 121.516C399.427 121.492 430.75 123.734 453.279 132.533Z" fill="black"/>
<path d="M435.951 127.029C430.975 130.665 420.136 127.804 420.136 127.804C420.136 127.804 413.481 125.053 415.171 123.017C419.297 122.823 421.483 121.114 422.583 118.739C423.196 117.25 423.518 115.652 423.528 114.036C423.575 113.144 423.575 112.25 423.528 111.358L438.291 102.68C435.726 109.261 432.11 121.551 435.951 127.029Z" fill="#E4897B"/>
<path opacity="0.2" d="M434.391 108.852C432.902 117.154 425.916 118.669 422.571 118.741C423.185 117.253 423.506 115.655 423.517 114.039L434.391 108.852Z" fill="black"/>
<path d="M426.743 75.7969C426.743 75.7969 418.221 85.7959 421.306 93.7951C424.391 101.794 437.204 81.1903 437.204 81.1903L426.743 75.7969Z" fill="#263238"/>
<path d="M432.476 113.482C430.141 114.519 427.538 114.742 425.067 114.116C422.596 113.49 420.395 112.049 418.8 110.015C416.686 107.429 415.616 104.112 415.809 100.743C415.828 100.272 415.875 99.8027 415.951 99.3376C417.334 90.7324 423.788 78.3094 433.528 78.4306C435.683 78.4363 437.801 79.0089 439.679 80.0936C441.557 81.1783 443.132 82.7388 444.254 84.626C445.376 86.5132 446.007 88.6639 446.086 90.8725C446.166 93.0811 445.692 95.2737 444.709 97.2408C440.596 105.713 438.598 110.888 432.476 113.482Z" fill="#E4897B"/>
<path d="M430.774 94.1216C430.538 94.8367 429.888 95.2488 429.439 95.0427C428.989 94.8367 428.859 94.1095 429.143 93.4066C429.427 92.7036 430.041 92.2915 430.491 92.4854C430.94 92.6793 431.07 93.3944 430.774 94.1216Z" fill="#263238"/>
<path d="M422.973 90.7544C422.725 91.4695 422.075 91.8695 421.625 91.6756C421.176 91.4816 421.046 90.7423 421.33 90.0394C421.614 89.3364 422.228 88.9243 422.677 89.1182C423.126 89.3122 423.245 90.0757 422.973 90.7544Z" fill="#263238"/>
<path d="M425.301 92.1719C423.594 93.9829 421.648 95.5411 419.521 96.8017C419.852 97.3566 420.298 97.83 420.827 98.1882C421.356 98.5464 421.955 98.7807 422.583 98.8742L425.301 92.1719Z" fill="#DE5753"/>
<path d="M434.261 92.5732C434.184 92.5536 434.113 92.5127 434.057 92.4551C434.001 92.3974 433.961 92.3251 433.942 92.246C433.819 91.6922 433.57 91.1756 433.217 90.7378C432.864 90.3 432.416 89.9532 431.909 89.725C431.799 89.6865 431.709 89.6048 431.658 89.4979C431.607 89.3911 431.599 89.2679 431.637 89.1554C431.677 89.0448 431.757 88.9542 431.86 88.9023C431.964 88.8505 432.083 88.8413 432.192 88.8766C432.838 89.1477 433.411 89.5747 433.862 90.1211C434.312 90.6676 434.628 91.3175 434.781 92.0157C434.799 92.0722 434.806 92.1318 434.8 92.191C434.795 92.2502 434.778 92.3076 434.75 92.3598C434.723 92.412 434.685 92.4578 434.639 92.4945C434.594 92.5312 434.542 92.558 434.486 92.5732H434.261Z" fill="#263238"/>
<path d="M422.252 103.033C423.179 103.61 424.227 103.952 425.309 104.028C426.391 104.104 427.475 103.912 428.469 103.469C428.516 103.437 428.549 103.39 428.565 103.335C428.58 103.28 428.576 103.222 428.553 103.169C428.531 103.117 428.491 103.075 428.441 103.05C428.391 103.025 428.334 103.019 428.28 103.033C427.351 103.422 426.347 103.586 425.346 103.51C424.345 103.434 423.375 103.121 422.512 102.596C422.463 102.563 422.404 102.551 422.347 102.563C422.289 102.574 422.238 102.608 422.205 102.657C422.172 102.709 422.16 102.772 422.171 102.833C422.182 102.893 422.215 102.948 422.264 102.984L422.252 103.033Z" fill="#263238"/>
<path d="M420.751 86.5486C420.663 86.5405 420.578 86.5114 420.502 86.4637C420.421 86.3777 420.375 86.2625 420.375 86.1425C420.375 86.0226 420.421 85.9073 420.502 85.8214C421.015 85.3326 421.636 84.979 422.311 84.7911C422.986 84.6032 423.696 84.5866 424.379 84.7427C424.49 84.7739 424.585 84.8487 424.642 84.9507C424.7 85.0528 424.716 85.174 424.687 85.2881C424.651 85.4004 424.575 85.4945 424.474 85.5509C424.373 85.6073 424.254 85.6217 424.143 85.5911C423.599 85.4871 423.039 85.5152 422.507 85.673C421.976 85.8309 421.487 86.1141 421.082 86.5001C420.98 86.555 420.863 86.5721 420.751 86.5486Z" fill="#263238"/>
<path d="M442.877 83.7031L440.679 87.2422C441.158 87.8475 441.396 88.616 441.345 89.3936C441.295 90.1712 440.96 90.9006 440.407 91.4357C437.759 94.0173 437.227 99.7743 438.67 102.877C438.67 102.877 439.391 101.544 440.36 102.416C441.329 103.289 437.7 110.27 433.93 112.585C433.93 112.585 438.658 111.143 444.036 104.586C448.988 98.5259 451.896 92.8659 451.754 89.5086L442.877 83.7031Z" fill="#263238"/>
<path d="M445.431 105.978C444.565 106.753 443.559 107.344 442.47 107.719C441.38 108.093 440.229 108.243 439.083 108.159C436.022 107.929 435.537 104.863 437.251 102.451C438.8 100.318 442.275 97.7968 444.922 99.2512C447.57 100.706 447.558 104.026 445.431 105.978Z" fill="#E4897B"/>
<path d="M437.204 82.8789C437.204 82.8789 438.67 81.473 438.788 84.6363C438.906 87.7996 440.762 89.9448 444.97 92.1749C449.178 94.405 450.513 94.5989 450.513 94.5989C450.513 94.5989 457.357 87.9693 450.206 80.4185C450.206 80.4185 450.537 76.528 446.033 73.9949C438.291 69.6317 427.665 71.4376 423.93 75.8493C423.126 76.7115 422.574 77.7872 422.336 78.9546C422.098 80.122 422.183 81.3345 422.583 82.4547C422.583 82.4547 434.804 75.8008 437.204 82.8789Z" fill="#263238"/>
<path d="M434.544 121.468L420.845 125.929L420.632 121.008L415.644 122.159C414.775 122.361 413.998 122.857 413.439 123.567C412.879 124.278 412.569 125.161 412.559 126.074L412.488 131.431L417.937 129.177C417.937 129.177 409.817 148.714 408.753 176.445C408.753 176.445 411.85 146.557 420.266 129.928L422.263 133.697L438.811 127.856L434.544 121.468Z" fill="#EB434A"/>
<path opacity="0.6" d="M434.544 121.468L420.845 125.929L420.632 121.008L415.644 122.159C414.775 122.361 413.998 122.857 413.439 123.567C412.879 124.278 412.569 125.161 412.559 126.074L412.488 131.431L417.937 129.177C417.937 129.177 409.817 148.714 408.753 176.445C408.753 176.445 411.85 146.557 420.266 129.928L422.263 133.697L438.811 127.856L434.544 121.468Z" fill="black"/>
<path d="M406.874 211.336H397.689V218.123H406.874V211.336Z" fill="#EB434A"/>
<path opacity="0.4" d="M406.874 211.336H397.689V218.123H406.874V211.336Z" fill="black"/>
<path d="M408.753 122.45C408.753 122.45 384.262 188.819 378.648 220.5L374.972 218.452C374.972 218.452 389.085 145.829 399.486 121.492L408.753 122.45Z" fill="#EB434A"/>
<path d="M442.842 129.078C442.842 129.078 432.464 182.503 437.204 226.293L442.842 225.008C442.842 225.008 449.662 155.124 453.279 132.532L442.842 129.078Z" fill="#EB434A"/>
<path d="M405.704 130.955L406.662 122.228L411.153 120.289C411.212 122.397 410.742 124.484 409.788 126.352C408.834 128.22 407.428 129.805 405.704 130.955Z" fill="#EB434A"/>
<path opacity="0.2" d="M405.704 130.955L406.662 122.228L411.153 120.289C411.212 122.397 410.742 124.484 409.788 126.352C408.834 128.22 407.428 129.805 405.704 130.955Z" fill="black"/>
<path d="M441.365 137.67C439.975 133.965 439.975 129.862 441.365 126.156L445.561 129.974L441.365 137.67Z" fill="#EB434A"/>
<path opacity="0.2" d="M441.365 137.67C439.975 133.965 439.975 129.862 441.365 126.156L445.561 129.974L441.365 137.67Z" fill="black"/>
<path d="M508.594 285.14L502.403 256.716C502.234 255.939 501.482 255.449 500.724 255.623L458.664 265.255C457.906 265.429 457.429 266.2 457.598 266.977L463.789 295.401C463.959 296.179 464.711 296.668 465.469 296.494L507.528 286.862C508.286 286.689 508.764 285.918 508.594 285.14Z" fill="#263238"/>
<path opacity="0.2" d="M508.594 285.14L502.403 256.716C502.234 255.939 501.482 255.449 500.724 255.623L458.664 265.255C457.906 265.429 457.429 266.2 457.598 266.977L463.789 295.401C463.959 296.179 464.711 296.668 465.469 296.494L507.528 286.862C508.286 286.689 508.764 285.918 508.594 285.14Z" fill="black"/>
<path d="M489.318 307.799L471.896 291.34C474.26 266.142 499.259 258.07 499.259 258.07L505.169 285.292C505.169 285.292 484.791 287.183 489.318 307.799Z" fill="#EB434A"/>
<path opacity="0.7" d="M489.318 307.799L471.896 291.34C474.26 266.142 499.259 258.07 499.259 258.07L505.169 285.292C505.169 285.292 484.791 287.183 489.318 307.799Z" fill="black"/>
<path d="M500.453 277.123L498.361 267.512C498.316 267.31 498.311 267.101 498.347 266.898C498.382 266.694 498.457 266.5 498.568 266.327C498.678 266.154 498.821 266.006 498.989 265.89C499.156 265.775 499.345 265.696 499.543 265.657L502.131 265.063C502.328 265.019 502.531 265.016 502.729 265.053C502.927 265.09 503.115 265.167 503.284 265.28C503.452 265.393 503.597 265.539 503.71 265.71C503.822 265.881 503.901 266.073 503.94 266.275L506.032 275.887C506.075 276.088 506.079 276.296 506.042 276.499C506.006 276.702 505.931 276.896 505.821 277.068C505.711 277.241 505.568 277.389 505.401 277.505C505.235 277.62 505.047 277.701 504.85 277.741L502.261 278.335C502.065 278.379 501.862 278.383 501.664 278.346C501.466 278.308 501.277 278.231 501.109 278.118C500.941 278.005 500.796 277.859 500.683 277.688C500.571 277.517 500.492 277.325 500.453 277.123ZM502.817 266.482C502.792 266.369 502.724 266.272 502.629 266.21C502.533 266.149 502.418 266.129 502.309 266.154L499.72 266.748C499.665 266.76 499.612 266.782 499.566 266.815C499.519 266.847 499.479 266.889 499.448 266.938C499.417 266.986 499.396 267.04 499.386 267.097C499.376 267.154 499.377 267.213 499.389 267.269L501.481 276.88C501.509 276.991 501.578 277.087 501.672 277.148C501.767 277.208 501.88 277.23 501.99 277.208L504.59 276.614C504.7 276.588 504.795 276.518 504.854 276.421C504.914 276.323 504.934 276.205 504.909 276.093L502.817 266.482Z" fill="#EB434A"/>
<g opacity="0.4">
<path d="M500.453 277.123L498.361 267.512C498.316 267.31 498.311 267.101 498.347 266.898C498.382 266.694 498.457 266.5 498.568 266.327C498.678 266.154 498.821 266.006 498.989 265.89C499.156 265.775 499.345 265.696 499.543 265.657L502.131 265.063C502.328 265.019 502.531 265.016 502.729 265.053C502.927 265.09 503.115 265.167 503.284 265.28C503.452 265.393 503.597 265.539 503.71 265.71C503.822 265.881 503.901 266.073 503.94 266.275L506.032 275.887C506.075 276.088 506.079 276.296 506.042 276.499C506.006 276.702 505.931 276.896 505.821 277.068C505.711 277.241 505.568 277.389 505.401 277.505C505.235 277.62 505.047 277.701 504.85 277.741L502.261 278.335C502.065 278.379 501.862 278.383 501.664 278.346C501.466 278.308 501.277 278.231 501.109 278.118C500.941 278.005 500.796 277.859 500.683 277.688C500.571 277.517 500.492 277.325 500.453 277.123ZM502.817 266.482C502.792 266.369 502.724 266.272 502.629 266.21C502.533 266.149 502.418 266.129 502.309 266.154L499.72 266.748C499.665 266.76 499.612 266.782 499.566 266.815C499.519 266.847 499.479 266.889 499.448 266.938C499.417 266.986 499.396 267.04 499.386 267.097C499.376 267.154 499.377 267.213 499.389 267.269L501.481 276.88C501.509 276.991 501.578 277.087 501.672 277.148C501.767 277.208 501.88 277.23 501.99 277.208L504.59 276.614C504.7 276.588 504.795 276.518 504.854 276.421C504.914 276.323 504.934 276.205 504.909 276.093L502.817 266.482Z" fill="black"/>
</g>
<path d="M107.308 215.273H113.218C113.218 215.273 116.681 216.873 118.466 216.485C120.25 216.097 131.468 209.346 130.841 208.195C130.215 207.043 106.291 209.492 106.291 209.492L107.308 215.273Z" fill="#EBB376"/>
<path d="M114.305 283.048C114.305 283.048 113.714 292.078 112.497 306.076C112.059 311.191 111.539 316.984 110.925 323.214C108.277 350.266 104.022 386.129 98.0055 415.108L92.0955 415.011C92.0955 415.011 87.7103 371.258 95.0505 342.061L94.3058 321.323L93.7858 307.034L92.9229 283L114.305 283.048Z" fill="#EBB376"/>
<path d="M87.8996 287.288C87.8996 287.288 86.0321 295.202 82.8289 307.637C81.8833 311.273 80.8313 315.345 79.6729 319.697C72.5809 346.445 61.5883 384.732 49.922 414.633L44.0947 413.505C44.0947 413.505 47.0379 369.619 59.1179 342.131L62.3212 317.721L63.5032 308.619L66.8009 283.555L87.8996 287.288Z" fill="#EBB376"/>
<path opacity="0.2" d="M63.5141 308.622L82.828 307.641C81.8824 311.277 80.8304 315.349 79.6721 319.7L62.3203 317.724L63.5141 308.622Z" fill="black"/>
<path opacity="0.2" d="M112.496 306.125C112.059 311.24 111.539 317.033 110.924 323.263L94.2935 321.372L93.7734 307.082L112.496 306.125Z" fill="black"/>
<path d="M60.3941 175.508C56.5408 177.059 57.9001 213.795 64.6493 223.733C71.3985 233.672 110.936 218.449 110.936 218.449L109.991 209.553L74.7436 209.662L60.3941 175.508Z" fill="#263238"/>
<path d="M151.999 204.755L109.991 207.337L114.991 175.825C115.054 175.496 115.221 175.199 115.468 174.979C115.714 174.76 116.025 174.631 116.35 174.613L156.172 172.189C156.294 172.182 156.416 172.203 156.529 172.251C156.642 172.298 156.743 172.371 156.824 172.464C156.906 172.557 156.966 172.668 157.001 172.788C157.035 172.908 157.043 173.035 157.023 173.158L151.999 204.755Z" fill="#263238"/>
<path opacity="0.2" d="M151.999 204.755L109.991 207.337L114.991 175.825C115.054 175.496 115.221 175.199 115.468 174.979C115.714 174.76 116.025 174.631 116.35 174.613L156.172 172.189C156.294 172.182 156.416 172.203 156.529 172.251C156.642 172.298 156.743 172.371 156.824 172.464C156.906 172.557 156.966 172.668 157.001 172.788C157.035 172.908 157.043 173.035 157.023 173.158L151.999 204.755Z" fill="black"/>
<path d="M151.455 204.791L109.447 207.373L114.447 175.861C114.508 175.532 114.675 175.233 114.921 175.013C115.168 174.793 115.48 174.665 115.806 174.649L155.628 172.225C155.749 172.216 155.871 172.235 155.984 172.281C156.097 172.328 156.198 172.399 156.28 172.492C156.362 172.584 156.422 172.694 156.457 172.814C156.491 172.933 156.499 173.059 156.479 173.182L151.455 204.791Z" fill="#263238"/>
<path d="M150.285 203.832L110.937 206.256L115.795 175.592L155.143 173.168L150.285 203.832Z" fill="#EB434A"/>
<path opacity="0.4" d="M150.285 203.832L110.937 206.256L115.795 175.592L155.143 173.168L150.285 203.832Z" fill="black"/>
<path d="M151.455 204.789L151.538 206.34C151.56 206.754 151.423 207.161 151.155 207.472C150.888 207.783 150.511 207.973 150.108 208.001L89.4473 211.758C89.247 211.771 89.0461 211.744 88.8562 211.677C88.6663 211.61 88.4911 211.506 88.3406 211.37C88.1902 211.233 88.0674 211.068 87.9795 210.883C87.8915 210.698 87.84 210.497 87.828 210.292L87.7334 208.752L151.455 204.789Z" fill="#263238"/>
<path opacity="0.2" d="M151.455 204.789L151.538 206.34C151.56 206.754 151.423 207.161 151.155 207.472C150.888 207.783 150.511 207.973 150.108 208.001L89.4473 211.758C89.247 211.771 89.0461 211.744 88.8562 211.677C88.6663 211.61 88.4911 211.506 88.3406 211.37C88.1902 211.233 88.0674 211.068 87.9795 210.883C87.8915 210.698 87.84 210.497 87.828 210.292L87.7334 208.752L151.455 204.789Z" fill="black"/>
<path opacity="0.2" d="M151.456 204.789L151.538 206.34C151.561 206.754 151.424 207.161 151.156 207.472C150.888 207.783 150.512 207.973 150.108 208.001L124.837 209.552C124.436 209.582 124.04 209.449 123.735 209.181C123.429 208.913 123.239 208.533 123.206 208.122L123.111 206.571L151.456 204.789Z" fill="black"/>
<g opacity="0.4">
<path d="M117.603 199.932L115.995 200.029L116.669 196.077L118.276 195.98L117.603 199.932Z" fill="black"/>
<path d="M120.664 199.735L119.045 199.832L120.132 193.433L121.752 193.336L120.664 199.735Z" fill="black"/>
<path d="M123.714 199.543L122.106 199.64L123.608 190.792L125.215 190.695L123.714 199.543Z" fill="black"/>
<path d="M126.775 199.349L125.155 199.446L126.869 189.374L128.489 189.277L126.775 199.349Z" fill="black"/>
<path d="M129.824 199.155L128.217 199.252L130.132 187.956L131.751 187.859L129.824 199.155Z" fill="black"/>
<path d="M132.886 198.959L131.267 199.056L133.607 185.312L135.214 185.203L132.886 198.959Z" fill="black"/>
<path d="M135.936 198.766L134.328 198.863L136.456 186.343L138.063 186.234L135.936 198.766Z" fill="black"/>
<path d="M138.997 198.574L137.378 198.671L139.305 187.375L140.912 187.266L138.997 198.574Z" fill="black"/>
<path d="M142.046 198.381L140.427 198.478L142.767 184.734L144.386 184.625L142.046 198.381Z" fill="black"/>
<path d="M145.108 198.186L143.489 198.283L146.444 180.855L148.063 180.758L145.108 198.186Z" fill="black"/>
</g>
<path d="M115.452 316.79C122.638 249.948 110.215 227.211 110.215 227.211L75.1573 221.066C73.7683 227.703 72.7854 234.423 72.2141 241.186C72.2141 241.186 68.8454 253.548 67.7698 256.942C61.8985 276.284 59.2804 296.51 60.0277 316.754L115.452 316.79Z" fill="#EB434A"/>
<g opacity="0.2">
<path d="M115.452 316.787H60.0277C60.0277 316.787 59.7441 312.509 59.945 305.492C60.3598 289.039 62.9931 272.724 67.7698 257.012C68.8455 253.582 72.2142 241.256 72.2142 241.256C72.3008 240.448 72.3836 239.64 72.4624 238.832C73.0061 232.886 73.9061 226.981 75.1573 221.148L110.204 227.208C110.204 227.208 122.638 249.946 115.452 316.787Z" fill="black"/>
</g>
<path opacity="0.2" d="M93.4077 280.311C93.4077 280.311 79.2237 298.782 59.9453 305.496C60.3601 289.043 62.9934 272.729 67.7701 257.016C68.8458 253.586 72.2145 241.26 72.2145 241.26C72.3011 240.452 72.3839 239.644 72.4627 238.836L108.608 236C108.608 236 95.5117 249.465 81.4223 252.968C81.4814 252.968 82.0605 272.954 93.4077 280.311Z" fill="black"/>
<path d="M93.8096 143.886C93.8096 144.65 94.1996 145.268 94.6961 145.268C95.1925 145.268 95.5826 144.638 95.5826 143.862C95.5826 143.086 95.1689 142.48 94.6843 142.48C94.1996 142.48 93.8096 143.135 93.8096 143.886Z" fill="#263238"/>
<path d="M92.2611 142.067C92.3414 142.079 92.4234 142.068 92.4983 142.036C92.5732 142.004 92.6383 141.952 92.6866 141.885C93.0058 141.425 93.4252 141.047 93.9114 140.782C94.3977 140.517 94.9374 140.372 95.4879 140.358C95.6052 140.365 95.7203 140.324 95.8087 140.245C95.8971 140.165 95.9516 140.054 95.9607 139.934C95.9639 139.875 95.9558 139.816 95.9367 139.76C95.9176 139.704 95.888 139.653 95.8496 139.609C95.8111 139.565 95.7646 139.53 95.7127 139.504C95.6608 139.479 95.6045 139.464 95.547 139.461C94.8528 139.462 94.1689 139.633 93.5522 139.96C92.9354 140.287 92.4036 140.76 92.001 141.34C91.9653 141.386 91.9388 141.439 91.923 141.495C91.9073 141.552 91.9025 141.611 91.9091 141.67C91.9157 141.728 91.9335 141.785 91.9614 141.836C91.9894 141.888 92.0269 141.933 92.072 141.97L92.2611 142.067Z" fill="#263238"/>
<path d="M94.3886 145.801C94.9065 147.463 95.6422 149.045 96.5753 150.503C96.2038 150.742 95.7857 150.894 95.3506 150.948C94.9156 151.003 94.4741 150.958 94.0576 150.818L94.3886 145.801Z" fill="#DE726F"/>
<path d="M76.517 159.243C76.6035 159.326 76.6987 159.399 76.8007 159.461C78.1491 160.515 79.6877 161.285 81.3278 161.727C86.1149 162.866 89.389 162.188 91.5284 159.97C94.5189 156.637 95.2636 150.734 94.838 143.608C94.7683 140.771 94.2576 137.965 93.3251 135.293C93.3251 135.293 93.3251 135.184 93.3251 135.16C93.3251 135.136 93.2542 134.954 93.2069 134.857C92.621 133.35 91.6755 132.017 90.4571 130.982C89.2387 129.946 87.7863 129.241 86.2331 128.93C84.8865 128.622 83.5113 128.463 82.1315 128.458C68.574 128.312 66.1391 151.316 76.517 159.243Z" fill="#EBB376"/>
<path opacity="0.2" d="M77.0012 160.042C78.3847 160.997 79.9397 161.66 81.5756 161.993C86.3863 162.999 89.6368 162.078 91.7171 159.763C88.8747 160.575 85.8508 160.404 83.1122 159.279C82.1041 158.921 81.0296 158.803 79.9706 158.936C78.9116 159.068 77.896 159.446 77.0012 160.042Z" fill="black"/>
<path d="M75.4293 172.005C74.59 175.956 79.5899 177.568 79.5899 177.568C87.7575 173.992 89.2705 169.532 89.2705 169.532C82.4503 165.896 84.4243 155.582 84.4243 155.582L83.0413 156.285L73.3135 158.236C73.3135 158.236 76.0084 163.545 76.363 164.757C78.207 171.12 75.4293 172.005 75.4293 172.005Z" fill="#EBB376"/>
<path d="M93.3364 135.196C93.3364 135.196 94.0811 144.892 85.0624 149.122C85.0624 149.122 81.1973 159.242 75.5119 159.376C67.7461 159.57 60.9142 148.262 63.5973 136.736C67.1079 121.78 89.1994 120.567 93.3364 135.196Z" fill="#263238"/>
<path d="M89.6485 146.312C89.6485 144.797 88.4665 142.24 86.1025 142.591C83.7385 142.943 82.3911 148.979 88.2538 150.324C89.1403 150.53 89.6485 149.5 89.6485 146.312Z" fill="#EBB376"/>
<path d="M76.7998 124.846C76.7998 124.846 85.8657 122.495 90.8656 126.24C96.7756 130.603 98.9386 135.111 92.0476 142.117C92.0476 142.117 76.8352 137.063 71.7763 138.129C68.8193 138.741 65.9173 139.604 63.1004 140.711C62.0011 130.409 71.7408 122.737 76.7998 124.846Z" fill="#263238"/>
<path d="M94.9556 131.078C94.9556 131.078 99.1517 134.011 97.2251 138.532C95.2984 143.053 89.6484 143.162 89.6484 143.162" stroke="#263238" stroke-width="0.5" stroke-linecap="round" stroke-linejoin="round"/>
<path d="M89.6486 143.984C89.6486 143.984 87.2846 155.207 90.996 164.782C90.996 164.782 69.4836 172.43 62.0016 168.273C54.5195 164.115 61.3751 150.165 61.6943 142.118C62.0134 134.07 65.4176 122.18 76.8002 124.847C88.1829 127.513 89.6486 143.984 89.6486 143.984Z" fill="#263238"/>
<path d="M109.565 435.2C108.464 434.288 107.211 433.589 105.865 433.14C105.865 433.14 101.835 429.031 99.9552 416.693L94.6717 415.275C93.7755 415.056 92.8355 415.123 91.9777 415.467C91.1199 415.812 90.3854 416.417 89.8727 417.202C89.7272 417.421 89.6156 417.663 89.5418 417.917C89.2693 419.24 89.0798 420.58 88.9744 421.929C88.6814 426.44 88.6577 430.965 88.9035 435.479H89.8491L90.2273 426.995C90.3692 424.098 92.5913 427.492 93.1469 430.631C93.7024 433.77 95.0735 437.054 101.255 437.2C108.395 437.297 111.385 437.006 109.565 435.2Z" fill="#263238"/>
<path d="M89.6249 417.301C89.2822 414.416 89.1758 409.398 89.1758 409.398L100.901 410.732C100.901 410.732 99.4828 416.44 100.653 420.731C94.743 419.131 89.6249 417.301 89.6249 417.301Z" fill="#263238"/>
<path d="M61.8598 435.2C60.7594 434.288 59.5055 433.589 58.1601 433.14C58.1601 433.14 54.1295 429.031 52.2501 416.693L46.9666 415.275C46.0705 415.056 45.1304 415.123 44.2726 415.467C43.4148 415.812 42.6803 416.417 42.1677 417.202C42.0221 417.421 41.9105 417.663 41.8367 417.917C41.5642 419.24 41.3747 420.58 41.2693 421.929C40.9763 426.44 40.9526 430.965 41.1984 435.479H42.144L42.5223 426.995C42.6641 424.098 44.8863 427.492 45.4418 430.631C45.9973 433.77 47.3685 437.054 53.5503 437.2C60.6896 437.297 63.6801 437.006 61.8598 435.2Z" fill="#263238"/>
<path d="M41.9317 417.301C41.5771 414.416 41.4707 409.398 41.4707 409.398L53.1961 410.732C53.1961 410.732 51.7777 416.44 52.9479 420.731C47.0379 419.131 41.9317 417.301 41.9317 417.301Z" fill="#263238"/>
<path d="M60.3943 175.508C60.3943 175.508 67.8764 172.502 74.5783 170.66C79.8091 169.328 85.1258 168.381 90.4881 167.824C95.5495 167.243 100.645 167.036 105.736 167.206C105.594 169.727 105.488 172.054 105.393 174.333C105.263 177.278 105.168 180.005 105.109 182.538C104.991 187.289 105.003 191.361 105.109 194.973C105.291 202.852 106.222 210.695 107.887 218.389L115.452 237.211L70.0986 243.138L72.6635 224.606C65.146 202.148 61.9191 190.319 60.7017 183.604C59.3778 176.102 60.3943 175.508 60.3943 175.508Z" fill="#263238"/>
<path opacity="0.1" d="M60.3943 175.508C60.3943 175.508 67.8764 172.502 74.5783 170.66C79.8091 169.328 85.1258 168.381 90.4881 167.824C95.5495 167.243 100.645 167.036 105.736 167.206C105.594 169.727 105.488 172.054 105.393 174.333C105.263 177.278 105.168 180.005 105.109 182.538C104.991 187.289 105.003 191.361 105.109 194.973C105.291 202.852 106.222 210.695 107.887 218.389L115.452 237.211L70.0986 243.138L72.6635 224.606C65.146 202.148 61.9191 190.319 60.7017 183.604C59.3778 176.102 60.3943 175.508 60.3943 175.508Z" fill="black"/>
<path d="M150.392 216.605L160.675 219.745C161.898 219.361 163.152 219.093 164.422 218.945C165.51 218.945 174.859 222.581 176.112 223.793C177.365 225.005 170.202 231.465 169.812 231.78C169.422 232.095 159.742 228.144 159.281 227.95C158.82 227.756 158.654 226.265 158.654 226.265L147.271 223.308L150.392 216.605Z" fill="#EBB376"/>
<path d="M105.748 167.156C111.41 170.986 125.641 207.298 127.509 208.255C129.376 209.213 157.059 217.357 157.059 217.357L153.607 226.205C153.607 226.205 123.301 220.666 120.263 218.497C117.225 216.327 105.121 193.772 105.121 193.772C103.616 188.873 102.758 183.79 102.568 178.658C102.463 174.582 103.573 170.57 105.748 167.156Z" fill="#263238"/>
<path d="M283.438 391.211H275.022V437.194H283.438V391.211Z" fill="#EB434A"/>
<path d="M283.437 391.211H278.567V437.194H283.437V391.211Z" fill="#EB434A"/>
<path opacity="0.2" d="M283.437 391.211H278.567V437.194H283.437V391.211Z" fill="black"/>
<path opacity="0.2" d="M283.438 391.211V410.155L278.568 408.458L275.022 407.221V391.211H283.438Z" fill="black"/>
<path d="M318.898 391.211H310.482V437.194H318.898V391.211Z" fill="#EB434A"/>
<path d="M210.153 391.211H201.737V437.194H210.153V391.211Z" fill="#EB434A"/>
<path opacity="0.2" d="M210.153 391.211H201.737V437.194H210.153V391.211Z" fill="black"/>
<path d="M320.245 369.422V437.197H313.956V395.371H236.027V437.197H224.491V395.371H205.472V437.197H201.737V369.422H320.245Z" fill="#EB434A"/>
<path d="M227.517 369.419H225.425V358.766H229.609L227.517 369.419Z" fill="#263238"/>
<path opacity="0.2" d="M320.245 369.422V437.197H313.957V395.371H236.028V437.197H229.609V369.422H320.245Z" fill="black"/>
<path d="M295.836 349.214H295.907L275.53 344.16C275.074 344.015 274.6 343.937 274.123 343.93H228.226C226.959 343.927 225.738 344.411 224.801 345.286C223.865 346.161 223.282 347.363 223.167 348.657L222.245 358.692C222.14 359.862 222.425 361.034 223.054 362.016C223.684 362.998 224.619 363.732 225.708 364.097L226.027 364.182L226.417 364.279L246.31 369.261C246.726 369.378 247.156 369.439 247.587 369.442H293.413C294.679 369.442 295.899 368.957 296.835 368.083C297.771 367.209 298.354 366.008 298.472 364.716L299.394 354.68C299.503 353.489 299.209 352.295 298.561 351.3C297.913 350.304 296.951 349.568 295.836 349.214Z" fill="#263238"/>
<path opacity="0.2" d="M295.836 349.214H295.907L275.53 344.16C275.074 344.015 274.6 343.937 274.123 343.93H228.226C226.959 343.927 225.738 344.411 224.801 345.286C223.865 346.161 223.282 347.363 223.167 348.657L222.245 358.692C222.14 359.862 222.425 361.034 223.054 362.016C223.684 362.998 224.619 363.732 225.708 364.097L226.027 364.182L226.417 364.279L246.31 369.261C246.726 369.378 247.156 369.439 247.587 369.442H293.413C294.679 369.442 295.899 368.957 296.835 368.083C297.771 367.209 298.354 366.008 298.472 364.716L299.394 354.68C299.503 353.489 299.209 352.295 298.561 351.3C297.913 350.304 296.951 349.568 295.836 349.214Z" fill="black"/>
<path opacity="0.1" d="M293.413 369.419H247.54C246.832 369.419 246.132 369.268 245.485 368.974C244.838 368.681 244.257 368.253 243.78 367.717C243.303 367.181 242.94 366.55 242.714 365.862C242.489 365.174 242.405 364.446 242.469 363.723L243.391 353.688C243.509 352.395 244.093 351.195 245.028 350.32C245.964 349.446 247.184 348.961 248.45 348.961H294.347C295.055 348.961 295.755 349.113 296.402 349.406C297.049 349.699 297.63 350.127 298.107 350.663C298.584 351.199 298.947 351.831 299.173 352.519C299.398 353.206 299.482 353.935 299.418 354.657L298.496 364.693C298.378 365.989 297.791 367.193 296.85 368.068C295.909 368.943 294.683 369.425 293.413 369.419Z" fill="black"/>
<g opacity="0.1">
<path d="M280.814 360.013C280.631 361.431 279.955 362.733 278.91 363.679C277.866 364.626 276.522 365.153 275.128 365.164C274.48 365.188 273.834 365.068 273.236 364.812C272.637 364.556 272.1 364.17 271.661 363.68C271.222 363.191 270.891 362.609 270.692 361.976C270.493 361.344 270.429 360.674 270.507 360.013C270.694 358.599 271.372 357.302 272.416 356.358C273.46 355.414 274.8 354.888 276.192 354.875C276.84 354.849 277.485 354.967 278.084 355.222C278.682 355.477 279.22 355.862 279.659 356.351C280.099 356.839 280.429 357.42 280.629 358.052C280.828 358.684 280.891 359.354 280.814 360.013Z" fill="black"/>
<path d="M294.147 361.866H286.664C286.567 361.871 286.469 361.853 286.378 361.815C286.288 361.776 286.207 361.718 286.14 361.644C286.074 361.571 286.024 361.483 285.994 361.387C285.964 361.292 285.955 361.19 285.967 361.091L286.192 358.909C286.22 358.695 286.323 358.498 286.482 358.356C286.64 358.213 286.844 358.134 287.055 358.133H294.596C294.694 358.129 294.791 358.147 294.882 358.185C294.972 358.223 295.053 358.282 295.12 358.355C295.186 358.429 295.236 358.517 295.266 358.613C295.296 358.708 295.305 358.809 295.293 358.909L295.068 361.091C295.039 361.316 294.928 361.521 294.756 361.665C294.585 361.809 294.367 361.881 294.147 361.866Z" fill="black"/>
<path d="M253.958 366.22H251.299L251.571 363.578H254.23L253.958 366.22Z" fill="black"/>
<path d="M257.611 366.22H254.963L255.235 363.578H257.882L257.611 366.22Z" fill="black"/>
</g>
<path d="M154.446 289.607C154.166 289.606 153.896 289.507 153.678 289.328L150.782 286.82C150.542 286.612 150.392 286.316 150.366 285.995C150.339 285.675 150.438 285.357 150.64 285.111C150.842 284.865 151.131 284.711 151.444 284.684C151.756 284.657 152.067 284.758 152.306 284.965L155.202 287.474C155.385 287.634 155.516 287.848 155.577 288.087C155.639 288.325 155.627 288.578 155.545 288.809C155.463 289.041 155.314 289.242 155.117 289.385C154.921 289.527 154.686 289.605 154.446 289.607Z" fill="#EB434A"/>
<path d="M169.304 302.384C169.025 302.382 168.754 302.284 168.536 302.105C165.384 299.382 162.232 296.671 159.08 293.972C158.948 293.875 158.837 293.751 158.754 293.608C158.671 293.465 158.618 293.305 158.598 293.14C158.578 292.975 158.591 292.807 158.637 292.647C158.683 292.488 158.76 292.339 158.864 292.212C158.968 292.084 159.097 291.98 159.242 291.905C159.388 291.831 159.546 291.788 159.709 291.779C159.871 291.77 160.033 291.796 160.185 291.854C160.337 291.912 160.476 292.002 160.593 292.118C163.745 294.817 166.897 297.528 170.049 300.251C170.231 300.411 170.362 300.625 170.424 300.863C170.485 301.102 170.473 301.354 170.391 301.586C170.309 301.818 170.16 302.019 169.963 302.161C169.767 302.304 169.533 302.381 169.292 302.384H169.304Z" fill="#EB434A"/>
<path d="M181.123 312.673C180.842 312.673 180.569 312.57 180.355 312.382L174.741 307.534C174.622 307.431 174.524 307.305 174.453 307.162C174.382 307.02 174.339 306.865 174.326 306.706C174.314 306.547 174.332 306.386 174.379 306.234C174.427 306.082 174.504 305.941 174.605 305.819C174.705 305.698 174.829 305.598 174.967 305.525C175.106 305.452 175.257 305.408 175.413 305.395C175.568 305.382 175.724 305.4 175.873 305.449C176.021 305.498 176.158 305.577 176.277 305.68L181.88 310.528C181.999 310.631 182.097 310.756 182.168 310.898C182.239 311.039 182.283 311.194 182.296 311.352C182.309 311.511 182.292 311.671 182.245 311.823C182.198 311.975 182.122 312.115 182.022 312.237C181.912 312.372 181.775 312.481 181.619 312.557C181.464 312.632 181.295 312.672 181.123 312.673Z" fill="#EB434A"/>
<path d="M206.643 334.913C206.367 334.913 206.099 334.815 205.886 334.634C199.307 328.978 192.751 323.274 186.218 317.521L185.934 317.266C185.815 317.163 185.718 317.038 185.646 316.896C185.575 316.755 185.531 316.6 185.518 316.442C185.505 316.283 185.522 316.123 185.569 315.971C185.616 315.82 185.692 315.679 185.792 315.557C185.893 315.436 186.017 315.337 186.155 315.265C186.293 315.192 186.444 315.149 186.599 315.136C186.754 315.124 186.909 315.143 187.057 315.192C187.204 315.242 187.341 315.32 187.459 315.424L187.755 315.678C194.287 321.383 200.839 327.083 207.411 332.78C207.595 332.941 207.726 333.156 207.787 333.395C207.848 333.635 207.836 333.888 207.752 334.121C207.668 334.353 207.517 334.554 207.319 334.695C207.12 334.837 206.885 334.913 206.643 334.913Z" fill="#EB434A"/>
<path d="M218.569 345.081C218.293 345.082 218.026 344.983 217.813 344.803L212.151 339.955C212.032 339.852 211.934 339.726 211.863 339.585C211.791 339.444 211.748 339.289 211.735 339.13C211.722 338.972 211.739 338.812 211.786 338.66C211.833 338.508 211.909 338.367 212.009 338.246C212.211 338.003 212.498 337.852 212.808 337.825C213.117 337.798 213.425 337.897 213.664 338.1L219.326 342.948C219.446 343.05 219.544 343.175 219.617 343.316C219.69 343.457 219.734 343.611 219.748 343.77C219.763 343.929 219.746 344.089 219.7 344.241C219.654 344.393 219.579 344.535 219.48 344.657C219.367 344.792 219.228 344.9 219.07 344.973C218.913 345.046 218.742 345.083 218.569 345.081Z" fill="#EB434A"/>
<path d="M203.333 270.122C203.107 270.122 202.886 270.056 202.695 269.932C202.505 269.807 202.353 269.629 202.258 269.419L200.662 265.783C200.533 265.492 200.522 265.16 200.631 264.861C200.739 264.561 200.959 264.318 201.241 264.183C201.382 264.116 201.535 264.078 201.691 264.071C201.846 264.065 202.002 264.09 202.148 264.145C202.294 264.2 202.428 264.284 202.542 264.393C202.656 264.501 202.748 264.632 202.813 264.777L204.409 268.413C204.538 268.704 204.549 269.035 204.441 269.335C204.332 269.635 204.113 269.878 203.83 270.013C203.675 270.089 203.505 270.127 203.333 270.122Z" fill="#EB434A"/>
<path d="M213.889 293.267C213.662 293.267 213.441 293.201 213.25 293.077C213.06 292.952 212.908 292.774 212.813 292.564C210.307 286.916 208.085 282.019 205.91 277.608C205.841 277.465 205.8 277.309 205.79 277.149C205.779 276.99 205.8 276.83 205.85 276.678C205.9 276.527 205.978 276.387 206.081 276.267C206.183 276.147 206.308 276.048 206.448 275.978C206.588 275.907 206.739 275.865 206.895 275.854C207.05 275.844 207.207 275.865 207.354 275.916C207.502 275.967 207.638 276.047 207.755 276.153C207.873 276.258 207.969 276.386 208.038 276.529C210.189 280.977 212.447 285.886 214.964 291.558C215.092 291.85 215.102 292.183 214.991 292.483C214.88 292.783 214.658 293.025 214.373 293.158C214.221 293.229 214.056 293.266 213.889 293.267Z" fill="#EB434A"/>
<path d="M220.295 308.046C220.065 308.048 219.84 307.981 219.647 307.854C219.454 307.727 219.301 307.546 219.207 307.331C218.344 305.307 217.481 303.295 216.607 301.271C216.5 300.981 216.507 300.659 216.624 300.373C216.742 300.087 216.962 299.859 217.24 299.734C217.517 299.61 217.83 299.599 218.115 299.705C218.4 299.811 218.634 300.024 218.77 300.302C219.645 302.313 220.507 304.337 221.37 306.362C221.433 306.507 221.468 306.664 221.471 306.823C221.475 306.983 221.448 307.141 221.392 307.29C221.336 307.438 221.252 307.574 221.145 307.689C221.038 307.805 220.909 307.897 220.767 307.961C220.617 308.022 220.456 308.051 220.295 308.046Z" fill="#EB434A"/>
<path d="M234.006 338.89C233.784 338.891 233.567 338.827 233.379 338.707C233.191 338.587 233.04 338.416 232.942 338.212C229.065 330.176 225.448 321.898 222.127 314.141C222.064 313.996 222.03 313.839 222.026 313.68C222.022 313.52 222.049 313.362 222.105 313.213C222.161 313.065 222.245 312.929 222.352 312.814C222.459 312.698 222.588 312.606 222.73 312.541C222.872 312.477 223.025 312.442 223.18 312.438C223.335 312.434 223.49 312.462 223.635 312.519C223.78 312.576 223.912 312.662 224.024 312.772C224.137 312.882 224.227 313.014 224.29 313.16C227.599 320.892 231.205 329.146 235.058 337.133C235.149 337.317 235.192 337.523 235.183 337.729C235.175 337.936 235.115 338.136 235.01 338.312C234.904 338.488 234.757 338.634 234.581 338.735C234.405 338.836 234.207 338.89 234.006 338.89Z" fill="#EB434A"/>
<path d="M248.285 275.368C247.971 275.368 247.67 275.24 247.449 275.013C247.227 274.786 247.103 274.477 247.103 274.156V261.454C247.103 261.133 247.227 260.824 247.449 260.597C247.67 260.37 247.971 260.242 248.285 260.242C248.598 260.242 248.899 260.37 249.12 260.597C249.342 260.824 249.467 261.133 249.467 261.454V274.168C249.463 274.487 249.338 274.793 249.116 275.017C248.895 275.242 248.596 275.368 248.285 275.368Z" fill="#EB434A"/>
<path d="M248.355 289.924C248.042 289.924 247.741 289.796 247.52 289.569C247.298 289.341 247.173 289.033 247.173 288.712L247.103 282.349C247.103 282.027 247.227 281.719 247.449 281.492C247.67 281.264 247.971 281.137 248.285 281.137C248.598 281.137 248.899 281.264 249.12 281.492C249.342 281.719 249.467 282.027 249.467 282.349L249.537 288.724C249.537 289.045 249.413 289.354 249.191 289.581C248.97 289.808 248.669 289.936 248.355 289.936V289.924Z" fill="#EB434A"/>
<path d="M248.414 323.034C248.101 323.034 247.8 322.906 247.579 322.679C247.357 322.451 247.232 322.143 247.232 321.822C247.232 313.338 247.232 304.696 247.232 295.97C247.232 295.648 247.357 295.34 247.579 295.113C247.8 294.885 248.101 294.758 248.414 294.758C248.728 294.758 249.029 294.885 249.25 295.113C249.472 295.34 249.596 295.648 249.596 295.97C249.596 304.696 249.656 313.398 249.596 321.846C249.59 322.163 249.463 322.465 249.242 322.687C249.021 322.909 248.724 323.034 248.414 323.034Z" fill="#EB434A"/>
<path d="M248.285 338.892C247.971 338.892 247.67 338.764 247.449 338.537C247.227 338.309 247.103 338.001 247.103 337.68C247.103 335.171 247.162 332.674 247.185 330.165C247.185 329.844 247.31 329.535 247.531 329.308C247.753 329.081 248.054 328.953 248.367 328.953C248.681 328.953 248.981 329.081 249.203 329.308C249.425 329.535 249.549 329.844 249.549 330.165C249.549 332.674 249.549 335.171 249.467 337.68C249.467 338.001 249.342 338.309 249.12 338.537C248.899 338.764 248.598 338.892 248.285 338.892Z" fill="#EB434A"/>
<path d="M291.712 288.303C291.479 288.304 291.251 288.241 291.05 288.121C290.916 288.039 290.799 287.93 290.706 287.801C290.613 287.672 290.546 287.526 290.509 287.371C290.472 287.215 290.465 287.053 290.489 286.895C290.512 286.737 290.567 286.585 290.648 286.448L294.194 280.461C294.259 280.301 294.356 280.157 294.479 280.038C294.602 279.92 294.749 279.83 294.909 279.775C295.069 279.719 295.239 279.7 295.407 279.717C295.575 279.735 295.738 279.789 295.884 279.877C296.03 279.964 296.155 280.083 296.253 280.224C296.35 280.366 296.417 280.527 296.448 280.697C296.48 280.868 296.475 281.043 296.435 281.211C296.395 281.379 296.32 281.537 296.215 281.673L292.669 287.672C292.574 287.852 292.437 288.003 292.27 288.113C292.102 288.224 291.91 288.289 291.712 288.303Z" fill="#EB434A"/>
<path d="M275.447 315.557C275.235 315.557 275.027 315.499 274.845 315.388C274.575 315.224 274.38 314.957 274.302 314.645C274.225 314.334 274.271 314.004 274.431 313.727C277.811 307.837 282.315 300.104 287.102 292.578C287.273 292.31 287.541 292.123 287.847 292.057C288.152 291.991 288.471 292.052 288.733 292.226C288.864 292.314 288.977 292.426 289.065 292.558C289.153 292.69 289.215 292.839 289.247 292.996C289.279 293.152 289.28 293.314 289.251 293.471C289.221 293.628 289.162 293.778 289.076 293.911C284.348 301.389 279.833 309.085 276.464 314.964C276.359 315.144 276.211 315.294 276.032 315.398C275.854 315.503 275.652 315.557 275.447 315.557Z" fill="#EB434A"/>
<path d="M267.835 328.865C267.623 328.861 267.416 328.803 267.232 328.695C266.963 328.531 266.768 328.264 266.69 327.953C266.613 327.641 266.659 327.311 266.819 327.035L270.459 320.672C270.617 320.396 270.874 320.196 271.175 320.115C271.476 320.033 271.797 320.076 272.067 320.235C272.201 320.315 272.319 320.422 272.413 320.549C272.507 320.676 272.576 320.821 272.616 320.975C272.655 321.129 272.665 321.29 272.643 321.448C272.622 321.606 272.571 321.758 272.492 321.896L268.852 328.271C268.747 328.452 268.598 328.602 268.42 328.706C268.242 328.81 268.04 328.865 267.835 328.865Z" fill="#EB434A"/>
<path d="M260.826 340.803C260.609 340.802 260.396 340.739 260.211 340.621C260.078 340.538 259.963 340.429 259.871 340.299C259.779 340.17 259.713 340.024 259.677 339.868C259.641 339.713 259.635 339.551 259.66 339.394C259.684 339.236 259.739 339.085 259.821 338.949C260.798 337.333 261.768 335.717 262.729 334.101C262.901 333.858 263.155 333.689 263.441 333.628C263.728 333.566 264.026 333.615 264.279 333.766C264.532 333.917 264.721 334.158 264.811 334.444C264.9 334.73 264.883 335.039 264.762 335.313C263.793 336.949 262.824 338.585 261.831 340.221C261.726 340.398 261.578 340.545 261.402 340.646C261.226 340.748 261.028 340.802 260.826 340.803Z" fill="#EB434A"/>
<g opacity="0.7">
<path d="M154.446 289.607C154.166 289.606 153.896 289.507 153.678 289.328L150.782 286.82C150.542 286.612 150.392 286.316 150.366 285.995C150.339 285.675 150.438 285.357 150.64 285.111C150.842 284.865 151.131 284.711 151.444 284.684C151.756 284.657 152.067 284.758 152.306 284.965L155.202 287.474C155.385 287.634 155.516 287.848 155.577 288.087C155.639 288.325 155.627 288.578 155.545 288.809C155.463 289.041 155.314 289.242 155.117 289.385C154.921 289.527 154.686 289.605 154.446 289.607Z" fill="black"/>
<path d="M169.304 302.384C169.025 302.382 168.754 302.284 168.536 302.105C165.384 299.382 162.232 296.671 159.08 293.972C158.948 293.875 158.837 293.751 158.754 293.608C158.671 293.465 158.618 293.305 158.598 293.14C158.578 292.975 158.591 292.807 158.637 292.647C158.683 292.488 158.76 292.339 158.864 292.212C158.968 292.084 159.097 291.98 159.242 291.905C159.388 291.831 159.546 291.788 159.709 291.779C159.871 291.77 160.033 291.796 160.185 291.854C160.337 291.912 160.476 292.002 160.593 292.118C163.745 294.817 166.897 297.528 170.049 300.251C170.231 300.411 170.362 300.625 170.424 300.863C170.485 301.102 170.473 301.354 170.391 301.586C170.309 301.818 170.16 302.019 169.963 302.161C169.767 302.304 169.533 302.381 169.292 302.384H169.304Z" fill="black"/>
<path d="M181.123 312.673C180.842 312.673 180.569 312.57 180.355 312.382L174.741 307.534C174.622 307.431 174.524 307.305 174.453 307.162C174.382 307.02 174.339 306.865 174.326 306.706C174.314 306.547 174.332 306.386 174.379 306.234C174.427 306.082 174.504 305.941 174.605 305.819C174.705 305.698 174.829 305.598 174.967 305.525C175.106 305.452 175.257 305.408 175.413 305.395C175.568 305.382 175.724 305.4 175.873 305.449C176.021 305.498 176.158 305.577 176.277 305.68L181.88 310.528C181.999 310.631 182.097 310.756 182.168 310.898C182.239 311.039 182.283 311.194 182.296 311.352C182.309 311.511 182.292 311.671 182.245 311.823C182.198 311.975 182.122 312.115 182.022 312.237C181.912 312.372 181.775 312.481 181.619 312.557C181.464 312.632 181.295 312.672 181.123 312.673Z" fill="black"/>
<path d="M206.643 334.913C206.367 334.913 206.099 334.815 205.886 334.634C199.307 328.978 192.751 323.274 186.218 317.521L185.934 317.266C185.815 317.163 185.718 317.038 185.646 316.896C185.575 316.755 185.531 316.6 185.518 316.442C185.505 316.283 185.522 316.123 185.569 315.971C185.616 315.82 185.692 315.679 185.792 315.557C185.893 315.436 186.017 315.337 186.155 315.265C186.293 315.192 186.444 315.149 186.599 315.136C186.754 315.124 186.909 315.143 187.057 315.192C187.204 315.242 187.341 315.32 187.459 315.424L187.755 315.678C194.287 321.383 200.839 327.083 207.411 332.78C207.595 332.941 207.726 333.156 207.787 333.395C207.848 333.635 207.836 333.888 207.752 334.121C207.668 334.353 207.517 334.554 207.319 334.695C207.12 334.837 206.885 334.913 206.643 334.913Z" fill="black"/>
<path d="M218.569 345.081C218.293 345.082 218.026 344.983 217.813 344.803L212.151 339.955C212.032 339.852 211.934 339.726 211.863 339.585C211.791 339.444 211.748 339.289 211.735 339.13C211.722 338.972 211.739 338.812 211.786 338.66C211.833 338.508 211.909 338.367 212.009 338.246C212.211 338.003 212.498 337.852 212.808 337.825C213.117 337.798 213.425 337.897 213.664 338.1L219.326 342.948C219.446 343.05 219.544 343.175 219.617 343.316C219.69 343.457 219.734 343.611 219.748 343.77C219.763 343.929 219.746 344.089 219.7 344.241C219.654 344.393 219.579 344.535 219.48 344.657C219.367 344.792 219.228 344.9 219.07 344.973C218.913 345.046 218.742 345.083 218.569 345.081Z" fill="black"/>
<path d="M203.333 270.122C203.107 270.122 202.886 270.056 202.695 269.932C202.505 269.807 202.353 269.629 202.258 269.419L200.662 265.783C200.533 265.492 200.522 265.16 200.631 264.861C200.739 264.561 200.959 264.318 201.241 264.183C201.382 264.116 201.535 264.078 201.691 264.071C201.846 264.065 202.002 264.09 202.148 264.145C202.294 264.2 202.428 264.284 202.542 264.393C202.656 264.501 202.748 264.632 202.813 264.777L204.409 268.413C204.538 268.704 204.549 269.035 204.441 269.335C204.332 269.635 204.113 269.878 203.83 270.013C203.675 270.089 203.505 270.127 203.333 270.122Z" fill="black"/>
<path d="M213.889 293.267C213.662 293.267 213.441 293.201 213.25 293.077C213.06 292.952 212.908 292.774 212.813 292.564C210.307 286.916 208.085 282.019 205.91 277.608C205.841 277.465 205.8 277.309 205.79 277.149C205.779 276.99 205.8 276.83 205.85 276.678C205.9 276.527 205.978 276.387 206.081 276.267C206.183 276.147 206.308 276.048 206.448 275.978C206.588 275.907 206.739 275.865 206.895 275.854C207.05 275.844 207.207 275.865 207.354 275.916C207.502 275.967 207.638 276.047 207.755 276.153C207.873 276.258 207.969 276.386 208.038 276.529C210.189 280.977 212.447 285.886 214.964 291.558C215.092 291.85 215.102 292.183 214.991 292.483C214.88 292.783 214.658 293.025 214.373 293.158C214.221 293.229 214.056 293.266 213.889 293.267Z" fill="black"/>
<path d="M220.295 308.046C220.065 308.048 219.84 307.981 219.647 307.854C219.454 307.727 219.301 307.546 219.207 307.331C218.344 305.307 217.481 303.295 216.607 301.271C216.5 300.981 216.507 300.659 216.624 300.373C216.742 300.087 216.962 299.859 217.24 299.734C217.517 299.61 217.83 299.599 218.115 299.705C218.4 299.811 218.634 300.024 218.77 300.302C219.645 302.313 220.507 304.337 221.37 306.362C221.433 306.507 221.468 306.664 221.471 306.823C221.475 306.983 221.448 307.141 221.392 307.29C221.336 307.438 221.252 307.574 221.145 307.689C221.038 307.805 220.909 307.897 220.767 307.961C220.617 308.022 220.456 308.051 220.295 308.046Z" fill="black"/>
<path d="M234.006 338.89C233.784 338.891 233.567 338.827 233.379 338.707C233.191 338.587 233.04 338.416 232.942 338.212C229.065 330.176 225.448 321.898 222.127 314.141C222.064 313.996 222.03 313.839 222.026 313.68C222.022 313.52 222.049 313.362 222.105 313.213C222.161 313.065 222.245 312.929 222.352 312.814C222.459 312.698 222.588 312.606 222.73 312.541C222.872 312.477 223.025 312.442 223.18 312.438C223.335 312.434 223.49 312.462 223.635 312.519C223.78 312.576 223.912 312.662 224.024 312.772C224.137 312.882 224.227 313.014 224.29 313.16C227.599 320.892 231.205 329.146 235.058 337.133C235.149 337.317 235.192 337.523 235.183 337.729C235.175 337.936 235.115 338.136 235.01 338.312C234.904 338.488 234.757 338.634 234.581 338.735C234.405 338.836 234.207 338.89 234.006 338.89Z" fill="black"/>
<path d="M248.285 275.368C247.971 275.368 247.67 275.24 247.449 275.013C247.227 274.786 247.103 274.477 247.103 274.156V261.454C247.103 261.133 247.227 260.824 247.449 260.597C247.67 260.37 247.971 260.242 248.285 260.242C248.598 260.242 248.899 260.37 249.12 260.597C249.342 260.824 249.467 261.133 249.467 261.454V274.168C249.463 274.487 249.338 274.793 249.116 275.017C248.895 275.242 248.596 275.368 248.285 275.368Z" fill="black"/>
<path d="M248.355 289.924C248.042 289.924 247.741 289.796 247.52 289.569C247.298 289.341 247.173 289.033 247.173 288.712L247.103 282.349C247.103 282.027 247.227 281.719 247.449 281.492C247.67 281.264 247.971 281.137 248.285 281.137C248.598 281.137 248.899 281.264 249.12 281.492C249.342 281.719 249.467 282.027 249.467 282.349L249.537 288.724C249.537 289.045 249.413 289.354 249.191 289.581C248.97 289.808 248.669 289.936 248.355 289.936V289.924Z" fill="black"/>
<path d="M248.414 323.034C248.101 323.034 247.8 322.906 247.579 322.679C247.357 322.451 247.232 322.143 247.232 321.822C247.232 313.338 247.232 304.696 247.232 295.97C247.232 295.648 247.357 295.34 247.579 295.113C247.8 294.885 248.101 294.758 248.414 294.758C248.728 294.758 249.029 294.885 249.25 295.113C249.472 295.34 249.596 295.648 249.596 295.97C249.596 304.696 249.656 313.398 249.596 321.846C249.59 322.163 249.463 322.465 249.242 322.687C249.021 322.909 248.724 323.034 248.414 323.034Z" fill="black"/>
<path d="M248.285 338.892C247.971 338.892 247.67 338.764 247.449 338.537C247.227 338.309 247.103 338.001 247.103 337.68C247.103 335.171 247.162 332.674 247.185 330.165C247.185 329.844 247.31 329.535 247.531 329.308C247.753 329.081 248.054 328.953 248.367 328.953C248.681 328.953 248.981 329.081 249.203 329.308C249.425 329.535 249.549 329.844 249.549 330.165C249.549 332.674 249.549 335.171 249.467 337.68C249.467 338.001 249.342 338.309 249.12 338.537C248.899 338.764 248.598 338.892 248.285 338.892Z" fill="black"/>
<path d="M291.712 288.303C291.479 288.304 291.251 288.241 291.05 288.121C290.916 288.039 290.799 287.93 290.706 287.801C290.613 287.672 290.546 287.526 290.509 287.371C290.472 287.215 290.465 287.053 290.489 286.895C290.512 286.737 290.567 286.585 290.648 286.448L294.194 280.461C294.259 280.301 294.356 280.157 294.479 280.038C294.602 279.92 294.749 279.83 294.909 279.775C295.069 279.719 295.239 279.7 295.407 279.717C295.575 279.735 295.738 279.789 295.884 279.877C296.03 279.964 296.155 280.083 296.253 280.224C296.35 280.366 296.417 280.527 296.448 280.697C296.48 280.868 296.475 281.043 296.435 281.211C296.395 281.379 296.32 281.537 296.215 281.673L292.669 287.672C292.574 287.852 292.437 288.003 292.27 288.113C292.102 288.224 291.91 288.289 291.712 288.303Z" fill="black"/>
<path d="M275.447 315.557C275.235 315.557 275.027 315.499 274.845 315.388C274.575 315.224 274.38 314.957 274.302 314.645C274.225 314.334 274.271 314.004 274.431 313.727C277.811 307.837 282.315 300.104 287.102 292.578C287.273 292.31 287.541 292.123 287.847 292.057C288.152 291.991 288.471 292.052 288.733 292.226C288.864 292.314 288.977 292.426 289.065 292.558C289.153 292.69 289.215 292.839 289.247 292.996C289.279 293.152 289.28 293.314 289.251 293.471C289.221 293.628 289.162 293.778 289.076 293.911C284.348 301.389 279.833 309.085 276.464 314.964C276.359 315.144 276.211 315.294 276.032 315.398C275.854 315.503 275.652 315.557 275.447 315.557Z" fill="black"/>
<path d="M267.835 328.865C267.623 328.861 267.416 328.803 267.232 328.695C266.963 328.531 266.768 328.264 266.69 327.953C266.613 327.641 266.659 327.311 266.819 327.035L270.459 320.672C270.617 320.396 270.874 320.196 271.175 320.115C271.476 320.033 271.797 320.076 272.067 320.235C272.201 320.315 272.319 320.422 272.413 320.549C272.507 320.676 272.576 320.821 272.616 320.975C272.655 321.129 272.665 321.29 272.643 321.448C272.622 321.606 272.571 321.758 272.492 321.896L268.852 328.271C268.747 328.452 268.598 328.602 268.42 328.706C268.242 328.81 268.04 328.865 267.835 328.865Z" fill="black"/>
<path d="M260.826 340.803C260.609 340.802 260.396 340.739 260.211 340.621C260.078 340.538 259.963 340.429 259.871 340.299C259.779 340.17 259.713 340.024 259.677 339.868C259.641 339.713 259.635 339.551 259.66 339.394C259.684 339.236 259.739 339.085 259.821 338.949C260.798 337.333 261.768 335.717 262.729 334.101C262.901 333.858 263.155 333.689 263.441 333.628C263.728 333.566 264.026 333.615 264.279 333.766C264.532 333.917 264.721 334.158 264.811 334.444C264.9 334.73 264.883 335.039 264.762 335.313C263.793 336.949 262.824 338.585 261.831 340.221C261.726 340.398 261.578 340.545 261.402 340.646C261.226 340.748 261.028 340.802 260.826 340.803Z" fill="black"/>
</g>
</g>
<defs>
<clipPath id="clip0_1390_19615">
<rect width="522" height="471" fill="white"/>
</clipPath>
</defs>
</svg>
