<svg width="390" height="264" viewBox="0 0 390 264" fill="none" xmlns="http://www.w3.org/2000/svg">
<path d="M180.155 75.6975L140.029 84.5811L151.891 140.855L192.016 131.971L180.155 75.6975Z" fill="#EBEBEB"/>
<path d="M371.19 52.5708H234.434V143.711H371.19V52.5708Z" fill="#EBEBEB"/>
<path d="M320.891 98.7117C323.277 88.468 317.109 78.1808 307.114 75.7348C297.119 73.2887 287.081 79.61 284.695 89.8537C282.308 100.097 288.476 110.385 298.471 112.831C308.466 115.277 318.504 108.955 320.891 98.7117Z" fill="black" fill-opacity="0.05"/>
<path d="M309.063 94.2935L304.205 97.165L299.34 100.044V94.2935V88.543L304.205 91.4145L309.063 94.2935Z" fill="#EBEBEB"/>
<path d="M371.19 127.342H234.434V143.718H371.19V127.342Z" fill="black" fill-opacity="0.05"/>
<path d="M247.719 135.526L245.75 136.699L243.773 137.864V135.526V133.197L245.75 134.361L247.719 135.526Z" fill="#EBEBEB"/>
<path d="M359.932 135.156H259.057V135.898H359.932V135.156Z" fill="#EBEBEB"/>
<path d="M261.099 135.526C261.1 135.832 261.013 136.131 260.848 136.386C260.684 136.641 260.449 136.84 260.174 136.958C259.899 137.076 259.596 137.107 259.303 137.048C259.011 136.99 258.742 136.843 258.531 136.628C258.319 136.412 258.175 136.137 258.116 135.838C258.058 135.538 258.087 135.227 258.201 134.945C258.315 134.663 258.508 134.421 258.755 134.251C259.003 134.081 259.295 133.99 259.593 133.99C259.991 133.99 260.373 134.152 260.655 134.44C260.937 134.728 261.097 135.118 261.099 135.526Z" fill="#EBEBEB"/>
<path d="M467.265 118.216H335.207C333.012 118.216 331.232 120.039 331.232 122.289V243.458C331.232 245.708 333.012 247.531 335.207 247.531H467.265C469.46 247.531 471.24 245.708 471.24 243.458V122.289C471.24 120.039 469.46 118.216 467.265 118.216Z" fill="#EBEBEB"/>
<path d="M335.873 118.216H466.599C467.83 118.216 469.01 118.717 469.88 119.609C470.751 120.501 471.24 121.71 471.24 122.972V132.655H331.232V122.972C331.232 122.347 331.352 121.729 331.586 121.152C331.819 120.575 332.161 120.05 332.592 119.609C333.023 119.167 333.534 118.817 334.097 118.578C334.66 118.339 335.264 118.216 335.873 118.216Z" fill="black" fill-opacity="0.05"/>
<path d="M339.776 126.593C340.387 126.593 340.883 126.085 340.883 125.458C340.883 124.831 340.387 124.322 339.776 124.322C339.164 124.322 338.668 124.831 338.668 125.458C338.668 126.085 339.164 126.593 339.776 126.593Z" fill="white"/>
<path d="M347.507 125.457C347.509 125.682 347.445 125.902 347.324 126.09C347.203 126.278 347.031 126.424 346.829 126.512C346.626 126.599 346.403 126.622 346.188 126.579C345.973 126.536 345.775 126.429 345.619 126.27C345.463 126.112 345.357 125.909 345.314 125.689C345.27 125.469 345.292 125.24 345.376 125.032C345.459 124.824 345.601 124.647 345.784 124.521C345.966 124.396 346.18 124.33 346.4 124.33C346.692 124.33 346.973 124.448 347.18 124.659C347.388 124.871 347.505 125.158 347.507 125.457Z" fill="white"/>
<path d="M353.025 126.593C353.636 126.593 354.132 126.085 354.132 125.458C354.132 124.831 353.636 124.322 353.025 124.322C352.413 124.322 351.917 124.831 351.917 125.458C351.917 126.085 352.413 126.593 353.025 126.593Z" fill="white"/>
<path d="M345.38 194.412H398.246V192.453H345.38V194.412Z" fill="white"/>
<path d="M345.38 202.477H398.246V200.518H345.38V202.477Z" fill="white"/>
<path d="M345.38 210.55H398.246V208.591H345.38V210.55Z" fill="white"/>
<path d="M345.38 218.615H398.246V216.657H345.38V218.615Z" fill="white"/>
<path d="M371.813 226.688H398.246V224.73H371.813V226.688Z" fill="white"/>
<path d="M390.629 143.11H345.387V181.686H390.629V143.11Z" fill="white"/>
<path d="M345.307 170.037L358.672 160.435L368.004 167.046L382.672 154.329L390.622 162.394V181.686H345.386L345.307 170.037Z" fill="black" fill-opacity="0.05"/>
<path d="M368.787 158.209C370.878 158.209 372.573 156.472 372.573 154.329C372.573 152.185 370.878 150.448 368.787 150.448C366.695 150.448 365 152.185 365 154.329C365 156.472 366.695 158.209 368.787 158.209Z" fill="black" fill-opacity="0.05"/>
<path d="M12.4551 178.481H180.886V268.53C180.886 269.445 180.532 270.323 179.9 270.97C179.269 271.617 178.413 271.98 177.52 271.98H15.8217C14.9288 271.98 14.0725 271.617 13.4411 270.97C12.8098 270.323 12.4551 269.445 12.4551 268.53V178.481Z" fill="#EBEBEB"/>
<path d="M180.886 178.481H12.4551V195.851H180.886V178.481Z" fill="black" fill-opacity="0.05"/>
<path d="M22.7286 188.565C23.4644 188.565 24.0608 187.953 24.0608 187.199C24.0608 186.445 23.4644 185.834 22.7286 185.834C21.9929 185.834 21.3965 186.445 21.3965 187.199C21.3965 187.953 21.9929 188.565 22.7286 188.565Z" fill="white"/>
<path d="M30.7003 188.565C31.4361 188.565 32.0325 187.953 32.0325 187.199C32.0325 186.445 31.4361 185.834 30.7003 185.834C29.9646 185.834 29.3682 186.445 29.3682 187.199C29.3682 187.953 29.9646 188.565 30.7003 188.565Z" fill="white"/>
<path d="M38.671 188.565C39.4068 188.565 40.0032 187.953 40.0032 187.199C40.0032 186.445 39.4068 185.834 38.671 185.834C37.9353 185.834 37.3389 186.445 37.3389 187.199C37.3389 187.953 37.9353 188.565 38.671 188.565Z" fill="white"/>
<path d="M160.637 209.86H97.0332V212.219H160.637V209.86Z" fill="black" fill-opacity="0.05"/>
<path d="M160.637 219.565H97.0332V221.925H160.637V219.565Z" fill="black" fill-opacity="0.05"/>
<path d="M160.637 229.271H97.0332V231.63H160.637V229.271Z" fill="black" fill-opacity="0.05"/>
<path d="M160.637 238.983H97.0332V241.343H160.637V238.983Z" fill="black" fill-opacity="0.05"/>
<path d="M128.831 248.689H97.0332V251.048H128.831V248.689Z" fill="black" fill-opacity="0.05"/>
<path d="M80.8879 208.205H26.4648V254.617H80.8879V208.205Z" fill="white"/>
<path d="M26.3701 240.601L42.4574 229.048L53.6794 237.01L71.3233 221.702L80.8873 231.408V254.618H26.4642L26.3701 240.601Z" fill="black" fill-opacity="0.05"/>
<path d="M59.1751 221.702C59.1751 222.627 58.9074 223.531 58.4059 224.3C57.9044 225.069 57.1916 225.668 56.3578 226.022C55.5239 226.375 54.6064 226.467 53.7214 226.286C52.8364 226.105 52.0237 225.659 51.3861 225.005C50.7485 224.351 50.3147 223.517 50.1395 222.61C49.9643 221.702 50.0557 220.762 50.402 219.908C50.7484 219.054 51.3341 218.325 52.0851 217.812C52.8362 217.299 53.7187 217.026 54.6212 217.028C55.8296 217.03 56.9879 217.523 57.8418 218.399C58.6956 219.276 59.1751 220.464 59.1751 221.702Z" fill="black" fill-opacity="0.05"/>
<path d="M175.1 85.8533L134.975 94.7368L146.836 151.011L186.961 142.127L175.1 85.8533Z" fill="white"/>
<path d="M186.947 142.137L186.882 141.863C186.838 141.677 186.78 141.41 186.708 141.069C186.549 140.327 186.324 139.333 186.035 138.005C185.463 135.311 184.623 131.401 183.558 126.452C181.452 116.553 178.49 102.515 174.928 85.9013L175.131 86.0348L135.014 94.9388L135.159 94.7088C139.575 115.73 143.666 135.192 146.982 150.99L146.801 150.863L175.956 144.497L184.072 142.738L186.244 142.286L186.968 142.137C186.968 142.137 186.737 142.204 186.244 142.316L184.138 142.798L176.072 144.623L146.859 151.175H146.707V151.027C143.369 135.229 139.257 115.774 134.812 94.7607V94.5678H134.993L175.117 85.6638H175.283L175.319 85.8345C178.795 102.515 181.734 116.605 183.805 126.533C184.825 131.475 185.636 135.378 186.187 138.064C186.462 139.385 186.664 140.409 186.809 141.106L186.961 141.885C186.96 141.969 186.956 142.054 186.947 142.137Z" fill="#A3A3A3"/>
<path d="M161.86 100.623C161.86 100.734 157.516 101.78 152.151 102.975C146.786 104.169 142.384 105.045 142.362 104.941C142.341 104.837 146.706 103.791 152.071 102.596C157.436 101.402 161.86 100.519 161.86 100.623Z" fill="#A3A3A3"/>
<path d="M173.444 103.182C173.444 103.286 166.755 104.859 158.465 106.692C150.175 108.525 143.42 109.935 143.398 109.831C143.377 109.727 150.088 108.154 158.385 106.321C166.682 104.488 173.444 103.079 173.444 103.182Z" fill="#A3A3A3"/>
<path d="M174.538 108.28C174.538 108.384 167.855 109.957 159.558 111.797C151.261 113.637 144.521 115.01 144.485 114.936C144.448 114.862 151.167 113.259 159.464 111.419C167.761 109.579 174.516 108.176 174.538 108.28Z" fill="#A3A3A3"/>
<path d="M175.616 113.385C175.616 113.489 168.927 115.062 160.637 116.895C152.347 118.727 145.592 120.137 145.57 120.033C145.549 119.929 152.253 118.356 160.557 116.524C168.861 114.691 175.616 113.281 175.616 113.385Z" fill="#A3A3A3"/>
<path d="M176.688 118.482C176.688 118.586 170.005 120.159 161.708 122C153.411 123.84 146.656 125.242 146.656 125.138C146.656 125.034 153.339 123.461 161.636 121.621C169.933 119.781 176.666 118.379 176.688 118.482Z" fill="#A3A3A3"/>
<path d="M177.788 123.587C177.788 123.691 171.098 125.264 162.809 127.097C154.519 128.93 147.764 130.34 147.742 130.236C147.721 130.132 154.425 128.559 162.729 126.719C171.033 124.879 177.745 123.484 177.788 123.587Z" fill="#A3A3A3"/>
<path d="M178.838 128.685C178.838 128.789 172.155 130.362 163.858 132.202C155.561 134.042 148.828 135.444 148.828 135.341C148.828 135.237 155.511 133.664 163.808 131.824C172.105 129.983 178.816 128.581 178.838 128.685Z" fill="#A3A3A3"/>
<path d="M166.024 136.862C166.024 136.966 162.447 137.856 157.987 138.843C153.527 139.83 149.893 140.542 149.871 140.438C149.849 140.334 153.448 139.451 157.908 138.464C162.367 137.478 166.002 136.758 166.024 136.862Z" fill="#A3A3A3"/>
<path d="M362.821 229.909L373.088 256.925L377.374 249.839L383.303 257.823L390.377 250.93L383.636 244.266L389.855 239.955L362.821 229.909Z" fill="#EB434A"/>
<path d="M358.955 233.901C357.78 234.893 356.529 235.784 355.211 236.565C353.962 237.453 352.642 238.233 351.266 238.895C352.442 237.909 353.694 237.02 355.009 236.238C356.259 235.349 357.579 234.567 358.955 233.901Z" fill="#1E3344"/>
<path d="M359.751 228.454C359.185 228.377 358.63 228.227 358.1 228.009C357.101 227.683 355.726 227.186 354.241 226.525C352.757 225.865 351.425 225.301 350.477 224.841C349.947 224.626 349.442 224.353 348.971 224.025C349.525 224.151 350.064 224.34 350.578 224.589L354.379 226.169L358.194 227.72C358.738 227.907 359.259 228.153 359.751 228.454Z" fill="#1E3344"/>
<path d="M362.85 216.189C363.038 216.665 363.164 217.164 363.226 217.673C363.4 218.601 363.61 219.899 363.784 221.331C363.957 222.763 364.073 224.077 364.124 225.041C364.191 225.553 364.191 226.072 364.124 226.585C363.796 224.867 363.554 223.134 363.4 221.391C363.126 219.668 362.943 217.932 362.85 216.189Z" fill="#1E3344"/>
<path d="M377.062 222.237C377.105 222.34 375.208 223.179 373.065 224.589C370.922 225.998 369.228 227.223 369.163 227.126C369.098 227.03 369.518 226.726 370.184 226.199C371.044 225.507 371.938 224.861 372.863 224.262C374.142 223.351 375.561 222.666 377.062 222.237Z" fill="#1E3344"/>
<path d="M342.266 176.522H155.423C145.911 176.522 138.199 184.425 138.199 194.174V196.111C138.199 205.86 145.911 213.763 155.423 213.763H342.266C351.778 213.763 359.49 205.86 359.49 196.111V194.174C359.49 184.425 351.778 176.522 342.266 176.522Z" fill="white"/>
<path d="M310.461 176.188V213.763H341.412C346.274 213.763 350.938 211.784 354.377 208.261C357.816 204.737 359.749 199.959 359.751 194.975C359.751 192.508 359.276 190.064 358.355 187.784C357.433 185.504 356.082 183.433 354.379 181.688C352.676 179.943 350.654 178.56 348.429 177.616C346.204 176.672 343.82 176.187 341.412 176.188H310.461Z" fill="#EB434A"/>
<path d="M339.239 193.929C339.171 193.286 339.067 192.647 338.928 192.015C338.48 190.305 337.486 188.797 336.104 187.734C335.092 186.951 333.903 186.442 332.648 186.253C331.393 186.063 330.112 186.2 328.922 186.65C328.232 186.905 327.585 187.268 327.004 187.726C326.392 188.189 325.852 188.744 325.404 189.373C324.453 190.701 323.941 192.305 323.941 193.952C323.941 195.598 324.453 197.202 325.404 198.53C325.846 199.164 326.387 199.72 327.004 200.177C327.584 200.629 328.229 200.987 328.915 201.238C329.913 201.608 330.975 201.762 332.033 201.689C333.092 201.617 334.124 201.319 335.065 200.816C336.006 200.313 336.834 199.616 337.498 198.767C338.162 197.919 338.646 196.939 338.921 195.888C339.06 195.254 339.164 194.613 339.232 193.966C339.276 194.625 339.217 195.286 339.058 195.925C338.652 197.696 337.662 199.268 336.256 200.377C335.213 201.206 333.983 201.752 332.679 201.962C331.375 202.172 330.04 202.04 328.799 201.579C328.076 201.324 327.397 200.953 326.787 200.481C326.141 200.002 325.575 199.421 325.107 198.76C324.105 197.37 323.564 195.687 323.564 193.959C323.564 192.231 324.105 190.548 325.107 189.158C326.037 187.863 327.322 186.881 328.799 186.339C330.129 185.852 331.561 185.739 332.948 186.012C334.421 186.303 335.781 187.023 336.865 188.087C337.949 189.15 338.711 190.512 339.058 192.008C339.217 192.634 339.278 193.283 339.239 193.929Z" fill="white"/>
<path d="M346.422 205.03C344.871 204.121 343.381 203.107 341.962 201.995C340.473 200.98 339.056 199.859 337.72 198.641C339.273 199.546 340.763 200.56 342.18 201.676C343.669 202.691 345.086 203.811 346.422 205.03Z" fill="white"/>
<path d="M294.519 191.651H159.239V199.62H294.519V191.651Z" fill="black" fill-opacity="0.05"/>
<path d="M342.266 213.763C342.266 213.763 342.693 213.763 343.519 213.681C344.032 213.65 344.542 213.583 345.046 213.481C345.749 213.368 346.443 213.207 347.124 212.999C349.03 212.405 350.822 211.482 352.424 210.268L353.148 209.719C353.38 209.511 353.604 209.289 353.836 209.073C354.325 208.625 354.784 208.144 355.211 207.634C355.682 207.129 356.051 206.513 356.5 205.927L357.065 204.97L357.354 204.473L357.6 203.946C358.327 202.467 358.839 200.887 359.121 199.257C359.179 198.826 359.244 198.389 359.309 197.951C359.374 197.513 359.36 197.053 359.381 196.6C359.381 195.695 359.381 194.745 359.381 193.796C359.278 189.309 357.501 185.033 354.416 181.848C351.331 178.662 347.172 176.809 342.795 176.67C337.857 176.626 332.615 176.67 327.127 176.67L155.431 176.73C151.269 176.746 147.255 178.312 144.136 181.137C141.051 183.921 139.061 187.762 138.54 191.941C138.469 192.452 138.428 192.968 138.417 193.484C138.417 193.996 138.38 194.515 138.417 195.035C138.404 196.067 138.443 197.1 138.532 198.129C138.753 200.168 139.335 202.15 140.248 203.976C142.046 207.615 145.023 210.5 148.668 212.138C150.462 212.922 152.371 213.391 154.316 213.525C155.279 213.592 156.256 213.585 157.212 213.585H193.962L271.155 213.629L323.189 213.689L337.343 213.726L323.189 213.763L271.155 213.822L193.962 213.867H157.204C156.227 213.867 155.257 213.867 154.265 213.807C151.245 213.613 148.327 212.609 145.804 210.897C143.281 209.185 141.24 206.824 139.886 204.05C138.953 202.185 138.36 200.161 138.134 198.077C138.039 197.034 137.998 195.986 138.011 194.938C138.011 194.419 138.011 193.899 138.047 193.373C138.056 192.844 138.097 192.316 138.17 191.792C138.7 187.522 140.731 183.596 143.883 180.751C147.081 177.857 151.2 176.255 155.467 176.247L327.163 176.307C332.659 176.307 337.886 176.307 342.838 176.344C347.269 176.489 351.478 178.371 354.596 181.601C357.714 184.831 359.505 189.164 359.599 193.707C359.599 194.671 359.599 195.606 359.599 196.526C359.599 196.986 359.548 197.439 359.519 197.884C359.49 198.329 359.389 198.774 359.324 199.205C359.036 200.85 358.514 202.442 357.774 203.931L357.528 204.466L357.231 204.955C357.036 205.289 356.847 205.608 356.652 205.927C356.246 206.519 355.811 207.088 355.349 207.634C354.923 208.15 354.461 208.634 353.966 209.081C353.727 209.303 353.495 209.526 353.242 209.726L352.518 210.283C350.902 211.494 349.095 212.411 347.175 212.991C346.489 213.196 345.79 213.352 345.082 213.459C344.576 213.555 344.063 213.615 343.548 213.637C342.693 213.755 342.266 213.763 342.266 213.763Z" fill="#1E3344"/>
<path d="M246.386 190.612C245.728 189.826 245.662 189.128 247.147 189.025C250.412 188.72 252.815 187.259 253.199 186.413C253.583 185.567 252.54 184.743 251.657 185.248C250.643 185.699 249.574 186.008 248.479 186.168C247.599 186.32 246.701 186.32 245.822 186.168C245.061 186.049 244.374 185.916 243.794 185.789C243.794 185.789 240.341 185.047 238.85 183.831L231.537 191.837L234.969 195.806C235.483 196.547 236.173 197.141 236.974 197.53C237.775 197.92 238.66 198.093 239.545 198.032C242.484 197.736 246.444 195.576 246.444 195.576C246.98 194.731 251.715 197.728 253.243 198.849C254.77 199.969 255.892 199.687 255.835 198.611C255.798 197.869 251.208 194.322 249.673 193.247C248.486 192.487 247.384 191.596 246.386 190.59" fill="#FFBE9D"/>
<path d="M242.094 197.565C242.094 197.617 241.884 197.706 241.5 197.699C241.007 197.666 240.534 197.486 240.14 197.179C239.746 196.873 239.449 196.455 239.285 195.977C239.169 195.614 239.205 195.369 239.249 195.361C239.528 195.924 239.909 196.428 240.371 196.845C240.894 197.198 241.479 197.442 242.094 197.565Z" fill="#EB996E"/>
<path d="M244.989 196.4C244.989 196.445 244.779 196.526 244.417 196.504C243.947 196.456 243.499 196.273 243.126 195.975C242.753 195.677 242.47 195.276 242.31 194.82C242.202 194.471 242.224 194.241 242.267 194.233C242.31 194.226 242.571 195.057 243.36 195.673C243.863 196.001 244.413 196.246 244.989 196.4Z" fill="#EB996E"/>
<path d="M252.874 113.103C253.178 119.677 261.005 128.685 266.826 130.169C269.881 130.911 273.399 130.577 275.825 132.684C279.988 136.298 277.555 143.814 280.357 148.637C282.08 151.605 285.505 153.089 287.445 155.902C290.667 160.606 288.502 167.714 284.107 171.216C279.713 174.719 273.848 175.387 268.339 175.238C256.212 174.919 243.795 170.972 235.035 162.164C230.915 158.024 214.806 145.254 220.424 114.973" fill="#1E3344"/>
<path d="M296.632 160.146L250.535 146.122C248.387 145.16 246.134 144.465 243.824 144.052L228.258 144.156C226.202 144.163 224.17 144.6 222.285 145.44L180.329 159.723C177.223 160.732 175.08 163.997 175.08 167.714C175.08 172.293 178.302 176.01 182.277 176.01H201.68L201.6 176.299L268.99 176.559L294.714 176.611C298.689 176.611 301.91 172.864 301.91 168.234C301.881 164.464 299.738 161.163 296.632 160.146Z" fill="#FFF2F3"/>
<path d="M287.394 165.258C287.254 165.273 287.114 165.273 286.974 165.258L285.787 165.117C284.759 164.984 283.267 164.813 281.443 164.635C276.631 164.159 271.797 163.951 266.963 164.012C262.136 164.085 257.317 164.421 252.526 165.021C250.687 165.251 249.196 165.459 248.182 165.622L246.995 165.793C246.859 165.818 246.72 165.831 246.582 165.83C246.709 165.773 246.843 165.735 246.98 165.718L248.153 165.474C249.174 165.266 250.658 165.014 252.497 164.732C257.297 164.053 262.133 163.679 266.977 163.611C271.814 163.55 276.65 163.798 281.457 164.353C283.303 164.568 284.795 164.784 285.801 164.962L286.981 165.169C287.122 165.179 287.261 165.209 287.394 165.258Z" fill="#1E3344"/>
<g opacity="0.6">
<path d="M276.578 153.78C276.543 153.838 276.499 153.891 276.447 153.935L276.042 154.373C275.68 154.752 275.144 155.316 274.413 155.998C273.531 156.831 272.594 157.602 271.611 158.306C270.306 159.26 268.848 159.973 267.303 160.413C265.408 160.895 263.422 160.854 261.547 160.294C259.428 159.622 257.393 158.701 255.48 157.549C253.4 156.275 251.2 155.219 248.914 154.396C246.455 153.531 243.765 153.672 241.406 154.789C238.98 155.909 236.917 157.616 234.665 158.848C234.108 159.167 233.514 159.411 232.942 159.679C232.361 159.91 231.769 160.111 231.168 160.28C230.011 160.618 228.822 160.83 227.621 160.91C223.434 161.222 219.27 160.048 215.827 157.586C214.563 156.597 213.372 155.513 212.265 154.344C211.425 153.479 210.501 152.706 209.506 152.036C208.647 151.481 207.686 151.112 206.683 150.953C206.948 150.957 207.212 150.987 207.472 151.042C208.219 151.205 208.933 151.496 209.586 151.902C210.602 152.561 211.549 153.327 212.409 154.188C213.523 155.333 214.716 156.395 215.979 157.364C219.384 159.754 223.484 160.879 227.599 160.554C228.775 160.472 229.94 160.263 231.074 159.931C231.661 159.762 232.238 159.561 232.805 159.33C233.362 159.07 233.941 158.833 234.484 158.514C236.707 157.304 238.763 155.59 241.254 154.433C243.697 153.284 246.478 153.14 249.022 154.032C251.33 154.869 253.55 155.943 255.647 157.237C257.532 158.383 259.538 159.304 261.627 159.983C263.45 160.544 265.386 160.601 267.238 160.146C268.759 159.727 270.199 159.045 271.495 158.128C272.481 157.45 273.421 156.706 274.311 155.902C275.035 155.241 275.607 154.7 275.991 154.344L276.418 153.928C276.52 153.817 276.57 153.772 276.578 153.78Z" fill="#EB434A"/>
</g>
<g opacity="0.2">
<path d="M204.945 165.162L234.086 170.794L230.72 176.411L229.829 176.425L204.945 165.162Z" fill="black"/>
</g>
<g opacity="0.6">
<path d="M293.15 159.263C293.166 159.413 293.166 159.565 293.15 159.716C293.134 160.153 293.09 160.59 293.019 161.022C292.555 163.736 291.15 166.186 289.063 167.923C286.976 169.66 284.347 170.566 281.66 170.475C280.185 170.38 278.727 170.106 277.316 169.658C275.868 169.235 274.456 168.768 273.073 168.486C271.753 168.184 270.392 168.112 269.048 168.271C267.13 168.507 265.288 169.176 263.654 170.231C262.02 171.286 260.635 172.7 259.6 174.37L259.223 175.016C259.131 175.204 259.052 175.367 258.984 175.505C258.925 175.647 258.849 175.782 258.76 175.906C258.8 175.759 258.85 175.615 258.912 175.476C258.977 175.327 259.042 175.157 259.122 174.964L259.477 174.296C260.261 172.888 261.309 171.652 262.561 170.66C264.425 169.157 266.657 168.208 269.012 167.915C270.393 167.746 271.793 167.814 273.153 168.115C274.565 168.397 275.976 168.857 277.432 169.287C278.822 169.729 280.258 170 281.711 170.096C283.534 170.158 285.344 169.756 286.979 168.926C288.613 168.096 290.022 166.864 291.079 165.34C291.966 164.039 292.586 162.567 292.904 161.014C293.114 159.894 293.106 159.256 293.15 159.263Z" fill="#EB434A"/>
</g>
<path d="M180.365 175.053C180.365 175.053 233.043 198.856 232.812 198.329C232.58 197.802 241.174 182.169 241.174 182.169L198.494 160.547L180.365 175.053Z" fill="#FFF2F3"/>
<path d="M204.576 163.633C204.949 163.761 205.312 163.917 205.662 164.101L208.558 165.503C211.005 166.698 214.35 168.375 218.064 170.252C221.778 172.129 225.109 173.843 227.52 175.105L230.365 176.589C230.721 176.76 231.062 176.961 231.386 177.19C231.011 177.07 230.648 176.916 230.3 176.73L227.404 175.327C224.964 174.133 221.612 172.456 217.898 170.578C214.184 168.701 210.853 166.987 208.442 165.726L205.597 164.242C205.242 164.066 204.901 163.863 204.576 163.633Z" fill="#1E3344"/>
<g opacity="0.6">
<path d="M216.117 170.861C216.049 171.421 215.882 171.964 215.624 172.463C214.925 173.842 213.828 174.967 212.482 175.684C211.578 176.195 210.601 176.555 209.586 176.752C208.406 176.938 207.205 176.938 206.024 176.752C203.347 176.277 200.757 175.386 198.342 174.11C195.938 172.863 193.418 171.863 190.82 171.128C189.694 170.837 188.535 170.7 187.374 170.72C186.361 170.748 185.356 170.922 184.391 171.239C182.978 171.668 181.707 172.484 180.713 173.598C180.374 174.026 180.058 174.472 179.765 174.934C179.963 174.411 180.247 173.927 180.604 173.502C181.581 172.317 182.867 171.442 184.311 170.979C185.295 170.637 186.322 170.442 187.359 170.4C188.551 170.365 189.742 170.495 190.9 170.786C193.512 171.518 196.043 172.528 198.451 173.799C200.835 175.056 203.387 175.946 206.024 176.44C207.171 176.622 208.338 176.622 209.485 176.44C210.481 176.264 211.443 175.928 212.337 175.446C213.653 174.772 214.744 173.714 215.472 172.404C215.721 171.905 215.936 171.389 216.117 170.861Z" fill="#EB434A"/>
</g>
<g opacity="0.6">
<path d="M238.48 187.192C238.48 187.259 237.315 187.066 235.432 187.029C234.332 187.018 233.231 187.077 232.138 187.207C230.801 187.374 229.477 187.642 228.178 188.008C226.886 188.394 225.623 188.875 224.399 189.448C223.402 189.928 222.434 190.471 221.503 191.073C219.917 192.111 219.034 192.905 218.99 192.846C219.16 192.624 219.358 192.424 219.577 192.252C220.14 191.746 220.735 191.278 221.358 190.85C222.279 190.202 223.247 189.626 224.254 189.129C226.716 187.908 229.367 187.137 232.087 186.851C233.199 186.736 234.317 186.706 235.432 186.762C236.182 186.788 236.93 186.867 237.669 186.999C237.947 187.025 238.22 187.09 238.48 187.192Z" fill="#EB434A"/>
</g>
<g opacity="0.2">
<path d="M244.975 143.948C244.106 146.441 245.409 149.142 246.684 151.442C247.495 153.094 248.523 154.624 249.739 155.991C250.348 156.674 251.086 157.224 251.909 157.607C252.732 157.989 253.621 158.197 254.525 158.217C256.892 158.135 259.006 156.347 261.374 156.488C262.981 156.584 264.385 157.556 265.718 158.476C267.977 160.157 270.428 161.55 273.016 162.624C275.627 163.695 278.504 163.879 281.226 163.151C282.575 162.768 283.806 162.037 284.801 161.028C285.796 160.018 286.522 158.764 286.909 157.386" fill="black"/>
</g>
<path d="M245.17 143.265C245.294 140.357 245.446 137.73 245.446 137.73C245.446 137.73 251.788 136.906 252.056 130.31C252.324 123.714 251.686 108.414 251.686 108.414L240.052 102.641L227.505 113.029L229.467 143.451C229.605 145.56 230.544 147.53 232.083 148.938C233.622 150.346 235.638 151.08 237.699 150.982C239.659 150.882 241.512 150.035 242.894 148.608C244.276 147.18 245.088 145.275 245.17 143.265Z" fill="#FFBE9D"/>
<path d="M250.594 120.367C250.592 120.529 250.544 120.687 250.456 120.821C250.367 120.956 250.242 121.06 250.096 121.122C249.95 121.183 249.789 121.199 249.634 121.168C249.479 121.136 249.336 121.059 249.224 120.945C249.112 120.831 249.035 120.685 249.003 120.527C248.971 120.368 248.985 120.204 249.044 120.053C249.103 119.903 249.204 119.774 249.334 119.682C249.464 119.59 249.617 119.539 249.775 119.536C249.991 119.536 250.198 119.624 250.351 119.779C250.505 119.935 250.592 120.146 250.594 120.367Z" fill="#1E3344"/>
<path d="M251.375 118.601C251.274 118.713 250.651 118.186 249.804 118.156C248.957 118.126 248.291 118.572 248.197 118.453C248.103 118.334 248.255 118.193 248.537 117.985C248.912 117.713 249.366 117.577 249.826 117.6C250.284 117.626 250.723 117.8 251.078 118.097C251.339 118.334 251.426 118.549 251.375 118.601Z" fill="#1E3344"/>
<path d="M240.978 120.367C240.978 120.531 240.931 120.691 240.842 120.828C240.754 120.964 240.628 121.07 240.481 121.134C240.334 121.197 240.171 121.214 240.014 121.183C239.857 121.153 239.713 121.075 239.599 120.96C239.485 120.845 239.407 120.699 239.374 120.538C239.341 120.378 239.355 120.212 239.414 120.06C239.473 119.907 239.575 119.777 239.706 119.684C239.838 119.591 239.993 119.539 240.153 119.536C240.26 119.535 240.367 119.556 240.466 119.597C240.566 119.639 240.657 119.7 240.733 119.777C240.81 119.854 240.871 119.946 240.913 120.047C240.955 120.148 240.977 120.257 240.978 120.367Z" fill="#1E3344"/>
<path d="M241.76 118.772C241.659 118.883 241.036 118.356 240.182 118.327C239.327 118.297 238.669 118.742 238.582 118.624C238.495 118.505 238.64 118.364 238.922 118.156C239.295 117.884 239.746 117.749 240.203 117.77C240.664 117.791 241.105 117.969 241.456 118.275C241.724 118.505 241.811 118.72 241.76 118.772Z" fill="#1E3344"/>
<path d="M245.019 126.422C245.49 126.284 245.977 126.209 246.467 126.199C246.684 126.199 246.901 126.148 246.937 125.984C246.964 125.728 246.916 125.47 246.8 125.242C246.604 124.641 246.394 124.018 246.17 123.358C245.587 121.758 245.12 120.116 244.772 118.446C245.474 119.993 246.06 121.593 246.525 123.231C246.735 123.892 246.937 124.523 247.125 125.124C247.262 125.422 247.298 125.759 247.227 126.081C247.195 126.163 247.145 126.237 247.081 126.296C247.017 126.355 246.941 126.398 246.858 126.422C246.734 126.453 246.608 126.468 246.481 126.467C245.994 126.519 245.502 126.504 245.019 126.422Z" fill="#1E3344"/>
<path d="M242.166 127.335C241.282 126.741 244.62 128.819 246.387 128.782C246.085 129.247 245.636 129.592 245.115 129.758C244.594 129.925 244.033 129.902 243.527 129.694C241.659 128.9 242.166 127.335 242.166 127.335Z" fill="white"/>
<path d="M245.446 137.73C242.441 137.645 239.525 136.666 237.055 134.911C237.055 134.911 239.031 139.741 245.337 139.363L245.446 137.73Z" fill="#EB996E"/>
<path d="M220.663 119.536C220.663 125.272 219.179 140.446 229.351 142.538L229.011 121.688C229.011 121.688 238.893 116.91 240.595 106.959L240.653 107.019C241.283 108.503 242.412 111.745 241.724 114.372L250.984 116.709L252.048 117.704C252.048 117.704 255.343 110.284 248.986 103.606C242.629 96.9276 237.192 101.758 233.782 101.38C231.516 101.098 223.646 101.15 220.453 115.025L220.663 119.536Z" fill="#1E3344"/>
<path d="M229.265 121.888C228.403 121.339 227.223 121.792 226.542 122.556C225.996 123.163 225.658 123.935 225.577 124.757C225.497 125.578 225.679 126.404 226.097 127.11C226.514 127.816 227.144 128.364 227.892 128.67C228.64 128.977 229.464 129.027 230.242 128.811" fill="#FFBE9D"/>
<path d="M229.069 126.83C229.069 126.875 228.779 126.927 228.345 126.83C228.039 126.751 227.756 126.598 227.521 126.384C227.285 126.17 227.103 125.9 226.991 125.598C226.871 125.245 226.887 124.858 227.034 124.515C227.154 124.247 227.344 124.018 227.584 123.855C227.99 123.588 228.308 123.61 228.308 123.654C228.308 123.699 228.055 123.795 227.751 124.077C227.556 124.242 227.414 124.464 227.345 124.713C227.275 124.962 227.28 125.227 227.36 125.472C227.458 125.722 227.604 125.948 227.791 126.137C227.978 126.326 228.201 126.474 228.446 126.57C228.801 126.719 229.069 126.771 229.069 126.83Z" fill="#EB996E"/>
<path d="M228.222 128.136C228.045 128.172 227.888 128.274 227.781 128.422C227.674 128.57 227.625 128.753 227.642 128.936C227.66 129.12 227.743 129.29 227.876 129.414C228.01 129.537 228.183 129.606 228.363 129.606C228.542 129.606 228.716 129.537 228.849 129.414C228.982 129.29 229.066 129.12 229.083 128.936C229.101 128.753 229.051 128.57 228.944 128.422C228.837 128.274 228.68 128.172 228.504 128.136" fill="#FFF2F3"/>
<path d="M246.974 176.596V165.696C246.974 165.696 231.183 169.05 230.894 176.462L246.974 176.596Z" fill="#FFBE9D"/>
<path d="M245.33 142.115C245.595 145.472 247.068 148.609 249.463 150.915C251.858 153.221 255.004 154.533 258.29 154.596C260.621 154.633 263.075 154.069 265.204 155.041C267.057 155.894 268.252 157.727 269.707 159.174C271.443 160.852 273.587 162.023 275.915 162.563C278.243 163.103 280.669 162.994 282.942 162.246C284.86 161.585 287.894 160.176 288.249 158.143C288.524 156.592 286.67 155.048 285.584 153.943C284.438 152.89 283.122 152.046 281.697 151.45C270.446 146.033 258.377 142.101 245.967 141.425" fill="#1E3344"/>
</svg>
