<svg width="875" height="372" viewBox="0 0 875 372" fill="none" xmlns="http://www.w3.org/2000/svg">
<path d="M424.567 59.2737L343.504 76.3225L367.467 184.319L448.531 167.271L424.567 59.2737Z" fill="#EBEBEB"/>
<path d="M810.508 14.8904H534.225V189.8H810.508V14.8904Z" fill="#EBEBEB"/>
<path d="M708.891 103.441C713.713 83.7819 701.252 64.0395 681.059 59.3452C660.866 54.6508 640.588 66.7822 635.766 86.4413C630.944 106.1 643.405 125.843 663.598 130.537C683.791 135.232 704.069 123.1 708.891 103.441Z" fill="black" fill-opacity="0.05"/>
<path d="M684.996 94.962L675.182 100.473L665.353 105.998V94.962V83.926L675.182 89.4369L684.996 94.962Z" fill="#EBEBEB"/>
<path d="M810.508 158.387H534.225V189.815H810.508V158.387Z" fill="black" fill-opacity="0.05"/>
<path d="M561.064 174.094L557.086 176.344L553.093 178.579V174.094V169.622L557.086 171.858L561.064 174.094Z" fill="#EBEBEB"/>
<path d="M787.763 173.382H583.97V174.806H787.763V173.382Z" fill="#EBEBEB"/>
<path d="M588.094 174.094C588.097 174.68 587.921 175.254 587.589 175.743C587.256 176.232 586.782 176.614 586.227 176.84C585.671 177.067 585.059 177.127 584.468 177.015C583.876 176.902 583.333 176.621 582.906 176.207C582.479 175.794 582.188 175.266 582.069 174.691C581.951 174.116 582.01 173.52 582.24 172.978C582.47 172.436 582.86 171.972 583.36 171.646C583.861 171.32 584.45 171.146 585.052 171.146C585.856 171.146 586.628 171.456 587.198 172.008C587.768 172.561 588.091 173.311 588.094 174.094Z" fill="#EBEBEB"/>
<path d="M1004.6 140.872H737.813C733.378 140.872 729.783 144.372 729.783 148.689V381.229C729.783 385.546 733.378 389.046 737.813 389.046H1004.6C1009.04 389.046 1012.63 385.546 1012.63 381.229V148.689C1012.63 144.372 1009.04 140.872 1004.6 140.872Z" fill="#EBEBEB"/>
<path d="M739.159 140.872H1003.26C1005.74 140.872 1008.13 141.833 1009.89 143.545C1011.65 145.257 1012.63 147.579 1012.63 149.999V168.583H729.783V149.999C729.783 148.801 730.026 147.614 730.497 146.506C730.968 145.399 731.659 144.393 732.529 143.545C733.4 142.697 734.433 142.025 735.571 141.566C736.708 141.108 737.928 140.872 739.159 140.872Z" fill="black" fill-opacity="0.05"/>
<path d="M747.043 156.949C748.279 156.949 749.28 155.973 749.28 154.77C749.28 153.567 748.279 152.591 747.043 152.591C745.807 152.591 744.805 153.567 744.805 154.77C744.805 155.973 745.807 156.949 747.043 156.949Z" fill="white"/>
<path d="M762.664 154.77C762.667 155.201 762.538 155.624 762.294 155.984C762.05 156.344 761.702 156.626 761.293 156.793C760.884 156.96 760.434 157.005 759.999 156.923C759.564 156.84 759.164 156.634 758.849 156.33C758.535 156.026 758.32 155.638 758.233 155.214C758.145 154.791 758.188 154.353 758.357 153.954C758.526 153.555 758.813 153.214 759.181 152.974C759.55 152.734 759.983 152.605 760.426 152.605C761.017 152.605 761.584 152.833 762.004 153.239C762.423 153.644 762.66 154.195 762.664 154.77Z" fill="white"/>
<path d="M773.809 156.949C775.045 156.949 776.047 155.973 776.047 154.77C776.047 153.567 775.045 152.591 773.809 152.591C772.573 152.591 771.571 153.567 771.571 154.77C771.571 155.973 772.573 156.949 773.809 156.949Z" fill="white"/>
<path d="M978.612 190.925H871.808V194.685H978.612V190.925Z" fill="white"/>
<path d="M978.612 206.404H871.808V210.163H978.612V206.404Z" fill="white"/>
<path d="M978.612 221.897H871.808V225.657H978.612V221.897Z" fill="white"/>
<path d="M978.612 237.39H871.808V241.15H978.612V237.39Z" fill="white"/>
<path d="M925.21 252.869H871.808V256.628H925.21V252.869Z" fill="white"/>
<path d="M758.364 287.102H865.168V283.343H758.364V287.102Z" fill="white"/>
<path d="M758.364 302.581H865.168V298.822H758.364V302.581Z" fill="white"/>
<path d="M758.364 318.074H865.168V314.315H758.364V318.074Z" fill="white"/>
<path d="M758.364 333.553H865.168V329.794H758.364V333.553Z" fill="white"/>
<path d="M811.766 349.046H865.168V345.287H811.766V349.046Z" fill="white"/>
<path d="M849.78 188.647H758.378V262.681H849.78V188.647Z" fill="white"/>
<path d="M758.217 240.324L785.218 221.897L804.071 234.585L833.705 210.178L849.765 225.657V262.681H758.378L758.217 240.324Z" fill="black" fill-opacity="0.05"/>
<path d="M805.652 217.625C809.877 217.625 813.301 214.291 813.301 210.178C813.301 206.065 809.877 202.73 805.652 202.73C801.427 202.73 798.002 206.065 798.002 210.178C798.002 214.291 801.427 217.625 805.652 217.625Z" fill="black" fill-opacity="0.05"/>
<path d="M85.771 256.529H426.046V429.346C426.046 431.102 425.329 432.786 424.054 434.028C422.778 435.27 421.048 435.967 419.244 435.967H92.5724C90.7686 435.967 89.0386 435.27 87.7631 434.028C86.4876 432.786 85.771 431.102 85.771 429.346V256.529Z" fill="#EBEBEB"/>
<path d="M426.046 256.529H85.771V289.865H426.046V256.529Z" fill="black" fill-opacity="0.05"/>
<path d="M106.526 275.881C108.013 275.881 109.218 274.708 109.218 273.261C109.218 271.814 108.013 270.641 106.526 270.641C105.04 270.641 103.835 271.814 103.835 273.261C103.835 274.708 105.04 275.881 106.526 275.881Z" fill="white"/>
<path d="M122.63 275.881C124.117 275.881 125.322 274.708 125.322 273.261C125.322 271.814 124.117 270.641 122.63 270.641C121.144 270.641 119.939 271.814 119.939 273.261C119.939 274.708 121.144 275.881 122.63 275.881Z" fill="white"/>
<path d="M138.734 275.881C140.221 275.881 141.426 274.708 141.426 273.261C141.426 271.814 140.221 270.641 138.734 270.641C137.248 270.641 136.043 271.814 136.043 273.261C136.043 274.708 137.248 275.881 138.734 275.881Z" fill="white"/>
<path d="M385.135 316.75H256.64V321.278H385.135V316.75Z" fill="black" fill-opacity="0.05"/>
<path d="M385.135 335.376H256.64V339.904H385.135V335.376Z" fill="black" fill-opacity="0.05"/>
<path d="M385.135 354.002H256.64V358.53H385.135V354.002Z" fill="black" fill-opacity="0.05"/>
<path d="M224.022 313.574H114.074V402.646H224.022V313.574Z" fill="white"/>
<path d="M113.883 375.746L146.384 353.575L169.055 368.854L204.7 339.477L224.022 358.103V402.646H114.073L113.883 375.746Z" fill="black" fill-opacity="0.05"/>
<path d="M180.157 339.477C180.157 341.252 179.616 342.987 178.603 344.463C177.589 345.938 176.149 347.088 174.465 347.767C172.78 348.445 170.927 348.622 169.139 348.275C167.351 347.928 165.709 347.072 164.421 345.816C163.133 344.56 162.256 342.96 161.902 341.219C161.548 339.477 161.733 337.673 162.433 336.034C163.132 334.395 164.316 332.995 165.833 332.011C167.35 331.027 169.133 330.503 170.956 330.506C173.398 330.51 175.738 331.456 177.463 333.138C179.188 334.821 180.157 337.1 180.157 339.477Z" fill="black" fill-opacity="0.05"/>
<path d="M414.355 78.7645L333.292 95.8132L357.256 203.81L438.319 186.761L414.355 78.7645Z" fill="white"/>
<path d="M438.288 186.782L438.156 186.255C438.069 185.899 437.952 185.386 437.805 184.731C437.484 183.307 437.03 181.399 436.445 178.85C435.29 173.681 433.593 166.176 431.443 156.678C427.186 137.682 421.204 110.74 414.008 78.8566L414.417 79.1129L333.371 96.2009L333.663 95.7594C342.586 136.101 350.85 173.453 357.549 203.77L357.183 203.528L416.085 191.31L432.481 187.935L436.869 187.066L438.332 186.782C438.332 186.782 437.864 186.91 436.869 187.123L432.613 188.049L416.319 191.552L357.3 204.126H356.993V203.841C350.25 173.524 341.942 136.187 332.961 95.8591V95.4889H333.327L414.388 78.4009H414.725L414.798 78.7284C421.818 110.74 427.757 137.782 431.94 156.835C434.002 166.319 435.641 173.809 436.752 178.964C437.308 181.498 437.718 183.464 438.01 184.802L438.317 186.297C438.316 186.459 438.306 186.621 438.288 186.782Z" fill="#A3A3A3"/>
<path d="M387.607 107.109C387.607 107.322 378.831 109.33 367.992 111.623C357.154 113.915 348.261 115.596 348.217 115.396C348.173 115.197 356.993 113.189 367.831 110.897C378.67 108.604 387.607 106.909 387.607 107.109Z" fill="#A3A3A3"/>
<path d="M411.009 112.022C411.009 112.221 397.494 115.24 380.747 118.757C363.999 122.274 350.353 124.98 350.309 124.781C350.265 124.581 363.824 121.562 380.586 118.045C397.348 114.528 411.009 111.822 411.009 112.022Z" fill="#A3A3A3"/>
<path d="M413.218 121.804C413.218 122.004 399.717 125.023 382.955 128.554C366.193 132.086 352.575 134.72 352.502 134.578C352.429 134.435 366.003 131.359 382.765 127.828C399.527 124.296 413.174 121.605 413.218 121.804Z" fill="#A3A3A3"/>
<path d="M415.397 131.601C415.397 131.801 401.882 134.82 385.134 138.337C368.387 141.854 354.74 144.56 354.696 144.36C354.653 144.161 368.197 141.142 384.974 137.625C401.75 134.108 415.397 131.402 415.397 131.601Z" fill="#A3A3A3"/>
<path d="M417.562 141.384C417.562 141.584 404.062 144.603 387.299 148.134C370.537 151.666 356.891 154.357 356.891 154.158C356.891 153.958 370.391 150.939 387.153 147.408C403.915 143.876 417.518 141.185 417.562 141.384Z" fill="#A3A3A3"/>
<path d="M419.786 151.182C419.786 151.381 406.271 154.4 389.523 157.917C372.776 161.434 359.129 164.14 359.085 163.941C359.041 163.741 372.585 160.722 389.362 157.191C406.139 153.659 419.698 150.982 419.786 151.182Z" fill="#A3A3A3"/>
<path d="M421.906 160.964C421.906 161.164 408.405 164.183 391.643 167.714C374.881 171.246 361.278 173.937 361.278 173.738C361.278 173.538 374.779 170.52 391.541 166.988C408.303 163.457 421.862 160.765 421.906 160.964Z" fill="#A3A3A3"/>
<path d="M396.017 176.657C396.017 176.856 388.791 178.565 379.781 180.459C370.771 182.353 363.429 183.72 363.385 183.521C363.341 183.321 370.611 181.627 379.621 179.733C388.631 177.839 395.973 176.457 396.017 176.657Z" fill="#A3A3A3"/>
<path d="M793.599 355.226L814.339 407.074L822.998 393.475L834.977 408.797L849.268 395.568L835.65 382.781L848.215 374.507L793.599 355.226Z" fill="#EB434A"/>
<path d="M785.788 362.887C783.417 364.791 780.887 366.501 778.226 368C775.703 369.705 773.036 371.201 770.255 372.471C772.632 370.579 775.161 368.874 777.817 367.373C780.343 365.667 783.009 364.166 785.788 362.887Z" fill="#1E3344"/>
<path d="M787.397 352.435C786.253 352.287 785.133 352 784.062 351.581C782.044 350.954 779.265 350 776.266 348.733C773.268 347.466 770.577 346.383 768.661 345.5C767.59 345.089 766.57 344.564 765.618 343.934C766.738 344.176 767.828 344.539 768.865 345.016L776.544 348.049L784.253 351.026C785.35 351.384 786.404 351.857 787.397 352.435Z" fill="#1E3344"/>
<path d="M793.657 328.896C794.038 329.809 794.293 330.767 794.418 331.744C794.769 333.524 795.193 336.017 795.544 338.765C795.895 341.513 796.129 344.034 796.232 345.885C796.366 346.868 796.366 347.864 796.232 348.847C795.569 345.551 795.081 342.224 794.769 338.879C794.216 335.573 793.845 332.241 793.657 328.896Z" fill="#1E3344"/>
<path d="M822.37 340.502C822.457 340.702 818.625 342.311 814.296 345.016C809.966 347.722 806.543 350.071 806.412 349.886C806.28 349.701 807.129 349.117 808.474 348.106C810.212 346.779 812.018 345.538 813.886 344.39C816.471 342.641 819.338 341.327 822.37 340.502Z" fill="#1E3344"/>
<path d="M752.074 252.77H374.603C355.386 252.77 339.807 267.937 339.807 286.647V290.363C339.807 309.073 355.386 324.24 374.603 324.24H752.074C771.292 324.24 786.871 309.073 786.871 290.363V286.647C786.871 267.937 771.292 252.77 752.074 252.77Z" fill="white"/>
<path d="M687.819 252.129V324.24H750.348C760.172 324.24 769.593 320.442 776.541 313.681C783.489 306.919 787.394 297.748 787.398 288.185C787.398 283.448 786.439 278.759 784.577 274.383C782.715 270.008 779.986 266.033 776.545 262.684C773.105 259.336 769.02 256.681 764.525 254.869C760.03 253.058 755.213 252.127 750.348 252.129H687.819Z" fill="#EB434A"/>
<path d="M745.96 286.177C745.822 284.941 745.612 283.715 745.331 282.503C744.426 279.22 742.418 276.328 739.627 274.286C737.581 272.784 735.18 271.807 732.645 271.444C730.109 271.081 727.521 271.343 725.117 272.207C723.723 272.696 722.416 273.393 721.241 274.272C720.005 275.16 718.915 276.226 718.009 277.433C716.088 279.981 715.053 283.059 715.053 286.219C715.053 289.38 716.088 292.458 718.009 295.005C718.903 296.223 719.995 297.29 721.241 298.167C722.414 299.034 723.716 299.721 725.103 300.203C727.118 300.913 729.263 301.208 731.402 301.069C733.541 300.929 735.626 300.359 737.527 299.394C739.427 298.429 741.101 297.089 742.442 295.461C743.783 293.833 744.762 291.952 745.317 289.936C745.598 288.719 745.808 287.488 745.946 286.248C746.034 287.511 745.916 288.78 745.595 290.007C744.774 293.404 742.774 296.422 739.934 298.551C737.827 300.142 735.34 301.189 732.706 301.592C730.072 301.995 727.376 301.743 724.869 300.858C723.408 300.367 722.036 299.656 720.802 298.751C719.499 297.831 718.354 296.716 717.409 295.447C715.385 292.779 714.293 289.55 714.293 286.234C714.293 282.917 715.385 279.688 717.409 277.02C719.288 274.535 721.885 272.651 724.869 271.609C727.555 270.676 730.449 270.459 733.25 270.983C736.226 271.541 738.974 272.923 741.164 274.964C743.354 277.005 744.892 279.618 745.595 282.489C745.915 283.692 746.038 284.936 745.96 286.177Z" fill="white"/>
<path d="M760.47 307.48C757.336 305.736 754.326 303.791 751.46 301.656C748.452 299.708 745.588 297.557 742.889 295.219C746.026 296.956 749.037 298.902 751.899 301.043C754.907 302.991 757.771 305.142 760.47 307.48Z" fill="black"/>
<path d="M655.612 281.805H382.312V297.099H655.612V281.805Z" fill="black" fill-opacity="0.05"/>
<path d="M752.074 324.24C752.074 324.24 752.937 324.24 754.605 324.084C755.641 324.023 756.672 323.895 757.691 323.699C759.11 323.483 760.513 323.174 761.889 322.774C765.739 321.635 769.36 319.863 772.596 317.533L774.058 316.48C774.526 316.081 774.98 315.654 775.448 315.241C776.436 314.38 777.364 313.458 778.227 312.478C779.177 311.51 779.923 310.328 780.83 309.203L781.971 307.366L782.556 306.412L783.054 305.401C784.52 302.562 785.555 299.53 786.125 296.401C786.242 295.575 786.374 294.735 786.505 293.895C786.637 293.055 786.608 292.172 786.652 291.303C786.652 289.566 786.652 287.743 786.652 285.921C786.443 277.309 782.853 269.104 776.62 262.991C770.387 256.877 761.985 253.322 753.142 253.055C743.167 252.969 732.577 253.055 721.49 253.055L374.619 253.169C366.21 253.199 358.101 256.206 351.801 261.627C345.567 266.969 341.547 274.341 340.494 282.361C340.352 283.342 340.269 284.331 340.246 285.322C340.246 286.305 340.173 287.302 340.246 288.299C340.22 290.281 340.298 292.262 340.48 294.237C340.926 298.151 342.101 301.953 343.946 305.458C347.579 312.442 353.592 317.979 360.957 321.122C364.58 322.626 368.437 323.526 372.366 323.785C374.311 323.913 376.286 323.899 378.217 323.899H452.462L608.411 323.984L713.533 324.098L742.128 324.169L713.533 324.24L608.411 324.354L452.462 324.44H378.202C376.227 324.44 374.267 324.44 372.264 324.326C366.162 323.953 360.268 322.027 355.17 318.741C350.072 315.455 345.95 310.924 343.215 305.6C341.33 302.02 340.13 298.136 339.675 294.137C339.483 292.135 339.4 290.124 339.427 288.113C339.427 287.117 339.427 286.12 339.5 285.109C339.517 284.094 339.6 283.081 339.749 282.076C340.818 273.881 344.921 266.347 351.289 260.887C357.751 255.331 366.071 252.258 374.692 252.243L721.563 252.357C732.665 252.357 743.225 252.357 753.23 252.428C762.182 252.707 770.684 256.318 776.983 262.517C783.283 268.716 786.9 277.031 787.091 285.75C787.091 287.601 787.091 289.395 787.091 291.161C787.091 292.044 786.988 292.912 786.93 293.767C786.871 294.621 786.666 295.476 786.535 296.301C785.953 299.458 784.898 302.514 783.405 305.372L782.907 306.398L782.308 307.337C781.913 307.978 781.532 308.591 781.137 309.203C780.318 310.338 779.439 311.431 778.505 312.478C777.645 313.469 776.711 314.397 775.711 315.255C775.228 315.682 774.76 316.109 774.248 316.494L772.786 317.562C769.522 319.887 765.87 321.645 761.991 322.759C760.605 323.152 759.193 323.452 757.764 323.657C756.74 323.842 755.704 323.956 754.663 323.998C752.937 324.226 752.074 324.24 752.074 324.24Z" fill="#1E3344"/>
<path d="M558.373 279.812C557.042 278.302 556.911 276.964 559.909 276.764C566.506 276.18 571.362 273.375 572.137 271.752C572.912 270.128 570.806 268.548 569.022 269.516C566.972 270.382 564.812 270.976 562.6 271.282C560.824 271.574 559.009 271.574 557.232 271.282C555.697 271.054 554.307 270.798 553.137 270.556C553.137 270.556 546.16 269.132 543.147 266.796L528.374 282.161L535.307 289.78C536.345 291.201 537.739 292.34 539.358 293.088C540.976 293.835 542.764 294.167 544.551 294.052C550.49 293.482 558.49 289.338 558.49 289.338C559.573 287.715 569.139 293.468 572.225 295.618C575.311 297.768 577.578 297.227 577.461 295.162C577.388 293.738 568.115 286.932 565.014 284.867C562.616 283.409 560.389 281.699 558.373 279.769" fill="#FFBE9D"/>
<path d="M549.7 293.154C549.7 293.254 549.275 293.425 548.5 293.411C547.504 293.348 546.548 293.002 545.752 292.414C544.956 291.827 544.355 291.024 544.024 290.107C543.79 289.409 543.864 288.939 543.951 288.925C544.515 290.005 545.285 290.972 546.218 291.773C547.276 292.449 548.458 292.919 549.7 293.154Z" fill="#EB996E"/>
<path d="M555.55 290.919C555.55 291.004 555.126 291.161 554.395 291.118C553.443 291.027 552.539 290.675 551.785 290.102C551.032 289.53 550.46 288.761 550.138 287.886C549.919 287.216 549.963 286.775 550.05 286.761C550.138 286.746 550.665 288.341 552.259 289.523C553.275 290.152 554.385 290.623 555.55 290.919Z" fill="#EB996E"/>
<path d="M571.479 131.06C572.093 143.677 587.905 160.964 599.665 163.812C605.837 165.236 612.946 164.596 617.846 168.64C626.256 175.575 621.341 190 627.002 199.256C630.483 204.952 637.401 207.8 641.321 213.197C647.83 222.225 643.457 235.867 634.578 242.588C625.7 249.309 613.853 250.591 602.722 250.306C578.222 249.694 553.137 242.118 535.439 225.215C527.116 217.269 494.572 192.762 505.922 134.649" fill="#1E3344"/>
<path d="M659.883 221.342L566.755 194.428C562.414 192.581 557.862 191.247 553.196 190.455L521.748 190.655C517.596 190.668 513.49 191.506 509.681 193.118L424.92 220.53C418.645 222.467 414.315 228.732 414.315 235.867C414.315 244.653 420.824 251.787 428.854 251.787H468.054L467.893 252.342L604.038 252.841L656.006 252.94C664.037 252.94 670.545 245.749 670.545 236.863C670.487 229.63 666.157 223.293 659.883 221.342Z" fill="#FFF2F3"/>
<path d="M641.219 231.153C640.937 231.182 640.653 231.182 640.371 231.153L637.972 230.883C635.895 230.627 632.882 230.299 629.196 229.957C619.474 229.044 609.709 228.645 599.943 228.761C590.192 228.901 580.457 229.547 570.777 230.698C567.062 231.139 564.049 231.538 562.001 231.851L559.602 232.179C559.327 232.228 559.048 232.252 558.769 232.25C559.024 232.14 559.296 232.069 559.573 232.036L561.943 231.566C564.005 231.168 567.003 230.683 570.719 230.142C580.415 228.84 590.185 228.122 599.972 227.992C609.744 227.874 619.514 228.35 629.225 229.416C632.955 229.829 635.968 230.242 638.001 230.584L640.385 230.983C640.67 231.001 640.951 231.059 641.219 231.153Z" fill="#1E3344"/>
<g opacity="0.6">
<path d="M619.367 209.124C619.296 209.237 619.207 209.338 619.104 209.423L618.285 210.263C617.553 210.99 616.471 212.072 614.994 213.382C613.211 214.98 611.32 216.46 609.333 217.811C606.696 219.642 603.751 221.011 600.63 221.855C596.801 222.779 592.789 222.701 589.002 221.627C584.721 220.336 580.608 218.568 576.745 216.358C572.542 213.914 568.098 211.886 563.478 210.306C558.511 208.647 553.078 208.917 548.311 211.061C543.411 213.211 539.242 216.486 534.693 218.85C533.567 219.462 532.368 219.932 531.212 220.445C530.039 220.889 528.843 221.274 527.629 221.598C525.29 222.248 522.888 222.654 520.461 222.809C512.003 223.407 503.59 221.154 496.635 216.429C494.081 214.531 491.676 212.451 489.438 210.206C487.742 208.547 485.875 207.063 483.866 205.778C482.13 204.713 480.188 204.005 478.161 203.699C478.697 203.707 479.231 203.765 479.755 203.87C481.264 204.184 482.708 204.742 484.026 205.521C486.08 206.786 487.992 208.256 489.731 209.907C491.98 212.106 494.39 214.143 496.942 216.002C503.821 220.589 512.104 222.75 520.418 222.125C522.794 221.967 525.148 221.566 527.438 220.929C528.624 220.605 529.79 220.22 530.934 219.776C532.06 219.277 533.231 218.822 534.328 218.209C538.818 215.888 542.972 212.599 548.003 210.377C552.94 208.173 558.558 207.897 563.698 209.608C568.361 211.214 572.845 213.276 577.081 215.76C580.889 217.958 584.943 219.726 589.163 221.029C592.847 222.107 596.758 222.215 600.499 221.342C603.571 220.538 606.48 219.228 609.099 217.469C611.09 216.168 612.991 214.741 614.789 213.197C616.251 211.929 617.407 210.89 618.182 210.206L619.045 209.409C619.25 209.195 619.352 209.11 619.367 209.124Z" fill="#EB434A"/>
</g>
<g opacity="0.2">
<path d="M474.65 230.968L533.523 241.776L526.721 252.556L524.922 252.585L474.65 230.968Z" fill="black"/>
</g>
<g opacity="0.6">
<path d="M652.847 219.647C652.879 219.936 652.879 220.227 652.847 220.516C652.814 221.356 652.726 222.193 652.584 223.022C651.645 228.231 648.807 232.934 644.59 236.267C640.374 239.601 635.063 241.34 629.634 241.164C626.655 240.983 623.709 240.457 620.858 239.598C617.933 238.786 615.081 237.889 612.287 237.348C609.619 236.768 606.87 236.629 604.155 236.935C600.281 237.387 596.559 238.672 593.258 240.696C589.957 242.721 587.159 245.434 585.067 248.64L584.306 249.879C584.121 250.24 583.96 250.553 583.824 250.819C583.703 251.091 583.551 251.349 583.37 251.588C583.451 251.305 583.553 251.029 583.677 250.762C583.809 250.477 583.941 250.149 584.101 249.779L584.818 248.498C586.403 245.795 588.521 243.424 591.049 241.52C594.816 238.636 599.324 236.813 604.081 236.251C606.873 235.928 609.7 236.058 612.448 236.636C615.3 237.177 618.152 238.06 621.092 238.886C623.901 239.732 626.803 240.253 629.737 240.438C633.42 240.556 637.077 239.784 640.379 238.191C643.682 236.599 646.528 234.234 648.664 231.31C650.455 228.813 651.708 225.989 652.349 223.008C652.774 220.858 652.759 219.633 652.847 219.647Z" fill="#EB434A"/>
</g>
<path d="M424.993 249.95C424.993 249.95 531.417 295.632 530.949 294.621C530.481 293.61 547.843 263.606 547.843 263.606L461.618 222.111L424.993 249.95Z" fill="#FFF2F3"/>
<path d="M473.904 228.035C474.658 228.279 475.391 228.579 476.098 228.932L481.949 231.623C486.893 233.916 493.65 237.134 501.154 240.737C508.657 244.339 515.386 247.629 520.256 250.05L526.004 252.898C526.724 253.226 527.413 253.612 528.067 254.051C527.31 253.822 526.575 253.526 525.873 253.168L520.022 250.477C515.093 248.184 508.321 244.966 500.817 241.363C493.314 237.761 486.586 234.471 481.715 232.05L475.967 229.202C475.249 228.865 474.56 228.475 473.904 228.035Z" fill="#1E3344"/>
<g opacity="0.6">
<path d="M497.22 241.905C497.083 242.98 496.746 244.022 496.225 244.98C494.813 247.627 492.596 249.785 489.877 251.161C488.051 252.141 486.076 252.833 484.027 253.211C481.642 253.569 479.215 253.569 476.83 253.211C471.422 252.3 466.189 250.59 461.311 248.142C456.453 245.747 451.363 243.829 446.114 242.417C443.839 241.86 441.498 241.597 439.152 241.634C437.105 241.688 435.076 242.023 433.126 242.631C430.272 243.454 427.703 245.019 425.695 247.159C425.011 247.98 424.371 248.836 423.779 249.722C424.18 248.719 424.754 247.789 425.476 246.974C427.449 244.7 430.047 243.021 432.965 242.132C434.952 241.476 437.026 241.102 439.123 241.022C441.53 240.954 443.936 241.203 446.275 241.762C451.553 243.167 456.666 245.104 461.531 247.544C466.347 249.956 471.502 251.664 476.83 252.613C479.147 252.962 481.505 252.962 483.822 252.613C485.833 252.274 487.778 251.631 489.585 250.705C492.243 249.412 494.447 247.38 495.918 244.866C496.42 243.909 496.855 242.919 497.22 241.905Z" fill="#EB434A"/>
</g>
<g opacity="0.6">
<path d="M542.401 273.247C542.401 273.375 540.046 273.005 536.244 272.934C534.02 272.913 531.797 273.027 529.588 273.275C526.886 273.596 524.212 274.11 521.588 274.813C518.977 275.553 516.426 276.477 513.952 277.576C511.939 278.498 509.985 279.539 508.102 280.694C504.899 282.688 503.114 284.212 503.026 284.098C503.37 283.671 503.768 283.288 504.211 282.958C505.35 281.987 506.552 281.088 507.809 280.267C509.671 279.023 511.626 277.919 513.66 276.963C518.634 274.621 523.99 273.142 529.486 272.592C531.731 272.371 533.99 272.314 536.244 272.421C537.759 272.471 539.269 272.623 540.763 272.877C541.324 272.927 541.875 273.052 542.401 273.247Z" fill="#EB434A"/>
</g>
<g opacity="0.2">
<path d="M555.521 190.256C553.766 195.041 556.399 200.224 558.973 204.639C560.613 207.808 562.69 210.745 565.146 213.368C566.376 214.68 567.868 215.735 569.53 216.469C571.191 217.203 572.989 217.601 574.814 217.64C579.597 217.483 583.868 214.051 588.651 214.322C591.898 214.507 594.735 216.372 597.427 218.138C601.992 221.363 606.942 224.036 612.17 226.098C617.446 228.153 623.259 228.507 628.757 227.109C631.483 226.374 633.969 224.971 635.979 223.034C637.99 221.097 639.456 218.691 640.239 216.045" fill="black"/>
</g>
<path d="M555.917 188.946C556.165 183.364 556.472 178.323 556.472 178.323C556.472 178.323 569.285 176.742 569.827 164.083C570.368 151.424 569.081 122.061 569.081 122.061L545.576 110.982L520.228 130.918L524.191 189.302C524.47 193.35 526.367 197.131 529.477 199.833C532.586 202.535 536.659 203.943 540.822 203.756C544.782 203.564 548.525 201.938 551.317 199.199C554.11 196.459 555.75 192.802 555.917 188.946Z" fill="#FFBE9D"/>
<path d="M566.871 145.001C566.868 145.312 566.771 145.615 566.592 145.873C566.413 146.13 566.161 146.33 565.865 146.449C565.57 146.567 565.246 146.598 564.932 146.537C564.619 146.477 564.331 146.328 564.105 146.109C563.878 145.891 563.722 145.612 563.658 145.307C563.593 145.003 563.622 144.687 563.741 144.398C563.86 144.11 564.063 143.862 564.326 143.686C564.589 143.509 564.899 143.412 565.218 143.406C565.654 143.406 566.072 143.574 566.382 143.873C566.691 144.171 566.867 144.577 566.871 145.001Z" fill="#1E3344"/>
<path d="M568.451 141.612C568.246 141.826 566.988 140.815 565.277 140.758C563.566 140.701 562.22 141.555 562.03 141.327C561.84 141.1 562.147 140.829 562.717 140.43C563.476 139.907 564.392 139.646 565.321 139.69C566.247 139.74 567.133 140.074 567.851 140.644C568.378 141.1 568.553 141.512 568.451 141.612Z" fill="#1E3344"/>
<path d="M547.447 145.001C547.447 145.316 547.352 145.623 547.173 145.884C546.994 146.146 546.74 146.35 546.443 146.472C546.145 146.593 545.817 146.627 545.5 146.567C545.183 146.508 544.891 146.359 544.661 146.139C544.431 145.919 544.273 145.637 544.206 145.33C544.14 145.022 544.168 144.702 544.287 144.411C544.407 144.119 544.612 143.868 544.878 143.689C545.143 143.51 545.457 143.412 545.78 143.407C545.997 143.405 546.212 143.444 546.413 143.524C546.615 143.603 546.798 143.72 546.953 143.868C547.108 144.016 547.231 144.192 547.316 144.387C547.401 144.581 547.445 144.79 547.447 145.001Z" fill="#1E3344"/>
<path d="M549.027 141.94C548.823 142.153 547.565 141.142 545.839 141.085C544.113 141.028 542.782 141.883 542.606 141.655C542.431 141.427 542.723 141.156 543.294 140.758C544.048 140.236 544.959 139.976 545.883 140.017C546.813 140.058 547.703 140.398 548.413 140.986C548.954 141.427 549.13 141.84 549.027 141.94Z" fill="#1E3344"/>
<path d="M555.609 156.621C556.561 156.356 557.544 156.212 558.534 156.194C558.973 156.194 559.412 156.094 559.485 155.781C559.538 155.29 559.442 154.795 559.207 154.357C558.812 153.204 558.388 152.007 557.934 150.74C556.758 147.669 555.814 144.519 555.111 141.313C556.529 144.283 557.712 147.354 558.651 150.498C559.075 151.765 559.485 152.976 559.865 154.129C560.141 154.702 560.213 155.349 560.07 155.966C560.006 156.124 559.905 156.265 559.776 156.379C559.647 156.493 559.492 156.576 559.324 156.621C559.075 156.681 558.819 156.71 558.563 156.707C557.579 156.808 556.585 156.779 555.609 156.621Z" fill="#1E3344"/>
<path d="M549.846 158.373C548.061 157.234 554.804 161.221 558.373 161.15C557.763 162.043 556.856 162.705 555.804 163.024C554.752 163.343 553.619 163.3 552.596 162.901C548.822 161.377 549.846 158.373 549.846 158.373Z" fill="white"/>
<path d="M556.472 178.323C550.401 178.16 544.511 176.28 539.52 172.912C539.52 172.912 543.513 182.182 556.252 181.456L556.472 178.323Z" fill="#EB996E"/>
<path d="M506.405 143.406C506.405 154.414 503.406 183.535 523.957 187.55L523.269 147.536C523.269 147.536 543.235 138.365 546.672 119.27L546.789 119.384C548.061 122.232 550.343 128.454 548.954 133.495L567.661 137.981L569.811 139.889C569.811 139.889 576.466 125.649 563.624 112.833C550.782 100.017 539.797 109.287 532.908 108.561C528.33 108.02 512.431 108.12 505.98 134.749L506.405 143.406Z" fill="#1E3344"/>
<path d="M523.781 147.921C522.04 146.867 519.656 147.735 518.281 149.202C517.178 150.367 516.494 151.849 516.331 153.425C516.169 155.002 516.537 156.587 517.381 157.941C518.224 159.296 519.497 160.347 521.008 160.936C522.518 161.525 524.185 161.62 525.756 161.207" fill="#FFBE9D"/>
<path d="M523.387 157.404C523.387 157.49 522.802 157.589 521.924 157.404C521.307 157.253 520.736 156.959 520.26 156.548C519.784 156.136 519.416 155.619 519.189 155.04C518.948 154.361 518.979 153.619 519.277 152.961C519.518 152.446 519.903 152.007 520.388 151.694C521.207 151.181 521.851 151.224 521.851 151.31C521.851 151.395 521.339 151.58 520.725 152.121C520.331 152.438 520.045 152.863 519.904 153.341C519.763 153.818 519.774 154.327 519.935 154.798C520.132 155.277 520.429 155.712 520.807 156.074C521.184 156.437 521.634 156.72 522.129 156.906C522.846 157.191 523.387 157.29 523.387 157.404Z" fill="#EB996E"/>
<path d="M521.676 159.911C521.319 159.98 521.002 160.175 520.786 160.459C520.57 160.743 520.47 161.095 520.505 161.447C520.541 161.799 520.709 162.125 520.978 162.362C521.247 162.6 521.598 162.731 521.961 162.731C522.324 162.731 522.674 162.6 522.943 162.362C523.212 162.125 523.381 161.799 523.416 161.447C523.452 161.095 523.352 160.743 523.136 160.459C522.919 160.175 522.602 159.98 522.246 159.911" fill="#FFF2F3"/>
<path d="M559.558 252.912V231.993C559.558 231.993 527.657 238.43 527.072 252.656L559.558 252.912Z" fill="#FFBE9D"/>
<path d="M556.238 186.739C556.774 193.181 559.75 199.2 564.588 203.626C569.427 208.053 575.782 210.57 582.42 210.691C587.13 210.762 592.088 209.679 596.388 211.545C600.133 213.183 602.546 216.7 605.486 219.477C608.994 222.698 613.325 224.944 618.028 225.98C622.731 227.017 627.633 226.807 632.224 225.372C636.1 224.105 642.228 221.399 642.945 217.497C643.501 214.521 639.757 211.559 637.563 209.437C635.245 207.416 632.588 205.798 629.708 204.653C606.978 194.258 582.596 186.71 557.525 185.415" fill="#1E3344"/>
</svg>
