<svg width="21" height="24" viewBox="0 0 21 24" fill="none" xmlns="http://www.w3.org/2000/svg">
<path d="M14.2364 -0.000586885C12.8752 0.091288 11.4183 0.901288 10.5164 1.99441C9.72703 2.95629 9.06515 4.36816 9.3164 5.83441C9.0914 5.76504 8.88703 5.75754 8.6414 5.66941C7.97203 5.43129 7.20703 5.17441 6.2564 5.17441C4.36828 5.17441 2.43515 6.29754 1.2164 8.17441C-0.557345 10.9007 -0.201096 15.6988 2.4914 19.7994C2.96578 20.5194 3.5189 21.305 4.2014 21.9294C4.8839 22.5538 5.7089 23.03 6.6764 23.0394C7.50328 23.0488 8.0789 22.7732 8.5964 22.5444C9.1139 22.3157 9.59578 22.1132 10.5014 22.1094C10.507 22.1094 10.5108 22.1094 10.5164 22.1094C11.4183 22.1019 11.8852 22.3007 12.3914 22.5294C12.8977 22.7582 13.4677 23.0469 14.2964 23.0394C15.2827 23.0319 16.1208 22.4919 16.8164 21.8244C17.512 21.1569 18.0839 20.3375 18.5564 19.6194C19.2333 18.5882 19.5052 18.0257 20.0264 16.8744C20.0808 16.7544 20.0827 16.6157 20.0302 16.4938C19.9795 16.3719 19.8802 16.2763 19.7564 16.2294C18.0502 15.5844 17.077 14.075 16.9364 12.4794C16.7958 10.8838 17.4708 9.24129 19.1714 8.30941C19.297 8.24191 19.3852 8.12379 19.4152 7.98504C19.4433 7.84629 19.4095 7.70004 19.3214 7.58941C18.1008 6.07254 16.3833 5.17441 14.7014 5.17441C13.6289 5.17441 12.8414 5.42754 12.1964 5.66941C12.0895 5.71066 12.0108 5.70691 11.9114 5.74441C12.5658 5.39941 13.1433 4.92129 13.5764 4.36441C14.3639 3.35379 14.9714 1.91566 14.7464 0.404413C14.7089 0.156913 14.4858 -0.0193369 14.2364 -0.000586885ZM13.7264 1.13941C13.6945 2.10879 13.3627 3.05754 12.8114 3.76441C12.2339 4.50691 11.2627 5.02066 10.3214 5.17441C10.3383 4.24254 10.7058 3.27691 11.2664 2.59441C11.8552 1.88191 12.8302 1.36816 13.7264 1.13941ZM6.2564 6.13441C6.6764 6.13441 7.6514 6.33504 8.3114 6.56941C8.9714 6.80379 9.66703 7.07941 10.4864 7.07941C11.287 7.07941 11.9208 6.80191 12.5414 6.56941C13.162 6.33691 13.7808 6.13441 14.7014 6.13441C15.9033 6.13441 17.2027 6.75879 18.2264 7.84441C16.5877 9.00129 15.8208 10.805 15.9764 12.5544C16.132 14.3225 17.197 16.0007 18.9464 16.8744C18.9439 16.8799 18.9414 16.8853 18.9389 16.8907C18.5643 17.7066 18.3146 18.2507 17.7614 19.0944C17.302 19.7938 16.7564 20.5588 16.1564 21.1344C15.5564 21.71 14.9208 22.0738 14.2814 22.0794C13.6645 22.085 13.3139 21.9013 12.7814 21.6594C12.2489 21.4175 11.5608 21.14 10.5014 21.1494C9.4439 21.155 8.7464 21.4213 8.2064 21.6594C7.6664 21.8975 7.31203 22.085 6.6914 22.0794C6.03515 22.0738 5.42578 21.755 4.8464 21.2244C4.26703 20.6938 3.7439 19.97 3.2864 19.2744C0.766404 15.4344 0.563905 10.9232 2.0114 8.69941C3.07265 7.06629 5.8364 6.13441 6.2564 6.13441Z" fill="black"/>
<path d="M6.2564 6.13441C6.6764 6.13441 7.6514 6.33504 8.3114 6.56941C8.9714 6.80379 9.66703 7.07941 10.4864 7.07941C11.287 7.07941 11.9208 6.80191 12.5414 6.56941C13.162 6.33691 13.7808 6.13441 14.7014 6.13441C15.9033 6.13441 17.2027 6.75879 18.2264 7.84441C16.5877 9.00129 15.8208 10.805 15.9764 12.5544C16.132 14.3225 17.197 16.0007 18.9464 16.8744L18.9389 16.8907C18.5643 17.7066 18.3146 18.2507 17.7614 19.0944C17.302 19.7938 16.7564 20.5588 16.1564 21.1344C15.5564 21.71 14.9208 22.0738 14.2814 22.0794C13.6645 22.085 13.3139 21.9013 12.7814 21.6594C12.2489 21.4175 11.5608 21.14 10.5014 21.1494C9.4439 21.155 8.7464 21.4213 8.2064 21.6594C7.6664 21.8975 7.31203 22.085 6.6914 22.0794C6.03515 22.0738 5.42578 21.755 4.8464 21.2244C4.26703 20.6938 3.7439 19.97 3.2864 19.2744C0.766404 15.4344 0.563905 10.9232 2.0114 8.69941C3.07265 7.06629 5.8364 6.13441 6.2564 6.13441Z" fill="black"/>
<path d="M13.7264 1.13941C13.6945 2.10879 13.3627 3.05754 12.8114 3.76441C12.2339 4.50691 11.2627 5.02066 10.3214 5.17441C10.3383 4.24254 10.7058 3.27691 11.2664 2.59441C11.8552 1.88191 12.8302 1.36816 13.7264 1.13941Z" fill="black"/>
</svg>
